<?xml version="1.0" encoding="UTF-8"?><svg xmlns="http://www.w3.org/2000/svg" xmlns:xlink="http://www.w3.org/1999/xlink" clip-rule="evenodd" stroke-miterlimit="4.00" viewBox="0 0 1920 1080"><desc>SVG generated by Keynote</desc><defs></defs><g transform="matrix(1.00, 0.00, -0.00, -1.00, 0.0, 1080.0)"><path d="M 0.0 0.0 L 1920.0 0.0 L 1920.0 1080.0 L 0.0 1080.0 Z M 0.0 0.0 " fill="#FEFFFF"></path><text xml:space="preserve" font-family="Helvetica-Bold" font-weight="bold" font-size="18.0" fill="#FEFFFE" transform="matrix(1.00, 0.00, -0.00, -1.00, 90.0, 980.0)">S</text><text xml:space="preserve" font-family="Helvetica-Bold" font-weight="bold" font-size="18.0" fill="#FEFFFE" transform="matrix(1.00, 0.00, -0.00, -1.00, 102.0, 980.0)">E</text><text xml:space="preserve" font-family="Helvetica-Bold" font-weight="bold" font-size="18.0" fill="#FEFFFE" transform="matrix(1.00, 0.00, -0.00, -1.00, 114.0, 980.0)">C</text><text xml:space="preserve" font-family="Helvetica-Bold" font-weight="bold" font-size="18.0" fill="#FEFFFE" transform="matrix(1.00, 0.00, -0.00, -1.00, 127.0, 980.0)">T</text><text xml:space="preserve" font-family="Helvetica-Bold" font-weight="bold" font-size="18.0" fill="#FEFFFE" transform="matrix(1.00, 0.00, -0.00, -1.00, 138.0, 980.0)">I</text><text xml:space="preserve" font-family="Helvetica-Bold" font-weight="bold" font-size="18.0" fill="#FEFFFE" transform="matrix(1.00, 0.00, -0.00, -1.00, 143.0, 980.0)">O</text><text xml:space="preserve" font-family="Helvetica-Bold" font-weight="bold" font-size="18.0" fill="#FEFFFE" transform="matrix(1.00, 0.00, -0.00, -1.00, 157.0, 980.0)">N</text><text xml:space="preserve" font-family="Helvetica" font-size="18.0" fill="#BEBEBE" transform="matrix(1.00, 0.00, -0.00, -1.00, 1812.0, 62.0)">1</text><text xml:space="preserve" font-family="Helvetica" font-size="18.0" fill="#BEBEBE" transform="matrix(1.00, 0.00, -0.00, -1.00, 1822.0, 62.0)">6</text><text xml:space="preserve" font-family="Lunchtype" font-size="64.0" fill="#101010" transform="matrix(1.00, 0.00, -0.00, -1.00, 240.0, 593.0)">I</text><text xml:space="preserve" font-family="Lunchtype" font-size="64.0" fill="#101010" transform="matrix(1.00, 0.00, -0.00, -1.00, 255.4, 593.0)">n</text><text xml:space="preserve" font-family="Lunchtype" font-size="64.0" fill="#101010" transform="matrix(1.00, 0.00, -0.00, -1.00, 292.7, 593.0)">s</text><text xml:space="preserve" font-family="Lunchtype" font-size="64.0" fill="#101010" transform="matrix(1.00, 0.00, -0.00, -1.00, 324.0, 593.0)">i</text><text xml:space="preserve" font-family="Lunchtype" font-size="64.0" fill="#101010" transform="matrix(1.00, 0.00, -0.00, -1.00, 337.5, 593.0)">g</text><text xml:space="preserve" font-family="Lunchtype" font-size="64.0" fill="#101010" transform="matrix(1.00, 0.00, -0.00, -1.00, 374.7, 593.0)">h</text><text xml:space="preserve" font-family="Lunchtype" font-size="64.0" fill="#101010" transform="matrix(1.00, 0.00, -0.00, -1.00, 408.7, 593.0)">t</text><text xml:space="preserve" font-family="Lunchtype" font-size="64.0" fill="#101010" transform="matrix(1.00, 0.00, -0.00, -1.00, 428.4, 593.0)"> </text><text xml:space="preserve" font-family="Lunchtype" font-size="64.0" fill="#101010" transform="matrix(1.00, 0.00, -0.00, -1.00, 447.6, 593.0)">-</text><text xml:space="preserve" font-family="Lunchtype" font-size="64.0" fill="#101010" transform="matrix(1.00, 0.00, -0.00, -1.00, 476.6, 593.0)"> </text><image xlink:href="../../C258A596-8D3F-4A93-8910-1BFA6324B24E/assets/63D1D9C9036BBC352AF96104FAD359C2.png" width="160.00" height="160.00" transform="matrix(0.41, 0.00, -0.00, -0.41, 496.0, 654.0)"></image><text xml:space="preserve" font-family="Lunchtype" font-size="64.0" fill="#101010" transform="matrix(1.00, 0.00, -0.00, -1.00, 561.8, 593.0)"> </text><text xml:space="preserve" font-family="Lunchtype" font-size="36.0" fill="#101010" transform="matrix(1.00, 0.00, -0.00, -1.00, 240.0, 495.0)">E</text><text xml:space="preserve" font-family="Lunchtype" font-size="36.0" fill="#101010" transform="matrix(1.00, 0.00, -0.00, -1.00, 259.8, 495.0)">v</text><text xml:space="preserve" font-family="Lunchtype" font-size="36.0" fill="#101010" transform="matrix(1.00, 0.00, -0.00, -1.00, 278.6, 495.0)">e</text><text xml:space="preserve" font-family="Lunchtype" font-size="36.0" fill="#101010" transform="matrix(1.00, 0.00, -0.00, -1.00, 298.7, 495.0)">n</text><text xml:space="preserve" font-family="Lunchtype" font-size="36.0" fill="#101010" transform="matrix(1.00, 0.00, -0.00, -1.00, 319.7, 495.0)"> </text><text xml:space="preserve" font-family="Lunchtype" font-size="36.0" fill="#101010" transform="matrix(1.00, 0.00, -0.00, -1.00, 330.5, 495.0)">i</text><text xml:space="preserve" font-family="Lunchtype" font-size="36.0" fill="#101010" transform="matrix(1.00, 0.00, -0.00, -1.00, 338.1, 495.0)">f</text><text xml:space="preserve" font-family="Lunchtype" font-size="36.0" fill="#101010" transform="matrix(1.00, 0.00, -0.00, -1.00, 349.6, 495.0)"> </text><text xml:space="preserve" font-family="Lunchtype" font-size="36.0" fill="#101010" transform="matrix(1.00, 0.00, -0.00, -1.00, 360.4, 495.0)">p</text><text xml:space="preserve" font-family="Lunchtype" font-size="36.0" fill="#101010" transform="matrix(1.00, 0.00, -0.00, -1.00, 380.1, 495.0)">e</text><text xml:space="preserve" font-family="Lunchtype" font-size="36.0" fill="#101010" transform="matrix(1.00, 0.00, -0.00, -1.00, 400.2, 495.0)">o</text><text xml:space="preserve" font-family="Lunchtype" font-size="36.0" fill="#101010" transform="matrix(1.00, 0.00, -0.00, -1.00, 420.9, 495.0)">p</text><text xml:space="preserve" font-family="Lunchtype" font-size="36.0" fill="#101010" transform="matrix(1.00, 0.00, -0.00, -1.00, 440.6, 495.0)">l</text><text xml:space="preserve" font-family="Lunchtype" font-size="36.0" fill="#101010" transform="matrix(1.00, 0.00, -0.00, -1.00, 449.0, 495.0)">e</text><text xml:space="preserve" font-family="Lunchtype" font-size="36.0" fill="#101010" transform="matrix(1.00, 0.00, -0.00, -1.00, 469.1, 495.0)"> </text><text xml:space="preserve" font-family="Lunchtype" font-size="36.0" fill="#101010" transform="matrix(1.00, 0.00, -0.00, -1.00, 479.9, 495.0)">a</text><text xml:space="preserve" font-family="Lunchtype" font-size="36.0" fill="#101010" transform="matrix(1.00, 0.00, -0.00, -1.00, 499.1, 495.0)">r</text><text xml:space="preserve" font-family="Lunchtype" font-size="36.0" fill="#101010" transform="matrix(1.00, 0.00, -0.00, -1.00, 512.0, 495.0)">e</text><text xml:space="preserve" font-family="Lunchtype" font-size="36.0" fill="#101010" transform="matrix(1.00, 0.00, -0.00, -1.00, 532.1, 495.0)"> </text><text xml:space="preserve" font-family="Lunchtype" font-size="36.0" fill="#101010" transform="matrix(1.00, 0.00, -0.00, -1.00, 542.9, 495.0)">a</text><text xml:space="preserve" font-family="Lunchtype" font-size="36.0" fill="#101010" transform="matrix(1.00, 0.00, -0.00, -1.00, 562.1, 495.0)">w</text><text xml:space="preserve" font-family="Lunchtype" font-size="36.0" fill="#101010" transform="matrix(1.00, 0.00, -0.00, -1.00, 589.9, 495.0)">a</text><text xml:space="preserve" font-family="Lunchtype" font-size="36.0" fill="#101010" transform="matrix(1.00, 0.00, -0.00, -1.00, 609.1, 495.0)">r</text><text xml:space="preserve" font-family="Lunchtype" font-size="36.0" fill="#101010" transform="matrix(1.00, 0.00, -0.00, -1.00, 621.9, 495.0)">e</text><text xml:space="preserve" font-family="Lunchtype" font-size="36.0" fill="#101010" transform="matrix(1.00, 0.00, -0.00, -1.00, 642.0, 495.0)"> </text><text xml:space="preserve" font-family="Lunchtype" font-size="36.0" fill="#101010" transform="matrix(1.00, 0.00, -0.00, -1.00, 652.8, 495.0)">t</text><text xml:space="preserve" font-family="Lunchtype" font-size="36.0" fill="#101010" transform="matrix(1.00, 0.00, -0.00, -1.00, 663.9, 495.0)">h</text><text xml:space="preserve" font-family="Lunchtype" font-size="36.0" fill="#101010" transform="matrix(1.00, 0.00, -0.00, -1.00, 683.1, 495.0)">a</text><text xml:space="preserve" font-family="Lunchtype" font-size="36.0" fill="#101010" transform="matrix(1.00, 0.00, -0.00, -1.00, 702.3, 495.0)">t</text><text xml:space="preserve" font-family="Lunchtype" font-size="36.0" fill="#101010" transform="matrix(1.00, 0.00, -0.00, -1.00, 713.4, 495.0)"> </text><text xml:space="preserve" font-family="Lunchtype" font-size="36.0" fill="#101010" transform="matrix(1.00, 0.00, -0.00, -1.00, 724.2, 495.0)">t</text><text xml:space="preserve" font-family="Lunchtype" font-size="36.0" fill="#101010" transform="matrix(1.00, 0.00, -0.00, -1.00, 735.3, 495.0)">h</text><text xml:space="preserve" font-family="Lunchtype" font-size="36.0" fill="#101010" transform="matrix(1.00, 0.00, -0.00, -1.00, 754.4, 495.0)">e</text><text xml:space="preserve" font-family="Lunchtype" font-size="36.0" fill="#101010" transform="matrix(1.00, 0.00, -0.00, -1.00, 774.5, 495.0)">y</text><text xml:space="preserve" font-family="Lunchtype" font-size="36.0" fill="#101010" transform="matrix(1.00, 0.00, -0.00, -1.00, 793.7, 495.0)"> </text><text xml:space="preserve" font-family="Lunchtype" font-size="36.0" fill="#101010" transform="matrix(1.00, 0.00, -0.00, -1.00, 804.5, 495.0)">u</text><text xml:space="preserve" font-family="Lunchtype" font-size="36.0" fill="#101010" transform="matrix(1.00, 0.00, -0.00, -1.00, 825.4, 495.0)">s</text><text xml:space="preserve" font-family="Lunchtype" font-size="36.0" fill="#101010" transform="matrix(1.00, 0.00, -0.00, -1.00, 843.0, 495.0)">e</text><text xml:space="preserve" font-family="Lunchtype" font-size="36.0" fill="#101010" transform="matrix(1.00, 0.00, -0.00, -1.00, 863.1, 495.0)"> </text><text xml:space="preserve" font-family="Lunchtype" font-size="36.0" fill="#101010" transform="matrix(1.00, 0.00, -0.00, -1.00, 873.9, 495.0)">t</text><text xml:space="preserve" font-family="Lunchtype" font-size="36.0" fill="#101010" transform="matrix(1.00, 0.00, -0.00, -1.00, 885.0, 495.0)">h</text><text xml:space="preserve" font-family="Lunchtype" font-size="36.0" fill="#101010" transform="matrix(1.00, 0.00, -0.00, -1.00, 904.2, 495.0)">e</text><text xml:space="preserve" font-family="Lunchtype" font-size="36.0" fill="#101010" transform="matrix(1.00, 0.00, -0.00, -1.00, 924.3, 495.0)">i</text><text xml:space="preserve" font-family="Lunchtype" font-size="36.0" fill="#101010" transform="matrix(1.00, 0.00, -0.00, -1.00, 931.9, 495.0)">r</text><text xml:space="preserve" font-family="Lunchtype" font-size="36.0" fill="#101010" transform="matrix(1.00, 0.00, -0.00, -1.00, 944.8, 495.0)"> </text><text xml:space="preserve" font-family="Lunchtype" font-size="36.0" fill="#101010" transform="matrix(1.00, 0.00, -0.00, -1.00, 955.6, 495.0)">p</text><text xml:space="preserve" font-family="Lunchtype" font-size="36.0" fill="#101010" transform="matrix(1.00, 0.00, -0.00, -1.00, 975.3, 495.0)">h</text><text xml:space="preserve" font-family="Lunchtype" font-size="36.0" fill="#101010" transform="matrix(1.00, 0.00, -0.00, -1.00, 994.4, 495.0)">o</text><text xml:space="preserve" font-family="Lunchtype" font-size="36.0" fill="#101010" transform="matrix(1.00, 0.00, -0.00, -1.00, 1015.0, 495.0)">n</text><text xml:space="preserve" font-family="Lunchtype" font-size="36.0" fill="#101010" transform="matrix(1.00, 0.00, -0.00, -1.00, 1036.0, 495.0)">e</text><text xml:space="preserve" font-family="Lunchtype" font-size="36.0" fill="#101010" transform="matrix(1.00, 0.00, -0.00, -1.00, 1056.2, 495.0)"> </text><text xml:space="preserve" font-family="Lunchtype" font-size="36.0" fill="#101010" transform="matrix(1.00, 0.00, -0.00, -1.00, 1067.0, 495.0)">m</text><text xml:space="preserve" font-family="Lunchtype" font-size="36.0" fill="#101010" transform="matrix(1.00, 0.00, -0.00, -1.00, 1098.1, 495.0)">o</text><text xml:space="preserve" font-family="Lunchtype" font-size="36.0" fill="#101010" transform="matrix(1.00, 0.00, -0.00, -1.00, 1118.8, 495.0)">r</text><text xml:space="preserve" font-family="Lunchtype" font-size="36.0" fill="#101010" transform="matrix(1.00, 0.00, -0.00, -1.00, 1131.6, 495.0)">e</text><text xml:space="preserve" font-family="Lunchtype" font-size="36.0" fill="#101010" transform="matrix(1.00, 0.00, -0.00, -1.00, 1151.7, 495.0)"> </text><text xml:space="preserve" font-family="Lunchtype" font-size="36.0" fill="#101010" transform="matrix(1.00, 0.00, -0.00, -1.00, 1162.5, 495.0)">t</text><text xml:space="preserve" font-family="Lunchtype" font-size="36.0" fill="#101010" transform="matrix(1.00, 0.00, -0.00, -1.00, 1173.6, 495.0)">h</text><text xml:space="preserve" font-family="Lunchtype" font-size="36.0" fill="#101010" transform="matrix(1.00, 0.00, -0.00, -1.00, 1192.8, 495.0)">a</text><text xml:space="preserve" font-family="Lunchtype" font-size="36.0" fill="#101010" transform="matrix(1.00, 0.00, -0.00, -1.00, 1212.0, 495.0)">n</text><text xml:space="preserve" font-family="Lunchtype" font-size="36.0" fill="#101010" transform="matrix(1.00, 0.00, -0.00, -1.00, 1233.0, 495.0)"> </text><text xml:space="preserve" font-family="Lunchtype" font-size="36.0" fill="#101010" transform="matrix(1.00, 0.00, -0.00, -1.00, 1243.8, 495.0)">t</text><text xml:space="preserve" font-family="Lunchtype" font-size="36.0" fill="#101010" transform="matrix(1.00, 0.00, -0.00, -1.00, 1254.8, 495.0)">h</text><text xml:space="preserve" font-family="Lunchtype" font-size="36.0" fill="#101010" transform="matrix(1.00, 0.00, -0.00, -1.00, 1274.0, 495.0)">e</text><text xml:space="preserve" font-family="Lunchtype" font-size="36.0" fill="#101010" transform="matrix(1.00, 0.00, -0.00, -1.00, 1294.1, 495.0)">y</text><text xml:space="preserve" font-family="Lunchtype" font-size="36.0" fill="#101010" transform="matrix(1.00, 0.00, -0.00, -1.00, 1313.3, 495.0)"> </text><text xml:space="preserve" font-family="Lunchtype" font-size="36.0" fill="#101010" transform="matrix(1.00, 0.00, -0.00, -1.00, 1324.1, 495.0)">e</text><text xml:space="preserve" font-family="Lunchtype" font-size="36.0" fill="#101010" transform="matrix(1.00, 0.00, -0.00, -1.00, 1344.2, 495.0)">x</text><text xml:space="preserve" font-family="Lunchtype" font-size="36.0" fill="#101010" transform="matrix(1.00, 0.00, -0.00, -1.00, 1365.2, 495.0)">p</text><text xml:space="preserve" font-family="Lunchtype" font-size="36.0" fill="#101010" transform="matrix(1.00, 0.00, -0.00, -1.00, 1384.9, 495.0)">e</text><text xml:space="preserve" font-family="Lunchtype" font-size="36.0" fill="#101010" transform="matrix(1.00, 0.00, -0.00, -1.00, 1405.0, 495.0)">c</text><text xml:space="preserve" font-family="Lunchtype" font-size="36.0" fill="#101010" transform="matrix(1.00, 0.00, -0.00, -1.00, 1424.8, 495.0)">t</text><text xml:space="preserve" font-family="Lunchtype" font-size="36.0" fill="#101010" transform="matrix(1.00, 0.00, -0.00, -1.00, 1435.9, 495.0)">e</text><text xml:space="preserve" font-family="Lunchtype" font-size="36.0" fill="#101010" transform="matrix(1.00, 0.00, -0.00, -1.00, 1456.0, 495.0)">d</text><text xml:space="preserve" font-family="Lunchtype" font-size="36.0" fill="#101010" transform="matrix(1.00, 0.00, -0.00, -1.00, 1475.6, 495.0)">,</text><text xml:space="preserve" font-family="Lunchtype" font-size="36.0" fill="#101010" transform="matrix(1.00, 0.00, -0.00, -1.00, 1483.7, 495.0)"> </text><text xml:space="preserve" font-family="Lunchtype" font-size="36.0" fill="#101010" transform="matrix(1.00, 0.00, -0.00, -1.00, 1494.5, 495.0)">t</text><text xml:space="preserve" font-family="Lunchtype" font-size="36.0" fill="#101010" transform="matrix(1.00, 0.00, -0.00, -1.00, 1505.5, 495.0)">h</text><text xml:space="preserve" font-family="Lunchtype" font-size="36.0" fill="#101010" transform="matrix(1.00, 0.00, -0.00, -1.00, 1524.7, 495.0)">e</text><text xml:space="preserve" font-family="Lunchtype" font-size="36.0" fill="#101010" transform="matrix(1.00, 0.00, -0.00, -1.00, 1544.8, 495.0)"> </text><text xml:space="preserve" font-family="Lunchtype" font-size="36.0" fill="#101010" transform="matrix(1.00, 0.00, -0.00, -1.00, 1555.6, 495.0)">d</text><text xml:space="preserve" font-family="Lunchtype" font-size="36.0" fill="#101010" transform="matrix(1.00, 0.00, -0.00, -1.00, 1575.2, 495.0)">a</text><text xml:space="preserve" font-family="Lunchtype" font-size="36.0" fill="#101010" transform="matrix(1.00, 0.00, -0.00, -1.00, 1594.4, 495.0)">t</text><text xml:space="preserve" font-family="Lunchtype" font-size="36.0" fill="#101010" transform="matrix(1.00, 0.00, -0.00, -1.00, 1605.5, 495.0)">a</text><text xml:space="preserve" font-family="Lunchtype" font-size="36.0" fill="#101010" transform="matrix(1.00, 0.00, -0.00, -1.00, 1624.7, 495.0)"> </text><text xml:space="preserve" font-family="Lunchtype" font-size="36.0" fill="#101010" transform="matrix(1.00, 0.00, -0.00, -1.00, 240.0, 430.0)">i</text><text xml:space="preserve" font-family="Lunchtype" font-size="36.0" fill="#101010" transform="matrix(1.00, 0.00, -0.00, -1.00, 247.6, 430.0)">s</text><text xml:space="preserve" font-family="Lunchtype" font-size="36.0" fill="#101010" transform="matrix(1.00, 0.00, -0.00, -1.00, 265.2, 430.0)">n</text><text xml:space="preserve" font-family="Lunchtype" font-size="36.0" fill="#101010" transform="matrix(1.00, 0.00, -0.00, -1.00, 286.2, 430.0)">’</text><text xml:space="preserve" font-family="Lunchtype" font-size="36.0" fill="#101010" transform="matrix(1.00, 0.00, -0.00, -1.00, 293.1, 430.0)">t</text><text xml:space="preserve" font-family="Lunchtype" font-size="36.0" fill="#101010" transform="matrix(1.00, 0.00, -0.00, -1.00, 304.2, 430.0)"> </text><text xml:space="preserve" font-family="Lunchtype" font-size="36.0" fill="#101010" transform="matrix(1.00, 0.00, -0.00, -1.00, 315.0, 430.0)">e</text><text xml:space="preserve" font-family="Lunchtype" font-size="36.0" fill="#101010" transform="matrix(1.00, 0.00, -0.00, -1.00, 335.1, 430.0)">n</text><text xml:space="preserve" font-family="Lunchtype" font-size="36.0" fill="#101010" transform="matrix(1.00, 0.00, -0.00, -1.00, 356.1, 430.0)">o</text><text xml:space="preserve" font-family="Lunchtype" font-size="36.0" fill="#101010" transform="matrix(1.00, 0.00, -0.00, -1.00, 376.7, 430.0)">u</text><text xml:space="preserve" font-family="Lunchtype" font-size="36.0" fill="#101010" transform="matrix(1.00, 0.00, -0.00, -1.00, 397.7, 430.0)">g</text><text xml:space="preserve" font-family="Lunchtype" font-size="36.0" fill="#101010" transform="matrix(1.00, 0.00, -0.00, -1.00, 418.6, 430.0)">h</text><text xml:space="preserve" font-family="Lunchtype" font-size="36.0" fill="#101010" transform="matrix(1.00, 0.00, -0.00, -1.00, 437.7, 430.0)"> </text><text xml:space="preserve" font-family="Lunchtype" font-size="36.0" fill="#101010" transform="matrix(1.00, 0.00, -0.00, -1.00, 448.5, 430.0)">t</text><text xml:space="preserve" font-family="Lunchtype" font-size="36.0" fill="#101010" transform="matrix(1.00, 0.00, -0.00, -1.00, 459.6, 430.0)">o</text><text xml:space="preserve" font-family="Lunchtype" font-size="36.0" fill="#101010" transform="matrix(1.00, 0.00, -0.00, -1.00, 480.2, 430.0)"> </text><text xml:space="preserve" font-family="Lunchtype" font-size="36.0" fill="#101010" transform="matrix(1.00, 0.00, -0.00, -1.00, 491.0, 430.0)">c</text><text xml:space="preserve" font-family="Lunchtype" font-size="36.0" fill="#101010" transform="matrix(1.00, 0.00, -0.00, -1.00, 510.8, 430.0)">o</text><text xml:space="preserve" font-family="Lunchtype" font-size="36.0" fill="#101010" transform="matrix(1.00, 0.00, -0.00, -1.00, 531.4, 430.0)">n</text><text xml:space="preserve" font-family="Lunchtype" font-size="36.0" fill="#101010" transform="matrix(1.00, 0.00, -0.00, -1.00, 552.4, 430.0)">v</text><text xml:space="preserve" font-family="Lunchtype" font-size="36.0" fill="#101010" transform="matrix(1.00, 0.00, -0.00, -1.00, 571.2, 430.0)">i</text><text xml:space="preserve" font-family="Lunchtype" font-size="36.0" fill="#101010" transform="matrix(1.00, 0.00, -0.00, -1.00, 578.8, 430.0)">n</text><text xml:space="preserve" font-family="Lunchtype" font-size="36.0" fill="#101010" transform="matrix(1.00, 0.00, -0.00, -1.00, 599.8, 430.0)">c</text><text xml:space="preserve" font-family="Lunchtype" font-size="36.0" fill="#101010" transform="matrix(1.00, 0.00, -0.00, -1.00, 619.5, 430.0)">e</text><text xml:space="preserve" font-family="Lunchtype" font-size="36.0" fill="#101010" transform="matrix(1.00, 0.00, -0.00, -1.00, 639.7, 430.0)"> </text><text xml:space="preserve" font-family="Lunchtype" font-size="36.0" fill="#101010" transform="matrix(1.00, 0.00, -0.00, -1.00, 650.5, 430.0)">t</text><text xml:space="preserve" font-family="Lunchtype" font-size="36.0" fill="#101010" transform="matrix(1.00, 0.00, -0.00, -1.00, 661.6, 430.0)">h</text><text xml:space="preserve" font-family="Lunchtype" font-size="36.0" fill="#101010" transform="matrix(1.00, 0.00, -0.00, -1.00, 680.7, 430.0)">e</text><text xml:space="preserve" font-family="Lunchtype" font-size="36.0" fill="#101010" transform="matrix(1.00, 0.00, -0.00, -1.00, 700.8, 430.0)">m</text><text xml:space="preserve" font-family="Lunchtype" font-size="36.0" fill="#101010" transform="matrix(1.00, 0.00, -0.00, -1.00, 732.0, 430.0)"> </text><text xml:space="preserve" font-family="Lunchtype" font-size="36.0" fill="#101010" transform="matrix(1.00, 0.00, -0.00, -1.00, 742.8, 430.0)">t</text><text xml:space="preserve" font-family="Lunchtype" font-size="36.0" fill="#101010" transform="matrix(1.00, 0.00, -0.00, -1.00, 753.9, 430.0)">o</text><text xml:space="preserve" font-family="Lunchtype" font-size="36.0" fill="#101010" transform="matrix(1.00, 0.00, -0.00, -1.00, 774.5, 430.0)"> </text><text xml:space="preserve" font-family="Lunchtype" font-size="36.0" fill="#101010" transform="matrix(1.00, 0.00, -0.00, -1.00, 785.3, 430.0)">c</text><text xml:space="preserve" font-family="Lunchtype" font-size="36.0" fill="#101010" transform="matrix(1.00, 0.00, -0.00, -1.00, 805.1, 430.0)">h</text><text xml:space="preserve" font-family="Lunchtype" font-size="36.0" fill="#101010" transform="matrix(1.00, 0.00, -0.00, -1.00, 824.2, 430.0)">a</text><text xml:space="preserve" font-family="Lunchtype" font-size="36.0" fill="#101010" transform="matrix(1.00, 0.00, -0.00, -1.00, 843.4, 430.0)">n</text><text xml:space="preserve" font-family="Lunchtype" font-size="36.0" fill="#101010" transform="matrix(1.00, 0.00, -0.00, -1.00, 864.4, 430.0)">g</text><text xml:space="preserve" font-family="Lunchtype" font-size="36.0" fill="#101010" transform="matrix(1.00, 0.00, -0.00, -1.00, 885.3, 430.0)">e</text><text xml:space="preserve" font-family="Lunchtype" font-size="36.0" fill="#101010" transform="matrix(1.00, 0.00, -0.00, -1.00, 905.4, 430.0)"> </text><text xml:space="preserve" font-family="Lunchtype" font-size="36.0" fill="#101010" transform="matrix(1.00, 0.00, -0.00, -1.00, 916.2, 430.0)">t</text><text xml:space="preserve" font-family="Lunchtype" font-size="36.0" fill="#101010" transform="matrix(1.00, 0.00, -0.00, -1.00, 927.3, 430.0)">h</text><text xml:space="preserve" font-family="Lunchtype" font-size="36.0" fill="#101010" transform="matrix(1.00, 0.00, -0.00, -1.00, 946.5, 430.0)">e</text><text xml:space="preserve" font-family="Lunchtype" font-size="36.0" fill="#101010" transform="matrix(1.00, 0.00, -0.00, -1.00, 966.6, 430.0)">i</text><text xml:space="preserve" font-family="Lunchtype" font-size="36.0" fill="#101010" transform="matrix(1.00, 0.00, -0.00, -1.00, 974.2, 430.0)">r</text><text xml:space="preserve" font-family="Lunchtype" font-size="36.0" fill="#101010" transform="matrix(1.00, 0.00, -0.00, -1.00, 987.1, 430.0)"> </text><text xml:space="preserve" font-family="Lunchtype" font-size="36.0" fill="#101010" transform="matrix(1.00, 0.00, -0.00, -1.00, 997.9, 430.0)">l</text><text xml:space="preserve" font-family="Lunchtype" font-size="36.0" fill="#101010" transform="matrix(1.00, 0.00, -0.00, -1.00, 1006.3, 430.0)">i</text><text xml:space="preserve" font-family="Lunchtype" font-size="36.0" fill="#101010" transform="matrix(1.00, 0.00, -0.00, -1.00, 1014.0, 430.0)">f</text><text xml:space="preserve" font-family="Lunchtype" font-size="36.0" fill="#101010" transform="matrix(1.00, 0.00, -0.00, -1.00, 1025.5, 430.0)">e</text><text xml:space="preserve" font-family="Lunchtype" font-size="36.0" fill="#101010" transform="matrix(1.00, 0.00, -0.00, -1.00, 1045.6, 430.0)">s</text><text xml:space="preserve" font-family="Lunchtype" font-size="36.0" fill="#101010" transform="matrix(1.00, 0.00, -0.00, -1.00, 1063.2, 430.0)">t</text><text xml:space="preserve" font-family="Lunchtype" font-size="36.0" fill="#101010" transform="matrix(1.00, 0.00, -0.00, -1.00, 1074.3, 430.0)">y</text><text xml:space="preserve" font-family="Lunchtype" font-size="36.0" fill="#101010" transform="matrix(1.00, 0.00, -0.00, -1.00, 1093.4, 430.0)">l</text><text xml:space="preserve" font-family="Lunchtype" font-size="36.0" fill="#101010" transform="matrix(1.00, 0.00, -0.00, -1.00, 1101.9, 430.0)">e</text><text xml:space="preserve" font-family="Lunchtype" font-size="36.0" fill="#101010" transform="matrix(1.00, 0.00, -0.00, -1.00, 1122.0, 430.0)">.</text></g></svg>