<?xml version="1.0" encoding="UTF-8"?><svg xmlns="http://www.w3.org/2000/svg" xmlns:xlink="http://www.w3.org/1999/xlink" clip-rule="evenodd" stroke-miterlimit="4.00" viewBox="0 0 1920 1080"><desc>SVG generated by Keynote</desc><defs></defs><g transform="matrix(1.00, 0.00, -0.00, -1.00, 0.0, 1080.0)"><path d="M 0.0 0.0 L 1920.0 0.0 L 1920.0 1080.0 L 0.0 1080.0 Z M 0.0 0.0 " fill="#000000"></path><text xml:space="preserve" font-family="Lunchtype" font-size="130.0" fill="#FEFFFF" transform="matrix(1.00, 0.00, -0.00, -1.00, 243.0, 480.0)">C</text><text xml:space="preserve" font-family="Lunchtype" font-size="130.0" fill="#FEFFFF" transform="matrix(1.00, 0.00, -0.00, -1.00, 326.3, 480.0)">o</text><text xml:space="preserve" font-family="Lunchtype" font-size="130.0" fill="#FEFFFF" transform="matrix(1.00, 0.00, -0.00, -1.00, 400.8, 480.0)">n</text><text xml:space="preserve" font-family="Lunchtype" font-size="130.0" fill="#FEFFFF" transform="matrix(1.00, 0.00, -0.00, -1.00, 476.6, 480.0)">d</text><text xml:space="preserve" font-family="Lunchtype" font-size="130.0" fill="#FEFFFF" transform="matrix(1.00, 0.00, -0.00, -1.00, 547.5, 480.0)">u</text><text xml:space="preserve" font-family="Lunchtype" font-size="130.0" fill="#FEFFFF" transform="matrix(1.00, 0.00, -0.00, -1.00, 623.1, 480.0)">c</text><text xml:space="preserve" font-family="Lunchtype" font-size="130.0" fill="#FEFFFF" transform="matrix(1.00, 0.00, -0.00, -1.00, 694.5, 480.0)">t</text><text xml:space="preserve" font-family="Lunchtype" font-size="130.0" fill="#FEFFFF" transform="matrix(1.00, 0.00, -0.00, -1.00, 734.5, 480.0)">i</text><text xml:space="preserve" font-family="Lunchtype" font-size="130.0" fill="#FEFFFF" transform="matrix(1.00, 0.00, -0.00, -1.00, 762.1, 480.0)">n</text><text xml:space="preserve" font-family="Lunchtype" font-size="130.0" fill="#FEFFFF" transform="matrix(1.00, 0.00, -0.00, -1.00, 837.9, 480.0)">g</text><text xml:space="preserve" font-family="Lunchtype" font-size="130.0" fill="#FEFFFF" transform="matrix(1.00, 0.00, -0.00, -1.00, 913.3, 480.0)"> </text><text xml:space="preserve" font-family="Lunchtype" font-size="130.0" fill="#FEFFFF" transform="matrix(1.00, 0.00, -0.00, -1.00, 952.3, 480.0)">m</text><text xml:space="preserve" font-family="Lunchtype" font-size="130.0" fill="#FEFFFF" transform="matrix(1.00, 0.00, -0.00, -1.00, 1064.9, 480.0)">y</text><text xml:space="preserve" font-family="Lunchtype" font-size="130.0" fill="#FEFFFF" transform="matrix(1.00, 0.00, -0.00, -1.00, 1134.0, 480.0)"> </text><text xml:space="preserve" font-family="Lunchtype" font-size="130.0" fill="#FEFFFF" transform="matrix(1.00, 0.00, -0.00, -1.00, 1173.0, 480.0)">o</text><text xml:space="preserve" font-family="Lunchtype" font-size="130.0" fill="#FEFFFF" transform="matrix(1.00, 0.00, -0.00, -1.00, 1247.5, 480.0)">w</text><text xml:space="preserve" font-family="Lunchtype" font-size="130.0" fill="#FEFFFF" transform="matrix(1.00, 0.00, -0.00, -1.00, 1347.9, 480.0)">n</text><text xml:space="preserve" font-family="Lunchtype" font-size="130.0" fill="#FEFFFF" transform="matrix(1.00, 0.00, -0.00, -1.00, 1423.7, 480.0)"> </text><text xml:space="preserve" font-family="Lunchtype" font-size="130.0" fill="#FEFFFF" transform="matrix(1.00, 0.00, -0.00, -1.00, 1462.7, 480.0)">t</text><text xml:space="preserve" font-family="Lunchtype" font-size="130.0" fill="#FEFFFF" transform="matrix(1.00, 0.00, -0.00, -1.00, 1502.7, 480.0)">e</text><text xml:space="preserve" font-family="Lunchtype" font-size="130.0" fill="#FEFFFF" transform="matrix(1.00, 0.00, -0.00, -1.00, 1575.4, 480.0)">s</text><text xml:space="preserve" font-family="Lunchtype" font-size="130.0" fill="#FEFFFF" transform="matrix(1.00, 0.00, -0.00, -1.00, 1638.8, 480.0)">t</text><text xml:space="preserve" font-family="Helvetica" font-size="18.0" fill="#BEBEBE" transform="matrix(1.00, 0.00, -0.00, -1.00, 1812.0, 62.0)">1</text><text xml:space="preserve" font-family="Helvetica" font-size="18.0" fill="#BEBEBE" transform="matrix(1.00, 0.00, -0.00, -1.00, 1822.0, 62.0)">7</text></g></svg>