<?xml version="1.0" encoding="UTF-8"?><svg xmlns="http://www.w3.org/2000/svg" xmlns:xlink="http://www.w3.org/1999/xlink" clip-rule="evenodd" stroke-miterlimit="4.00" viewBox="0 0 389 30"><desc>SVG generated by Keynote</desc><defs></defs><g transform="matrix(1.00, 0.00, -0.00, -1.00, 0.0, 30.0)"><text xml:space="preserve" font-family="Lunchtype" font-size="37.0" fill="#000000" transform="matrix(1.00, 0.00, -0.00, -1.00, -1.0, 2.0)">P</text><text xml:space="preserve" font-family="Lunchtype" font-size="37.0" fill="#000000" transform="matrix(1.00, 0.00, -0.00, -1.00, 20.0, 2.0)">h</text><text xml:space="preserve" font-family="Lunchtype" font-size="37.0" fill="#000000" transform="matrix(1.00, 0.00, -0.00, -1.00, 39.7, 2.0)">o</text><text xml:space="preserve" font-family="Lunchtype" font-size="37.0" fill="#000000" transform="matrix(1.00, 0.00, -0.00, -1.00, 60.9, 2.0)">n</text><text xml:space="preserve" font-family="Lunchtype" font-size="37.0" fill="#000000" transform="matrix(1.00, 0.00, -0.00, -1.00, 82.4, 2.0)">e</text><text xml:space="preserve" font-family="Lunchtype" font-size="37.0" fill="#000000" transform="matrix(1.00, 0.00, -0.00, -1.00, 103.1, 2.0)"> </text><text xml:space="preserve" font-family="Lunchtype" font-size="37.0" fill="#000000" transform="matrix(1.00, 0.00, -0.00, -1.00, 114.2, 2.0)">w</text><text xml:space="preserve" font-family="Lunchtype" font-size="37.0" fill="#000000" transform="matrix(1.00, 0.00, -0.00, -1.00, 142.8, 2.0)">i</text><text xml:space="preserve" font-family="Lunchtype" font-size="37.0" fill="#000000" transform="matrix(1.00, 0.00, -0.00, -1.00, 150.6, 2.0)">t</text><text xml:space="preserve" font-family="Lunchtype" font-size="37.0" fill="#000000" transform="matrix(1.00, 0.00, -0.00, -1.00, 162.0, 2.0)">h</text><text xml:space="preserve" font-family="Lunchtype" font-size="37.0" fill="#000000" transform="matrix(1.00, 0.00, -0.00, -1.00, 181.7, 2.0)">o</text><text xml:space="preserve" font-family="Lunchtype" font-size="37.0" fill="#000000" transform="matrix(1.00, 0.00, -0.00, -1.00, 202.9, 2.0)">u</text><text xml:space="preserve" font-family="Lunchtype" font-size="37.0" fill="#000000" transform="matrix(1.00, 0.00, -0.00, -1.00, 224.4, 2.0)">t</text><text xml:space="preserve" font-family="Lunchtype" font-size="37.0" fill="#000000" transform="matrix(1.00, 0.00, -0.00, -1.00, 235.8, 2.0)"> </text><text xml:space="preserve" font-family="Lunchtype" font-size="37.0" fill="#000000" transform="matrix(1.00, 0.00, -0.00, -1.00, 246.9, 2.0)">t</text><text xml:space="preserve" font-family="Lunchtype" font-size="37.0" fill="#000000" transform="matrix(1.00, 0.00, -0.00, -1.00, 258.3, 2.0)">h</text><text xml:space="preserve" font-family="Lunchtype" font-size="37.0" fill="#000000" transform="matrix(1.00, 0.00, -0.00, -1.00, 278.0, 2.0)">e</text><text xml:space="preserve" font-family="Lunchtype" font-size="37.0" fill="#000000" transform="matrix(1.00, 0.00, -0.00, -1.00, 298.7, 2.0)"> </text><text xml:space="preserve" font-family="Lunchtype" font-size="37.0" fill="#000000" transform="matrix(1.00, 0.00, -0.00, -1.00, 309.8, 2.0)">c</text><text xml:space="preserve" font-family="Lunchtype" font-size="37.0" fill="#000000" transform="matrix(1.00, 0.00, -0.00, -1.00, 330.1, 2.0)">a</text><text xml:space="preserve" font-family="Lunchtype" font-size="37.0" fill="#000000" transform="matrix(1.00, 0.00, -0.00, -1.00, 349.8, 2.0)">s</text><text xml:space="preserve" font-family="Lunchtype" font-size="37.0" fill="#000000" transform="matrix(1.00, 0.00, -0.00, -1.00, 367.9, 2.0)">e</text></g></svg>