<?xml version="1.0" encoding="UTF-8"?><svg xmlns="http://www.w3.org/2000/svg" xmlns:xlink="http://www.w3.org/1999/xlink" clip-rule="evenodd" stroke-miterlimit="4.00" viewBox="0 0 1920 1080"><desc>SVG generated by Keynote</desc><defs></defs><g transform="matrix(1.00, 0.00, -0.00, -1.00, 0.0, 1080.0)"><path d="M 0.0 0.0 L 1920.0 0.0 L 1920.0 1080.0 L 0.0 1080.0 Z M 0.0 0.0 " fill="#FEFFFF"></path><image xlink:href="DA4A218EC7ABD4315382EBED614DAE9D.png" width="303.00" height="540.00" transform="matrix(2.01, 0.00, -0.00, -2.00, -42.0, 1080.0)"></image><image xlink:href="DB0F4BB606F8E1347C129CB61DD80810.png" width="303.00" height="540.00" transform="matrix(2.00, 0.00, -0.00, -2.00, 480.0, 1080.0)"></image><image xlink:href="D6F15C406FD7D8E28BCC5D85EE0EC356.png" width="303.00" height="540.00" transform="matrix(2.01, 0.00, -0.00, -2.00, 977.0, 1080.0)"></image><image xlink:href="9BF877D15B3E748149C7313708475B49.png" width="303.00" height="540.00" transform="matrix(2.01, 0.00, -0.00, -2.00, 1461.0, 1080.0)"></image><image xlink:href="2ECDDFBD97F48E8BBC0860B028513ED6.png" width="960.00" height="540.00" transform="matrix(2.00, 0.00, -0.00, -2.00, 0.0, 1080.0)"></image><text xml:space="preserve" font-family="Helvetica" font-size="44.0" fill="#FEFFFE" transform="matrix(1.00, 0.00, -0.00, -1.00, 85.0, 87.0)">I</text><text xml:space="preserve" font-family="Helvetica" font-size="44.0" fill="#FEFFFE" transform="matrix(1.00, 0.00, -0.00, -1.00, 97.2, 87.0)">n</text><text xml:space="preserve" font-family="Helvetica" font-size="44.0" fill="#FEFFFE" transform="matrix(1.00, 0.00, -0.00, -1.00, 121.7, 87.0)"> </text><text xml:space="preserve" font-family="Helvetica" font-size="44.0" fill="#FEFFFE" transform="matrix(1.00, 0.00, -0.00, -1.00, 133.9, 87.0)">t</text><text xml:space="preserve" font-family="Helvetica" font-size="44.0" fill="#FEFFFE" transform="matrix(1.00, 0.00, -0.00, -1.00, 146.1, 87.0)">h</text><text xml:space="preserve" font-family="Helvetica" font-size="44.0" fill="#FEFFFE" transform="matrix(1.00, 0.00, -0.00, -1.00, 170.6, 87.0)">e</text><text xml:space="preserve" font-family="Helvetica" font-size="44.0" fill="#FEFFFE" transform="matrix(1.00, 0.00, -0.00, -1.00, 195.1, 87.0)"> </text><text xml:space="preserve" font-family="Helvetica" font-size="44.0" fill="#FEFFFE" transform="matrix(1.00, 0.00, -0.00, -1.00, 207.3, 87.0)">3</text><text xml:space="preserve" font-family="Helvetica" font-size="44.0" fill="#FEFFFE" transform="matrix(1.00, 0.00, -0.00, -1.00, 231.8, 87.0)"> </text><text xml:space="preserve" font-family="Helvetica" font-size="44.0" fill="#FEFFFE" transform="matrix(1.00, 0.00, -0.00, -1.00, 244.0, 87.0)">d</text><text xml:space="preserve" font-family="Helvetica" font-size="44.0" fill="#FEFFFE" transform="matrix(1.00, 0.00, -0.00, -1.00, 268.5, 87.0)">a</text><text xml:space="preserve" font-family="Helvetica" font-size="44.0" fill="#FEFFFE" transform="matrix(1.00, 0.00, -0.00, -1.00, 293.0, 87.0)">y</text><text xml:space="preserve" font-family="Helvetica" font-size="44.0" fill="#FEFFFE" transform="matrix(1.00, 0.00, -0.00, -1.00, 315.0, 87.0)"> </text><text xml:space="preserve" font-family="Helvetica" font-size="44.0" fill="#FEFFFE" transform="matrix(1.00, 0.00, -0.00, -1.00, 327.2, 87.0)">s</text><text xml:space="preserve" font-family="Helvetica" font-size="44.0" fill="#FEFFFE" transform="matrix(1.00, 0.00, -0.00, -1.00, 349.2, 87.0)">p</text><text xml:space="preserve" font-family="Helvetica" font-size="44.0" fill="#FEFFFE" transform="matrix(1.00, 0.00, -0.00, -1.00, 373.7, 87.0)">a</text><text xml:space="preserve" font-family="Helvetica" font-size="44.0" fill="#FEFFFE" transform="matrix(1.00, 0.00, -0.00, -1.00, 398.1, 87.0)">n</text><text xml:space="preserve" font-family="Helvetica" font-size="44.0" fill="#FEFFFE" transform="matrix(1.00, 0.00, -0.00, -1.00, 422.6, 87.0)"> </text><text xml:space="preserve" font-family="Helvetica" font-size="44.0" fill="#FEFFFE" transform="matrix(1.00, 0.00, -0.00, -1.00, 434.8, 87.0)">I</text><text xml:space="preserve" font-family="Helvetica" font-size="44.0" fill="#FEFFFE" transform="matrix(1.00, 0.00, -0.00, -1.00, 447.0, 87.0)"> </text><text xml:space="preserve" font-family="Helvetica" font-size="44.0" fill="#FEFFFE" transform="matrix(1.00, 0.00, -0.00, -1.00, 459.3, 87.0)">w</text><text xml:space="preserve" font-family="Helvetica" font-size="44.0" fill="#FEFFFE" transform="matrix(1.00, 0.00, -0.00, -1.00, 491.0, 87.0)">a</text><text xml:space="preserve" font-family="Helvetica" font-size="44.0" fill="#FEFFFE" transform="matrix(1.00, 0.00, -0.00, -1.00, 515.5, 87.0)">s</text><text xml:space="preserve" font-family="Helvetica" font-size="44.0" fill="#FEFFFE" transform="matrix(1.00, 0.00, -0.00, -1.00, 537.5, 87.0)"> </text><text xml:space="preserve" font-family="Helvetica" font-size="44.0" fill="#FEFFFE" transform="matrix(1.00, 0.00, -0.00, -1.00, 549.7, 87.0)">a</text><text xml:space="preserve" font-family="Helvetica" font-size="44.0" fill="#FEFFFE" transform="matrix(1.00, 0.00, -0.00, -1.00, 574.2, 87.0)">b</text><text xml:space="preserve" font-family="Helvetica" font-size="44.0" fill="#FEFFFE" transform="matrix(1.00, 0.00, -0.00, -1.00, 598.7, 87.0)">l</text><text xml:space="preserve" font-family="Helvetica" font-size="44.0" fill="#FEFFFE" transform="matrix(1.00, 0.00, -0.00, -1.00, 608.5, 87.0)">e</text><text xml:space="preserve" font-family="Helvetica" font-size="44.0" fill="#FEFFFE" transform="matrix(1.00, 0.00, -0.00, -1.00, 633.0, 87.0)"> </text><text xml:space="preserve" font-family="Helvetica" font-size="44.0" fill="#FEFFFE" transform="matrix(1.00, 0.00, -0.00, -1.00, 645.2, 87.0)">t</text><text xml:space="preserve" font-family="Helvetica" font-size="44.0" fill="#FEFFFE" transform="matrix(1.00, 0.00, -0.00, -1.00, 657.4, 87.0)">o</text><text xml:space="preserve" font-family="Helvetica" font-size="44.0" fill="#FEFFFE" transform="matrix(1.00, 0.00, -0.00, -1.00, 681.9, 87.0)"> </text><text xml:space="preserve" font-family="Helvetica" font-size="44.0" fill="#FEFFFE" transform="matrix(1.00, 0.00, -0.00, -1.00, 694.1, 87.0)">c</text><text xml:space="preserve" font-family="Helvetica" font-size="44.0" fill="#FEFFFE" transform="matrix(1.00, 0.00, -0.00, -1.00, 716.1, 87.0)">a</text><text xml:space="preserve" font-family="Helvetica" font-size="44.0" fill="#FEFFFE" transform="matrix(1.00, 0.00, -0.00, -1.00, 740.6, 87.0)">p</text><text xml:space="preserve" font-family="Helvetica" font-size="44.0" fill="#FEFFFE" transform="matrix(1.00, 0.00, -0.00, -1.00, 765.0, 87.0)">t</text><text xml:space="preserve" font-family="Helvetica" font-size="44.0" fill="#FEFFFE" transform="matrix(1.00, 0.00, -0.00, -1.00, 777.3, 87.0)">u</text><text xml:space="preserve" font-family="Helvetica" font-size="44.0" fill="#FEFFFE" transform="matrix(1.00, 0.00, -0.00, -1.00, 801.7, 87.0)">r</text><text xml:space="preserve" font-family="Helvetica" font-size="44.0" fill="#FEFFFE" transform="matrix(1.00, 0.00, -0.00, -1.00, 816.4, 87.0)">e</text><text xml:space="preserve" font-family="Helvetica" font-size="44.0" fill="#FEFFFE" transform="matrix(1.00, 0.00, -0.00, -1.00, 840.9, 87.0)"> </text><text xml:space="preserve" font-family="Helvetica" font-size="44.0" fill="#FEFFFE" transform="matrix(1.00, 0.00, -0.00, -1.00, 853.1, 87.0)">1</text><text xml:space="preserve" font-family="Helvetica" font-size="44.0" fill="#FEFFFE" transform="matrix(1.00, 0.00, -0.00, -1.00, 877.6, 87.0)">9</text><text xml:space="preserve" font-family="Helvetica" font-size="44.0" fill="#FEFFFE" transform="matrix(1.00, 0.00, -0.00, -1.00, 902.0, 87.0)"> </text><text xml:space="preserve" font-family="Helvetica" font-size="44.0" fill="#FEFFFE" transform="matrix(1.00, 0.00, -0.00, -1.00, 914.3, 87.0)">v</text><text xml:space="preserve" font-family="Helvetica" font-size="44.0" fill="#FEFFFE" transform="matrix(1.00, 0.00, -0.00, -1.00, 936.3, 87.0)">i</text><text xml:space="preserve" font-family="Helvetica" font-size="44.0" fill="#FEFFFE" transform="matrix(1.00, 0.00, -0.00, -1.00, 946.0, 87.0)">d</text><text xml:space="preserve" font-family="Helvetica" font-size="44.0" fill="#FEFFFE" transform="matrix(1.00, 0.00, -0.00, -1.00, 970.5, 87.0)">e</text><text xml:space="preserve" font-family="Helvetica" font-size="44.0" fill="#FEFFFE" transform="matrix(1.00, 0.00, -0.00, -1.00, 995.0, 87.0)">o</text><text xml:space="preserve" font-family="Helvetica" font-size="44.0" fill="#FEFFFE" transform="matrix(1.00, 0.00, -0.00, -1.00, 1019.5, 87.0)">s</text><text xml:space="preserve" font-family="Helvetica" font-size="44.0" fill="#FEFFFE" transform="matrix(1.00, 0.00, -0.00, -1.00, 1041.5, 87.0)"> </text><text xml:space="preserve" font-family="Helvetica" font-size="44.0" fill="#FEFFFE" transform="matrix(1.00, 0.00, -0.00, -1.00, 1053.7, 87.0)">s</text><text xml:space="preserve" font-family="Helvetica" font-size="44.0" fill="#FEFFFE" transform="matrix(1.00, 0.00, -0.00, -1.00, 1075.7, 87.0)">i</text><text xml:space="preserve" font-family="Helvetica" font-size="44.0" fill="#FEFFFE" transform="matrix(1.00, 0.00, -0.00, -1.00, 1085.5, 87.0)">m</text><text xml:space="preserve" font-family="Helvetica" font-size="44.0" fill="#FEFFFE" transform="matrix(1.00, 0.00, -0.00, -1.00, 1122.1, 87.0)">i</text><text xml:space="preserve" font-family="Helvetica" font-size="44.0" fill="#FEFFFE" transform="matrix(1.00, 0.00, -0.00, -1.00, 1131.9, 87.0)">l</text><text xml:space="preserve" font-family="Helvetica" font-size="44.0" fill="#FEFFFE" transform="matrix(1.00, 0.00, -0.00, -1.00, 1141.7, 87.0)">a</text><text xml:space="preserve" font-family="Helvetica" font-size="44.0" fill="#FEFFFE" transform="matrix(1.00, 0.00, -0.00, -1.00, 1166.2, 87.0)">r</text><text xml:space="preserve" font-family="Helvetica" font-size="44.0" fill="#FEFFFE" transform="matrix(1.00, 0.00, -0.00, -1.00, 1180.8, 87.0)"> </text><text xml:space="preserve" font-family="Helvetica" font-size="44.0" fill="#FEFFFE" transform="matrix(1.00, 0.00, -0.00, -1.00, 1193.1, 87.0)">t</text><text xml:space="preserve" font-family="Helvetica" font-size="44.0" fill="#FEFFFE" transform="matrix(1.00, 0.00, -0.00, -1.00, 1205.3, 87.0)">o</text><text xml:space="preserve" font-family="Helvetica" font-size="44.0" fill="#FEFFFE" transform="matrix(1.00, 0.00, -0.00, -1.00, 1229.8, 87.0)"> </text><text xml:space="preserve" font-family="Helvetica" font-size="44.0" fill="#FEFFFE" transform="matrix(1.00, 0.00, -0.00, -1.00, 1242.0, 87.0)">t</text><text xml:space="preserve" font-family="Helvetica" font-size="44.0" fill="#FEFFFE" transform="matrix(1.00, 0.00, -0.00, -1.00, 1254.2, 87.0)">h</text><text xml:space="preserve" font-family="Helvetica" font-size="44.0" fill="#FEFFFE" transform="matrix(1.00, 0.00, -0.00, -1.00, 1278.7, 87.0)">i</text><text xml:space="preserve" font-family="Helvetica" font-size="44.0" fill="#FEFFFE" transform="matrix(1.00, 0.00, -0.00, -1.00, 1288.4, 87.0)">s</text><text xml:space="preserve" font-family="Helvetica" font-size="44.0" fill="#FEFFFE" transform="matrix(1.00, 0.00, -0.00, -1.00, 1310.4, 87.0)"> </text><text xml:space="preserve" font-family="Helvetica" font-size="44.0" fill="#FEFFFE" transform="matrix(1.00, 0.00, -0.00, -1.00, 1322.7, 87.0)">o</text><text xml:space="preserve" font-family="Helvetica" font-size="44.0" fill="#FEFFFE" transform="matrix(1.00, 0.00, -0.00, -1.00, 1347.1, 87.0)">n</text><text xml:space="preserve" font-family="Helvetica" font-size="44.0" fill="#FEFFFE" transform="matrix(1.00, 0.00, -0.00, -1.00, 1371.6, 87.0)">e</text><text xml:space="preserve" font-family="Helvetica" font-size="18.0" fill="#BEBEBE" transform="matrix(1.00, 0.00, -0.00, -1.00, 1812.0, 62.0)">5</text></g></svg>