<?xml version="1.0" encoding="UTF-8"?><svg xmlns="http://www.w3.org/2000/svg" xmlns:xlink="http://www.w3.org/1999/xlink" clip-rule="evenodd" stroke-miterlimit="4.00" viewBox="0 0 1920 1080"><desc>SVG generated by Keynote</desc><defs></defs><g transform="matrix(1.00, 0.00, -0.00, -1.00, 0.0, 1080.0)"><path d="M 0.0 0.0 L 1920.0 0.0 L 1920.0 1080.0 L 0.0 1080.0 Z M 0.0 0.0 " fill="#000000"></path><text xml:space="preserve" font-family="Lunchtype" font-size="130.0" fill="#FEFFFF" transform="matrix(1.00, 0.00, -0.00, -1.00, 153.0, 480.0)">O</text><text xml:space="preserve" font-family="Lunchtype" font-size="130.0" fill="#FEFFFF" transform="matrix(1.00, 0.00, -0.00, -1.00, 240.2, 480.0)">p</text><text xml:space="preserve" font-family="Lunchtype" font-size="130.0" fill="#FEFFFF" transform="matrix(1.00, 0.00, -0.00, -1.00, 311.3, 480.0)">p</text><text xml:space="preserve" font-family="Lunchtype" font-size="130.0" fill="#FEFFFF" transform="matrix(1.00, 0.00, -0.00, -1.00, 382.4, 480.0)">o</text><text xml:space="preserve" font-family="Lunchtype" font-size="130.0" fill="#FEFFFF" transform="matrix(1.00, 0.00, -0.00, -1.00, 456.9, 480.0)">r</text><text xml:space="preserve" font-family="Lunchtype" font-size="130.0" fill="#FEFFFF" transform="matrix(1.00, 0.00, -0.00, -1.00, 503.4, 480.0)">t</text><text xml:space="preserve" font-family="Lunchtype" font-size="130.0" fill="#FEFFFF" transform="matrix(1.00, 0.00, -0.00, -1.00, 543.4, 480.0)">u</text><text xml:space="preserve" font-family="Lunchtype" font-size="130.0" fill="#FEFFFF" transform="matrix(1.00, 0.00, -0.00, -1.00, 619.1, 480.0)">n</text><text xml:space="preserve" font-family="Lunchtype" font-size="130.0" fill="#FEFFFF" transform="matrix(1.00, 0.00, -0.00, -1.00, 694.8, 480.0)">i</text><text xml:space="preserve" font-family="Lunchtype" font-size="130.0" fill="#FEFFFF" transform="matrix(1.00, 0.00, -0.00, -1.00, 722.4, 480.0)">t</text><text xml:space="preserve" font-family="Lunchtype" font-size="130.0" fill="#FEFFFF" transform="matrix(1.00, 0.00, -0.00, -1.00, 762.4, 480.0)">y</text><text xml:space="preserve" font-family="Lunchtype" font-size="130.0" fill="#FEFFFF" transform="matrix(1.00, 0.00, -0.00, -1.00, 831.6, 480.0)"> </text><text xml:space="preserve" font-family="Lunchtype" font-size="130.0" fill="#FEFFFF" transform="matrix(1.00, 0.00, -0.00, -1.00, 870.6, 480.0)">f</text><text xml:space="preserve" font-family="Lunchtype" font-size="130.0" fill="#FEFFFF" transform="matrix(1.00, 0.00, -0.00, -1.00, 912.2, 480.0)">o</text><text xml:space="preserve" font-family="Lunchtype" font-size="130.0" fill="#FEFFFF" transform="matrix(1.00, 0.00, -0.00, -1.00, 986.7, 480.0)">r</text><text xml:space="preserve" font-family="Lunchtype" font-size="130.0" fill="#FEFFFF" transform="matrix(1.00, 0.00, -0.00, -1.00, 1033.1, 480.0)"> </text><text xml:space="preserve" font-family="Lunchtype" font-size="130.0" fill="#FEFFFF" transform="matrix(1.00, 0.00, -0.00, -1.00, 1072.1, 480.0)">i</text><text xml:space="preserve" font-family="Lunchtype" font-size="130.0" fill="#FEFFFF" transform="matrix(1.00, 0.00, -0.00, -1.00, 1099.7, 480.0)">n</text><text xml:space="preserve" font-family="Lunchtype" font-size="130.0" fill="#FEFFFF" transform="matrix(1.00, 0.00, -0.00, -1.00, 1175.5, 480.0)">t</text><text xml:space="preserve" font-family="Lunchtype" font-size="130.0" fill="#FEFFFF" transform="matrix(1.00, 0.00, -0.00, -1.00, 1215.5, 480.0)">e</text><text xml:space="preserve" font-family="Lunchtype" font-size="130.0" fill="#FEFFFF" transform="matrix(1.00, 0.00, -0.00, -1.00, 1288.2, 480.0)">r</text><text xml:space="preserve" font-family="Lunchtype" font-size="130.0" fill="#FEFFFF" transform="matrix(1.00, 0.00, -0.00, -1.00, 1334.6, 480.0)">v</text><text xml:space="preserve" font-family="Lunchtype" font-size="130.0" fill="#FEFFFF" transform="matrix(1.00, 0.00, -0.00, -1.00, 1402.3, 480.0)">e</text><text xml:space="preserve" font-family="Lunchtype" font-size="130.0" fill="#FEFFFF" transform="matrix(1.00, 0.00, -0.00, -1.00, 1475.0, 480.0)">n</text><text xml:space="preserve" font-family="Lunchtype" font-size="130.0" fill="#FEFFFF" transform="matrix(1.00, 0.00, -0.00, -1.00, 1550.8, 480.0)">t</text><text xml:space="preserve" font-family="Lunchtype" font-size="130.0" fill="#FEFFFF" transform="matrix(1.00, 0.00, -0.00, -1.00, 1590.8, 480.0)">i</text><text xml:space="preserve" font-family="Lunchtype" font-size="130.0" fill="#FEFFFF" transform="matrix(1.00, 0.00, -0.00, -1.00, 1618.4, 480.0)">o</text><text xml:space="preserve" font-family="Lunchtype" font-size="130.0" fill="#FEFFFF" transform="matrix(1.00, 0.00, -0.00, -1.00, 1692.9, 480.0)">n</text><text xml:space="preserve" font-family="Helvetica" font-size="18.0" fill="#BEBEBE" transform="matrix(1.00, 0.00, -0.00, -1.00, 1812.0, 62.0)">3</text><text xml:space="preserve" font-family="Helvetica" font-size="18.0" fill="#BEBEBE" transform="matrix(1.00, 0.00, -0.00, -1.00, 1822.0, 62.0)">0</text></g></svg>