<?xml version="1.0" encoding="UTF-8"?><svg xmlns="http://www.w3.org/2000/svg" xmlns:xlink="http://www.w3.org/1999/xlink" clip-rule="evenodd" stroke-miterlimit="4.00" viewBox="0 0 1920 1080"><desc>SVG generated by Keynote</desc><defs></defs><g transform="matrix(1.00, 0.00, -0.00, -1.00, 0.0, 1080.0)"><path d="M 0.0 0.0 L 1920.0 0.0 L 1920.0 1080.0 L 0.0 1080.0 Z M 0.0 0.0 " fill="#FEFFFF"></path><g><clipPath id="clip-208"><path d="M 193.0 208.5 L 1725.0 208.5 L 1725.0 591.5 L 193.0 591.5 Z M 193.0 208.5 "></path></clipPath><g clip-path="url(#clip-208)"><image xlink:href="../../67C9537F-0B80-4ECD-89C9-47B37D7E2ED2/assets/205F9C2D860EDD4BF83D440E80214912.jpeg" width="1366.00" height="341.00" transform="matrix(1.12, 0.00, -0.00, -1.13, 193.0, 592.0)"></image></g></g><g><clipPath id="clip-209"><path d="M 173.1 275.8 L 1840.5 275.8 L 1840.5 614.0 L 173.1 614.0 Z M 173.1 275.8 "></path></clipPath><g clip-path="url(#clip-209)"><path d="M 174.1 613.0 L 1839.5 613.0 L 1839.5 276.8 L 174.1 276.8 Z M 174.1 613.0 " fill="#FEFFFF"></path></g></g><g><clipPath id="clip-210"><path d="M 1030.0 376.7 L 1259.5 376.7 L 1259.5 513.1 L 1030.0 513.1 Z M 1030.0 376.7 "></path></clipPath><g clip-path="url(#clip-210)"><image xlink:href="../../67C9537F-0B80-4ECD-89C9-47B37D7E2ED2/assets/7394D94D1A58CC6EE323E03DE76457D9.png" width="230.00" height="136.00" transform="matrix(1.00, 0.00, -0.00, -1.00, 1030.0, 513.0)"></image></g></g><g><clipPath id="clip-211"><path d="M 1446.8 378.0 L 1704.6 378.0 L 1704.6 528.0 L 1446.8 528.0 Z M 1446.8 378.0 "></path></clipPath><g clip-path="url(#clip-211)"><image xlink:href="../../67C9537F-0B80-4ECD-89C9-47B37D7E2ED2/assets/8E61A192502A1F9D99474086E8C856F1.png" width="258.00" height="150.00" transform="matrix(1.00, 0.00, -0.00, -1.00, 1447.0, 528.0)"></image></g></g><g><clipPath id="clip-212"><path d="M 593.7 370.6 L 886.1 370.6 L 886.1 535.4 L 593.7 535.4 Z M 593.7 370.6 "></path></clipPath><g clip-path="url(#clip-212)"><image xlink:href="../../67C9537F-0B80-4ECD-89C9-47B37D7E2ED2/assets/6BBB1D7151200D64A963B5D02E6204E2.png" width="293.00" height="165.00" transform="matrix(1.00, 0.00, -0.00, -0.99, 594.0, 535.0)"></image></g></g><g><clipPath id="clip-213"><path d="M 214.7 384.8 L 487.5 384.8 L 487.5 521.2 L 214.7 521.2 Z M 214.7 384.8 "></path></clipPath><g clip-path="url(#clip-213)"><image xlink:href="../../67C9537F-0B80-4ECD-89C9-47B37D7E2ED2/assets/5B75ED4A59657DA37814B54EDED8EAD4.png" width="273.00" height="136.00" transform="matrix(1.00, 0.00, -0.00, -1.00, 215.0, 521.0)"></image></g></g><text xml:space="preserve" font-family="Lunchtype" font-size="37.0" fill="#000000" transform="matrix(1.00, 0.00, -0.00, -1.00, 200.0, 884.0)">H</text><text xml:space="preserve" font-family="Lunchtype" font-size="37.0" fill="#000000" transform="matrix(1.00, 0.00, -0.00, -1.00, 224.5, 884.0)">o</text><text xml:space="preserve" font-family="Lunchtype" font-size="37.0" fill="#000000" transform="matrix(1.00, 0.00, -0.00, -1.00, 245.7, 884.0)">w</text><text xml:space="preserve" font-family="Lunchtype" font-size="37.0" fill="#000000" transform="matrix(1.00, 0.00, -0.00, -1.00, 274.3, 884.0)"> </text><text xml:space="preserve" font-family="Lunchtype" font-size="37.0" fill="#000000" transform="matrix(1.00, 0.00, -0.00, -1.00, 285.4, 884.0)">w</text><text xml:space="preserve" font-family="Lunchtype" font-size="37.0" fill="#000000" transform="matrix(1.00, 0.00, -0.00, -1.00, 313.9, 884.0)">e</text><text xml:space="preserve" font-family="Lunchtype" font-size="37.0" fill="#000000" transform="matrix(1.00, 0.00, -0.00, -1.00, 334.6, 884.0)"> </text><text xml:space="preserve" font-family="Lunchtype" font-size="37.0" fill="#000000" transform="matrix(1.00, 0.00, -0.00, -1.00, 345.7, 884.0)">n</text><text xml:space="preserve" font-family="Lunchtype" font-size="37.0" fill="#000000" transform="matrix(1.00, 0.00, -0.00, -1.00, 367.3, 884.0)">a</text><text xml:space="preserve" font-family="Lunchtype" font-size="37.0" fill="#000000" transform="matrix(1.00, 0.00, -0.00, -1.00, 387.0, 884.0)">v</text><text xml:space="preserve" font-family="Lunchtype" font-size="37.0" fill="#000000" transform="matrix(1.00, 0.00, -0.00, -1.00, 406.3, 884.0)">i</text><text xml:space="preserve" font-family="Lunchtype" font-size="37.0" fill="#000000" transform="matrix(1.00, 0.00, -0.00, -1.00, 414.1, 884.0)">g</text><text xml:space="preserve" font-family="Lunchtype" font-size="37.0" fill="#000000" transform="matrix(1.00, 0.00, -0.00, -1.00, 435.6, 884.0)">a</text><text xml:space="preserve" font-family="Lunchtype" font-size="37.0" fill="#000000" transform="matrix(1.00, 0.00, -0.00, -1.00, 455.3, 884.0)">t</text><text xml:space="preserve" font-family="Lunchtype" font-size="37.0" fill="#000000" transform="matrix(1.00, 0.00, -0.00, -1.00, 466.7, 884.0)">e</text><text xml:space="preserve" font-family="Lunchtype" font-size="37.0" fill="#000000" transform="matrix(1.00, 0.00, -0.00, -1.00, 487.4, 884.0)"> </text><text xml:space="preserve" font-family="Lunchtype" font-size="37.0" fill="#000000" transform="matrix(1.00, 0.00, -0.00, -1.00, 498.5, 884.0)">t</text><text xml:space="preserve" font-family="Lunchtype" font-size="37.0" fill="#000000" transform="matrix(1.00, 0.00, -0.00, -1.00, 509.9, 884.0)">o</text><text xml:space="preserve" font-family="Lunchtype" font-size="37.0" fill="#000000" transform="matrix(1.00, 0.00, -0.00, -1.00, 531.1, 884.0)"> </text><text xml:space="preserve" font-family="Lunchtype" font-size="37.0" fill="#000000" transform="matrix(1.00, 0.00, -0.00, -1.00, 542.2, 884.0)">d</text><text xml:space="preserve" font-family="Lunchtype" font-size="37.0" fill="#000000" transform="matrix(1.00, 0.00, -0.00, -1.00, 562.3, 884.0)">i</text><text xml:space="preserve" font-family="Lunchtype" font-size="37.0" fill="#000000" transform="matrix(1.00, 0.00, -0.00, -1.00, 570.2, 884.0)">f</text><text xml:space="preserve" font-family="Lunchtype" font-size="37.0" fill="#000000" transform="matrix(1.00, 0.00, -0.00, -1.00, 582.0, 884.0)">f</text><text xml:space="preserve" font-family="Lunchtype" font-size="37.0" fill="#000000" transform="matrix(1.00, 0.00, -0.00, -1.00, 593.9, 884.0)">e</text><text xml:space="preserve" font-family="Lunchtype" font-size="37.0" fill="#000000" transform="matrix(1.00, 0.00, -0.00, -1.00, 614.5, 884.0)">r</text><text xml:space="preserve" font-family="Lunchtype" font-size="37.0" fill="#000000" transform="matrix(1.00, 0.00, -0.00, -1.00, 627.8, 884.0)">e</text><text xml:space="preserve" font-family="Lunchtype" font-size="37.0" fill="#000000" transform="matrix(1.00, 0.00, -0.00, -1.00, 648.4, 884.0)">n</text><text xml:space="preserve" font-family="Lunchtype" font-size="37.0" fill="#000000" transform="matrix(1.00, 0.00, -0.00, -1.00, 670.0, 884.0)">t</text><text xml:space="preserve" font-family="Lunchtype" font-size="37.0" fill="#000000" transform="matrix(1.00, 0.00, -0.00, -1.00, 681.4, 884.0)"> </text><text xml:space="preserve" font-family="Lunchtype" font-size="37.0" fill="#000000" transform="matrix(1.00, 0.00, -0.00, -1.00, 692.5, 884.0)">r</text><text xml:space="preserve" font-family="Lunchtype" font-size="37.0" fill="#000000" transform="matrix(1.00, 0.00, -0.00, -1.00, 705.7, 884.0)">e</text><text xml:space="preserve" font-family="Lunchtype" font-size="37.0" fill="#000000" transform="matrix(1.00, 0.00, -0.00, -1.00, 726.4, 884.0)">a</text><text xml:space="preserve" font-family="Lunchtype" font-size="37.0" fill="#000000" transform="matrix(1.00, 0.00, -0.00, -1.00, 746.1, 884.0)">l</text><text xml:space="preserve" font-family="Lunchtype" font-size="37.0" fill="#000000" transform="matrix(1.00, 0.00, -0.00, -1.00, 754.8, 884.0)">i</text><text xml:space="preserve" font-family="Lunchtype" font-size="37.0" fill="#000000" transform="matrix(1.00, 0.00, -0.00, -1.00, 762.7, 884.0)">t</text><text xml:space="preserve" font-family="Lunchtype" font-size="37.0" fill="#000000" transform="matrix(1.00, 0.00, -0.00, -1.00, 774.1, 884.0)">i</text><text xml:space="preserve" font-family="Lunchtype" font-size="37.0" fill="#000000" transform="matrix(1.00, 0.00, -0.00, -1.00, 781.9, 884.0)">e</text><text xml:space="preserve" font-family="Lunchtype" font-size="37.0" fill="#000000" transform="matrix(1.00, 0.00, -0.00, -1.00, 802.6, 884.0)">s</text><text xml:space="preserve" font-family="Lunchtype" font-size="37.0" fill="#000000" transform="matrix(1.00, 0.00, -0.00, -1.00, 820.6, 884.0)"> </text><text xml:space="preserve" font-family="Lunchtype" font-size="24.0" fill="#808080" transform="matrix(1.00, 0.00, -0.00, -1.00, 200.0, 808.0)">I</text><text xml:space="preserve" font-family="Lunchtype" font-size="24.0" fill="#808080" transform="matrix(1.00, 0.00, -0.00, -1.00, 205.8, 808.0)">n</text><text xml:space="preserve" font-family="Lunchtype" font-size="24.0" fill="#808080" transform="matrix(1.00, 0.00, -0.00, -1.00, 219.8, 808.0)"> </text><text xml:space="preserve" font-family="Lunchtype" font-size="24.0" fill="#808080" transform="matrix(1.00, 0.00, -0.00, -1.00, 227.0, 808.0)">o</text><text xml:space="preserve" font-family="Lunchtype" font-size="24.0" fill="#808080" transform="matrix(1.00, 0.00, -0.00, -1.00, 240.7, 808.0)">r</text><text xml:space="preserve" font-family="Lunchtype" font-size="24.0" fill="#808080" transform="matrix(1.00, 0.00, -0.00, -1.00, 249.3, 808.0)">d</text><text xml:space="preserve" font-family="Lunchtype" font-size="24.0" fill="#808080" transform="matrix(1.00, 0.00, -0.00, -1.00, 262.4, 808.0)">e</text><text xml:space="preserve" font-family="Lunchtype" font-size="24.0" fill="#808080" transform="matrix(1.00, 0.00, -0.00, -1.00, 275.8, 808.0)">r</text><text xml:space="preserve" font-family="Lunchtype" font-size="24.0" fill="#808080" transform="matrix(1.00, 0.00, -0.00, -1.00, 284.4, 808.0)"> </text><text xml:space="preserve" font-family="Lunchtype" font-size="24.0" fill="#808080" transform="matrix(1.00, 0.00, -0.00, -1.00, 291.6, 808.0)">t</text><text xml:space="preserve" font-family="Lunchtype" font-size="24.0" fill="#808080" transform="matrix(1.00, 0.00, -0.00, -1.00, 299.0, 808.0)">o</text><text xml:space="preserve" font-family="Lunchtype" font-size="24.0" fill="#808080" transform="matrix(1.00, 0.00, -0.00, -1.00, 312.7, 808.0)"> </text><text xml:space="preserve" font-family="Lunchtype" font-size="24.0" fill="#808080" transform="matrix(1.00, 0.00, -0.00, -1.00, 319.9, 808.0)">t</text><text xml:space="preserve" font-family="Lunchtype" font-size="24.0" fill="#808080" transform="matrix(1.00, 0.00, -0.00, -1.00, 327.3, 808.0)">r</text><text xml:space="preserve" font-family="Lunchtype" font-size="24.0" fill="#808080" transform="matrix(1.00, 0.00, -0.00, -1.00, 335.9, 808.0)">a</text><text xml:space="preserve" font-family="Lunchtype" font-size="24.0" fill="#808080" transform="matrix(1.00, 0.00, -0.00, -1.00, 348.7, 808.0)">v</text><text xml:space="preserve" font-family="Lunchtype" font-size="24.0" fill="#808080" transform="matrix(1.00, 0.00, -0.00, -1.00, 361.2, 808.0)">e</text><text xml:space="preserve" font-family="Lunchtype" font-size="24.0" fill="#808080" transform="matrix(1.00, 0.00, -0.00, -1.00, 374.6, 808.0)">l</text><text xml:space="preserve" font-family="Lunchtype" font-size="24.0" fill="#808080" transform="matrix(1.00, 0.00, -0.00, -1.00, 380.2, 808.0)"> </text><text xml:space="preserve" font-family="Lunchtype" font-size="24.0" fill="#808080" transform="matrix(1.00, 0.00, -0.00, -1.00, 387.4, 808.0)">t</text><text xml:space="preserve" font-family="Lunchtype" font-size="24.0" fill="#808080" transform="matrix(1.00, 0.00, -0.00, -1.00, 394.8, 808.0)">o</text><text xml:space="preserve" font-family="Lunchtype" font-size="24.0" fill="#808080" transform="matrix(1.00, 0.00, -0.00, -1.00, 408.6, 808.0)"> </text><text xml:space="preserve" font-family="Lunchtype" font-size="24.0" fill="#808080" transform="matrix(1.00, 0.00, -0.00, -1.00, 415.8, 808.0)">d</text><text xml:space="preserve" font-family="Lunchtype" font-size="24.0" fill="#808080" transform="matrix(1.00, 0.00, -0.00, -1.00, 428.8, 808.0)">i</text><text xml:space="preserve" font-family="Lunchtype" font-size="24.0" fill="#808080" transform="matrix(1.00, 0.00, -0.00, -1.00, 433.9, 808.0)">f</text><text xml:space="preserve" font-family="Lunchtype" font-size="24.0" fill="#808080" transform="matrix(1.00, 0.00, -0.00, -1.00, 441.6, 808.0)">f</text><text xml:space="preserve" font-family="Lunchtype" font-size="24.0" fill="#808080" transform="matrix(1.00, 0.00, -0.00, -1.00, 449.3, 808.0)">e</text><text xml:space="preserve" font-family="Lunchtype" font-size="24.0" fill="#808080" transform="matrix(1.00, 0.00, -0.00, -1.00, 462.7, 808.0)">r</text><text xml:space="preserve" font-family="Lunchtype" font-size="24.0" fill="#808080" transform="matrix(1.00, 0.00, -0.00, -1.00, 471.3, 808.0)">e</text><text xml:space="preserve" font-family="Lunchtype" font-size="24.0" fill="#808080" transform="matrix(1.00, 0.00, -0.00, -1.00, 484.7, 808.0)">n</text><text xml:space="preserve" font-family="Lunchtype" font-size="24.0" fill="#808080" transform="matrix(1.00, 0.00, -0.00, -1.00, 498.7, 808.0)">t</text><text xml:space="preserve" font-family="Lunchtype" font-size="24.0" fill="#808080" transform="matrix(1.00, 0.00, -0.00, -1.00, 506.1, 808.0)"> </text><text xml:space="preserve" font-family="Lunchtype" font-size="24.0" fill="#808080" transform="matrix(1.00, 0.00, -0.00, -1.00, 513.3, 808.0)">r</text><text xml:space="preserve" font-family="Lunchtype" font-size="24.0" fill="#808080" transform="matrix(1.00, 0.00, -0.00, -1.00, 521.8, 808.0)">e</text><text xml:space="preserve" font-family="Lunchtype" font-size="24.0" fill="#808080" transform="matrix(1.00, 0.00, -0.00, -1.00, 535.3, 808.0)">a</text><text xml:space="preserve" font-family="Lunchtype" font-size="24.0" fill="#808080" transform="matrix(1.00, 0.00, -0.00, -1.00, 548.0, 808.0)">l</text><text xml:space="preserve" font-family="Lunchtype" font-size="24.0" fill="#808080" transform="matrix(1.00, 0.00, -0.00, -1.00, 553.7, 808.0)">i</text><text xml:space="preserve" font-family="Lunchtype" font-size="24.0" fill="#808080" transform="matrix(1.00, 0.00, -0.00, -1.00, 558.8, 808.0)">t</text><text xml:space="preserve" font-family="Lunchtype" font-size="24.0" fill="#808080" transform="matrix(1.00, 0.00, -0.00, -1.00, 566.2, 808.0)">i</text><text xml:space="preserve" font-family="Lunchtype" font-size="24.0" fill="#808080" transform="matrix(1.00, 0.00, -0.00, -1.00, 571.3, 808.0)">e</text><text xml:space="preserve" font-family="Lunchtype" font-size="24.0" fill="#808080" transform="matrix(1.00, 0.00, -0.00, -1.00, 584.7, 808.0)">s</text><text xml:space="preserve" font-family="Lunchtype" font-size="24.0" fill="#808080" transform="matrix(1.00, 0.00, -0.00, -1.00, 596.4, 808.0)">,</text><text xml:space="preserve" font-family="Lunchtype" font-size="24.0" fill="#808080" transform="matrix(1.00, 0.00, -0.00, -1.00, 601.7, 808.0)"> </text><text xml:space="preserve" font-family="Lunchtype" font-size="24.0" fill="#808080" transform="matrix(1.00, 0.00, -0.00, -1.00, 608.9, 808.0)">w</text><text xml:space="preserve" font-family="Lunchtype" font-size="24.0" fill="#808080" transform="matrix(1.00, 0.00, -0.00, -1.00, 627.5, 808.0)">e</text><text xml:space="preserve" font-family="Lunchtype" font-size="24.0" fill="#808080" transform="matrix(1.00, 0.00, -0.00, -1.00, 640.9, 808.0)"> </text><text xml:space="preserve" font-family="Lunchtype" font-size="24.0" fill="#808080" transform="matrix(1.00, 0.00, -0.00, -1.00, 648.1, 808.0)">n</text><text xml:space="preserve" font-family="Lunchtype" font-size="24.0" fill="#808080" transform="matrix(1.00, 0.00, -0.00, -1.00, 662.1, 808.0)">e</text><text xml:space="preserve" font-family="Lunchtype" font-size="24.0" fill="#808080" transform="matrix(1.00, 0.00, -0.00, -1.00, 675.5, 808.0)">e</text><text xml:space="preserve" font-family="Lunchtype" font-size="24.0" fill="#808080" transform="matrix(1.00, 0.00, -0.00, -1.00, 688.9, 808.0)">d</text><text xml:space="preserve" font-family="Lunchtype" font-size="24.0" fill="#808080" transform="matrix(1.00, 0.00, -0.00, -1.00, 702.0, 808.0)"> </text><text xml:space="preserve" font-family="Lunchtype" font-size="24.0" fill="#808080" transform="matrix(1.00, 0.00, -0.00, -1.00, 709.2, 808.0)">a</text><text xml:space="preserve" font-family="Lunchtype" font-size="24.0" fill="#808080" transform="matrix(1.00, 0.00, -0.00, -1.00, 722.0, 808.0)"> </text><text xml:space="preserve" font-family="Lunchtype" font-size="24.0" fill="#808080" transform="matrix(1.00, 0.00, -0.00, -1.00, 729.2, 808.0)">‘</text><text xml:space="preserve" font-family="Lunchtype" font-size="24.0" fill="#808080" transform="matrix(1.00, 0.00, -0.00, -1.00, 733.8, 808.0)">m</text><text xml:space="preserve" font-family="Lunchtype" font-size="24.0" fill="#808080" transform="matrix(1.00, 0.00, -0.00, -1.00, 754.6, 808.0)">o</text><text xml:space="preserve" font-family="Lunchtype" font-size="24.0" fill="#808080" transform="matrix(1.00, 0.00, -0.00, -1.00, 768.3, 808.0)">d</text><text xml:space="preserve" font-family="Lunchtype" font-size="24.0" fill="#808080" transform="matrix(1.00, 0.00, -0.00, -1.00, 781.4, 808.0)">e</text><text xml:space="preserve" font-family="Lunchtype" font-size="24.0" fill="#808080" transform="matrix(1.00, 0.00, -0.00, -1.00, 794.8, 808.0)"> </text><text xml:space="preserve" font-family="Lunchtype" font-size="24.0" fill="#808080" transform="matrix(1.00, 0.00, -0.00, -1.00, 802.0, 808.0)">o</text><text xml:space="preserve" font-family="Lunchtype" font-size="24.0" fill="#808080" transform="matrix(1.00, 0.00, -0.00, -1.00, 815.8, 808.0)">f</text><text xml:space="preserve" font-family="Lunchtype" font-size="24.0" fill="#808080" transform="matrix(1.00, 0.00, -0.00, -1.00, 823.5, 808.0)"> </text><text xml:space="preserve" font-family="Lunchtype" font-size="24.0" fill="#808080" transform="matrix(1.00, 0.00, -0.00, -1.00, 830.7, 808.0)">t</text><text xml:space="preserve" font-family="Lunchtype" font-size="24.0" fill="#808080" transform="matrix(1.00, 0.00, -0.00, -1.00, 838.1, 808.0)">r</text><text xml:space="preserve" font-family="Lunchtype" font-size="24.0" fill="#808080" transform="matrix(1.00, 0.00, -0.00, -1.00, 846.6, 808.0)">a</text><text xml:space="preserve" font-family="Lunchtype" font-size="24.0" fill="#808080" transform="matrix(1.00, 0.00, -0.00, -1.00, 859.4, 808.0)">n</text><text xml:space="preserve" font-family="Lunchtype" font-size="24.0" fill="#808080" transform="matrix(1.00, 0.00, -0.00, -1.00, 873.4, 808.0)">s</text><text xml:space="preserve" font-family="Lunchtype" font-size="24.0" fill="#808080" transform="matrix(1.00, 0.00, -0.00, -1.00, 885.1, 808.0)">p</text><text xml:space="preserve" font-family="Lunchtype" font-size="24.0" fill="#808080" transform="matrix(1.00, 0.00, -0.00, -1.00, 898.3, 808.0)">o</text><text xml:space="preserve" font-family="Lunchtype" font-size="24.0" fill="#808080" transform="matrix(1.00, 0.00, -0.00, -1.00, 912.0, 808.0)">r</text><text xml:space="preserve" font-family="Lunchtype" font-size="24.0" fill="#808080" transform="matrix(1.00, 0.00, -0.00, -1.00, 920.6, 808.0)">t</text><text xml:space="preserve" font-family="Lunchtype" font-size="24.0" fill="#808080" transform="matrix(1.00, 0.00, -0.00, -1.00, 928.0, 808.0)">a</text><text xml:space="preserve" font-family="Lunchtype" font-size="24.0" fill="#808080" transform="matrix(1.00, 0.00, -0.00, -1.00, 940.8, 808.0)">t</text><text xml:space="preserve" font-family="Lunchtype" font-size="24.0" fill="#808080" transform="matrix(1.00, 0.00, -0.00, -1.00, 948.2, 808.0)">i</text><text xml:space="preserve" font-family="Lunchtype" font-size="24.0" fill="#808080" transform="matrix(1.00, 0.00, -0.00, -1.00, 953.2, 808.0)">o</text><text xml:space="preserve" font-family="Lunchtype" font-size="24.0" fill="#808080" transform="matrix(1.00, 0.00, -0.00, -1.00, 967.0, 808.0)">n</text><text xml:space="preserve" font-family="Lunchtype" font-size="24.0" fill="#808080" transform="matrix(1.00, 0.00, -0.00, -1.00, 981.0, 808.0)">’</text><text xml:space="preserve" font-family="Lunchtype" font-size="24.0" fill="#808080" transform="matrix(1.00, 0.00, -0.00, -1.00, 985.6, 808.0)"> </text><text xml:space="preserve" font-family="Lunchtype" font-size="24.0" fill="#808080" transform="matrix(1.00, 0.00, -0.00, -1.00, 992.8, 808.0)">i</text><text xml:space="preserve" font-family="Lunchtype" font-size="24.0" fill="#808080" transform="matrix(1.00, 0.00, -0.00, -1.00, 997.9, 808.0)">n</text><text xml:space="preserve" font-family="Lunchtype" font-size="24.0" fill="#808080" transform="matrix(1.00, 0.00, -0.00, -1.00, 1011.9, 808.0)"> </text><text xml:space="preserve" font-family="Lunchtype" font-size="24.0" fill="#808080" transform="matrix(1.00, 0.00, -0.00, -1.00, 1019.1, 808.0)">o</text><text xml:space="preserve" font-family="Lunchtype" font-size="24.0" fill="#808080" transform="matrix(1.00, 0.00, -0.00, -1.00, 1032.8, 808.0)">r</text><text xml:space="preserve" font-family="Lunchtype" font-size="24.0" fill="#808080" transform="matrix(1.00, 0.00, -0.00, -1.00, 1041.4, 808.0)">d</text><text xml:space="preserve" font-family="Lunchtype" font-size="24.0" fill="#808080" transform="matrix(1.00, 0.00, -0.00, -1.00, 1054.5, 808.0)">e</text><text xml:space="preserve" font-family="Lunchtype" font-size="24.0" fill="#808080" transform="matrix(1.00, 0.00, -0.00, -1.00, 1067.9, 808.0)">r</text><text xml:space="preserve" font-family="Lunchtype" font-size="24.0" fill="#808080" transform="matrix(1.00, 0.00, -0.00, -1.00, 1076.5, 808.0)"> </text><text xml:space="preserve" font-family="Lunchtype" font-size="24.0" fill="#808080" transform="matrix(1.00, 0.00, -0.00, -1.00, 1083.7, 808.0)">t</text><text xml:space="preserve" font-family="Lunchtype" font-size="24.0" fill="#808080" transform="matrix(1.00, 0.00, -0.00, -1.00, 1091.0, 808.0)">o</text><text xml:space="preserve" font-family="Lunchtype" font-size="24.0" fill="#808080" transform="matrix(1.00, 0.00, -0.00, -1.00, 1104.8, 808.0)"> </text><text xml:space="preserve" font-family="Lunchtype" font-size="24.0" fill="#808080" transform="matrix(1.00, 0.00, -0.00, -1.00, 1112.0, 808.0)">t</text><text xml:space="preserve" font-family="Lunchtype" font-size="24.0" fill="#808080" transform="matrix(1.00, 0.00, -0.00, -1.00, 1119.4, 808.0)">a</text><text xml:space="preserve" font-family="Lunchtype" font-size="24.0" fill="#808080" transform="matrix(1.00, 0.00, -0.00, -1.00, 1132.2, 808.0)">k</text><text xml:space="preserve" font-family="Lunchtype" font-size="24.0" fill="#808080" transform="matrix(1.00, 0.00, -0.00, -1.00, 1144.5, 808.0)">e</text><text xml:space="preserve" font-family="Lunchtype" font-size="24.0" fill="#808080" transform="matrix(1.00, 0.00, -0.00, -1.00, 1157.9, 808.0)"> </text><text xml:space="preserve" font-family="Lunchtype" font-size="24.0" fill="#808080" transform="matrix(1.00, 0.00, -0.00, -1.00, 1165.1, 808.0)">u</text><text xml:space="preserve" font-family="Lunchtype" font-size="24.0" fill="#808080" transform="matrix(1.00, 0.00, -0.00, -1.00, 1179.1, 808.0)">s</text><text xml:space="preserve" font-family="Lunchtype" font-size="24.0" fill="#808080" transform="matrix(1.00, 0.00, -0.00, -1.00, 1190.8, 808.0)"> </text><text xml:space="preserve" font-family="Lunchtype" font-size="24.0" fill="#808080" transform="matrix(1.00, 0.00, -0.00, -1.00, 1198.0, 808.0)">f</text><text xml:space="preserve" font-family="Lunchtype" font-size="24.0" fill="#808080" transform="matrix(1.00, 0.00, -0.00, -1.00, 1205.7, 808.0)">r</text><text xml:space="preserve" font-family="Lunchtype" font-size="24.0" fill="#808080" transform="matrix(1.00, 0.00, -0.00, -1.00, 1214.3, 808.0)">o</text><text xml:space="preserve" font-family="Lunchtype" font-size="24.0" fill="#808080" transform="matrix(1.00, 0.00, -0.00, -1.00, 1228.0, 808.0)">m</text><text xml:space="preserve" font-family="Lunchtype" font-size="24.0" fill="#808080" transform="matrix(1.00, 0.00, -0.00, -1.00, 1248.8, 808.0)"> </text><text xml:space="preserve" font-family="Lunchtype" font-size="24.0" fill="#808080" transform="matrix(1.00, 0.00, -0.00, -1.00, 1256.0, 808.0)">o</text><text xml:space="preserve" font-family="Lunchtype" font-size="24.0" fill="#808080" transform="matrix(1.00, 0.00, -0.00, -1.00, 1269.8, 808.0)">n</text><text xml:space="preserve" font-family="Lunchtype" font-size="24.0" fill="#808080" transform="matrix(1.00, 0.00, -0.00, -1.00, 1283.7, 808.0)">e</text><text xml:space="preserve" font-family="Lunchtype" font-size="24.0" fill="#808080" transform="matrix(1.00, 0.00, -0.00, -1.00, 1297.2, 808.0)"> </text><text xml:space="preserve" font-family="Lunchtype" font-size="24.0" fill="#808080" transform="matrix(1.00, 0.00, -0.00, -1.00, 1304.4, 808.0)">r</text><text xml:space="preserve" font-family="Lunchtype" font-size="24.0" fill="#808080" transform="matrix(1.00, 0.00, -0.00, -1.00, 1312.9, 808.0)">e</text><text xml:space="preserve" font-family="Lunchtype" font-size="24.0" fill="#808080" transform="matrix(1.00, 0.00, -0.00, -1.00, 1326.3, 808.0)">a</text><text xml:space="preserve" font-family="Lunchtype" font-size="24.0" fill="#808080" transform="matrix(1.00, 0.00, -0.00, -1.00, 1339.1, 808.0)">l</text><text xml:space="preserve" font-family="Lunchtype" font-size="24.0" fill="#808080" transform="matrix(1.00, 0.00, -0.00, -1.00, 1344.8, 808.0)">i</text><text xml:space="preserve" font-family="Lunchtype" font-size="24.0" fill="#808080" transform="matrix(1.00, 0.00, -0.00, -1.00, 1349.9, 808.0)">t</text><text xml:space="preserve" font-family="Lunchtype" font-size="24.0" fill="#808080" transform="matrix(1.00, 0.00, -0.00, -1.00, 1357.3, 808.0)">y</text><text xml:space="preserve" font-family="Lunchtype" font-size="24.0" fill="#808080" transform="matrix(1.00, 0.00, -0.00, -1.00, 1370.0, 808.0)"> </text><text xml:space="preserve" font-family="Lunchtype" font-size="24.0" fill="#808080" transform="matrix(1.00, 0.00, -0.00, -1.00, 1377.2, 808.0)">t</text><text xml:space="preserve" font-family="Lunchtype" font-size="24.0" fill="#808080" transform="matrix(1.00, 0.00, -0.00, -1.00, 1384.6, 808.0)">o</text><text xml:space="preserve" font-family="Lunchtype" font-size="24.0" fill="#808080" transform="matrix(1.00, 0.00, -0.00, -1.00, 1398.4, 808.0)"> </text><text xml:space="preserve" font-family="Lunchtype" font-size="24.0" fill="#808080" transform="matrix(1.00, 0.00, -0.00, -1.00, 1405.6, 808.0)">t</text><text xml:space="preserve" font-family="Lunchtype" font-size="24.0" fill="#808080" transform="matrix(1.00, 0.00, -0.00, -1.00, 1413.0, 808.0)">h</text><text xml:space="preserve" font-family="Lunchtype" font-size="24.0" fill="#808080" transform="matrix(1.00, 0.00, -0.00, -1.00, 1425.7, 808.0)">e</text><text xml:space="preserve" font-family="Lunchtype" font-size="24.0" fill="#808080" transform="matrix(1.00, 0.00, -0.00, -1.00, 1439.1, 808.0)"> </text><text xml:space="preserve" font-family="Lunchtype" font-size="24.0" fill="#808080" transform="matrix(1.00, 0.00, -0.00, -1.00, 1446.3, 808.0)">n</text><text xml:space="preserve" font-family="Lunchtype" font-size="24.0" fill="#808080" transform="matrix(1.00, 0.00, -0.00, -1.00, 1460.3, 808.0)">e</text><text xml:space="preserve" font-family="Lunchtype" font-size="24.0" fill="#808080" transform="matrix(1.00, 0.00, -0.00, -1.00, 1473.8, 808.0)">x</text><text xml:space="preserve" font-family="Lunchtype" font-size="24.0" fill="#808080" transform="matrix(1.00, 0.00, -0.00, -1.00, 1487.8, 808.0)">t</text><text xml:space="preserve" font-family="Lunchtype" font-size="24.0" fill="#808080" transform="matrix(1.00, 0.00, -0.00, -1.00, 1495.2, 808.0)">.</text><text xml:space="preserve" font-family="Lunchtype" font-size="24.0" fill="#808080" transform="matrix(1.00, 0.00, -0.00, -1.00, 1501.5, 808.0)"> </text><text xml:space="preserve" font-family="Lunchtype" font-size="24.0" fill="#808080" transform="matrix(1.00, 0.00, -0.00, -1.00, 1508.7, 808.0)">I</text><text xml:space="preserve" font-family="Lunchtype" font-size="24.0" fill="#808080" transform="matrix(1.00, 0.00, -0.00, -1.00, 1514.5, 808.0)">n</text><text xml:space="preserve" font-family="Lunchtype" font-size="24.0" fill="#808080" transform="matrix(1.00, 0.00, -0.00, -1.00, 1528.5, 808.0)"> </text><text xml:space="preserve" font-family="Lunchtype" font-size="24.0" fill="#808080" transform="matrix(1.00, 0.00, -0.00, -1.00, 200.0, 764.0)">t</text><text xml:space="preserve" font-family="Lunchtype" font-size="24.0" fill="#808080" transform="matrix(1.00, 0.00, -0.00, -1.00, 207.4, 764.0)">h</text><text xml:space="preserve" font-family="Lunchtype" font-size="24.0" fill="#808080" transform="matrix(1.00, 0.00, -0.00, -1.00, 220.2, 764.0)">e</text><text xml:space="preserve" font-family="Lunchtype" font-size="24.0" fill="#808080" transform="matrix(1.00, 0.00, -0.00, -1.00, 233.6, 764.0)"> </text><text xml:space="preserve" font-family="Lunchtype" font-size="24.0" fill="#808080" transform="matrix(1.00, 0.00, -0.00, -1.00, 240.8, 764.0)">c</text><text xml:space="preserve" font-family="Lunchtype" font-size="24.0" fill="#808080" transform="matrix(1.00, 0.00, -0.00, -1.00, 254.0, 764.0)">a</text><text xml:space="preserve" font-family="Lunchtype" font-size="24.0" fill="#808080" transform="matrix(1.00, 0.00, -0.00, -1.00, 266.7, 764.0)">s</text><text xml:space="preserve" font-family="Lunchtype" font-size="24.0" fill="#808080" transform="matrix(1.00, 0.00, -0.00, -1.00, 278.5, 764.0)">e</text><text xml:space="preserve" font-family="Lunchtype" font-size="24.0" fill="#808080" transform="matrix(1.00, 0.00, -0.00, -1.00, 291.9, 764.0)"> </text><text xml:space="preserve" font-family="Lunchtype" font-size="24.0" fill="#808080" transform="matrix(1.00, 0.00, -0.00, -1.00, 299.1, 764.0)">o</text><text xml:space="preserve" font-family="Lunchtype" font-size="24.0" fill="#808080" transform="matrix(1.00, 0.00, -0.00, -1.00, 312.8, 764.0)">f</text><text xml:space="preserve" font-family="Lunchtype" font-size="24.0" fill="#808080" transform="matrix(1.00, 0.00, -0.00, -1.00, 320.5, 764.0)"> </text><text xml:space="preserve" font-family="Lunchtype" font-size="24.0" fill="#808080" transform="matrix(1.00, 0.00, -0.00, -1.00, 327.7, 764.0)">V</text><text xml:space="preserve" font-family="Lunchtype" font-size="24.0" fill="#808080" transform="matrix(1.00, 0.00, -0.00, -1.00, 342.2, 764.0)">i</text><text xml:space="preserve" font-family="Lunchtype" font-size="24.0" fill="#808080" transform="matrix(1.00, 0.00, -0.00, -1.00, 347.2, 764.0)">r</text><text xml:space="preserve" font-family="Lunchtype" font-size="24.0" fill="#808080" transform="matrix(1.00, 0.00, -0.00, -1.00, 355.8, 764.0)">t</text><text xml:space="preserve" font-family="Lunchtype" font-size="24.0" fill="#808080" transform="matrix(1.00, 0.00, -0.00, -1.00, 363.2, 764.0)">u</text><text xml:space="preserve" font-family="Lunchtype" font-size="24.0" fill="#808080" transform="matrix(1.00, 0.00, -0.00, -1.00, 377.2, 764.0)">a</text><text xml:space="preserve" font-family="Lunchtype" font-size="24.0" fill="#808080" transform="matrix(1.00, 0.00, -0.00, -1.00, 390.0, 764.0)">l</text><text xml:space="preserve" font-family="Lunchtype" font-size="24.0" fill="#808080" transform="matrix(1.00, 0.00, -0.00, -1.00, 395.6, 764.0)"> </text><text xml:space="preserve" font-family="Lunchtype" font-size="24.0" fill="#808080" transform="matrix(1.00, 0.00, -0.00, -1.00, 402.8, 764.0)">R</text><text xml:space="preserve" font-family="Lunchtype" font-size="24.0" fill="#808080" transform="matrix(1.00, 0.00, -0.00, -1.00, 418.1, 764.0)">e</text><text xml:space="preserve" font-family="Lunchtype" font-size="24.0" fill="#808080" transform="matrix(1.00, 0.00, -0.00, -1.00, 431.6, 764.0)">a</text><text xml:space="preserve" font-family="Lunchtype" font-size="24.0" fill="#808080" transform="matrix(1.00, 0.00, -0.00, -1.00, 444.3, 764.0)">l</text><text xml:space="preserve" font-family="Lunchtype" font-size="24.0" fill="#808080" transform="matrix(1.00, 0.00, -0.00, -1.00, 450.0, 764.0)">i</text><text xml:space="preserve" font-family="Lunchtype" font-size="24.0" fill="#808080" transform="matrix(1.00, 0.00, -0.00, -1.00, 455.1, 764.0)">t</text><text xml:space="preserve" font-family="Lunchtype" font-size="24.0" fill="#808080" transform="matrix(1.00, 0.00, -0.00, -1.00, 462.5, 764.0)">y</text><text xml:space="preserve" font-family="Lunchtype" font-size="24.0" fill="#808080" transform="matrix(1.00, 0.00, -0.00, -1.00, 475.2, 764.0)">,</text><text xml:space="preserve" font-family="Lunchtype" font-size="24.0" fill="#808080" transform="matrix(1.00, 0.00, -0.00, -1.00, 480.6, 764.0)"> </text><text xml:space="preserve" font-family="Lunchtype" font-size="24.0" fill="#808080" transform="matrix(1.00, 0.00, -0.00, -1.00, 487.8, 764.0)">w</text><text xml:space="preserve" font-family="Lunchtype" font-size="24.0" fill="#808080" transform="matrix(1.00, 0.00, -0.00, -1.00, 506.3, 764.0)">e</text><text xml:space="preserve" font-family="Lunchtype" font-size="24.0" fill="#808080" transform="matrix(1.00, 0.00, -0.00, -1.00, 519.7, 764.0)"> </text><text xml:space="preserve" font-family="Lunchtype" font-size="24.0" fill="#808080" transform="matrix(1.00, 0.00, -0.00, -1.00, 526.9, 764.0)">n</text><text xml:space="preserve" font-family="Lunchtype" font-size="24.0" fill="#808080" transform="matrix(1.00, 0.00, -0.00, -1.00, 540.9, 764.0)">e</text><text xml:space="preserve" font-family="Lunchtype" font-size="24.0" fill="#808080" transform="matrix(1.00, 0.00, -0.00, -1.00, 554.3, 764.0)">e</text><text xml:space="preserve" font-family="Lunchtype" font-size="24.0" fill="#808080" transform="matrix(1.00, 0.00, -0.00, -1.00, 567.8, 764.0)">d</text><text xml:space="preserve" font-family="Lunchtype" font-size="24.0" fill="#808080" transform="matrix(1.00, 0.00, -0.00, -1.00, 580.8, 764.0)"> </text><text xml:space="preserve" font-family="Lunchtype" font-size="24.0" fill="#808080" transform="matrix(1.00, 0.00, -0.00, -1.00, 588.0, 764.0)">a</text><text xml:space="preserve" font-family="Lunchtype" font-size="24.0" fill="#808080" transform="matrix(1.00, 0.00, -0.00, -1.00, 600.8, 764.0)"> </text><text xml:space="preserve" font-family="Lunchtype" font-size="24.0" fill="#808080" transform="matrix(1.00, 0.00, -0.00, -1.00, 608.0, 764.0)">t</text><text xml:space="preserve" font-family="Lunchtype" font-size="24.0" fill="#808080" transform="matrix(1.00, 0.00, -0.00, -1.00, 615.4, 764.0)">o</text><text xml:space="preserve" font-family="Lunchtype" font-size="24.0" fill="#808080" transform="matrix(1.00, 0.00, -0.00, -1.00, 629.2, 764.0)">o</text><text xml:space="preserve" font-family="Lunchtype" font-size="24.0" fill="#808080" transform="matrix(1.00, 0.00, -0.00, -1.00, 642.9, 764.0)">l</text><text xml:space="preserve" font-family="Lunchtype" font-size="24.0" fill="#808080" transform="matrix(1.00, 0.00, -0.00, -1.00, 648.6, 764.0)"> </text><text xml:space="preserve" font-family="Lunchtype" font-size="24.0" fill="#808080" transform="matrix(1.00, 0.00, -0.00, -1.00, 655.8, 764.0)">l</text><text xml:space="preserve" font-family="Lunchtype" font-size="24.0" fill="#808080" transform="matrix(1.00, 0.00, -0.00, -1.00, 661.4, 764.0)">i</text><text xml:space="preserve" font-family="Lunchtype" font-size="24.0" fill="#808080" transform="matrix(1.00, 0.00, -0.00, -1.00, 666.5, 764.0)">k</text><text xml:space="preserve" font-family="Lunchtype" font-size="24.0" fill="#808080" transform="matrix(1.00, 0.00, -0.00, -1.00, 678.8, 764.0)">e</text><text xml:space="preserve" font-family="Lunchtype" font-size="24.0" fill="#808080" transform="matrix(1.00, 0.00, -0.00, -1.00, 692.2, 764.0)"> </text><text xml:space="preserve" font-family="Lunchtype" font-size="24.0" fill="#808080" transform="matrix(1.00, 0.00, -0.00, -1.00, 699.4, 764.0)">t</text><text xml:space="preserve" font-family="Lunchtype" font-size="24.0" fill="#808080" transform="matrix(1.00, 0.00, -0.00, -1.00, 706.8, 764.0)">h</text><text xml:space="preserve" font-family="Lunchtype" font-size="24.0" fill="#808080" transform="matrix(1.00, 0.00, -0.00, -1.00, 719.6, 764.0)">e</text><text xml:space="preserve" font-family="Lunchtype" font-size="24.0" fill="#808080" transform="matrix(1.00, 0.00, -0.00, -1.00, 733.0, 764.0)"> </text><text xml:space="preserve" font-family="Lunchtype" font-size="24.0" fill="#808080" transform="matrix(1.00, 0.00, -0.00, -1.00, 740.2, 764.0)">O</text><text xml:space="preserve" font-family="Lunchtype" font-size="24.0" fill="#808080" transform="matrix(1.00, 0.00, -0.00, -1.00, 756.3, 764.0)">c</text><text xml:space="preserve" font-family="Lunchtype" font-size="24.0" fill="#808080" transform="matrix(1.00, 0.00, -0.00, -1.00, 769.5, 764.0)">u</text><text xml:space="preserve" font-family="Lunchtype" font-size="24.0" fill="#808080" transform="matrix(1.00, 0.00, -0.00, -1.00, 783.5, 764.0)">l</text><text xml:space="preserve" font-family="Lunchtype" font-size="24.0" fill="#808080" transform="matrix(1.00, 0.00, -0.00, -1.00, 789.1, 764.0)">u</text><text xml:space="preserve" font-family="Lunchtype" font-size="24.0" fill="#808080" transform="matrix(1.00, 0.00, -0.00, -1.00, 803.1, 764.0)">s</text><text xml:space="preserve" font-family="Lunchtype" font-size="24.0" fill="#808080" transform="matrix(1.00, 0.00, -0.00, -1.00, 814.8, 764.0)"> </text><text xml:space="preserve" font-family="Lunchtype" font-size="24.0" fill="#808080" transform="matrix(1.00, 0.00, -0.00, -1.00, 822.0, 764.0)">R</text><text xml:space="preserve" font-family="Lunchtype" font-size="24.0" fill="#808080" transform="matrix(1.00, 0.00, -0.00, -1.00, 837.3, 764.0)">i</text><text xml:space="preserve" font-family="Lunchtype" font-size="24.0" fill="#808080" transform="matrix(1.00, 0.00, -0.00, -1.00, 842.4, 764.0)">f</text><text xml:space="preserve" font-family="Lunchtype" font-size="24.0" fill="#808080" transform="matrix(1.00, 0.00, -0.00, -1.00, 850.1, 764.0)">t</text><text xml:space="preserve" font-family="Lunchtype" font-size="24.0" fill="#808080" transform="matrix(1.00, 0.00, -0.00, -1.00, 857.5, 764.0)"> </text><text xml:space="preserve" font-family="Lunchtype" font-size="24.0" fill="#808080" transform="matrix(1.00, 0.00, -0.00, -1.00, 864.7, 764.0)">o</text><text xml:space="preserve" font-family="Lunchtype" font-size="24.0" fill="#808080" transform="matrix(1.00, 0.00, -0.00, -1.00, 878.4, 764.0)">r</text><text xml:space="preserve" font-family="Lunchtype" font-size="24.0" fill="#808080" transform="matrix(1.00, 0.00, -0.00, -1.00, 887.0, 764.0)"> </text><text xml:space="preserve" font-family="Lunchtype" font-size="24.0" fill="#808080" transform="matrix(1.00, 0.00, -0.00, -1.00, 894.2, 764.0)">t</text><text xml:space="preserve" font-family="Lunchtype" font-size="24.0" fill="#808080" transform="matrix(1.00, 0.00, -0.00, -1.00, 901.6, 764.0)">h</text><text xml:space="preserve" font-family="Lunchtype" font-size="24.0" fill="#808080" transform="matrix(1.00, 0.00, -0.00, -1.00, 914.4, 764.0)">e</text><text xml:space="preserve" font-family="Lunchtype" font-size="24.0" fill="#808080" transform="matrix(1.00, 0.00, -0.00, -1.00, 927.8, 764.0)"> </text><text xml:space="preserve" font-family="Lunchtype" font-size="24.0" fill="#808080" transform="matrix(1.00, 0.00, -0.00, -1.00, 935.0, 764.0)">H</text><text xml:space="preserve" font-family="Lunchtype" font-size="24.0" fill="#808080" transform="matrix(1.00, 0.00, -0.00, -1.00, 950.9, 764.0)">T</text><text xml:space="preserve" font-family="Lunchtype" font-size="24.0" fill="#808080" transform="matrix(1.00, 0.00, -0.00, -1.00, 964.2, 764.0)">C</text><text xml:space="preserve" font-family="Lunchtype" font-size="24.0" fill="#808080" transform="matrix(1.00, 0.00, -0.00, -1.00, 979.5, 764.0)"> </text><text xml:space="preserve" font-family="Lunchtype" font-size="24.0" fill="#808080" transform="matrix(1.00, 0.00, -0.00, -1.00, 986.7, 764.0)">V</text><text xml:space="preserve" font-family="Lunchtype" font-size="24.0" fill="#808080" transform="matrix(1.00, 0.00, -0.00, -1.00, 1001.2, 764.0)">i</text><text xml:space="preserve" font-family="Lunchtype" font-size="24.0" fill="#808080" transform="matrix(1.00, 0.00, -0.00, -1.00, 1006.3, 764.0)">v</text><text xml:space="preserve" font-family="Lunchtype" font-size="24.0" fill="#808080" transform="matrix(1.00, 0.00, -0.00, -1.00, 1018.8, 764.0)">e</text><text xml:space="preserve" font-family="Lunchtype" font-size="24.0" fill="#808080" transform="matrix(1.00, 0.00, -0.00, -1.00, 1032.2, 764.0)"> </text><text xml:space="preserve" font-family="Lunchtype" font-size="24.0" fill="#808080" transform="matrix(1.00, 0.00, -0.00, -1.00, 1039.4, 764.0)">i</text><text xml:space="preserve" font-family="Lunchtype" font-size="24.0" fill="#808080" transform="matrix(1.00, 0.00, -0.00, -1.00, 1044.5, 764.0)">n</text><text xml:space="preserve" font-family="Lunchtype" font-size="24.0" fill="#808080" transform="matrix(1.00, 0.00, -0.00, -1.00, 1058.5, 764.0)"> </text><text xml:space="preserve" font-family="Lunchtype" font-size="24.0" fill="#808080" transform="matrix(1.00, 0.00, -0.00, -1.00, 1065.7, 764.0)">o</text><text xml:space="preserve" font-family="Lunchtype" font-size="24.0" fill="#808080" transform="matrix(1.00, 0.00, -0.00, -1.00, 1079.4, 764.0)">r</text><text xml:space="preserve" font-family="Lunchtype" font-size="24.0" fill="#808080" transform="matrix(1.00, 0.00, -0.00, -1.00, 1088.0, 764.0)">d</text><text xml:space="preserve" font-family="Lunchtype" font-size="24.0" fill="#808080" transform="matrix(1.00, 0.00, -0.00, -1.00, 1101.1, 764.0)">e</text><text xml:space="preserve" font-family="Lunchtype" font-size="24.0" fill="#808080" transform="matrix(1.00, 0.00, -0.00, -1.00, 1114.5, 764.0)">r</text><text xml:space="preserve" font-family="Lunchtype" font-size="24.0" fill="#808080" transform="matrix(1.00, 0.00, -0.00, -1.00, 1123.1, 764.0)"> </text><text xml:space="preserve" font-family="Lunchtype" font-size="24.0" fill="#808080" transform="matrix(1.00, 0.00, -0.00, -1.00, 1130.3, 764.0)">t</text><text xml:space="preserve" font-family="Lunchtype" font-size="24.0" fill="#808080" transform="matrix(1.00, 0.00, -0.00, -1.00, 1137.7, 764.0)">o</text><text xml:space="preserve" font-family="Lunchtype" font-size="24.0" fill="#808080" transform="matrix(1.00, 0.00, -0.00, -1.00, 1151.4, 764.0)"> </text><text xml:space="preserve" font-family="Lunchtype" font-size="24.0" fill="#808080" transform="matrix(1.00, 0.00, -0.00, -1.00, 1158.6, 764.0)">t</text><text xml:space="preserve" font-family="Lunchtype" font-size="24.0" fill="#808080" transform="matrix(1.00, 0.00, -0.00, -1.00, 1166.0, 764.0)">a</text><text xml:space="preserve" font-family="Lunchtype" font-size="24.0" fill="#808080" transform="matrix(1.00, 0.00, -0.00, -1.00, 1178.8, 764.0)">k</text><text xml:space="preserve" font-family="Lunchtype" font-size="24.0" fill="#808080" transform="matrix(1.00, 0.00, -0.00, -1.00, 1191.1, 764.0)">e</text><text xml:space="preserve" font-family="Lunchtype" font-size="24.0" fill="#808080" transform="matrix(1.00, 0.00, -0.00, -1.00, 1204.5, 764.0)"> </text><text xml:space="preserve" font-family="Lunchtype" font-size="24.0" fill="#808080" transform="matrix(1.00, 0.00, -0.00, -1.00, 1211.7, 764.0)">u</text><text xml:space="preserve" font-family="Lunchtype" font-size="24.0" fill="#808080" transform="matrix(1.00, 0.00, -0.00, -1.00, 1225.7, 764.0)">s</text><text xml:space="preserve" font-family="Lunchtype" font-size="24.0" fill="#808080" transform="matrix(1.00, 0.00, -0.00, -1.00, 1237.4, 764.0)"> </text><text xml:space="preserve" font-family="Lunchtype" font-size="24.0" fill="#808080" transform="matrix(1.00, 0.00, -0.00, -1.00, 1244.6, 764.0)">f</text><text xml:space="preserve" font-family="Lunchtype" font-size="24.0" fill="#808080" transform="matrix(1.00, 0.00, -0.00, -1.00, 1252.3, 764.0)">r</text><text xml:space="preserve" font-family="Lunchtype" font-size="24.0" fill="#808080" transform="matrix(1.00, 0.00, -0.00, -1.00, 1260.9, 764.0)">o</text><text xml:space="preserve" font-family="Lunchtype" font-size="24.0" fill="#808080" transform="matrix(1.00, 0.00, -0.00, -1.00, 1274.6, 764.0)">m</text><text xml:space="preserve" font-family="Lunchtype" font-size="24.0" fill="#808080" transform="matrix(1.00, 0.00, -0.00, -1.00, 1295.4, 764.0)"> </text><text xml:space="preserve" font-family="Lunchtype" font-size="24.0" fill="#808080" transform="matrix(1.00, 0.00, -0.00, -1.00, 1302.6, 764.0)">o</text><text xml:space="preserve" font-family="Lunchtype" font-size="24.0" fill="#808080" transform="matrix(1.00, 0.00, -0.00, -1.00, 1316.4, 764.0)">n</text><text xml:space="preserve" font-family="Lunchtype" font-size="24.0" fill="#808080" transform="matrix(1.00, 0.00, -0.00, -1.00, 1330.4, 764.0)">e</text><text xml:space="preserve" font-family="Lunchtype" font-size="24.0" fill="#808080" transform="matrix(1.00, 0.00, -0.00, -1.00, 1343.8, 764.0)"> </text><text xml:space="preserve" font-family="Lunchtype" font-size="24.0" fill="#808080" transform="matrix(1.00, 0.00, -0.00, -1.00, 1351.0, 764.0)">r</text><text xml:space="preserve" font-family="Lunchtype" font-size="24.0" fill="#808080" transform="matrix(1.00, 0.00, -0.00, -1.00, 1359.5, 764.0)">e</text><text xml:space="preserve" font-family="Lunchtype" font-size="24.0" fill="#808080" transform="matrix(1.00, 0.00, -0.00, -1.00, 1373.0, 764.0)">a</text><text xml:space="preserve" font-family="Lunchtype" font-size="24.0" fill="#808080" transform="matrix(1.00, 0.00, -0.00, -1.00, 1385.7, 764.0)">l</text><text xml:space="preserve" font-family="Lunchtype" font-size="24.0" fill="#808080" transform="matrix(1.00, 0.00, -0.00, -1.00, 1391.4, 764.0)">i</text><text xml:space="preserve" font-family="Lunchtype" font-size="24.0" fill="#808080" transform="matrix(1.00, 0.00, -0.00, -1.00, 1396.5, 764.0)">t</text><text xml:space="preserve" font-family="Lunchtype" font-size="24.0" fill="#808080" transform="matrix(1.00, 0.00, -0.00, -1.00, 1403.9, 764.0)">y</text><text xml:space="preserve" font-family="Lunchtype" font-size="24.0" fill="#808080" transform="matrix(1.00, 0.00, -0.00, -1.00, 1416.6, 764.0)"> </text><text xml:space="preserve" font-family="Lunchtype" font-size="24.0" fill="#808080" transform="matrix(1.00, 0.00, -0.00, -1.00, 1423.8, 764.0)">t</text><text xml:space="preserve" font-family="Lunchtype" font-size="24.0" fill="#808080" transform="matrix(1.00, 0.00, -0.00, -1.00, 1431.2, 764.0)">o</text><text xml:space="preserve" font-family="Lunchtype" font-size="24.0" fill="#808080" transform="matrix(1.00, 0.00, -0.00, -1.00, 1445.0, 764.0)"> </text><text xml:space="preserve" font-family="Lunchtype" font-size="24.0" fill="#808080" transform="matrix(1.00, 0.00, -0.00, -1.00, 1452.2, 764.0)">a</text><text xml:space="preserve" font-family="Lunchtype" font-size="24.0" fill="#808080" transform="matrix(1.00, 0.00, -0.00, -1.00, 1465.0, 764.0)">n</text><text xml:space="preserve" font-family="Lunchtype" font-size="24.0" fill="#808080" transform="matrix(1.00, 0.00, -0.00, -1.00, 1479.0, 764.0)">o</text><text xml:space="preserve" font-family="Lunchtype" font-size="24.0" fill="#808080" transform="matrix(1.00, 0.00, -0.00, -1.00, 1492.7, 764.0)">t</text><text xml:space="preserve" font-family="Lunchtype" font-size="24.0" fill="#808080" transform="matrix(1.00, 0.00, -0.00, -1.00, 1500.1, 764.0)">h</text><text xml:space="preserve" font-family="Lunchtype" font-size="24.0" fill="#808080" transform="matrix(1.00, 0.00, -0.00, -1.00, 1512.9, 764.0)">e</text><text xml:space="preserve" font-family="Lunchtype" font-size="24.0" fill="#808080" transform="matrix(1.00, 0.00, -0.00, -1.00, 1526.3, 764.0)">r</text><text xml:space="preserve" font-family="Lunchtype" font-size="24.0" fill="#808080" transform="matrix(1.00, 0.00, -0.00, -1.00, 1534.9, 764.0)">.</text></g></svg>