<?xml version="1.0" encoding="UTF-8"?><svg xmlns="http://www.w3.org/2000/svg" xmlns:xlink="http://www.w3.org/1999/xlink" clip-rule="evenodd" stroke-miterlimit="4.00" viewBox="0 0 1920 1080"><desc>SVG generated by Keynote</desc><defs></defs><g transform="matrix(1.00, 0.00, -0.00, -1.00, 0.0, 1080.0)"><path d="M 0.0 0.0 L 1920.0 0.0 L 1920.0 1080.0 L 0.0 1080.0 Z M 0.0 0.0 " fill="#FEFFFF"></path><text xml:space="preserve" font-family="Helvetica-Bold" font-weight="bold" font-size="18.0" fill="#FEFFFE" transform="matrix(1.00, 0.00, -0.00, -1.00, 90.0, 980.0)">S</text><text xml:space="preserve" font-family="Helvetica-Bold" font-weight="bold" font-size="18.0" fill="#FEFFFE" transform="matrix(1.00, 0.00, -0.00, -1.00, 102.0, 980.0)">E</text><text xml:space="preserve" font-family="Helvetica-Bold" font-weight="bold" font-size="18.0" fill="#FEFFFE" transform="matrix(1.00, 0.00, -0.00, -1.00, 114.0, 980.0)">C</text><text xml:space="preserve" font-family="Helvetica-Bold" font-weight="bold" font-size="18.0" fill="#FEFFFE" transform="matrix(1.00, 0.00, -0.00, -1.00, 127.0, 980.0)">T</text><text xml:space="preserve" font-family="Helvetica-Bold" font-weight="bold" font-size="18.0" fill="#FEFFFE" transform="matrix(1.00, 0.00, -0.00, -1.00, 138.0, 980.0)">I</text><text xml:space="preserve" font-family="Helvetica-Bold" font-weight="bold" font-size="18.0" fill="#FEFFFE" transform="matrix(1.00, 0.00, -0.00, -1.00, 143.0, 980.0)">O</text><text xml:space="preserve" font-family="Helvetica-Bold" font-weight="bold" font-size="18.0" fill="#FEFFFE" transform="matrix(1.00, 0.00, -0.00, -1.00, 157.0, 980.0)">N</text><text xml:space="preserve" font-family="Lunchtype" font-size="36.0" fill="#252525" transform="matrix(1.00, 0.00, -0.00, -1.00, 455.0, 657.0)">F</text><text xml:space="preserve" font-family="Lunchtype" font-size="36.0" fill="#252525" transform="matrix(1.00, 0.00, -0.00, -1.00, 473.1, 657.0)">r</text><text xml:space="preserve" font-family="Lunchtype" font-size="36.0" fill="#252525" transform="matrix(1.00, 0.00, -0.00, -1.00, 485.9, 657.0)">o</text><text xml:space="preserve" font-family="Lunchtype" font-size="36.0" fill="#252525" transform="matrix(1.00, 0.00, -0.00, -1.00, 506.6, 657.0)">m</text><text xml:space="preserve" font-family="Lunchtype" font-size="36.0" fill="#252525" transform="matrix(1.00, 0.00, -0.00, -1.00, 537.7, 657.0)"> </text><text xml:space="preserve" font-family="Lunchtype" font-size="36.0" fill="#252525" transform="matrix(1.00, 0.00, -0.00, -1.00, 548.5, 657.0)">m</text><text xml:space="preserve" font-family="Lunchtype" font-size="36.0" fill="#252525" transform="matrix(1.00, 0.00, -0.00, -1.00, 579.7, 657.0)">y</text><text xml:space="preserve" font-family="Lunchtype" font-size="36.0" fill="#252525" transform="matrix(1.00, 0.00, -0.00, -1.00, 598.9, 657.0)"> </text><text xml:space="preserve" font-family="Lunchtype" font-size="36.0" fill="#252525" transform="matrix(1.00, 0.00, -0.00, -1.00, 609.7, 657.0)">o</text><text xml:space="preserve" font-family="Lunchtype" font-size="36.0" fill="#252525" transform="matrix(1.00, 0.00, -0.00, -1.00, 630.3, 657.0)">b</text><text xml:space="preserve" font-family="Lunchtype" font-size="36.0" fill="#252525" transform="matrix(1.00, 0.00, -0.00, -1.00, 650.0, 657.0)">s</text><text xml:space="preserve" font-family="Lunchtype" font-size="36.0" fill="#252525" transform="matrix(1.00, 0.00, -0.00, -1.00, 667.5, 657.0)">e</text><text xml:space="preserve" font-family="Lunchtype" font-size="36.0" fill="#252525" transform="matrix(1.00, 0.00, -0.00, -1.00, 687.7, 657.0)">r</text><text xml:space="preserve" font-family="Lunchtype" font-size="36.0" fill="#252525" transform="matrix(1.00, 0.00, -0.00, -1.00, 700.5, 657.0)">v</text><text xml:space="preserve" font-family="Lunchtype" font-size="36.0" fill="#252525" transform="matrix(1.00, 0.00, -0.00, -1.00, 719.3, 657.0)">a</text><text xml:space="preserve" font-family="Lunchtype" font-size="36.0" fill="#252525" transform="matrix(1.00, 0.00, -0.00, -1.00, 738.5, 657.0)">t</text><text xml:space="preserve" font-family="Lunchtype" font-size="36.0" fill="#252525" transform="matrix(1.00, 0.00, -0.00, -1.00, 749.6, 657.0)">i</text><text xml:space="preserve" font-family="Lunchtype" font-size="36.0" fill="#252525" transform="matrix(1.00, 0.00, -0.00, -1.00, 757.2, 657.0)">o</text><text xml:space="preserve" font-family="Lunchtype" font-size="36.0" fill="#252525" transform="matrix(1.00, 0.00, -0.00, -1.00, 777.8, 657.0)">n</text><text xml:space="preserve" font-family="Lunchtype" font-size="36.0" fill="#252525" transform="matrix(1.00, 0.00, -0.00, -1.00, 798.8, 657.0)">s</text><text xml:space="preserve" font-family="Lunchtype" font-size="36.0" fill="#252525" transform="matrix(1.00, 0.00, -0.00, -1.00, 816.4, 657.0)">,</text><text xml:space="preserve" font-family="Lunchtype" font-size="36.0" fill="#252525" transform="matrix(1.00, 0.00, -0.00, -1.00, 824.4, 657.0)"> </text><text xml:space="preserve" font-family="Lunchtype" font-size="36.0" fill="#252525" transform="matrix(1.00, 0.00, -0.00, -1.00, 835.2, 657.0)">I</text><text xml:space="preserve" font-family="Lunchtype" font-size="36.0" fill="#252525" transform="matrix(1.00, 0.00, -0.00, -1.00, 843.9, 657.0)"> </text><text xml:space="preserve" font-family="Lunchtype" font-size="36.0" fill="#252525" transform="matrix(1.00, 0.00, -0.00, -1.00, 854.7, 657.0)">w</text><text xml:space="preserve" font-family="Lunchtype" font-size="36.0" fill="#252525" transform="matrix(1.00, 0.00, -0.00, -1.00, 882.5, 657.0)">a</text><text xml:space="preserve" font-family="Lunchtype" font-size="36.0" fill="#252525" transform="matrix(1.00, 0.00, -0.00, -1.00, 901.7, 657.0)">s</text><text xml:space="preserve" font-family="Lunchtype" font-size="36.0" fill="#252525" transform="matrix(1.00, 0.00, -0.00, -1.00, 919.2, 657.0)"> </text><text xml:space="preserve" font-family="Lunchtype" font-size="36.0" fill="#252525" transform="matrix(1.00, 0.00, -0.00, -1.00, 930.0, 657.0)">a</text><text xml:space="preserve" font-family="Lunchtype" font-size="36.0" fill="#252525" transform="matrix(1.00, 0.00, -0.00, -1.00, 949.2, 657.0)">b</text><text xml:space="preserve" font-family="Lunchtype" font-size="36.0" fill="#252525" transform="matrix(1.00, 0.00, -0.00, -1.00, 968.9, 657.0)">l</text><text xml:space="preserve" font-family="Lunchtype" font-size="36.0" fill="#252525" transform="matrix(1.00, 0.00, -0.00, -1.00, 977.4, 657.0)">e</text><text xml:space="preserve" font-family="Lunchtype" font-size="36.0" fill="#252525" transform="matrix(1.00, 0.00, -0.00, -1.00, 997.5, 657.0)"> </text><text xml:space="preserve" font-family="Lunchtype" font-size="36.0" fill="#252525" transform="matrix(1.00, 0.00, -0.00, -1.00, 1008.3, 657.0)">t</text><text xml:space="preserve" font-family="Lunchtype" font-size="36.0" fill="#252525" transform="matrix(1.00, 0.00, -0.00, -1.00, 1019.4, 657.0)">o</text><text xml:space="preserve" font-family="Lunchtype" font-size="36.0" fill="#252525" transform="matrix(1.00, 0.00, -0.00, -1.00, 1040.0, 657.0)"> </text><text xml:space="preserve" font-family="Lunchtype" font-size="36.0" fill="#252525" transform="matrix(1.00, 0.00, -0.00, -1.00, 1050.8, 657.0)">m</text><text xml:space="preserve" font-family="Lunchtype" font-size="36.0" fill="#252525" transform="matrix(1.00, 0.00, -0.00, -1.00, 1082.0, 657.0)">a</text><text xml:space="preserve" font-family="Lunchtype" font-size="36.0" fill="#252525" transform="matrix(1.00, 0.00, -0.00, -1.00, 1101.2, 657.0)">k</text><text xml:space="preserve" font-family="Lunchtype" font-size="36.0" fill="#252525" transform="matrix(1.00, 0.00, -0.00, -1.00, 1119.7, 657.0)">e</text><text xml:space="preserve" font-family="Lunchtype" font-size="36.0" fill="#252525" transform="matrix(1.00, 0.00, -0.00, -1.00, 1139.8, 657.0)"> </text><text xml:space="preserve" font-family="Lunchtype" font-size="36.0" fill="#252525" transform="matrix(1.00, 0.00, -0.00, -1.00, 1150.6, 657.0)">t</text><text xml:space="preserve" font-family="Lunchtype" font-size="36.0" fill="#252525" transform="matrix(1.00, 0.00, -0.00, -1.00, 1161.7, 657.0)">h</text><text xml:space="preserve" font-family="Lunchtype" font-size="36.0" fill="#252525" transform="matrix(1.00, 0.00, -0.00, -1.00, 1180.8, 657.0)">e</text><text xml:space="preserve" font-family="Lunchtype" font-size="36.0" fill="#252525" transform="matrix(1.00, 0.00, -0.00, -1.00, 1201.0, 657.0)"> </text><text xml:space="preserve" font-family="Lunchtype" font-size="36.0" fill="#252525" transform="matrix(1.00, 0.00, -0.00, -1.00, 1211.8, 657.0)">c</text><text xml:space="preserve" font-family="Lunchtype" font-size="36.0" fill="#252525" transform="matrix(1.00, 0.00, -0.00, -1.00, 1231.5, 657.0)">o</text><text xml:space="preserve" font-family="Lunchtype" font-size="36.0" fill="#252525" transform="matrix(1.00, 0.00, -0.00, -1.00, 1252.1, 657.0)">n</text><text xml:space="preserve" font-family="Lunchtype" font-size="36.0" fill="#252525" transform="matrix(1.00, 0.00, -0.00, -1.00, 1273.1, 657.0)">c</text><text xml:space="preserve" font-family="Lunchtype" font-size="36.0" fill="#252525" transform="matrix(1.00, 0.00, -0.00, -1.00, 1292.9, 657.0)">l</text><text xml:space="preserve" font-family="Lunchtype" font-size="36.0" fill="#252525" transform="matrix(1.00, 0.00, -0.00, -1.00, 1301.4, 657.0)">u</text><text xml:space="preserve" font-family="Lunchtype" font-size="36.0" fill="#252525" transform="matrix(1.00, 0.00, -0.00, -1.00, 1322.3, 657.0)">s</text><text xml:space="preserve" font-family="Lunchtype" font-size="36.0" fill="#252525" transform="matrix(1.00, 0.00, -0.00, -1.00, 1339.9, 657.0)">i</text><text xml:space="preserve" font-family="Lunchtype" font-size="36.0" fill="#252525" transform="matrix(1.00, 0.00, -0.00, -1.00, 1347.5, 657.0)">o</text><text xml:space="preserve" font-family="Lunchtype" font-size="36.0" fill="#252525" transform="matrix(1.00, 0.00, -0.00, -1.00, 1368.1, 657.0)">n</text><text xml:space="preserve" font-family="Lunchtype" font-size="36.0" fill="#252525" transform="matrix(1.00, 0.00, -0.00, -1.00, 1389.1, 657.0)"> </text><text xml:space="preserve" font-family="Lunchtype" font-size="36.0" fill="#252525" transform="matrix(1.00, 0.00, -0.00, -1.00, 1399.9, 657.0)">t</text><text xml:space="preserve" font-family="Lunchtype" font-size="36.0" fill="#252525" transform="matrix(1.00, 0.00, -0.00, -1.00, 1411.0, 657.0)">h</text><text xml:space="preserve" font-family="Lunchtype" font-size="36.0" fill="#252525" transform="matrix(1.00, 0.00, -0.00, -1.00, 1430.2, 657.0)">a</text><text xml:space="preserve" font-family="Lunchtype" font-size="36.0" fill="#252525" transform="matrix(1.00, 0.00, -0.00, -1.00, 1449.4, 657.0)">t</text><text xml:space="preserve" font-family="Lunchtype" font-size="36.0" fill="#252525" transform="matrix(1.00, 0.00, -0.00, -1.00, 1460.4, 657.0)"> </text><text xml:space="preserve" font-family="Lunchtype" font-size="36.0" fill="#252525" transform="matrix(1.00, 0.00, -0.00, -1.00, 395.0, 587.0)">p</text><text xml:space="preserve" font-family="Lunchtype" font-size="36.0" fill="#252525" transform="matrix(1.00, 0.00, -0.00, -1.00, 414.7, 587.0)">e</text><text xml:space="preserve" font-family="Lunchtype" font-size="36.0" fill="#252525" transform="matrix(1.00, 0.00, -0.00, -1.00, 434.8, 587.0)">o</text><text xml:space="preserve" font-family="Lunchtype" font-size="36.0" fill="#252525" transform="matrix(1.00, 0.00, -0.00, -1.00, 455.4, 587.0)">p</text><text xml:space="preserve" font-family="Lunchtype" font-size="36.0" fill="#252525" transform="matrix(1.00, 0.00, -0.00, -1.00, 475.1, 587.0)">l</text><text xml:space="preserve" font-family="Lunchtype" font-size="36.0" fill="#252525" transform="matrix(1.00, 0.00, -0.00, -1.00, 483.6, 587.0)">e</text><text xml:space="preserve" font-family="Lunchtype" font-size="36.0" fill="#252525" transform="matrix(1.00, 0.00, -0.00, -1.00, 503.7, 587.0)"> </text><text xml:space="preserve" font-family="Lunchtype" font-size="36.0" fill="#252525" transform="matrix(1.00, 0.00, -0.00, -1.00, 514.5, 587.0)">u</text><text xml:space="preserve" font-family="Lunchtype" font-size="36.0" fill="#252525" transform="matrix(1.00, 0.00, -0.00, -1.00, 535.5, 587.0)">s</text><text xml:space="preserve" font-family="Lunchtype" font-size="36.0" fill="#252525" transform="matrix(1.00, 0.00, -0.00, -1.00, 553.0, 587.0)">e</text><text xml:space="preserve" font-family="Lunchtype" font-size="36.0" fill="#252525" transform="matrix(1.00, 0.00, -0.00, -1.00, 573.2, 587.0)"> </text><text xml:space="preserve" font-family="Lunchtype" font-size="36.0" fill="#252525" transform="matrix(1.00, 0.00, -0.00, -1.00, 584.0, 587.0)">t</text><text xml:space="preserve" font-family="Lunchtype" font-size="36.0" fill="#252525" transform="matrix(1.00, 0.00, -0.00, -1.00, 595.1, 587.0)">h</text><text xml:space="preserve" font-family="Lunchtype" font-size="36.0" fill="#252525" transform="matrix(1.00, 0.00, -0.00, -1.00, 614.2, 587.0)">e</text><text xml:space="preserve" font-family="Lunchtype" font-size="36.0" fill="#252525" transform="matrix(1.00, 0.00, -0.00, -1.00, 634.3, 587.0)">i</text><text xml:space="preserve" font-family="Lunchtype" font-size="36.0" fill="#252525" transform="matrix(1.00, 0.00, -0.00, -1.00, 642.0, 587.0)">r</text><text xml:space="preserve" font-family="Lunchtype" font-size="36.0" fill="#252525" transform="matrix(1.00, 0.00, -0.00, -1.00, 654.8, 587.0)"> </text><text xml:space="preserve" font-family="Lunchtype" font-size="36.0" fill="#252525" transform="matrix(1.00, 0.00, -0.00, -1.00, 665.6, 587.0)">p</text><text xml:space="preserve" font-family="Lunchtype" font-size="36.0" fill="#252525" transform="matrix(1.00, 0.00, -0.00, -1.00, 685.3, 587.0)">h</text><text xml:space="preserve" font-family="Lunchtype" font-size="36.0" fill="#252525" transform="matrix(1.00, 0.00, -0.00, -1.00, 704.5, 587.0)">o</text><text xml:space="preserve" font-family="Lunchtype" font-size="36.0" fill="#252525" transform="matrix(1.00, 0.00, -0.00, -1.00, 725.1, 587.0)">n</text><text xml:space="preserve" font-family="Lunchtype" font-size="36.0" fill="#252525" transform="matrix(1.00, 0.00, -0.00, -1.00, 746.1, 587.0)">e</text><text xml:space="preserve" font-family="Lunchtype" font-size="36.0" fill="#252525" transform="matrix(1.00, 0.00, -0.00, -1.00, 766.2, 587.0)">s</text><text xml:space="preserve" font-family="Lunchtype" font-size="36.0" fill="#252525" transform="matrix(1.00, 0.00, -0.00, -1.00, 783.8, 587.0)"> </text><text xml:space="preserve" font-family="Lunchtype" font-size="36.0" fill="#252525" transform="matrix(1.00, 0.00, -0.00, -1.00, 794.6, 587.0)">w</text><text xml:space="preserve" font-family="Lunchtype" font-size="36.0" fill="#252525" transform="matrix(1.00, 0.00, -0.00, -1.00, 822.4, 587.0)">h</text><text xml:space="preserve" font-family="Lunchtype" font-size="36.0" fill="#252525" transform="matrix(1.00, 0.00, -0.00, -1.00, 841.5, 587.0)">e</text><text xml:space="preserve" font-family="Lunchtype" font-size="36.0" fill="#252525" transform="matrix(1.00, 0.00, -0.00, -1.00, 861.6, 587.0)">n</text><text xml:space="preserve" font-family="Lunchtype" font-size="36.0" fill="#252525" transform="matrix(1.00, 0.00, -0.00, -1.00, 882.6, 587.0)">e</text><text xml:space="preserve" font-family="Lunchtype" font-size="36.0" fill="#252525" transform="matrix(1.00, 0.00, -0.00, -1.00, 902.7, 587.0)">v</text><text xml:space="preserve" font-family="Lunchtype" font-size="36.0" fill="#252525" transform="matrix(1.00, 0.00, -0.00, -1.00, 921.5, 587.0)">e</text><text xml:space="preserve" font-family="Lunchtype" font-size="36.0" fill="#252525" transform="matrix(1.00, 0.00, -0.00, -1.00, 941.6, 587.0)">r</text><text xml:space="preserve" font-family="Lunchtype" font-size="36.0" fill="#252525" transform="matrix(1.00, 0.00, -0.00, -1.00, 954.5, 587.0)"> </text><text xml:space="preserve" font-family="Lunchtype" font-size="36.0" fill="#252525" transform="matrix(1.00, 0.00, -0.00, -1.00, 965.3, 587.0)">t</text><text xml:space="preserve" font-family="Lunchtype" font-size="36.0" fill="#252525" transform="matrix(1.00, 0.00, -0.00, -1.00, 976.4, 587.0)">h</text><text xml:space="preserve" font-family="Lunchtype" font-size="36.0" fill="#252525" transform="matrix(1.00, 0.00, -0.00, -1.00, 995.5, 587.0)">e</text><text xml:space="preserve" font-family="Lunchtype" font-size="36.0" fill="#252525" transform="matrix(1.00, 0.00, -0.00, -1.00, 1015.6, 587.0)">r</text><text xml:space="preserve" font-family="Lunchtype" font-size="36.0" fill="#252525" transform="matrix(1.00, 0.00, -0.00, -1.00, 1028.5, 587.0)">e</text><text xml:space="preserve" font-family="Lunchtype" font-size="36.0" fill="#252525" transform="matrix(1.00, 0.00, -0.00, -1.00, 1048.6, 587.0)"> </text><text xml:space="preserve" font-family="Lunchtype" font-size="36.0" fill="#252525" transform="matrix(1.00, 0.00, -0.00, -1.00, 1059.4, 587.0)">i</text><text xml:space="preserve" font-family="Lunchtype" font-size="36.0" fill="#252525" transform="matrix(1.00, 0.00, -0.00, -1.00, 1067.0, 587.0)">s</text><text xml:space="preserve" font-family="Lunchtype" font-size="36.0" fill="#252525" transform="matrix(1.00, 0.00, -0.00, -1.00, 1084.6, 587.0)"> </text><text xml:space="preserve" font-family="Lunchtype" font-size="36.0" fill="#252525" transform="matrix(1.00, 0.00, -0.00, -1.00, 1095.4, 587.0)">a</text><text xml:space="preserve" font-family="Lunchtype" font-size="36.0" fill="#252525" transform="matrix(1.00, 0.00, -0.00, -1.00, 1114.6, 587.0)"> </text><text xml:space="preserve" font-family="Lunchtype" font-size="36.0" fill="#252525" transform="matrix(1.00, 0.00, -0.00, -1.00, 1125.4, 587.0)">m</text><text xml:space="preserve" font-family="Lunchtype" font-size="36.0" fill="#252525" transform="matrix(1.00, 0.00, -0.00, -1.00, 1156.6, 587.0)">o</text><text xml:space="preserve" font-family="Lunchtype" font-size="36.0" fill="#252525" transform="matrix(1.00, 0.00, -0.00, -1.00, 1177.2, 587.0)">m</text><text xml:space="preserve" font-family="Lunchtype" font-size="36.0" fill="#252525" transform="matrix(1.00, 0.00, -0.00, -1.00, 1208.4, 587.0)">e</text><text xml:space="preserve" font-family="Lunchtype" font-size="36.0" fill="#252525" transform="matrix(1.00, 0.00, -0.00, -1.00, 1228.5, 587.0)">n</text><text xml:space="preserve" font-family="Lunchtype" font-size="36.0" fill="#252525" transform="matrix(1.00, 0.00, -0.00, -1.00, 1249.5, 587.0)">t</text><text xml:space="preserve" font-family="Lunchtype" font-size="36.0" fill="#252525" transform="matrix(1.00, 0.00, -0.00, -1.00, 1260.6, 587.0)"> </text><text xml:space="preserve" font-family="Lunchtype" font-size="36.0" fill="#252525" transform="matrix(1.00, 0.00, -0.00, -1.00, 1271.4, 587.0)">o</text><text xml:space="preserve" font-family="Lunchtype" font-size="36.0" fill="#252525" transform="matrix(1.00, 0.00, -0.00, -1.00, 1292.0, 587.0)">f</text><text xml:space="preserve" font-family="Lunchtype" font-size="36.0" fill="#252525" transform="matrix(1.00, 0.00, -0.00, -1.00, 1303.5, 587.0)"> </text><text xml:space="preserve" font-family="Lunchtype" font-size="36.0" fill="#252525" transform="matrix(1.00, 0.00, -0.00, -1.00, 1314.3, 587.0)">i</text><text xml:space="preserve" font-family="Lunchtype" font-size="36.0" fill="#252525" transform="matrix(1.00, 0.00, -0.00, -1.00, 1322.0, 587.0)">d</text><text xml:space="preserve" font-family="Lunchtype" font-size="36.0" fill="#252525" transform="matrix(1.00, 0.00, -0.00, -1.00, 1341.6, 587.0)">l</text><text xml:space="preserve" font-family="Lunchtype" font-size="36.0" fill="#252525" transform="matrix(1.00, 0.00, -0.00, -1.00, 1350.0, 587.0)">e</text><text xml:space="preserve" font-family="Lunchtype" font-size="36.0" fill="#252525" transform="matrix(1.00, 0.00, -0.00, -1.00, 1370.2, 587.0)">n</text><text xml:space="preserve" font-family="Lunchtype" font-size="36.0" fill="#252525" transform="matrix(1.00, 0.00, -0.00, -1.00, 1391.2, 587.0)">e</text><text xml:space="preserve" font-family="Lunchtype" font-size="36.0" fill="#252525" transform="matrix(1.00, 0.00, -0.00, -1.00, 1411.3, 587.0)">s</text><text xml:space="preserve" font-family="Lunchtype" font-size="36.0" fill="#252525" transform="matrix(1.00, 0.00, -0.00, -1.00, 1428.8, 587.0)">s</text><text xml:space="preserve" font-family="Lunchtype" font-size="36.0" fill="#252525" transform="matrix(1.00, 0.00, -0.00, -1.00, 1446.4, 587.0)">.</text><text xml:space="preserve" font-family="Lunchtype" font-size="36.0" fill="#252525" transform="matrix(1.00, 0.00, -0.00, -1.00, 1455.9, 587.0)"> </text><text xml:space="preserve" font-family="Lunchtype" font-size="36.0" fill="#252525" transform="matrix(1.00, 0.00, -0.00, -1.00, 395.0, 517.0)">K</text><text xml:space="preserve" font-family="Lunchtype" font-size="36.0" fill="#252525" transform="matrix(1.00, 0.00, -0.00, -1.00, 419.6, 517.0)">n</text><text xml:space="preserve" font-family="Lunchtype" font-size="36.0" fill="#252525" transform="matrix(1.00, 0.00, -0.00, -1.00, 440.5, 517.0)">o</text><text xml:space="preserve" font-family="Lunchtype" font-size="36.0" fill="#252525" transform="matrix(1.00, 0.00, -0.00, -1.00, 461.2, 517.0)">w</text><text xml:space="preserve" font-family="Lunchtype" font-size="36.0" fill="#252525" transform="matrix(1.00, 0.00, -0.00, -1.00, 489.0, 517.0)">i</text><text xml:space="preserve" font-family="Lunchtype" font-size="36.0" fill="#252525" transform="matrix(1.00, 0.00, -0.00, -1.00, 496.6, 517.0)">n</text><text xml:space="preserve" font-family="Lunchtype" font-size="36.0" fill="#252525" transform="matrix(1.00, 0.00, -0.00, -1.00, 517.6, 517.0)">g</text><text xml:space="preserve" font-family="Lunchtype" font-size="36.0" fill="#252525" transform="matrix(1.00, 0.00, -0.00, -1.00, 538.5, 517.0)"> </text><text xml:space="preserve" font-family="Lunchtype" font-size="36.0" fill="#252525" transform="matrix(1.00, 0.00, -0.00, -1.00, 549.3, 517.0)">t</text><text xml:space="preserve" font-family="Lunchtype" font-size="36.0" fill="#252525" transform="matrix(1.00, 0.00, -0.00, -1.00, 560.3, 517.0)">h</text><text xml:space="preserve" font-family="Lunchtype" font-size="36.0" fill="#252525" transform="matrix(1.00, 0.00, -0.00, -1.00, 579.5, 517.0)">a</text><text xml:space="preserve" font-family="Lunchtype" font-size="36.0" fill="#252525" transform="matrix(1.00, 0.00, -0.00, -1.00, 598.7, 517.0)">t</text><text xml:space="preserve" font-family="Lunchtype" font-size="36.0" fill="#252525" transform="matrix(1.00, 0.00, -0.00, -1.00, 609.8, 517.0)"> </text><text xml:space="preserve" font-family="Lunchtype" font-size="36.0" fill="#252525" transform="matrix(1.00, 0.00, -0.00, -1.00, 620.6, 517.0)">p</text><text xml:space="preserve" font-family="Lunchtype" font-size="36.0" fill="#252525" transform="matrix(1.00, 0.00, -0.00, -1.00, 640.3, 517.0)">e</text><text xml:space="preserve" font-family="Lunchtype" font-size="36.0" fill="#252525" transform="matrix(1.00, 0.00, -0.00, -1.00, 660.4, 517.0)">o</text><text xml:space="preserve" font-family="Lunchtype" font-size="36.0" fill="#252525" transform="matrix(1.00, 0.00, -0.00, -1.00, 681.0, 517.0)">p</text><text xml:space="preserve" font-family="Lunchtype" font-size="36.0" fill="#252525" transform="matrix(1.00, 0.00, -0.00, -1.00, 700.7, 517.0)">l</text><text xml:space="preserve" font-family="Lunchtype" font-size="36.0" fill="#252525" transform="matrix(1.00, 0.00, -0.00, -1.00, 709.2, 517.0)">e</text><text xml:space="preserve" font-family="Lunchtype" font-size="36.0" fill="#252525" transform="matrix(1.00, 0.00, -0.00, -1.00, 729.3, 517.0)"> </text><text xml:space="preserve" font-family="Lunchtype" font-size="36.0" fill="#252525" transform="matrix(1.00, 0.00, -0.00, -1.00, 740.1, 517.0)">u</text><text xml:space="preserve" font-family="Lunchtype" font-size="36.0" fill="#252525" transform="matrix(1.00, 0.00, -0.00, -1.00, 761.0, 517.0)">s</text><text xml:space="preserve" font-family="Lunchtype" font-size="36.0" fill="#252525" transform="matrix(1.00, 0.00, -0.00, -1.00, 778.6, 517.0)">e</text><text xml:space="preserve" font-family="Lunchtype" font-size="36.0" fill="#252525" transform="matrix(1.00, 0.00, -0.00, -1.00, 798.7, 517.0)"> </text><text xml:space="preserve" font-family="Lunchtype" font-size="36.0" fill="#252525" transform="matrix(1.00, 0.00, -0.00, -1.00, 809.5, 517.0)">t</text><text xml:space="preserve" font-family="Lunchtype" font-size="36.0" fill="#252525" transform="matrix(1.00, 0.00, -0.00, -1.00, 820.6, 517.0)">h</text><text xml:space="preserve" font-family="Lunchtype" font-size="36.0" fill="#252525" transform="matrix(1.00, 0.00, -0.00, -1.00, 839.8, 517.0)">e</text><text xml:space="preserve" font-family="Lunchtype" font-size="36.0" fill="#252525" transform="matrix(1.00, 0.00, -0.00, -1.00, 859.9, 517.0)">i</text><text xml:space="preserve" font-family="Lunchtype" font-size="36.0" fill="#252525" transform="matrix(1.00, 0.00, -0.00, -1.00, 867.5, 517.0)">r</text><text xml:space="preserve" font-family="Lunchtype" font-size="36.0" fill="#252525" transform="matrix(1.00, 0.00, -0.00, -1.00, 880.4, 517.0)"> </text><text xml:space="preserve" font-family="Lunchtype" font-size="36.0" fill="#252525" transform="matrix(1.00, 0.00, -0.00, -1.00, 891.2, 517.0)">p</text><text xml:space="preserve" font-family="Lunchtype" font-size="36.0" fill="#252525" transform="matrix(1.00, 0.00, -0.00, -1.00, 910.9, 517.0)">h</text><text xml:space="preserve" font-family="Lunchtype" font-size="36.0" fill="#252525" transform="matrix(1.00, 0.00, -0.00, -1.00, 930.0, 517.0)">o</text><text xml:space="preserve" font-family="Lunchtype" font-size="36.0" fill="#252525" transform="matrix(1.00, 0.00, -0.00, -1.00, 950.7, 517.0)">n</text><text xml:space="preserve" font-family="Lunchtype" font-size="36.0" fill="#252525" transform="matrix(1.00, 0.00, -0.00, -1.00, 971.6, 517.0)">e</text><text xml:space="preserve" font-family="Lunchtype" font-size="36.0" fill="#252525" transform="matrix(1.00, 0.00, -0.00, -1.00, 991.8, 517.0)">s</text><text xml:space="preserve" font-family="Lunchtype" font-size="36.0" fill="#252525" transform="matrix(1.00, 0.00, -0.00, -1.00, 1009.3, 517.0)"> </text><text xml:space="preserve" font-family="Lunchtype" font-size="36.0" fill="#252525" transform="matrix(1.00, 0.00, -0.00, -1.00, 1020.1, 517.0)">w</text><text xml:space="preserve" font-family="Lunchtype" font-size="36.0" fill="#252525" transform="matrix(1.00, 0.00, -0.00, -1.00, 1047.9, 517.0)">a</text><text xml:space="preserve" font-family="Lunchtype" font-size="36.0" fill="#252525" transform="matrix(1.00, 0.00, -0.00, -1.00, 1067.1, 517.0)">s</text><text xml:space="preserve" font-family="Lunchtype" font-size="36.0" fill="#252525" transform="matrix(1.00, 0.00, -0.00, -1.00, 1084.7, 517.0)">n</text><text xml:space="preserve" font-family="Lunchtype" font-size="36.0" fill="#252525" transform="matrix(1.00, 0.00, -0.00, -1.00, 1105.7, 517.0)">’</text><text xml:space="preserve" font-family="Lunchtype" font-size="36.0" fill="#252525" transform="matrix(1.00, 0.00, -0.00, -1.00, 1112.6, 517.0)">t</text><text xml:space="preserve" font-family="Lunchtype" font-size="36.0" fill="#252525" transform="matrix(1.00, 0.00, -0.00, -1.00, 1123.7, 517.0)"> </text><text xml:space="preserve" font-family="Lunchtype" font-size="36.0" fill="#252525" transform="matrix(1.00, 0.00, -0.00, -1.00, 1134.5, 517.0)">e</text><text xml:space="preserve" font-family="Lunchtype" font-size="36.0" fill="#252525" transform="matrix(1.00, 0.00, -0.00, -1.00, 1154.6, 517.0)">n</text><text xml:space="preserve" font-family="Lunchtype" font-size="36.0" fill="#252525" transform="matrix(1.00, 0.00, -0.00, -1.00, 1175.6, 517.0)">o</text><text xml:space="preserve" font-family="Lunchtype" font-size="36.0" fill="#252525" transform="matrix(1.00, 0.00, -0.00, -1.00, 1196.2, 517.0)">u</text><text xml:space="preserve" font-family="Lunchtype" font-size="36.0" fill="#252525" transform="matrix(1.00, 0.00, -0.00, -1.00, 1217.2, 517.0)">g</text><text xml:space="preserve" font-family="Lunchtype" font-size="36.0" fill="#252525" transform="matrix(1.00, 0.00, -0.00, -1.00, 1238.0, 517.0)">h</text><text xml:space="preserve" font-family="Lunchtype" font-size="36.0" fill="#252525" transform="matrix(1.00, 0.00, -0.00, -1.00, 1257.2, 517.0)"> </text><text xml:space="preserve" font-family="Lunchtype" font-size="36.0" fill="#252525" transform="matrix(1.00, 0.00, -0.00, -1.00, 1268.0, 517.0)">i</text><text xml:space="preserve" font-family="Lunchtype" font-size="36.0" fill="#252525" transform="matrix(1.00, 0.00, -0.00, -1.00, 1275.6, 517.0)">n</text><text xml:space="preserve" font-family="Lunchtype" font-size="36.0" fill="#252525" transform="matrix(1.00, 0.00, -0.00, -1.00, 1296.6, 517.0)">f</text><text xml:space="preserve" font-family="Lunchtype" font-size="36.0" fill="#252525" transform="matrix(1.00, 0.00, -0.00, -1.00, 1308.1, 517.0)">o</text><text xml:space="preserve" font-family="Lunchtype" font-size="36.0" fill="#252525" transform="matrix(1.00, 0.00, -0.00, -1.00, 1328.8, 517.0)">r</text><text xml:space="preserve" font-family="Lunchtype" font-size="36.0" fill="#252525" transform="matrix(1.00, 0.00, -0.00, -1.00, 1341.6, 517.0)">m</text><text xml:space="preserve" font-family="Lunchtype" font-size="36.0" fill="#252525" transform="matrix(1.00, 0.00, -0.00, -1.00, 1372.8, 517.0)">a</text><text xml:space="preserve" font-family="Lunchtype" font-size="36.0" fill="#252525" transform="matrix(1.00, 0.00, -0.00, -1.00, 1392.0, 517.0)">t</text><text xml:space="preserve" font-family="Lunchtype" font-size="36.0" fill="#252525" transform="matrix(1.00, 0.00, -0.00, -1.00, 1403.1, 517.0)">i</text><text xml:space="preserve" font-family="Lunchtype" font-size="36.0" fill="#252525" transform="matrix(1.00, 0.00, -0.00, -1.00, 1410.7, 517.0)">o</text><text xml:space="preserve" font-family="Lunchtype" font-size="36.0" fill="#252525" transform="matrix(1.00, 0.00, -0.00, -1.00, 1431.3, 517.0)">n</text><text xml:space="preserve" font-family="Lunchtype" font-size="36.0" fill="#252525" transform="matrix(1.00, 0.00, -0.00, -1.00, 1452.3, 517.0)"> </text><text xml:space="preserve" font-family="Lunchtype" font-size="36.0" fill="#252525" transform="matrix(1.00, 0.00, -0.00, -1.00, 1463.1, 517.0)">f</text><text xml:space="preserve" font-family="Lunchtype" font-size="36.0" fill="#252525" transform="matrix(1.00, 0.00, -0.00, -1.00, 1474.6, 517.0)">o</text><text xml:space="preserve" font-family="Lunchtype" font-size="36.0" fill="#252525" transform="matrix(1.00, 0.00, -0.00, -1.00, 1495.3, 517.0)">r</text><text xml:space="preserve" font-family="Lunchtype" font-size="36.0" fill="#252525" transform="matrix(1.00, 0.00, -0.00, -1.00, 1508.1, 517.0)"> </text><text xml:space="preserve" font-family="Lunchtype" font-size="36.0" fill="#252525" transform="matrix(1.00, 0.00, -0.00, -1.00, 395.0, 447.0)">m</text><text xml:space="preserve" font-family="Lunchtype" font-size="36.0" fill="#252525" transform="matrix(1.00, 0.00, -0.00, -1.00, 426.2, 447.0)">e</text><text xml:space="preserve" font-family="Lunchtype" font-size="36.0" fill="#252525" transform="matrix(1.00, 0.00, -0.00, -1.00, 446.3, 447.0)"> </text><text xml:space="preserve" font-family="Lunchtype" font-size="36.0" fill="#252525" transform="matrix(1.00, 0.00, -0.00, -1.00, 457.1, 447.0)">t</text><text xml:space="preserve" font-family="Lunchtype" font-size="36.0" fill="#252525" transform="matrix(1.00, 0.00, -0.00, -1.00, 468.2, 447.0)">o</text><text xml:space="preserve" font-family="Lunchtype" font-size="36.0" fill="#252525" transform="matrix(1.00, 0.00, -0.00, -1.00, 488.8, 447.0)"> </text><text xml:space="preserve" font-family="Lunchtype" font-size="36.0" fill="#252525" transform="matrix(1.00, 0.00, -0.00, -1.00, 499.6, 447.0)">m</text><text xml:space="preserve" font-family="Lunchtype" font-size="36.0" fill="#252525" transform="matrix(1.00, 0.00, -0.00, -1.00, 530.8, 447.0)">a</text><text xml:space="preserve" font-family="Lunchtype" font-size="36.0" fill="#252525" transform="matrix(1.00, 0.00, -0.00, -1.00, 550.0, 447.0)">k</text><text xml:space="preserve" font-family="Lunchtype" font-size="36.0" fill="#252525" transform="matrix(1.00, 0.00, -0.00, -1.00, 568.5, 447.0)">e</text><text xml:space="preserve" font-family="Lunchtype" font-size="36.0" fill="#252525" transform="matrix(1.00, 0.00, -0.00, -1.00, 588.6, 447.0)"> </text><text xml:space="preserve" font-family="Lunchtype" font-size="36.0" fill="#252525" transform="matrix(1.00, 0.00, -0.00, -1.00, 599.4, 447.0)">a</text><text xml:space="preserve" font-family="Lunchtype" font-size="36.0" fill="#252525" transform="matrix(1.00, 0.00, -0.00, -1.00, 618.6, 447.0)"> </text><text xml:space="preserve" font-family="Lunchtype" font-size="36.0" fill="#252525" transform="matrix(1.00, 0.00, -0.00, -1.00, 629.4, 447.0)">c</text><text xml:space="preserve" font-family="Lunchtype" font-size="36.0" fill="#252525" transform="matrix(1.00, 0.00, -0.00, -1.00, 649.2, 447.0)">o</text><text xml:space="preserve" font-family="Lunchtype" font-size="36.0" fill="#252525" transform="matrix(1.00, 0.00, -0.00, -1.00, 669.8, 447.0)">n</text><text xml:space="preserve" font-family="Lunchtype" font-size="36.0" fill="#252525" transform="matrix(1.00, 0.00, -0.00, -1.00, 690.8, 447.0)">c</text><text xml:space="preserve" font-family="Lunchtype" font-size="36.0" fill="#252525" transform="matrix(1.00, 0.00, -0.00, -1.00, 710.5, 447.0)">l</text><text xml:space="preserve" font-family="Lunchtype" font-size="36.0" fill="#252525" transform="matrix(1.00, 0.00, -0.00, -1.00, 719.0, 447.0)">u</text><text xml:space="preserve" font-family="Lunchtype" font-size="36.0" fill="#252525" transform="matrix(1.00, 0.00, -0.00, -1.00, 740.0, 447.0)">s</text><text xml:space="preserve" font-family="Lunchtype" font-size="36.0" fill="#252525" transform="matrix(1.00, 0.00, -0.00, -1.00, 757.5, 447.0)">i</text><text xml:space="preserve" font-family="Lunchtype" font-size="36.0" fill="#252525" transform="matrix(1.00, 0.00, -0.00, -1.00, 765.2, 447.0)">o</text><text xml:space="preserve" font-family="Lunchtype" font-size="36.0" fill="#252525" transform="matrix(1.00, 0.00, -0.00, -1.00, 785.8, 447.0)">n</text><text xml:space="preserve" font-family="Lunchtype" font-size="36.0" fill="#252525" transform="matrix(1.00, 0.00, -0.00, -1.00, 806.8, 447.0)">.</text><text xml:space="preserve" font-family="Lunchtype" font-size="36.0" fill="#252525" transform="matrix(1.00, 0.00, -0.00, -1.00, 816.3, 447.0)"> </text><text xml:space="preserve" font-family="Lunchtype" font-size="36.0" fill="#252525" transform="matrix(1.00, 0.00, -0.00, -1.00, 827.1, 447.0)">I</text><text xml:space="preserve" font-family="Lunchtype" font-size="36.0" fill="#252525" transform="matrix(1.00, 0.00, -0.00, -1.00, 835.7, 447.0)">n</text><text xml:space="preserve" font-family="Lunchtype" font-size="36.0" fill="#252525" transform="matrix(1.00, 0.00, -0.00, -1.00, 856.7, 447.0)"> </text><text xml:space="preserve" font-family="Lunchtype" font-size="36.0" fill="#252525" transform="matrix(1.00, 0.00, -0.00, -1.00, 867.5, 447.0)">t</text><text xml:space="preserve" font-family="Lunchtype" font-size="36.0" fill="#252525" transform="matrix(1.00, 0.00, -0.00, -1.00, 878.6, 447.0)">h</text><text xml:space="preserve" font-family="Lunchtype" font-size="36.0" fill="#252525" transform="matrix(1.00, 0.00, -0.00, -1.00, 897.8, 447.0)">e</text><text xml:space="preserve" font-family="Lunchtype" font-size="36.0" fill="#252525" transform="matrix(1.00, 0.00, -0.00, -1.00, 917.9, 447.0)"> </text><text xml:space="preserve" font-family="Lunchtype" font-size="36.0" fill="#252525" transform="matrix(1.00, 0.00, -0.00, -1.00, 928.7, 447.0)">n</text><text xml:space="preserve" font-family="Lunchtype" font-size="36.0" fill="#252525" transform="matrix(1.00, 0.00, -0.00, -1.00, 949.7, 447.0)">e</text><text xml:space="preserve" font-family="Lunchtype" font-size="36.0" fill="#252525" transform="matrix(1.00, 0.00, -0.00, -1.00, 969.8, 447.0)">x</text><text xml:space="preserve" font-family="Lunchtype" font-size="36.0" fill="#252525" transform="matrix(1.00, 0.00, -0.00, -1.00, 990.8, 447.0)">t</text><text xml:space="preserve" font-family="Lunchtype" font-size="36.0" fill="#252525" transform="matrix(1.00, 0.00, -0.00, -1.00, 1001.9, 447.0)"> </text><text xml:space="preserve" font-family="Lunchtype" font-size="36.0" fill="#252525" transform="matrix(1.00, 0.00, -0.00, -1.00, 1012.7, 447.0)">p</text><text xml:space="preserve" font-family="Lunchtype" font-size="36.0" fill="#252525" transform="matrix(1.00, 0.00, -0.00, -1.00, 1032.4, 447.0)">h</text><text xml:space="preserve" font-family="Lunchtype" font-size="36.0" fill="#252525" transform="matrix(1.00, 0.00, -0.00, -1.00, 1051.6, 447.0)">a</text><text xml:space="preserve" font-family="Lunchtype" font-size="36.0" fill="#252525" transform="matrix(1.00, 0.00, -0.00, -1.00, 1070.8, 447.0)">s</text><text xml:space="preserve" font-family="Lunchtype" font-size="36.0" fill="#252525" transform="matrix(1.00, 0.00, -0.00, -1.00, 1088.3, 447.0)">e</text><text xml:space="preserve" font-family="Lunchtype" font-size="36.0" fill="#252525" transform="matrix(1.00, 0.00, -0.00, -1.00, 1108.4, 447.0)"> </text><text xml:space="preserve" font-family="Lunchtype" font-size="36.0" fill="#252525" transform="matrix(1.00, 0.00, -0.00, -1.00, 1119.2, 447.0)">o</text><text xml:space="preserve" font-family="Lunchtype" font-size="36.0" fill="#252525" transform="matrix(1.00, 0.00, -0.00, -1.00, 1139.9, 447.0)">f</text><text xml:space="preserve" font-family="Lunchtype" font-size="36.0" fill="#252525" transform="matrix(1.00, 0.00, -0.00, -1.00, 1151.4, 447.0)"> </text><text xml:space="preserve" font-family="Lunchtype" font-size="36.0" fill="#252525" transform="matrix(1.00, 0.00, -0.00, -1.00, 1162.2, 447.0)">m</text><text xml:space="preserve" font-family="Lunchtype" font-size="36.0" fill="#252525" transform="matrix(1.00, 0.00, -0.00, -1.00, 1193.4, 447.0)">y</text><text xml:space="preserve" font-family="Lunchtype" font-size="36.0" fill="#252525" transform="matrix(1.00, 0.00, -0.00, -1.00, 1212.5, 447.0)"> </text><text xml:space="preserve" font-family="Lunchtype" font-size="36.0" fill="#252525" transform="matrix(1.00, 0.00, -0.00, -1.00, 1223.3, 447.0)">r</text><text xml:space="preserve" font-family="Lunchtype" font-size="36.0" fill="#252525" transform="matrix(1.00, 0.00, -0.00, -1.00, 1236.2, 447.0)">e</text><text xml:space="preserve" font-family="Lunchtype" font-size="36.0" fill="#252525" transform="matrix(1.00, 0.00, -0.00, -1.00, 1256.3, 447.0)">s</text><text xml:space="preserve" font-family="Lunchtype" font-size="36.0" fill="#252525" transform="matrix(1.00, 0.00, -0.00, -1.00, 1273.9, 447.0)">e</text><text xml:space="preserve" font-family="Lunchtype" font-size="36.0" fill="#252525" transform="matrix(1.00, 0.00, -0.00, -1.00, 1294.0, 447.0)">a</text><text xml:space="preserve" font-family="Lunchtype" font-size="36.0" fill="#252525" transform="matrix(1.00, 0.00, -0.00, -1.00, 1313.2, 447.0)">r</text><text xml:space="preserve" font-family="Lunchtype" font-size="36.0" fill="#252525" transform="matrix(1.00, 0.00, -0.00, -1.00, 1326.0, 447.0)">c</text><text xml:space="preserve" font-family="Lunchtype" font-size="36.0" fill="#252525" transform="matrix(1.00, 0.00, -0.00, -1.00, 1345.8, 447.0)">h</text><text xml:space="preserve" font-family="Lunchtype" font-size="36.0" fill="#252525" transform="matrix(1.00, 0.00, -0.00, -1.00, 1364.9, 447.0)"> </text><text xml:space="preserve" font-family="Lunchtype" font-size="36.0" fill="#252525" transform="matrix(1.00, 0.00, -0.00, -1.00, 1375.7, 447.0)">I</text><text xml:space="preserve" font-family="Lunchtype" font-size="36.0" fill="#252525" transform="matrix(1.00, 0.00, -0.00, -1.00, 1384.4, 447.0)"> </text><text xml:space="preserve" font-family="Lunchtype" font-size="36.0" fill="#252525" transform="matrix(1.00, 0.00, -0.00, -1.00, 1395.2, 447.0)">w</text><text xml:space="preserve" font-family="Lunchtype" font-size="36.0" fill="#252525" transform="matrix(1.00, 0.00, -0.00, -1.00, 1423.0, 447.0)">a</text><text xml:space="preserve" font-family="Lunchtype" font-size="36.0" fill="#252525" transform="matrix(1.00, 0.00, -0.00, -1.00, 1442.2, 447.0)">n</text><text xml:space="preserve" font-family="Lunchtype" font-size="36.0" fill="#252525" transform="matrix(1.00, 0.00, -0.00, -1.00, 1463.2, 447.0)">t</text><text xml:space="preserve" font-family="Lunchtype" font-size="36.0" fill="#252525" transform="matrix(1.00, 0.00, -0.00, -1.00, 1474.3, 447.0)">e</text><text xml:space="preserve" font-family="Lunchtype" font-size="36.0" fill="#252525" transform="matrix(1.00, 0.00, -0.00, -1.00, 1494.4, 447.0)">d</text><text xml:space="preserve" font-family="Lunchtype" font-size="36.0" fill="#252525" transform="matrix(1.00, 0.00, -0.00, -1.00, 1514.0, 447.0)"> </text><text xml:space="preserve" font-family="Lunchtype" font-size="36.0" fill="#252525" transform="matrix(1.00, 0.00, -0.00, -1.00, 395.0, 377.0)">t</text><text xml:space="preserve" font-family="Lunchtype" font-size="36.0" fill="#252525" transform="matrix(1.00, 0.00, -0.00, -1.00, 406.1, 377.0)">o</text><text xml:space="preserve" font-family="Lunchtype" font-size="36.0" fill="#252525" transform="matrix(1.00, 0.00, -0.00, -1.00, 426.7, 377.0)"> </text><text xml:space="preserve" font-family="Lunchtype" font-size="36.0" fill="#252525" transform="matrix(1.00, 0.00, -0.00, -1.00, 437.5, 377.0)">k</text><text xml:space="preserve" font-family="Lunchtype" font-size="36.0" fill="#252525" transform="matrix(1.00, 0.00, -0.00, -1.00, 456.0, 377.0)">n</text><text xml:space="preserve" font-family="Lunchtype" font-size="36.0" fill="#252525" transform="matrix(1.00, 0.00, -0.00, -1.00, 477.0, 377.0)">o</text><text xml:space="preserve" font-family="Lunchtype" font-size="36.0" fill="#252525" transform="matrix(1.00, 0.00, -0.00, -1.00, 497.6, 377.0)">w</text><text xml:space="preserve" font-family="Lunchtype" font-size="36.0" fill="#252525" transform="matrix(1.00, 0.00, -0.00, -1.00, 525.4, 377.0)"> </text><text xml:space="preserve" font-family="Lunchtype" font-size="36.0" fill="#252525" transform="matrix(1.00, 0.00, -0.00, -1.00, 536.2, 377.0)">h</text><text xml:space="preserve" font-family="Lunchtype" font-size="36.0" fill="#252525" transform="matrix(1.00, 0.00, -0.00, -1.00, 555.4, 377.0)">o</text><text xml:space="preserve" font-family="Lunchtype" font-size="36.0" fill="#252525" transform="matrix(1.00, 0.00, -0.00, -1.00, 576.0, 377.0)">w</text><text xml:space="preserve" font-family="Lunchtype" font-size="36.0" fill="#252525" transform="matrix(1.00, 0.00, -0.00, -1.00, 603.8, 377.0)"> </text><text xml:space="preserve" font-family="Lunchtype" font-size="36.0" fill="#252525" transform="matrix(1.00, 0.00, -0.00, -1.00, 614.6, 377.0)">m</text><text xml:space="preserve" font-family="Lunchtype" font-size="36.0" fill="#252525" transform="matrix(1.00, 0.00, -0.00, -1.00, 645.8, 377.0)">u</text><text xml:space="preserve" font-family="Lunchtype" font-size="36.0" fill="#252525" transform="matrix(1.00, 0.00, -0.00, -1.00, 666.7, 377.0)">c</text><text xml:space="preserve" font-family="Lunchtype" font-size="36.0" fill="#252525" transform="matrix(1.00, 0.00, -0.00, -1.00, 686.5, 377.0)">h</text><text xml:space="preserve" font-family="Lunchtype" font-size="36.0" fill="#252525" transform="matrix(1.00, 0.00, -0.00, -1.00, 705.6, 377.0)"> </text><text xml:space="preserve" font-family="Lunchtype" font-size="36.0" fill="#252525" transform="matrix(1.00, 0.00, -0.00, -1.00, 716.4, 377.0)">t</text><text xml:space="preserve" font-family="Lunchtype" font-size="36.0" fill="#252525" transform="matrix(1.00, 0.00, -0.00, -1.00, 727.5, 377.0)">i</text><text xml:space="preserve" font-family="Lunchtype" font-size="36.0" fill="#252525" transform="matrix(1.00, 0.00, -0.00, -1.00, 735.2, 377.0)">m</text><text xml:space="preserve" font-family="Lunchtype" font-size="36.0" fill="#252525" transform="matrix(1.00, 0.00, -0.00, -1.00, 766.3, 377.0)">e</text><text xml:space="preserve" font-family="Lunchtype" font-size="36.0" fill="#252525" transform="matrix(1.00, 0.00, -0.00, -1.00, 786.5, 377.0)"> </text><text xml:space="preserve" font-family="Lunchtype" font-size="36.0" fill="#252525" transform="matrix(1.00, 0.00, -0.00, -1.00, 797.3, 377.0)">p</text><text xml:space="preserve" font-family="Lunchtype" font-size="36.0" fill="#252525" transform="matrix(1.00, 0.00, -0.00, -1.00, 817.0, 377.0)">e</text><text xml:space="preserve" font-family="Lunchtype" font-size="36.0" fill="#252525" transform="matrix(1.00, 0.00, -0.00, -1.00, 837.1, 377.0)">o</text><text xml:space="preserve" font-family="Lunchtype" font-size="36.0" fill="#252525" transform="matrix(1.00, 0.00, -0.00, -1.00, 857.7, 377.0)">p</text><text xml:space="preserve" font-family="Lunchtype" font-size="36.0" fill="#252525" transform="matrix(1.00, 0.00, -0.00, -1.00, 877.4, 377.0)">l</text><text xml:space="preserve" font-family="Lunchtype" font-size="36.0" fill="#252525" transform="matrix(1.00, 0.00, -0.00, -1.00, 885.9, 377.0)">e</text><text xml:space="preserve" font-family="Lunchtype" font-size="36.0" fill="#252525" transform="matrix(1.00, 0.00, -0.00, -1.00, 906.0, 377.0)"> </text><text xml:space="preserve" font-family="Lunchtype" font-size="36.0" fill="#252525" transform="matrix(1.00, 0.00, -0.00, -1.00, 916.8, 377.0)">w</text><text xml:space="preserve" font-family="Lunchtype" font-size="36.0" fill="#252525" transform="matrix(1.00, 0.00, -0.00, -1.00, 944.6, 377.0)">e</text><text xml:space="preserve" font-family="Lunchtype" font-size="36.0" fill="#252525" transform="matrix(1.00, 0.00, -0.00, -1.00, 964.7, 377.0)">r</text><text xml:space="preserve" font-family="Lunchtype" font-size="36.0" fill="#252525" transform="matrix(1.00, 0.00, -0.00, -1.00, 977.6, 377.0)">e</text><text xml:space="preserve" font-family="Lunchtype" font-size="36.0" fill="#252525" transform="matrix(1.00, 0.00, -0.00, -1.00, 997.7, 377.0)"> </text><text xml:space="preserve" font-family="Lunchtype" font-size="36.0" fill="#252525" transform="matrix(1.00, 0.00, -0.00, -1.00, 1008.5, 377.0)">s</text><text xml:space="preserve" font-family="Lunchtype" font-size="36.0" fill="#252525" transform="matrix(1.00, 0.00, -0.00, -1.00, 1026.0, 377.0)">p</text><text xml:space="preserve" font-family="Lunchtype" font-size="36.0" fill="#252525" transform="matrix(1.00, 0.00, -0.00, -1.00, 1045.7, 377.0)">e</text><text xml:space="preserve" font-family="Lunchtype" font-size="36.0" fill="#252525" transform="matrix(1.00, 0.00, -0.00, -1.00, 1065.9, 377.0)">n</text><text xml:space="preserve" font-family="Lunchtype" font-size="36.0" fill="#252525" transform="matrix(1.00, 0.00, -0.00, -1.00, 1086.8, 377.0)">d</text><text xml:space="preserve" font-family="Lunchtype" font-size="36.0" fill="#252525" transform="matrix(1.00, 0.00, -0.00, -1.00, 1106.5, 377.0)">i</text><text xml:space="preserve" font-family="Lunchtype" font-size="36.0" fill="#252525" transform="matrix(1.00, 0.00, -0.00, -1.00, 1114.1, 377.0)">n</text><text xml:space="preserve" font-family="Lunchtype" font-size="36.0" fill="#252525" transform="matrix(1.00, 0.00, -0.00, -1.00, 1135.1, 377.0)">g</text><text xml:space="preserve" font-family="Lunchtype" font-size="36.0" fill="#252525" transform="matrix(1.00, 0.00, -0.00, -1.00, 1156.0, 377.0)"> </text><text xml:space="preserve" font-family="Lunchtype" font-size="36.0" fill="#252525" transform="matrix(1.00, 0.00, -0.00, -1.00, 1166.8, 377.0)">o</text><text xml:space="preserve" font-family="Lunchtype" font-size="36.0" fill="#252525" transform="matrix(1.00, 0.00, -0.00, -1.00, 1187.4, 377.0)">n</text><text xml:space="preserve" font-family="Lunchtype" font-size="36.0" fill="#252525" transform="matrix(1.00, 0.00, -0.00, -1.00, 1208.4, 377.0)"> </text><text xml:space="preserve" font-family="Lunchtype" font-size="36.0" fill="#252525" transform="matrix(1.00, 0.00, -0.00, -1.00, 1219.2, 377.0)">t</text><text xml:space="preserve" font-family="Lunchtype" font-size="36.0" fill="#252525" transform="matrix(1.00, 0.00, -0.00, -1.00, 1230.3, 377.0)">h</text><text xml:space="preserve" font-family="Lunchtype" font-size="36.0" fill="#252525" transform="matrix(1.00, 0.00, -0.00, -1.00, 1249.4, 377.0)">e</text><text xml:space="preserve" font-family="Lunchtype" font-size="36.0" fill="#252525" transform="matrix(1.00, 0.00, -0.00, -1.00, 1269.5, 377.0)">i</text><text xml:space="preserve" font-family="Lunchtype" font-size="36.0" fill="#252525" transform="matrix(1.00, 0.00, -0.00, -1.00, 1277.2, 377.0)">r</text><text xml:space="preserve" font-family="Lunchtype" font-size="36.0" fill="#252525" transform="matrix(1.00, 0.00, -0.00, -1.00, 1290.0, 377.0)"> </text><text xml:space="preserve" font-family="Lunchtype" font-size="36.0" fill="#252525" transform="matrix(1.00, 0.00, -0.00, -1.00, 1300.8, 377.0)">p</text><text xml:space="preserve" font-family="Lunchtype" font-size="36.0" fill="#252525" transform="matrix(1.00, 0.00, -0.00, -1.00, 1320.5, 377.0)">h</text><text xml:space="preserve" font-family="Lunchtype" font-size="36.0" fill="#252525" transform="matrix(1.00, 0.00, -0.00, -1.00, 1339.7, 377.0)">o</text><text xml:space="preserve" font-family="Lunchtype" font-size="36.0" fill="#252525" transform="matrix(1.00, 0.00, -0.00, -1.00, 1360.3, 377.0)">n</text><text xml:space="preserve" font-family="Lunchtype" font-size="36.0" fill="#252525" transform="matrix(1.00, 0.00, -0.00, -1.00, 1381.3, 377.0)">e</text><text xml:space="preserve" font-family="Lunchtype" font-size="36.0" fill="#252525" transform="matrix(1.00, 0.00, -0.00, -1.00, 1401.4, 377.0)">s</text><text xml:space="preserve" font-family="Lunchtype" font-size="36.0" fill="#252525" transform="matrix(1.00, 0.00, -0.00, -1.00, 1419.0, 377.0)">.</text><text xml:space="preserve" font-family="Helvetica" font-size="18.0" fill="#BEBEBE" transform="matrix(1.00, 0.00, -0.00, -1.00, 1812.0, 62.0)">1</text><text xml:space="preserve" font-family="Helvetica" font-size="18.0" fill="#BEBEBE" transform="matrix(1.00, 0.00, -0.00, -1.00, 1822.0, 62.0)">0</text></g></svg>