<?xml version="1.0" encoding="UTF-8"?><svg xmlns="http://www.w3.org/2000/svg" xmlns:xlink="http://www.w3.org/1999/xlink" clip-rule="evenodd" stroke-miterlimit="4.00" viewBox="0 0 1920 1080"><desc>SVG generated by Keynote</desc><defs></defs><g transform="matrix(1.00, 0.00, -0.00, -1.00, 0.0, 1080.0)"><path d="M 0.0 0.0 L 1920.0 0.0 L 1920.0 1080.0 L 0.0 1080.0 Z M 0.0 0.0 " fill="#000000"></path><text xml:space="preserve" font-family="Lunchtype" font-size="130.0" fill="#FEFFFF" transform="matrix(1.00, 0.00, -0.00, -1.00, 240.0, 480.0)">L</text><text xml:space="preserve" font-family="Lunchtype" font-size="130.0" fill="#FEFFFF" transform="matrix(1.00, 0.00, -0.00, -1.00, 302.7, 480.0)">o</text><text xml:space="preserve" font-family="Lunchtype" font-size="130.0" fill="#FEFFFF" transform="matrix(1.00, 0.00, -0.00, -1.00, 377.1, 480.0)">o</text><text xml:space="preserve" font-family="Lunchtype" font-size="130.0" fill="#FEFFFF" transform="matrix(1.00, 0.00, -0.00, -1.00, 451.6, 480.0)">k</text><text xml:space="preserve" font-family="Lunchtype" font-size="130.0" fill="#FEFFFF" transform="matrix(1.00, 0.00, -0.00, -1.00, 518.5, 480.0)">i</text><text xml:space="preserve" font-family="Lunchtype" font-size="130.0" fill="#FEFFFF" transform="matrix(1.00, 0.00, -0.00, -1.00, 546.0, 480.0)">n</text><text xml:space="preserve" font-family="Lunchtype" font-size="130.0" fill="#FEFFFF" transform="matrix(1.00, 0.00, -0.00, -1.00, 621.8, 480.0)">g</text><text xml:space="preserve" font-family="Lunchtype" font-size="130.0" fill="#FEFFFF" transform="matrix(1.00, 0.00, -0.00, -1.00, 697.2, 480.0)"> </text><text xml:space="preserve" font-family="Lunchtype" font-size="130.0" fill="#FEFFFF" transform="matrix(1.00, 0.00, -0.00, -1.00, 736.2, 480.0)">t</text><text xml:space="preserve" font-family="Lunchtype" font-size="130.0" fill="#FEFFFF" transform="matrix(1.00, 0.00, -0.00, -1.00, 776.2, 480.0)">o</text><text xml:space="preserve" font-family="Lunchtype" font-size="130.0" fill="#FEFFFF" transform="matrix(1.00, 0.00, -0.00, -1.00, 850.7, 480.0)"> </text><text xml:space="preserve" font-family="Lunchtype" font-size="130.0" fill="#FEFFFF" transform="matrix(1.00, 0.00, -0.00, -1.00, 889.7, 480.0)">o</text><text xml:space="preserve" font-family="Lunchtype" font-size="130.0" fill="#FEFFFF" transform="matrix(1.00, 0.00, -0.00, -1.00, 964.2, 480.0)">t</text><text xml:space="preserve" font-family="Lunchtype" font-size="130.0" fill="#FEFFFF" transform="matrix(1.00, 0.00, -0.00, -1.00, 1004.3, 480.0)">h</text><text xml:space="preserve" font-family="Lunchtype" font-size="130.0" fill="#FEFFFF" transform="matrix(1.00, 0.00, -0.00, -1.00, 1073.4, 480.0)">e</text><text xml:space="preserve" font-family="Lunchtype" font-size="130.0" fill="#FEFFFF" transform="matrix(1.00, 0.00, -0.00, -1.00, 1146.1, 480.0)">r</text><text xml:space="preserve" font-family="Lunchtype" font-size="130.0" fill="#FEFFFF" transform="matrix(1.00, 0.00, -0.00, -1.00, 1192.5, 480.0)"> </text><text xml:space="preserve" font-family="Lunchtype" font-size="130.0" fill="#FEFFFF" transform="matrix(1.00, 0.00, -0.00, -1.00, 1231.5, 480.0)">r</text><text xml:space="preserve" font-family="Lunchtype" font-size="130.0" fill="#FEFFFF" transform="matrix(1.00, 0.00, -0.00, -1.00, 1277.9, 480.0)">e</text><text xml:space="preserve" font-family="Lunchtype" font-size="130.0" fill="#FEFFFF" transform="matrix(1.00, 0.00, -0.00, -1.00, 1350.6, 480.0)">a</text><text xml:space="preserve" font-family="Lunchtype" font-size="130.0" fill="#FEFFFF" transform="matrix(1.00, 0.00, -0.00, -1.00, 1419.9, 480.0)">l</text><text xml:space="preserve" font-family="Lunchtype" font-size="130.0" fill="#FEFFFF" transform="matrix(1.00, 0.00, -0.00, -1.00, 1450.4, 480.0)">i</text><text xml:space="preserve" font-family="Lunchtype" font-size="130.0" fill="#FEFFFF" transform="matrix(1.00, 0.00, -0.00, -1.00, 1478.0, 480.0)">t</text><text xml:space="preserve" font-family="Lunchtype" font-size="130.0" fill="#FEFFFF" transform="matrix(1.00, 0.00, -0.00, -1.00, 1518.0, 480.0)">i</text><text xml:space="preserve" font-family="Lunchtype" font-size="130.0" fill="#FEFFFF" transform="matrix(1.00, 0.00, -0.00, -1.00, 1545.6, 480.0)">e</text><text xml:space="preserve" font-family="Lunchtype" font-size="130.0" fill="#FEFFFF" transform="matrix(1.00, 0.00, -0.00, -1.00, 1618.3, 480.0)">s</text><text xml:space="preserve" font-family="Helvetica" font-size="18.0" fill="#BEBEBE" transform="matrix(1.00, 0.00, -0.00, -1.00, 1812.0, 62.0)">2</text><text xml:space="preserve" font-family="Helvetica" font-size="18.0" fill="#BEBEBE" transform="matrix(1.00, 0.00, -0.00, -1.00, 1822.0, 62.0)">2</text></g></svg>