<?xml version="1.0" encoding="UTF-8"?><svg xmlns="http://www.w3.org/2000/svg" xmlns:xlink="http://www.w3.org/1999/xlink" clip-rule="evenodd" stroke-miterlimit="4.00" viewBox="0 0 1920 1080"><desc>SVG generated by Keynote</desc><defs></defs><g transform="matrix(1.00, 0.00, -0.00, -1.00, 0.0, 1080.0)"><path d="M 0.0 0.0 L 1920.0 0.0 L 1920.0 1080.0 L 0.0 1080.0 Z M 0.0 0.0 " fill="#000000"></path><g opacity="0.71"><g><clipPath id="clip-304"><path d="M 0.0 0.0 L 1920.0 0.0 L 1920.0 1080.0 L 0.0 1080.0 Z M 0.0 0.0 "></path></clipPath><g clip-path="url(#clip-304)"><image xlink:href="C66799DFA7EF579683A5D0326480A1AD.jpeg" width="975.00" height="767.00" transform="matrix(3.18, 0.00, -0.00, -3.18, -88.0, 1747.0)"></image></g></g></g><text xml:space="preserve" font-family="Helvetica" font-size="18.0" fill="#BEBEBE" transform="matrix(1.00, 0.00, -0.00, -1.00, 1812.0, 62.0)">2</text><image xlink:href="4E9B77F380F36F5CA4FF986134627FB5.png" width="1257.00" height="54.00" transform="matrix(1.00, 0.00, -0.00, -1.00, 120.0, 719.0)"></image><text xml:space="preserve" font-family="Lunchtype" font-size="47.0" fill="#FEFFFF" transform="matrix(1.00, 0.00, -0.00, -1.00, 122.0, 682.0)">P</text><text xml:space="preserve" font-family="Lunchtype" font-size="47.0" fill="#FEFFFF" transform="matrix(1.00, 0.00, -0.00, -1.00, 148.6, 682.0)">e</text><text xml:space="preserve" font-family="Lunchtype" font-size="47.0" fill="#FEFFFF" transform="matrix(1.00, 0.00, -0.00, -1.00, 174.9, 682.0)">o</text><text xml:space="preserve" font-family="Lunchtype" font-size="47.0" fill="#FEFFFF" transform="matrix(1.00, 0.00, -0.00, -1.00, 201.9, 682.0)">p</text><text xml:space="preserve" font-family="Lunchtype" font-size="47.0" fill="#FEFFFF" transform="matrix(1.00, 0.00, -0.00, -1.00, 227.6, 682.0)">l</text><text xml:space="preserve" font-family="Lunchtype" font-size="47.0" fill="#FEFFFF" transform="matrix(1.00, 0.00, -0.00, -1.00, 238.6, 682.0)">e</text><text xml:space="preserve" font-family="Lunchtype" font-size="47.0" fill="#FEFFFF" transform="matrix(1.00, 0.00, -0.00, -1.00, 264.9, 682.0)"> </text><text xml:space="preserve" font-family="Lunchtype" font-size="47.0" fill="#FEFFFF" transform="matrix(1.00, 0.00, -0.00, -1.00, 279.0, 682.0)">a</text><text xml:space="preserve" font-family="Lunchtype" font-size="47.0" fill="#FEFFFF" transform="matrix(1.00, 0.00, -0.00, -1.00, 304.0, 682.0)">r</text><text xml:space="preserve" font-family="Lunchtype" font-size="47.0" fill="#FEFFFF" transform="matrix(1.00, 0.00, -0.00, -1.00, 320.8, 682.0)">e</text><text xml:space="preserve" font-family="Lunchtype" font-size="47.0" fill="#FEFFFF" transform="matrix(1.00, 0.00, -0.00, -1.00, 347.1, 682.0)"> </text><text xml:space="preserve" font-family="Lunchtype" font-size="47.0" fill="#FEFFFF" transform="matrix(1.00, 0.00, -0.00, -1.00, 361.2, 682.0)">d</text><text xml:space="preserve" font-family="Lunchtype" font-size="47.0" fill="#FEFFFF" transform="matrix(1.00, 0.00, -0.00, -1.00, 386.8, 682.0)">i</text><text xml:space="preserve" font-family="Lunchtype" font-size="47.0" fill="#FEFFFF" transform="matrix(1.00, 0.00, -0.00, -1.00, 396.8, 682.0)">s</text><text xml:space="preserve" font-family="Lunchtype" font-size="47.0" fill="#FEFFFF" transform="matrix(1.00, 0.00, -0.00, -1.00, 419.7, 682.0)">t</text><text xml:space="preserve" font-family="Lunchtype" font-size="47.0" fill="#FEFFFF" transform="matrix(1.00, 0.00, -0.00, -1.00, 434.2, 682.0)">r</text><text xml:space="preserve" font-family="Lunchtype" font-size="47.0" fill="#FEFFFF" transform="matrix(1.00, 0.00, -0.00, -1.00, 451.0, 682.0)">a</text><text xml:space="preserve" font-family="Lunchtype" font-size="47.0" fill="#FEFFFF" transform="matrix(1.00, 0.00, -0.00, -1.00, 476.0, 682.0)">c</text><text xml:space="preserve" font-family="Lunchtype" font-size="47.0" fill="#FEFFFF" transform="matrix(1.00, 0.00, -0.00, -1.00, 501.8, 682.0)">t</text><text xml:space="preserve" font-family="Lunchtype" font-size="47.0" fill="#FEFFFF" transform="matrix(1.00, 0.00, -0.00, -1.00, 516.3, 682.0)">e</text><text xml:space="preserve" font-family="Lunchtype" font-size="47.0" fill="#FEFFFF" transform="matrix(1.00, 0.00, -0.00, -1.00, 542.6, 682.0)">d</text><text xml:space="preserve" font-family="Lunchtype" font-size="47.0" fill="#FEFFFF" transform="matrix(1.00, 0.00, -0.00, -1.00, 568.2, 682.0)">.</text><text xml:space="preserve" font-family="Lunchtype" font-size="47.0" fill="#FEFFFF" transform="matrix(1.00, 0.00, -0.00, -1.00, 580.6, 682.0)"> </text><text xml:space="preserve" font-family="Lunchtype" font-size="47.0" fill="#FEFFFF" transform="matrix(1.00, 0.00, -0.00, -1.00, 594.7, 682.0)">O</text><text xml:space="preserve" font-family="Lunchtype" font-size="47.0" fill="#FEFFFF" transform="matrix(1.00, 0.00, -0.00, -1.00, 626.2, 682.0)">n</text><text xml:space="preserve" font-family="Lunchtype" font-size="47.0" fill="#FEFFFF" transform="matrix(1.00, 0.00, -0.00, -1.00, 653.6, 682.0)">e</text><text xml:space="preserve" font-family="Lunchtype" font-size="47.0" fill="#FEFFFF" transform="matrix(1.00, 0.00, -0.00, -1.00, 679.9, 682.0)"> </text><text xml:space="preserve" font-family="Lunchtype" font-size="47.0" fill="#FEFFFF" transform="matrix(1.00, 0.00, -0.00, -1.00, 694.0, 682.0)">o</text><text xml:space="preserve" font-family="Lunchtype" font-size="47.0" fill="#FEFFFF" transform="matrix(1.00, 0.00, -0.00, -1.00, 720.9, 682.0)">f</text><text xml:space="preserve" font-family="Lunchtype" font-size="47.0" fill="#FEFFFF" transform="matrix(1.00, 0.00, -0.00, -1.00, 736.0, 682.0)"> </text><text xml:space="preserve" font-family="Lunchtype" font-size="47.0" fill="#FEFFFF" transform="matrix(1.00, 0.00, -0.00, -1.00, 750.1, 682.0)">t</text><text xml:space="preserve" font-family="Lunchtype" font-size="47.0" fill="#FEFFFF" transform="matrix(1.00, 0.00, -0.00, -1.00, 764.5, 682.0)">h</text><text xml:space="preserve" font-family="Lunchtype" font-size="47.0" fill="#FEFFFF" transform="matrix(1.00, 0.00, -0.00, -1.00, 789.5, 682.0)">e</text><text xml:space="preserve" font-family="Lunchtype" font-size="47.0" fill="#FEFFFF" transform="matrix(1.00, 0.00, -0.00, -1.00, 815.8, 682.0)"> </text><text xml:space="preserve" font-family="Lunchtype" font-size="47.0" fill="#FEFFFF" transform="matrix(1.00, 0.00, -0.00, -1.00, 829.9, 682.0)">m</text><text xml:space="preserve" font-family="Lunchtype" font-size="47.0" fill="#FEFFFF" transform="matrix(1.00, 0.00, -0.00, -1.00, 870.6, 682.0)">a</text><text xml:space="preserve" font-family="Lunchtype" font-size="47.0" fill="#FEFFFF" transform="matrix(1.00, 0.00, -0.00, -1.00, 895.7, 682.0)">j</text><text xml:space="preserve" font-family="Lunchtype" font-size="47.0" fill="#FEFFFF" transform="matrix(1.00, 0.00, -0.00, -1.00, 905.3, 682.0)">o</text><text xml:space="preserve" font-family="Lunchtype" font-size="47.0" fill="#FEFFFF" transform="matrix(1.00, 0.00, -0.00, -1.00, 932.2, 682.0)">r</text><text xml:space="preserve" font-family="Lunchtype" font-size="47.0" fill="#FEFFFF" transform="matrix(1.00, 0.00, -0.00, -1.00, 949.0, 682.0)"> </text><text xml:space="preserve" font-family="Lunchtype" font-size="47.0" fill="#FEFFFF" transform="matrix(1.00, 0.00, -0.00, -1.00, 963.1, 682.0)">f</text><text xml:space="preserve" font-family="Lunchtype" font-size="47.0" fill="#FEFFFF" transform="matrix(1.00, 0.00, -0.00, -1.00, 978.2, 682.0)">o</text><text xml:space="preserve" font-family="Lunchtype" font-size="47.0" fill="#FEFFFF" transform="matrix(1.00, 0.00, -0.00, -1.00, 1005.1, 682.0)">r</text><text xml:space="preserve" font-family="Lunchtype" font-size="47.0" fill="#FEFFFF" transform="matrix(1.00, 0.00, -0.00, -1.00, 1021.9, 682.0)">m</text><text xml:space="preserve" font-family="Lunchtype" font-size="47.0" fill="#FEFFFF" transform="matrix(1.00, 0.00, -0.00, -1.00, 1062.6, 682.0)">s</text><text xml:space="preserve" font-family="Lunchtype" font-size="47.0" fill="#FEFFFF" transform="matrix(1.00, 0.00, -0.00, -1.00, 1085.5, 682.0)"> </text><text xml:space="preserve" font-family="Lunchtype" font-size="47.0" fill="#FEFFFF" transform="matrix(1.00, 0.00, -0.00, -1.00, 1099.6, 682.0)">o</text><text xml:space="preserve" font-family="Lunchtype" font-size="47.0" fill="#FEFFFF" transform="matrix(1.00, 0.00, -0.00, -1.00, 1126.5, 682.0)">f</text><text xml:space="preserve" font-family="Lunchtype" font-size="47.0" fill="#FEFFFF" transform="matrix(1.00, 0.00, -0.00, -1.00, 1141.6, 682.0)"> </text><text xml:space="preserve" font-family="Lunchtype" font-size="47.0" fill="#FEFFFF" transform="matrix(1.00, 0.00, -0.00, -1.00, 1155.7, 682.0)">d</text><text xml:space="preserve" font-family="Lunchtype" font-size="47.0" fill="#FEFFFF" transform="matrix(1.00, 0.00, -0.00, -1.00, 1181.3, 682.0)">i</text><text xml:space="preserve" font-family="Lunchtype" font-size="47.0" fill="#FEFFFF" transform="matrix(1.00, 0.00, -0.00, -1.00, 1191.3, 682.0)">s</text><text xml:space="preserve" font-family="Lunchtype" font-size="47.0" fill="#FEFFFF" transform="matrix(1.00, 0.00, -0.00, -1.00, 1214.2, 682.0)">t</text><text xml:space="preserve" font-family="Lunchtype" font-size="47.0" fill="#FEFFFF" transform="matrix(1.00, 0.00, -0.00, -1.00, 1228.7, 682.0)">r</text><text xml:space="preserve" font-family="Lunchtype" font-size="47.0" fill="#FEFFFF" transform="matrix(1.00, 0.00, -0.00, -1.00, 1245.4, 682.0)">a</text><text xml:space="preserve" font-family="Lunchtype" font-size="47.0" fill="#FEFFFF" transform="matrix(1.00, 0.00, -0.00, -1.00, 1270.5, 682.0)">c</text><text xml:space="preserve" font-family="Lunchtype" font-size="47.0" fill="#FEFFFF" transform="matrix(1.00, 0.00, -0.00, -1.00, 1296.3, 682.0)">t</text><text xml:space="preserve" font-family="Lunchtype" font-size="47.0" fill="#FEFFFF" transform="matrix(1.00, 0.00, -0.00, -1.00, 1310.8, 682.0)">i</text><text xml:space="preserve" font-family="Lunchtype" font-size="47.0" fill="#FEFFFF" transform="matrix(1.00, 0.00, -0.00, -1.00, 1320.7, 682.0)">o</text><text xml:space="preserve" font-family="Lunchtype" font-size="47.0" fill="#FEFFFF" transform="matrix(1.00, 0.00, -0.00, -1.00, 1347.7, 682.0)">n</text><text xml:space="preserve" font-family="Lunchtype" font-size="47.0" fill="#FEFFFF" transform="matrix(1.00, 0.00, -0.00, -1.00, 1375.1, 682.0)"> </text><image xlink:href="F3AD97AEE6DBAC06E6BF3F95391770D6.png" width="1161.00" height="54.00" transform="matrix(1.00, 0.00, -0.00, -1.00, 120.0, 635.0)"></image><text xml:space="preserve" font-family="Lunchtype" font-size="47.0" fill="#FEFFFF" transform="matrix(1.00, 0.00, -0.00, -1.00, 122.0, 598.0)">i</text><text xml:space="preserve" font-family="Lunchtype" font-size="47.0" fill="#FEFFFF" transform="matrix(1.00, 0.00, -0.00, -1.00, 132.0, 598.0)">s</text><text xml:space="preserve" font-family="Lunchtype" font-size="47.0" fill="#FEFFFF" transform="matrix(1.00, 0.00, -0.00, -1.00, 154.9, 598.0)"> </text><text xml:space="preserve" font-family="Lunchtype" font-size="47.0" fill="#FEFFFF" transform="matrix(1.00, 0.00, -0.00, -1.00, 169.0, 598.0)">t</text><text xml:space="preserve" font-family="Lunchtype" font-size="47.0" fill="#FEFFFF" transform="matrix(1.00, 0.00, -0.00, -1.00, 183.5, 598.0)">h</text><text xml:space="preserve" font-family="Lunchtype" font-size="47.0" fill="#FEFFFF" transform="matrix(1.00, 0.00, -0.00, -1.00, 208.5, 598.0)">r</text><text xml:space="preserve" font-family="Lunchtype" font-size="47.0" fill="#FEFFFF" transform="matrix(1.00, 0.00, -0.00, -1.00, 225.3, 598.0)">o</text><text xml:space="preserve" font-family="Lunchtype" font-size="47.0" fill="#FEFFFF" transform="matrix(1.00, 0.00, -0.00, -1.00, 252.2, 598.0)">u</text><text xml:space="preserve" font-family="Lunchtype" font-size="47.0" fill="#FEFFFF" transform="matrix(1.00, 0.00, -0.00, -1.00, 279.5, 598.0)">g</text><text xml:space="preserve" font-family="Lunchtype" font-size="47.0" fill="#FEFFFF" transform="matrix(1.00, 0.00, -0.00, -1.00, 306.8, 598.0)">h</text><text xml:space="preserve" font-family="Lunchtype" font-size="47.0" fill="#FEFFFF" transform="matrix(1.00, 0.00, -0.00, -1.00, 331.8, 598.0)"> </text><text xml:space="preserve" font-family="Lunchtype" font-size="47.0" fill="#FEFFFF" transform="matrix(1.00, 0.00, -0.00, -1.00, 345.9, 598.0)">o</text><text xml:space="preserve" font-family="Lunchtype" font-size="47.0" fill="#FEFFFF" transform="matrix(1.00, 0.00, -0.00, -1.00, 372.8, 598.0)">u</text><text xml:space="preserve" font-family="Lunchtype" font-size="47.0" fill="#FEFFFF" transform="matrix(1.00, 0.00, -0.00, -1.00, 400.2, 598.0)">r</text><text xml:space="preserve" font-family="Lunchtype" font-size="47.0" fill="#FEFFFF" transform="matrix(1.00, 0.00, -0.00, -1.00, 417.0, 598.0)"> </text><text xml:space="preserve" font-family="Lunchtype" font-size="47.0" fill="#FEFFFF" transform="matrix(1.00, 0.00, -0.00, -1.00, 431.1, 598.0)">m</text><text xml:space="preserve" font-family="Lunchtype" font-size="47.0" fill="#FEFFFF" transform="matrix(1.00, 0.00, -0.00, -1.00, 471.8, 598.0)">o</text><text xml:space="preserve" font-family="Lunchtype" font-size="47.0" fill="#FEFFFF" transform="matrix(1.00, 0.00, -0.00, -1.00, 498.7, 598.0)">b</text><text xml:space="preserve" font-family="Lunchtype" font-size="47.0" fill="#FEFFFF" transform="matrix(1.00, 0.00, -0.00, -1.00, 524.4, 598.0)">i</text><text xml:space="preserve" font-family="Lunchtype" font-size="47.0" fill="#FEFFFF" transform="matrix(1.00, 0.00, -0.00, -1.00, 534.4, 598.0)">l</text><text xml:space="preserve" font-family="Lunchtype" font-size="47.0" fill="#FEFFFF" transform="matrix(1.00, 0.00, -0.00, -1.00, 545.4, 598.0)">e</text><text xml:space="preserve" font-family="Lunchtype" font-size="47.0" fill="#FEFFFF" transform="matrix(1.00, 0.00, -0.00, -1.00, 571.7, 598.0)"> </text><text xml:space="preserve" font-family="Lunchtype" font-size="47.0" fill="#FEFFFF" transform="matrix(1.00, 0.00, -0.00, -1.00, 585.8, 598.0)">d</text><text xml:space="preserve" font-family="Lunchtype" font-size="47.0" fill="#FEFFFF" transform="matrix(1.00, 0.00, -0.00, -1.00, 611.4, 598.0)">e</text><text xml:space="preserve" font-family="Lunchtype" font-size="47.0" fill="#FEFFFF" transform="matrix(1.00, 0.00, -0.00, -1.00, 637.7, 598.0)">v</text><text xml:space="preserve" font-family="Lunchtype" font-size="47.0" fill="#FEFFFF" transform="matrix(1.00, 0.00, -0.00, -1.00, 662.2, 598.0)">i</text><text xml:space="preserve" font-family="Lunchtype" font-size="47.0" fill="#FEFFFF" transform="matrix(1.00, 0.00, -0.00, -1.00, 672.1, 598.0)">c</text><text xml:space="preserve" font-family="Lunchtype" font-size="47.0" fill="#FEFFFF" transform="matrix(1.00, 0.00, -0.00, -1.00, 697.9, 598.0)">e</text><text xml:space="preserve" font-family="Lunchtype" font-size="47.0" fill="#FEFFFF" transform="matrix(1.00, 0.00, -0.00, -1.00, 724.2, 598.0)">.</text><text xml:space="preserve" font-family="Lunchtype" font-size="47.0" fill="#FEFFFF" transform="matrix(1.00, 0.00, -0.00, -1.00, 736.6, 598.0)"> </text><text xml:space="preserve" font-family="Lunchtype" font-size="47.0" fill="#FEFFFF" transform="matrix(1.00, 0.00, -0.00, -1.00, 750.7, 598.0)">M</text><text xml:space="preserve" font-family="Lunchtype" font-size="47.0" fill="#FEFFFF" transform="matrix(1.00, 0.00, -0.00, -1.00, 789.1, 598.0)">y</text><text xml:space="preserve" font-family="Lunchtype" font-size="47.0" fill="#FEFFFF" transform="matrix(1.00, 0.00, -0.00, -1.00, 814.1, 598.0)"> </text><text xml:space="preserve" font-family="Lunchtype" font-size="47.0" fill="#FEFFFF" transform="matrix(1.00, 0.00, -0.00, -1.00, 828.2, 598.0)">t</text><text xml:space="preserve" font-family="Lunchtype" font-size="47.0" fill="#FEFFFF" transform="matrix(1.00, 0.00, -0.00, -1.00, 842.7, 598.0)">h</text><text xml:space="preserve" font-family="Lunchtype" font-size="47.0" fill="#FEFFFF" transform="matrix(1.00, 0.00, -0.00, -1.00, 867.7, 598.0)">e</text><text xml:space="preserve" font-family="Lunchtype" font-size="47.0" fill="#FEFFFF" transform="matrix(1.00, 0.00, -0.00, -1.00, 893.9, 598.0)">s</text><text xml:space="preserve" font-family="Lunchtype" font-size="47.0" fill="#FEFFFF" transform="matrix(1.00, 0.00, -0.00, -1.00, 916.9, 598.0)">i</text><text xml:space="preserve" font-family="Lunchtype" font-size="47.0" fill="#FEFFFF" transform="matrix(1.00, 0.00, -0.00, -1.00, 926.8, 598.0)">s</text><text xml:space="preserve" font-family="Lunchtype" font-size="47.0" fill="#FEFFFF" transform="matrix(1.00, 0.00, -0.00, -1.00, 949.8, 598.0)"> </text><text xml:space="preserve" font-family="Lunchtype" font-size="47.0" fill="#FEFFFF" transform="matrix(1.00, 0.00, -0.00, -1.00, 963.9, 598.0)">p</text><text xml:space="preserve" font-family="Lunchtype" font-size="47.0" fill="#FEFFFF" transform="matrix(1.00, 0.00, -0.00, -1.00, 989.6, 598.0)">r</text><text xml:space="preserve" font-family="Lunchtype" font-size="47.0" fill="#FEFFFF" transform="matrix(1.00, 0.00, -0.00, -1.00, 1006.4, 598.0)">o</text><text xml:space="preserve" font-family="Lunchtype" font-size="47.0" fill="#FEFFFF" transform="matrix(1.00, 0.00, -0.00, -1.00, 1033.3, 598.0)">j</text><text xml:space="preserve" font-family="Lunchtype" font-size="47.0" fill="#FEFFFF" transform="matrix(1.00, 0.00, -0.00, -1.00, 1042.9, 598.0)">e</text><text xml:space="preserve" font-family="Lunchtype" font-size="47.0" fill="#FEFFFF" transform="matrix(1.00, 0.00, -0.00, -1.00, 1069.2, 598.0)">c</text><text xml:space="preserve" font-family="Lunchtype" font-size="47.0" fill="#FEFFFF" transform="matrix(1.00, 0.00, -0.00, -1.00, 1095.0, 598.0)">t</text><text xml:space="preserve" font-family="Lunchtype" font-size="47.0" fill="#FEFFFF" transform="matrix(1.00, 0.00, -0.00, -1.00, 1109.5, 598.0)"> </text><text xml:space="preserve" font-family="Lunchtype" font-size="47.0" fill="#FEFFFF" transform="matrix(1.00, 0.00, -0.00, -1.00, 1123.6, 598.0)">a</text><text xml:space="preserve" font-family="Lunchtype" font-size="47.0" fill="#FEFFFF" transform="matrix(1.00, 0.00, -0.00, -1.00, 1148.6, 598.0)">i</text><text xml:space="preserve" font-family="Lunchtype" font-size="47.0" fill="#FEFFFF" transform="matrix(1.00, 0.00, -0.00, -1.00, 1158.6, 598.0)">m</text><text xml:space="preserve" font-family="Lunchtype" font-size="47.0" fill="#FEFFFF" transform="matrix(1.00, 0.00, -0.00, -1.00, 1199.3, 598.0)">s</text><text xml:space="preserve" font-family="Lunchtype" font-size="47.0" fill="#FEFFFF" transform="matrix(1.00, 0.00, -0.00, -1.00, 1222.2, 598.0)"> </text><text xml:space="preserve" font-family="Lunchtype" font-size="47.0" fill="#FEFFFF" transform="matrix(1.00, 0.00, -0.00, -1.00, 1236.3, 598.0)">t</text><text xml:space="preserve" font-family="Lunchtype" font-size="47.0" fill="#FEFFFF" transform="matrix(1.00, 0.00, -0.00, -1.00, 1250.8, 598.0)">o</text><text xml:space="preserve" font-family="Lunchtype" font-size="47.0" fill="#FEFFFF" transform="matrix(1.00, 0.00, -0.00, -1.00, 1277.7, 598.0)"> </text><image xlink:href="361F05F747AF5A6F2905F22D2DCCD816.png" width="782.00" height="53.00" transform="matrix(1.00, 0.00, -0.00, -1.00, 117.0, 551.0)"></image><text xml:space="preserve" font-family="Lunchtype" font-size="47.0" fill="#FEFFFF" transform="matrix(1.00, 0.00, -0.00, -1.00, 122.0, 514.0)">d</text><text xml:space="preserve" font-family="Lunchtype" font-size="47.0" fill="#FEFFFF" transform="matrix(1.00, 0.00, -0.00, -1.00, 147.6, 514.0)">i</text><text xml:space="preserve" font-family="Lunchtype" font-size="47.0" fill="#FEFFFF" transform="matrix(1.00, 0.00, -0.00, -1.00, 157.6, 514.0)">s</text><text xml:space="preserve" font-family="Lunchtype" font-size="47.0" fill="#FEFFFF" transform="matrix(1.00, 0.00, -0.00, -1.00, 180.5, 514.0)">c</text><text xml:space="preserve" font-family="Lunchtype" font-size="47.0" fill="#FEFFFF" transform="matrix(1.00, 0.00, -0.00, -1.00, 206.3, 514.0)">o</text><text xml:space="preserve" font-family="Lunchtype" font-size="47.0" fill="#FEFFFF" transform="matrix(1.00, 0.00, -0.00, -1.00, 233.2, 514.0)">v</text><text xml:space="preserve" font-family="Lunchtype" font-size="47.0" fill="#FEFFFF" transform="matrix(1.00, 0.00, -0.00, -1.00, 257.7, 514.0)">e</text><text xml:space="preserve" font-family="Lunchtype" font-size="47.0" fill="#FEFFFF" transform="matrix(1.00, 0.00, -0.00, -1.00, 284.0, 514.0)">r</text><text xml:space="preserve" font-family="Lunchtype" font-size="47.0" fill="#FEFFFF" transform="matrix(1.00, 0.00, -0.00, -1.00, 300.8, 514.0)"> </text><text xml:space="preserve" font-family="Lunchtype" font-size="47.0" fill="#FEFFFF" transform="matrix(1.00, 0.00, -0.00, -1.00, 314.9, 514.0)">a</text><text xml:space="preserve" font-family="Lunchtype" font-size="47.0" fill="#FEFFFF" transform="matrix(1.00, 0.00, -0.00, -1.00, 339.9, 514.0)">n</text><text xml:space="preserve" font-family="Lunchtype" font-size="47.0" fill="#FEFFFF" transform="matrix(1.00, 0.00, -0.00, -1.00, 367.3, 514.0)">d</text><text xml:space="preserve" font-family="Lunchtype" font-size="47.0" fill="#FEFFFF" transform="matrix(1.00, 0.00, -0.00, -1.00, 393.0, 514.0)"> </text><text xml:space="preserve" font-family="Lunchtype" font-size="47.0" fill="#FEFFFF" transform="matrix(1.00, 0.00, -0.00, -1.00, 407.1, 514.0)">u</text><text xml:space="preserve" font-family="Lunchtype" font-size="47.0" fill="#FEFFFF" transform="matrix(1.00, 0.00, -0.00, -1.00, 434.4, 514.0)">n</text><text xml:space="preserve" font-family="Lunchtype" font-size="47.0" fill="#FEFFFF" transform="matrix(1.00, 0.00, -0.00, -1.00, 461.8, 514.0)">d</text><text xml:space="preserve" font-family="Lunchtype" font-size="47.0" fill="#FEFFFF" transform="matrix(1.00, 0.00, -0.00, -1.00, 487.4, 514.0)">e</text><text xml:space="preserve" font-family="Lunchtype" font-size="47.0" fill="#FEFFFF" transform="matrix(1.00, 0.00, -0.00, -1.00, 513.7, 514.0)">r</text><text xml:space="preserve" font-family="Lunchtype" font-size="47.0" fill="#FEFFFF" transform="matrix(1.00, 0.00, -0.00, -1.00, 530.5, 514.0)">s</text><text xml:space="preserve" font-family="Lunchtype" font-size="47.0" fill="#FEFFFF" transform="matrix(1.00, 0.00, -0.00, -1.00, 553.4, 514.0)">t</text><text xml:space="preserve" font-family="Lunchtype" font-size="47.0" fill="#FEFFFF" transform="matrix(1.00, 0.00, -0.00, -1.00, 567.9, 514.0)">a</text><text xml:space="preserve" font-family="Lunchtype" font-size="47.0" fill="#FEFFFF" transform="matrix(1.00, 0.00, -0.00, -1.00, 592.9, 514.0)">n</text><text xml:space="preserve" font-family="Lunchtype" font-size="47.0" fill="#FEFFFF" transform="matrix(1.00, 0.00, -0.00, -1.00, 620.3, 514.0)">d</text><text xml:space="preserve" font-family="Lunchtype" font-size="47.0" fill="#FEFFFF" transform="matrix(1.00, 0.00, -0.00, -1.00, 646.0, 514.0)"> </text><text xml:space="preserve" font-family="Lunchtype" font-size="47.0" fill="#FEFFFF" transform="matrix(1.00, 0.00, -0.00, -1.00, 660.1, 514.0)">w</text><text xml:space="preserve" font-family="Lunchtype" font-size="47.0" fill="#FEFFFF" transform="matrix(1.00, 0.00, -0.00, -1.00, 696.3, 514.0)">h</text><text xml:space="preserve" font-family="Lunchtype" font-size="47.0" fill="#FEFFFF" transform="matrix(1.00, 0.00, -0.00, -1.00, 721.3, 514.0)">y</text><text xml:space="preserve" font-family="Lunchtype" font-size="47.0" fill="#FEFFFF" transform="matrix(1.00, 0.00, -0.00, -1.00, 746.3, 514.0)"> </text><text xml:space="preserve" font-family="Lunchtype" font-size="47.0" fill="#FEFFFF" transform="matrix(1.00, 0.00, -0.00, -1.00, 760.4, 514.0)">i</text><text xml:space="preserve" font-family="Lunchtype" font-size="47.0" fill="#FEFFFF" transform="matrix(1.00, 0.00, -0.00, -1.00, 770.4, 514.0)">t</text><text xml:space="preserve" font-family="Lunchtype" font-size="47.0" fill="#FEFFFF" transform="matrix(1.00, 0.00, -0.00, -1.00, 784.9, 514.0)"> </text><text xml:space="preserve" font-family="Lunchtype" font-size="47.0" fill="#FEFFFF" transform="matrix(1.00, 0.00, -0.00, -1.00, 799.0, 514.0)">i</text><text xml:space="preserve" font-family="Lunchtype" font-size="47.0" fill="#FEFFFF" transform="matrix(1.00, 0.00, -0.00, -1.00, 809.0, 514.0)">s</text><text xml:space="preserve" font-family="Lunchtype" font-size="47.0" fill="#FEFFFF" transform="matrix(1.00, 0.00, -0.00, -1.00, 831.9, 514.0)"> </text><text xml:space="preserve" font-family="Lunchtype" font-size="47.0" fill="#FEFFFF" transform="matrix(1.00, 0.00, -0.00, -1.00, 846.0, 514.0)">s</text><text xml:space="preserve" font-family="Lunchtype" font-size="47.0" fill="#FEFFFF" transform="matrix(1.00, 0.00, -0.00, -1.00, 868.9, 514.0)">o</text><text xml:space="preserve" font-family="Lunchtype" font-size="47.0" fill="#FEFFFF" transform="matrix(1.00, 0.00, -0.00, -1.00, 895.9, 514.0)"> </text><image xlink:href="8DEE98A6591876F32C36D63A1450D0DC.png" width="107.00" height="43.00" transform="matrix(1.00, 0.00, -0.00, -1.00, 907.0, 541.0)"></image><text xml:space="preserve" font-family="Lunchtype" font-size="47.0" fill="#FEFFFF" transform="matrix(1.00, 0.00, -0.00, -1.00, 910.0, 514.0)">e</text><text xml:space="preserve" font-family="Lunchtype" font-size="47.0" fill="#FEFFFF" transform="matrix(1.00, 0.00, -0.00, -1.00, 936.2, 514.0)">a</text><text xml:space="preserve" font-family="Lunchtype" font-size="47.0" fill="#FEFFFF" transform="matrix(1.00, 0.00, -0.00, -1.00, 961.3, 514.0)">s</text><text xml:space="preserve" font-family="Lunchtype" font-size="47.0" fill="#FEFFFF" transform="matrix(1.00, 0.00, -0.00, -1.00, 984.2, 514.0)">y</text><image xlink:href="353974ABDBD7A6D2E3BBFE1CFFC18950.png" width="227.00" height="41.00" transform="matrix(1.00, 0.00, -0.00, -1.00, 1019.0, 547.0)"></image><text xml:space="preserve" font-family="Lunchtype" font-size="47.0" fill="#FEFFFF" transform="matrix(1.00, 0.00, -0.00, -1.00, 1009.2, 514.0)"> </text><text xml:space="preserve" font-family="Lunchtype" font-size="47.0" fill="#FEFFFF" transform="matrix(1.00, 0.00, -0.00, -1.00, 1023.3, 514.0)">t</text><text xml:space="preserve" font-family="Lunchtype" font-size="47.0" fill="#FEFFFF" transform="matrix(1.00, 0.00, -0.00, -1.00, 1037.8, 514.0)">o</text><text xml:space="preserve" font-family="Lunchtype" font-size="47.0" fill="#FEFFFF" transform="matrix(1.00, 0.00, -0.00, -1.00, 1064.7, 514.0)"> </text><text xml:space="preserve" font-family="Lunchtype" font-size="47.0" fill="#FEFFFF" transform="matrix(1.00, 0.00, -0.00, -1.00, 1078.8, 514.0)">u</text><text xml:space="preserve" font-family="Lunchtype" font-size="47.0" fill="#FEFFFF" transform="matrix(1.00, 0.00, -0.00, -1.00, 1106.2, 514.0)">s</text><text xml:space="preserve" font-family="Lunchtype" font-size="47.0" fill="#FEFFFF" transform="matrix(1.00, 0.00, -0.00, -1.00, 1129.1, 514.0)">e</text><text xml:space="preserve" font-family="Lunchtype" font-size="47.0" fill="#FEFFFF" transform="matrix(1.00, 0.00, -0.00, -1.00, 1155.4, 514.0)"> </text><text xml:space="preserve" font-family="Lunchtype" font-size="47.0" fill="#FEFFFF" transform="matrix(1.00, 0.00, -0.00, -1.00, 1169.5, 514.0)">o</text><text xml:space="preserve" font-family="Lunchtype" font-size="47.0" fill="#FEFFFF" transform="matrix(1.00, 0.00, -0.00, -1.00, 1196.4, 514.0)">u</text><text xml:space="preserve" font-family="Lunchtype" font-size="47.0" fill="#FEFFFF" transform="matrix(1.00, 0.00, -0.00, -1.00, 1223.8, 514.0)">r</text><text xml:space="preserve" font-family="Lunchtype" font-size="47.0" fill="#FEFFFF" transform="matrix(1.00, 0.00, -0.00, -1.00, 1240.6, 514.0)"> </text><image xlink:href="1DC96B382D121482C749B0F3A79E90DC.png" width="101.00" height="5.00" transform="matrix(1.00, 0.00, -0.00, -1.00, 908.0, 513.0)"></image><g><clipPath id="clip-305"><path d="M 908.7 508.1 L 1009.0 508.1 L 1009.0 512.4 L 908.7 512.4 Z M 908.7 508.1 "></path></clipPath><g clip-path="url(#clip-305)"><path d="M 788.0 215.8 L 887.2 215.8 " fill="none" stroke="#FEFFFF" stroke-width="2.35" stroke-miterlimit="0.00" transform="matrix(1.00, 0.00, 0.00, -1.00, 121.8, 726.0)"></path></g></g><image xlink:href="450D5AD05FFD3C7EBC43DCADBF6D1C1C.png" width="1190.00" height="54.00" transform="matrix(1.00, 0.00, -0.00, -1.00, 120.0, 467.0)"></image><text xml:space="preserve" font-family="Lunchtype" font-size="47.0" fill="#FEFFFF" transform="matrix(1.00, 0.00, -0.00, -1.00, 122.0, 430.0)">p</text><text xml:space="preserve" font-family="Lunchtype" font-size="47.0" fill="#FEFFFF" transform="matrix(1.00, 0.00, -0.00, -1.00, 147.7, 430.0)">h</text><text xml:space="preserve" font-family="Lunchtype" font-size="47.0" fill="#FEFFFF" transform="matrix(1.00, 0.00, -0.00, -1.00, 172.7, 430.0)">o</text><text xml:space="preserve" font-family="Lunchtype" font-size="47.0" fill="#FEFFFF" transform="matrix(1.00, 0.00, -0.00, -1.00, 199.6, 430.0)">n</text><text xml:space="preserve" font-family="Lunchtype" font-size="47.0" fill="#FEFFFF" transform="matrix(1.00, 0.00, -0.00, -1.00, 227.0, 430.0)">e</text><text xml:space="preserve" font-family="Lunchtype" font-size="47.0" fill="#FEFFFF" transform="matrix(1.00, 0.00, -0.00, -1.00, 253.3, 430.0)">s</text><text xml:space="preserve" font-family="Lunchtype" font-size="47.0" fill="#FEFFFF" transform="matrix(1.00, 0.00, -0.00, -1.00, 276.3, 430.0)"> </text><text xml:space="preserve" font-family="Lunchtype" font-size="47.0" fill="#FEFFFF" transform="matrix(1.00, 0.00, -0.00, -1.00, 290.4, 430.0)">a</text><text xml:space="preserve" font-family="Lunchtype" font-size="47.0" fill="#FEFFFF" transform="matrix(1.00, 0.00, -0.00, -1.00, 315.4, 430.0)">n</text><text xml:space="preserve" font-family="Lunchtype" font-size="47.0" fill="#FEFFFF" transform="matrix(1.00, 0.00, -0.00, -1.00, 342.8, 430.0)">d</text><text xml:space="preserve" font-family="Lunchtype" font-size="47.0" fill="#FEFFFF" transform="matrix(1.00, 0.00, -0.00, -1.00, 368.4, 430.0)"> </text><text xml:space="preserve" font-family="Lunchtype" font-size="47.0" fill="#FEFFFF" transform="matrix(1.00, 0.00, -0.00, -1.00, 382.5, 430.0)">w</text><text xml:space="preserve" font-family="Lunchtype" font-size="47.0" fill="#FEFFFF" transform="matrix(1.00, 0.00, -0.00, -1.00, 418.8, 430.0)">h</text><text xml:space="preserve" font-family="Lunchtype" font-size="47.0" fill="#FEFFFF" transform="matrix(1.00, 0.00, -0.00, -1.00, 443.8, 430.0)">a</text><text xml:space="preserve" font-family="Lunchtype" font-size="47.0" fill="#FEFFFF" transform="matrix(1.00, 0.00, -0.00, -1.00, 468.9, 430.0)">t</text><text xml:space="preserve" font-family="Lunchtype" font-size="47.0" fill="#FEFFFF" transform="matrix(1.00, 0.00, -0.00, -1.00, 483.3, 430.0)"> </text><text xml:space="preserve" font-family="Lunchtype" font-size="47.0" fill="#FEFFFF" transform="matrix(1.00, 0.00, -0.00, -1.00, 497.4, 430.0)">w</text><text xml:space="preserve" font-family="Lunchtype" font-size="47.0" fill="#FEFFFF" transform="matrix(1.00, 0.00, -0.00, -1.00, 533.7, 430.0)">e</text><text xml:space="preserve" font-family="Lunchtype" font-size="47.0" fill="#FEFFFF" transform="matrix(1.00, 0.00, -0.00, -1.00, 560.0, 430.0)"> </text><text xml:space="preserve" font-family="Lunchtype" font-size="47.0" fill="#FEFFFF" transform="matrix(1.00, 0.00, -0.00, -1.00, 574.1, 430.0)">p</text><text xml:space="preserve" font-family="Lunchtype" font-size="47.0" fill="#FEFFFF" transform="matrix(1.00, 0.00, -0.00, -1.00, 599.8, 430.0)">e</text><text xml:space="preserve" font-family="Lunchtype" font-size="47.0" fill="#FEFFFF" transform="matrix(1.00, 0.00, -0.00, -1.00, 626.1, 430.0)">r</text><text xml:space="preserve" font-family="Lunchtype" font-size="47.0" fill="#FEFFFF" transform="matrix(1.00, 0.00, -0.00, -1.00, 642.9, 430.0)">c</text><text xml:space="preserve" font-family="Lunchtype" font-size="47.0" fill="#FEFFFF" transform="matrix(1.00, 0.00, -0.00, -1.00, 668.7, 430.0)">e</text><text xml:space="preserve" font-family="Lunchtype" font-size="47.0" fill="#FEFFFF" transform="matrix(1.00, 0.00, -0.00, -1.00, 694.9, 430.0)">i</text><text xml:space="preserve" font-family="Lunchtype" font-size="47.0" fill="#FEFFFF" transform="matrix(1.00, 0.00, -0.00, -1.00, 704.9, 430.0)">v</text><text xml:space="preserve" font-family="Lunchtype" font-size="47.0" fill="#FEFFFF" transform="matrix(1.00, 0.00, -0.00, -1.00, 729.4, 430.0)">e</text><text xml:space="preserve" font-family="Lunchtype" font-size="47.0" fill="#FEFFFF" transform="matrix(1.00, 0.00, -0.00, -1.00, 755.7, 430.0)"> </text><text xml:space="preserve" font-family="Lunchtype" font-size="47.0" fill="#FEFFFF" transform="matrix(1.00, 0.00, -0.00, -1.00, 769.8, 430.0)">a</text><text xml:space="preserve" font-family="Lunchtype" font-size="47.0" fill="#FEFFFF" transform="matrix(1.00, 0.00, -0.00, -1.00, 794.8, 430.0)">s</text><text xml:space="preserve" font-family="Lunchtype" font-size="47.0" fill="#FEFFFF" transform="matrix(1.00, 0.00, -0.00, -1.00, 817.7, 430.0)"> </text><text xml:space="preserve" font-family="Lunchtype" font-size="47.0" fill="#FEFFFF" transform="matrix(1.00, 0.00, -0.00, -1.00, 831.8, 430.0)">a</text><text xml:space="preserve" font-family="Lunchtype" font-size="47.0" fill="#FEFFFF" transform="matrix(1.00, 0.00, -0.00, -1.00, 856.9, 430.0)"> </text><text xml:space="preserve" font-family="Lunchtype" font-size="47.0" fill="#FEFFFF" transform="matrix(1.00, 0.00, -0.00, -1.00, 871.0, 430.0)">‘</text><text xml:space="preserve" font-family="Lunchtype" font-size="47.0" fill="#FEFFFF" transform="matrix(1.00, 0.00, -0.00, -1.00, 880.1, 430.0)">w</text><text xml:space="preserve" font-family="Lunchtype" font-size="47.0" fill="#FEFFFF" transform="matrix(1.00, 0.00, -0.00, -1.00, 916.3, 430.0)">a</text><text xml:space="preserve" font-family="Lunchtype" font-size="47.0" fill="#FEFFFF" transform="matrix(1.00, 0.00, -0.00, -1.00, 941.4, 430.0)">s</text><text xml:space="preserve" font-family="Lunchtype" font-size="47.0" fill="#FEFFFF" transform="matrix(1.00, 0.00, -0.00, -1.00, 964.3, 430.0)">t</text><text xml:space="preserve" font-family="Lunchtype" font-size="47.0" fill="#FEFFFF" transform="matrix(1.00, 0.00, -0.00, -1.00, 978.8, 430.0)">e</text><text xml:space="preserve" font-family="Lunchtype" font-size="47.0" fill="#FEFFFF" transform="matrix(1.00, 0.00, -0.00, -1.00, 1005.1, 430.0)"> </text><text xml:space="preserve" font-family="Lunchtype" font-size="47.0" fill="#FEFFFF" transform="matrix(1.00, 0.00, -0.00, -1.00, 1019.2, 430.0)">o</text><text xml:space="preserve" font-family="Lunchtype" font-size="47.0" fill="#FEFFFF" transform="matrix(1.00, 0.00, -0.00, -1.00, 1046.1, 430.0)">f</text><text xml:space="preserve" font-family="Lunchtype" font-size="47.0" fill="#FEFFFF" transform="matrix(1.00, 0.00, -0.00, -1.00, 1061.2, 430.0)"> </text><text xml:space="preserve" font-family="Lunchtype" font-size="47.0" fill="#FEFFFF" transform="matrix(1.00, 0.00, -0.00, -1.00, 1075.3, 430.0)">t</text><text xml:space="preserve" font-family="Lunchtype" font-size="47.0" fill="#FEFFFF" transform="matrix(1.00, 0.00, -0.00, -1.00, 1089.7, 430.0)">i</text><text xml:space="preserve" font-family="Lunchtype" font-size="47.0" fill="#FEFFFF" transform="matrix(1.00, 0.00, -0.00, -1.00, 1099.7, 430.0)">m</text><text xml:space="preserve" font-family="Lunchtype" font-size="47.0" fill="#FEFFFF" transform="matrix(1.00, 0.00, -0.00, -1.00, 1140.4, 430.0)">e</text><text xml:space="preserve" font-family="Lunchtype" font-size="47.0" fill="#FEFFFF" transform="matrix(1.00, 0.00, -0.00, -1.00, 1166.7, 430.0)">’</text><text xml:space="preserve" font-family="Lunchtype" font-size="47.0" fill="#FEFFFF" transform="matrix(1.00, 0.00, -0.00, -1.00, 1175.7, 430.0)"> </text><text xml:space="preserve" font-family="Lunchtype" font-size="47.0" fill="#FEFFFF" transform="matrix(1.00, 0.00, -0.00, -1.00, 1189.8, 430.0)">i</text><text xml:space="preserve" font-family="Lunchtype" font-size="47.0" fill="#FEFFFF" transform="matrix(1.00, 0.00, -0.00, -1.00, 1199.8, 430.0)">n</text><text xml:space="preserve" font-family="Lunchtype" font-size="47.0" fill="#FEFFFF" transform="matrix(1.00, 0.00, -0.00, -1.00, 1227.2, 430.0)"> </text><text xml:space="preserve" font-family="Lunchtype" font-size="47.0" fill="#FEFFFF" transform="matrix(1.00, 0.00, -0.00, -1.00, 1241.3, 430.0)">t</text><text xml:space="preserve" font-family="Lunchtype" font-size="47.0" fill="#FEFFFF" transform="matrix(1.00, 0.00, -0.00, -1.00, 1255.7, 430.0)">h</text><text xml:space="preserve" font-family="Lunchtype" font-size="47.0" fill="#FEFFFF" transform="matrix(1.00, 0.00, -0.00, -1.00, 1280.7, 430.0)">e</text><text xml:space="preserve" font-family="Lunchtype" font-size="47.0" fill="#FEFFFF" transform="matrix(1.00, 0.00, -0.00, -1.00, 1307.0, 430.0)"> </text><image xlink:href="B09DD740F2D74A9E999CAEA041803E52.png" width="320.00" height="45.00" transform="matrix(1.00, 0.00, -0.00, -1.00, 120.0, 383.0)"></image><text xml:space="preserve" font-family="Lunchtype" font-size="47.0" fill="#FEFFFF" transform="matrix(1.00, 0.00, -0.00, -1.00, 122.0, 346.0)">m</text><text xml:space="preserve" font-family="Lunchtype" font-size="47.0" fill="#FEFFFF" transform="matrix(1.00, 0.00, -0.00, -1.00, 162.7, 346.0)">o</text><text xml:space="preserve" font-family="Lunchtype" font-size="47.0" fill="#FEFFFF" transform="matrix(1.00, 0.00, -0.00, -1.00, 189.6, 346.0)">d</text><text xml:space="preserve" font-family="Lunchtype" font-size="47.0" fill="#FEFFFF" transform="matrix(1.00, 0.00, -0.00, -1.00, 215.2, 346.0)">e</text><text xml:space="preserve" font-family="Lunchtype" font-size="47.0" fill="#FEFFFF" transform="matrix(1.00, 0.00, -0.00, -1.00, 241.5, 346.0)">r</text><text xml:space="preserve" font-family="Lunchtype" font-size="47.0" fill="#FEFFFF" transform="matrix(1.00, 0.00, -0.00, -1.00, 258.3, 346.0)">n</text><text xml:space="preserve" font-family="Lunchtype" font-size="47.0" fill="#FEFFFF" transform="matrix(1.00, 0.00, -0.00, -1.00, 285.7, 346.0)"> </text><text xml:space="preserve" font-family="Lunchtype" font-size="47.0" fill="#FEFFFF" transform="matrix(1.00, 0.00, -0.00, -1.00, 299.8, 346.0)">s</text><text xml:space="preserve" font-family="Lunchtype" font-size="47.0" fill="#FEFFFF" transform="matrix(1.00, 0.00, -0.00, -1.00, 322.7, 346.0)">e</text><text xml:space="preserve" font-family="Lunchtype" font-size="47.0" fill="#FEFFFF" transform="matrix(1.00, 0.00, -0.00, -1.00, 349.0, 346.0)">n</text><text xml:space="preserve" font-family="Lunchtype" font-size="47.0" fill="#FEFFFF" transform="matrix(1.00, 0.00, -0.00, -1.00, 376.4, 346.0)">s</text><text xml:space="preserve" font-family="Lunchtype" font-size="47.0" fill="#FEFFFF" transform="matrix(1.00, 0.00, -0.00, -1.00, 399.3, 346.0)">e</text><text xml:space="preserve" font-family="Lunchtype" font-size="47.0" fill="#FEFFFF" transform="matrix(1.00, 0.00, -0.00, -1.00, 425.6, 346.0)">.</text></g></svg>