<?xml version="1.0" encoding="UTF-8"?><svg xmlns="http://www.w3.org/2000/svg" xmlns:xlink="http://www.w3.org/1999/xlink" clip-rule="evenodd" stroke-miterlimit="4.00" viewBox="0 0 1920 1080"><desc>SVG generated by Keynote</desc><defs></defs><g transform="matrix(1.00, 0.00, -0.00, -1.00, 0.0, 1080.0)"><path d="M 0.0 0.0 L 1920.0 0.0 L 1920.0 1080.0 L 0.0 1080.0 Z M 0.0 0.0 " fill="#FEFFFF"></path><text xml:space="preserve" font-family="Helvetica-Bold" font-weight="bold" font-size="18.0" fill="#FEFFFE" transform="matrix(1.00, 0.00, -0.00, -1.00, 90.0, 980.0)">S</text><text xml:space="preserve" font-family="Helvetica-Bold" font-weight="bold" font-size="18.0" fill="#FEFFFE" transform="matrix(1.00, 0.00, -0.00, -1.00, 102.0, 980.0)">E</text><text xml:space="preserve" font-family="Helvetica-Bold" font-weight="bold" font-size="18.0" fill="#FEFFFE" transform="matrix(1.00, 0.00, -0.00, -1.00, 114.0, 980.0)">C</text><text xml:space="preserve" font-family="Helvetica-Bold" font-weight="bold" font-size="18.0" fill="#FEFFFE" transform="matrix(1.00, 0.00, -0.00, -1.00, 127.0, 980.0)">T</text><text xml:space="preserve" font-family="Helvetica-Bold" font-weight="bold" font-size="18.0" fill="#FEFFFE" transform="matrix(1.00, 0.00, -0.00, -1.00, 138.0, 980.0)">I</text><text xml:space="preserve" font-family="Helvetica-Bold" font-weight="bold" font-size="18.0" fill="#FEFFFE" transform="matrix(1.00, 0.00, -0.00, -1.00, 143.0, 980.0)">O</text><text xml:space="preserve" font-family="Helvetica-Bold" font-weight="bold" font-size="18.0" fill="#FEFFFE" transform="matrix(1.00, 0.00, -0.00, -1.00, 157.0, 980.0)">N</text><text xml:space="preserve" font-family="Helvetica" font-size="18.0" fill="#BEBEBE" transform="matrix(1.00, 0.00, -0.00, -1.00, 1812.0, 62.0)">2</text><text xml:space="preserve" font-family="Helvetica" font-size="18.0" fill="#BEBEBE" transform="matrix(1.00, 0.00, -0.00, -1.00, 1822.0, 62.0)">4</text><image xlink:href="74A9B218FC9A7C07F3E99BEB802FAFEC.jpeg" width="1366.00" height="341.00" transform="matrix(1.12, 0.00, -0.00, -1.12, 194.0, 592.0)"></image><text xml:space="preserve" font-family="Lunchtype" font-size="37.0" fill="#000000" transform="matrix(1.00, 0.00, -0.00, -1.00, 200.0, 884.0)">T</text><text xml:space="preserve" font-family="Lunchtype" font-size="37.0" fill="#000000" transform="matrix(1.00, 0.00, -0.00, -1.00, 220.5, 884.0)">h</text><text xml:space="preserve" font-family="Lunchtype" font-size="37.0" fill="#000000" transform="matrix(1.00, 0.00, -0.00, -1.00, 240.2, 884.0)">e</text><text xml:space="preserve" font-family="Lunchtype" font-size="37.0" fill="#000000" transform="matrix(1.00, 0.00, -0.00, -1.00, 260.9, 884.0)"> </text><text xml:space="preserve" font-family="Lunchtype" font-size="37.0" fill="#000000" transform="matrix(1.00, 0.00, -0.00, -1.00, 272.0, 884.0)">d</text><text xml:space="preserve" font-family="Lunchtype" font-size="37.0" fill="#000000" transform="matrix(1.00, 0.00, -0.00, -1.00, 292.1, 884.0)">i</text><text xml:space="preserve" font-family="Lunchtype" font-size="37.0" fill="#000000" transform="matrix(1.00, 0.00, -0.00, -1.00, 300.0, 884.0)">f</text><text xml:space="preserve" font-family="Lunchtype" font-size="37.0" fill="#000000" transform="matrix(1.00, 0.00, -0.00, -1.00, 311.8, 884.0)">f</text><text xml:space="preserve" font-family="Lunchtype" font-size="37.0" fill="#000000" transform="matrix(1.00, 0.00, -0.00, -1.00, 323.7, 884.0)">e</text><text xml:space="preserve" font-family="Lunchtype" font-size="37.0" fill="#000000" transform="matrix(1.00, 0.00, -0.00, -1.00, 344.3, 884.0)">r</text><text xml:space="preserve" font-family="Lunchtype" font-size="37.0" fill="#000000" transform="matrix(1.00, 0.00, -0.00, -1.00, 357.5, 884.0)">e</text><text xml:space="preserve" font-family="Lunchtype" font-size="37.0" fill="#000000" transform="matrix(1.00, 0.00, -0.00, -1.00, 378.2, 884.0)">n</text><text xml:space="preserve" font-family="Lunchtype" font-size="37.0" fill="#000000" transform="matrix(1.00, 0.00, -0.00, -1.00, 399.8, 884.0)">t</text><text xml:space="preserve" font-family="Lunchtype" font-size="37.0" fill="#000000" transform="matrix(1.00, 0.00, -0.00, -1.00, 411.2, 884.0)"> </text><text xml:space="preserve" font-family="Lunchtype" font-size="37.0" fill="#000000" transform="matrix(1.00, 0.00, -0.00, -1.00, 422.3, 884.0)">r</text><text xml:space="preserve" font-family="Lunchtype" font-size="37.0" fill="#000000" transform="matrix(1.00, 0.00, -0.00, -1.00, 435.5, 884.0)">e</text><text xml:space="preserve" font-family="Lunchtype" font-size="37.0" fill="#000000" transform="matrix(1.00, 0.00, -0.00, -1.00, 456.2, 884.0)">a</text><text xml:space="preserve" font-family="Lunchtype" font-size="37.0" fill="#000000" transform="matrix(1.00, 0.00, -0.00, -1.00, 475.9, 884.0)">l</text><text xml:space="preserve" font-family="Lunchtype" font-size="37.0" fill="#000000" transform="matrix(1.00, 0.00, -0.00, -1.00, 484.6, 884.0)">i</text><text xml:space="preserve" font-family="Lunchtype" font-size="37.0" fill="#000000" transform="matrix(1.00, 0.00, -0.00, -1.00, 492.4, 884.0)">t</text><text xml:space="preserve" font-family="Lunchtype" font-size="37.0" fill="#000000" transform="matrix(1.00, 0.00, -0.00, -1.00, 503.8, 884.0)">i</text><text xml:space="preserve" font-family="Lunchtype" font-size="37.0" fill="#000000" transform="matrix(1.00, 0.00, -0.00, -1.00, 511.7, 884.0)">e</text><text xml:space="preserve" font-family="Lunchtype" font-size="37.0" fill="#000000" transform="matrix(1.00, 0.00, -0.00, -1.00, 532.4, 884.0)">s</text><text xml:space="preserve" font-family="Lunchtype" font-size="37.0" fill="#000000" transform="matrix(1.00, 0.00, -0.00, -1.00, 550.4, 884.0)"> </text><text xml:space="preserve" font-family="Lunchtype" font-size="37.0" fill="#000000" transform="matrix(1.00, 0.00, -0.00, -1.00, 561.5, 884.0)">t</text><text xml:space="preserve" font-family="Lunchtype" font-size="37.0" fill="#000000" transform="matrix(1.00, 0.00, -0.00, -1.00, 572.9, 884.0)">h</text><text xml:space="preserve" font-family="Lunchtype" font-size="37.0" fill="#000000" transform="matrix(1.00, 0.00, -0.00, -1.00, 592.6, 884.0)">a</text><text xml:space="preserve" font-family="Lunchtype" font-size="37.0" fill="#000000" transform="matrix(1.00, 0.00, -0.00, -1.00, 612.3, 884.0)">t</text><text xml:space="preserve" font-family="Lunchtype" font-size="37.0" fill="#000000" transform="matrix(1.00, 0.00, -0.00, -1.00, 623.7, 884.0)"> </text><text xml:space="preserve" font-family="Lunchtype" font-size="37.0" fill="#000000" transform="matrix(1.00, 0.00, -0.00, -1.00, 634.8, 884.0)">e</text><text xml:space="preserve" font-family="Lunchtype" font-size="37.0" fill="#000000" transform="matrix(1.00, 0.00, -0.00, -1.00, 655.5, 884.0)">x</text><text xml:space="preserve" font-family="Lunchtype" font-size="37.0" fill="#000000" transform="matrix(1.00, 0.00, -0.00, -1.00, 677.1, 884.0)">i</text><text xml:space="preserve" font-family="Lunchtype" font-size="37.0" fill="#000000" transform="matrix(1.00, 0.00, -0.00, -1.00, 685.0, 884.0)">s</text><text xml:space="preserve" font-family="Lunchtype" font-size="37.0" fill="#000000" transform="matrix(1.00, 0.00, -0.00, -1.00, 703.0, 884.0)">t</text><text xml:space="preserve" font-family="Lunchtype" font-size="37.0" fill="#000000" transform="matrix(1.00, 0.00, -0.00, -1.00, 714.4, 884.0)"> </text><text xml:space="preserve" font-family="Lunchtype" font-size="37.0" fill="#000000" transform="matrix(1.00, 0.00, -0.00, -1.00, 725.5, 884.0)">t</text><text xml:space="preserve" font-family="Lunchtype" font-size="37.0" fill="#000000" transform="matrix(1.00, 0.00, -0.00, -1.00, 736.9, 884.0)">o</text><text xml:space="preserve" font-family="Lunchtype" font-size="37.0" fill="#000000" transform="matrix(1.00, 0.00, -0.00, -1.00, 758.1, 884.0)">d</text><text xml:space="preserve" font-family="Lunchtype" font-size="37.0" fill="#000000" transform="matrix(1.00, 0.00, -0.00, -1.00, 778.3, 884.0)">a</text><text xml:space="preserve" font-family="Lunchtype" font-size="37.0" fill="#000000" transform="matrix(1.00, 0.00, -0.00, -1.00, 798.0, 884.0)">y</text><text xml:space="preserve" font-family="Lunchtype" font-size="37.0" fill="#000000" transform="matrix(1.00, 0.00, -0.00, -1.00, 817.7, 884.0)"> </text><text xml:space="preserve" font-family="Lunchtype" font-size="24.0" fill="#808080" transform="matrix(1.00, 0.00, -0.00, -1.00, 200.0, 808.0)">C</text><text xml:space="preserve" font-family="Lunchtype" font-size="24.0" fill="#808080" transform="matrix(1.00, 0.00, -0.00, -1.00, 215.4, 808.0)">u</text><text xml:space="preserve" font-family="Lunchtype" font-size="24.0" fill="#808080" transform="matrix(1.00, 0.00, -0.00, -1.00, 229.4, 808.0)">r</text><text xml:space="preserve" font-family="Lunchtype" font-size="24.0" fill="#808080" transform="matrix(1.00, 0.00, -0.00, -1.00, 237.9, 808.0)">r</text><text xml:space="preserve" font-family="Lunchtype" font-size="24.0" fill="#808080" transform="matrix(1.00, 0.00, -0.00, -1.00, 246.5, 808.0)">e</text><text xml:space="preserve" font-family="Lunchtype" font-size="24.0" fill="#808080" transform="matrix(1.00, 0.00, -0.00, -1.00, 259.9, 808.0)">n</text><text xml:space="preserve" font-family="Lunchtype" font-size="24.0" fill="#808080" transform="matrix(1.00, 0.00, -0.00, -1.00, 273.9, 808.0)">t</text><text xml:space="preserve" font-family="Lunchtype" font-size="24.0" fill="#808080" transform="matrix(1.00, 0.00, -0.00, -1.00, 281.3, 808.0)">l</text><text xml:space="preserve" font-family="Lunchtype" font-size="24.0" fill="#808080" transform="matrix(1.00, 0.00, -0.00, -1.00, 286.9, 808.0)">y</text><text xml:space="preserve" font-family="Lunchtype" font-size="24.0" fill="#808080" transform="matrix(1.00, 0.00, -0.00, -1.00, 299.7, 808.0)">,</text><text xml:space="preserve" font-family="Lunchtype" font-size="24.0" fill="#808080" transform="matrix(1.00, 0.00, -0.00, -1.00, 305.0, 808.0)"> </text><text xml:space="preserve" font-family="Lunchtype" font-size="24.0" fill="#808080" transform="matrix(1.00, 0.00, -0.00, -1.00, 312.2, 808.0)">t</text><text xml:space="preserve" font-family="Lunchtype" font-size="24.0" fill="#808080" transform="matrix(1.00, 0.00, -0.00, -1.00, 319.6, 808.0)">h</text><text xml:space="preserve" font-family="Lunchtype" font-size="24.0" fill="#808080" transform="matrix(1.00, 0.00, -0.00, -1.00, 332.4, 808.0)">e</text><text xml:space="preserve" font-family="Lunchtype" font-size="24.0" fill="#808080" transform="matrix(1.00, 0.00, -0.00, -1.00, 345.8, 808.0)">r</text><text xml:space="preserve" font-family="Lunchtype" font-size="24.0" fill="#808080" transform="matrix(1.00, 0.00, -0.00, -1.00, 354.4, 808.0)">e</text><text xml:space="preserve" font-family="Lunchtype" font-size="24.0" fill="#808080" transform="matrix(1.00, 0.00, -0.00, -1.00, 367.8, 808.0)"> </text><text xml:space="preserve" font-family="Lunchtype" font-size="24.0" fill="#808080" transform="matrix(1.00, 0.00, -0.00, -1.00, 375.0, 808.0)">a</text><text xml:space="preserve" font-family="Lunchtype" font-size="24.0" fill="#808080" transform="matrix(1.00, 0.00, -0.00, -1.00, 387.8, 808.0)">r</text><text xml:space="preserve" font-family="Lunchtype" font-size="24.0" fill="#808080" transform="matrix(1.00, 0.00, -0.00, -1.00, 396.4, 808.0)">e</text><text xml:space="preserve" font-family="Lunchtype" font-size="24.0" fill="#808080" transform="matrix(1.00, 0.00, -0.00, -1.00, 409.8, 808.0)"> </text><text xml:space="preserve" font-family="Lunchtype" font-size="24.0" fill="#808080" transform="matrix(1.00, 0.00, -0.00, -1.00, 417.0, 808.0)">f</text><text xml:space="preserve" font-family="Lunchtype" font-size="24.0" fill="#808080" transform="matrix(1.00, 0.00, -0.00, -1.00, 424.7, 808.0)">o</text><text xml:space="preserve" font-family="Lunchtype" font-size="24.0" fill="#808080" transform="matrix(1.00, 0.00, -0.00, -1.00, 438.4, 808.0)">u</text><text xml:space="preserve" font-family="Lunchtype" font-size="24.0" fill="#808080" transform="matrix(1.00, 0.00, -0.00, -1.00, 452.4, 808.0)">r</text><text xml:space="preserve" font-family="Lunchtype" font-size="24.0" fill="#808080" transform="matrix(1.00, 0.00, -0.00, -1.00, 461.0, 808.0)"> </text><text xml:space="preserve" font-family="Lunchtype" font-size="24.0" fill="#808080" transform="matrix(1.00, 0.00, -0.00, -1.00, 468.2, 808.0)">d</text><text xml:space="preserve" font-family="Lunchtype" font-size="24.0" fill="#808080" transform="matrix(1.00, 0.00, -0.00, -1.00, 481.2, 808.0)">i</text><text xml:space="preserve" font-family="Lunchtype" font-size="24.0" fill="#808080" transform="matrix(1.00, 0.00, -0.00, -1.00, 486.3, 808.0)">f</text><text xml:space="preserve" font-family="Lunchtype" font-size="24.0" fill="#808080" transform="matrix(1.00, 0.00, -0.00, -1.00, 494.0, 808.0)">f</text><text xml:space="preserve" font-family="Lunchtype" font-size="24.0" fill="#808080" transform="matrix(1.00, 0.00, -0.00, -1.00, 501.7, 808.0)">e</text><text xml:space="preserve" font-family="Lunchtype" font-size="24.0" fill="#808080" transform="matrix(1.00, 0.00, -0.00, -1.00, 515.1, 808.0)">r</text><text xml:space="preserve" font-family="Lunchtype" font-size="24.0" fill="#808080" transform="matrix(1.00, 0.00, -0.00, -1.00, 523.7, 808.0)">e</text><text xml:space="preserve" font-family="Lunchtype" font-size="24.0" fill="#808080" transform="matrix(1.00, 0.00, -0.00, -1.00, 537.1, 808.0)">n</text><text xml:space="preserve" font-family="Lunchtype" font-size="24.0" fill="#808080" transform="matrix(1.00, 0.00, -0.00, -1.00, 551.1, 808.0)">t</text><text xml:space="preserve" font-family="Lunchtype" font-size="24.0" fill="#808080" transform="matrix(1.00, 0.00, -0.00, -1.00, 558.5, 808.0)"> </text><text xml:space="preserve" font-family="Lunchtype" font-size="24.0" fill="#808080" transform="matrix(1.00, 0.00, -0.00, -1.00, 565.7, 808.0)">r</text><text xml:space="preserve" font-family="Lunchtype" font-size="24.0" fill="#808080" transform="matrix(1.00, 0.00, -0.00, -1.00, 574.2, 808.0)">e</text><text xml:space="preserve" font-family="Lunchtype" font-size="24.0" fill="#808080" transform="matrix(1.00, 0.00, -0.00, -1.00, 587.6, 808.0)">a</text><text xml:space="preserve" font-family="Lunchtype" font-size="24.0" fill="#808080" transform="matrix(1.00, 0.00, -0.00, -1.00, 600.4, 808.0)">l</text><text xml:space="preserve" font-family="Lunchtype" font-size="24.0" fill="#808080" transform="matrix(1.00, 0.00, -0.00, -1.00, 606.1, 808.0)">i</text><text xml:space="preserve" font-family="Lunchtype" font-size="24.0" fill="#808080" transform="matrix(1.00, 0.00, -0.00, -1.00, 611.2, 808.0)">t</text><text xml:space="preserve" font-family="Lunchtype" font-size="24.0" fill="#808080" transform="matrix(1.00, 0.00, -0.00, -1.00, 618.6, 808.0)">i</text><text xml:space="preserve" font-family="Lunchtype" font-size="24.0" fill="#808080" transform="matrix(1.00, 0.00, -0.00, -1.00, 623.6, 808.0)">e</text><text xml:space="preserve" font-family="Lunchtype" font-size="24.0" fill="#808080" transform="matrix(1.00, 0.00, -0.00, -1.00, 637.1, 808.0)">s</text><text xml:space="preserve" font-family="Lunchtype" font-size="24.0" fill="#808080" transform="matrix(1.00, 0.00, -0.00, -1.00, 648.8, 808.0)"> </text><text xml:space="preserve" font-family="Lunchtype" font-size="24.0" fill="#808080" transform="matrix(1.00, 0.00, -0.00, -1.00, 656.0, 808.0)">t</text><text xml:space="preserve" font-family="Lunchtype" font-size="24.0" fill="#808080" transform="matrix(1.00, 0.00, -0.00, -1.00, 663.4, 808.0)">h</text><text xml:space="preserve" font-family="Lunchtype" font-size="24.0" fill="#808080" transform="matrix(1.00, 0.00, -0.00, -1.00, 676.1, 808.0)">a</text><text xml:space="preserve" font-family="Lunchtype" font-size="24.0" fill="#808080" transform="matrix(1.00, 0.00, -0.00, -1.00, 688.9, 808.0)">t</text><text xml:space="preserve" font-family="Lunchtype" font-size="24.0" fill="#808080" transform="matrix(1.00, 0.00, -0.00, -1.00, 696.3, 808.0)"> </text><text xml:space="preserve" font-family="Lunchtype" font-size="24.0" fill="#808080" transform="matrix(1.00, 0.00, -0.00, -1.00, 703.5, 808.0)">w</text><text xml:space="preserve" font-family="Lunchtype" font-size="24.0" fill="#808080" transform="matrix(1.00, 0.00, -0.00, -1.00, 722.0, 808.0)">e</text><text xml:space="preserve" font-family="Lunchtype" font-size="24.0" fill="#808080" transform="matrix(1.00, 0.00, -0.00, -1.00, 735.5, 808.0)"> </text><text xml:space="preserve" font-family="Lunchtype" font-size="24.0" fill="#808080" transform="matrix(1.00, 0.00, -0.00, -1.00, 742.7, 808.0)">a</text><text xml:space="preserve" font-family="Lunchtype" font-size="24.0" fill="#808080" transform="matrix(1.00, 0.00, -0.00, -1.00, 755.5, 808.0)">r</text><text xml:space="preserve" font-family="Lunchtype" font-size="24.0" fill="#808080" transform="matrix(1.00, 0.00, -0.00, -1.00, 764.0, 808.0)">e</text><text xml:space="preserve" font-family="Lunchtype" font-size="24.0" fill="#808080" transform="matrix(1.00, 0.00, -0.00, -1.00, 777.4, 808.0)"> </text><text xml:space="preserve" font-family="Lunchtype" font-size="24.0" fill="#808080" transform="matrix(1.00, 0.00, -0.00, -1.00, 784.6, 808.0)">a</text><text xml:space="preserve" font-family="Lunchtype" font-size="24.0" fill="#808080" transform="matrix(1.00, 0.00, -0.00, -1.00, 797.4, 808.0)">b</text><text xml:space="preserve" font-family="Lunchtype" font-size="24.0" fill="#808080" transform="matrix(1.00, 0.00, -0.00, -1.00, 810.6, 808.0)">l</text><text xml:space="preserve" font-family="Lunchtype" font-size="24.0" fill="#808080" transform="matrix(1.00, 0.00, -0.00, -1.00, 816.2, 808.0)">e</text><text xml:space="preserve" font-family="Lunchtype" font-size="24.0" fill="#808080" transform="matrix(1.00, 0.00, -0.00, -1.00, 829.6, 808.0)"> </text><text xml:space="preserve" font-family="Lunchtype" font-size="24.0" fill="#808080" transform="matrix(1.00, 0.00, -0.00, -1.00, 836.8, 808.0)">t</text><text xml:space="preserve" font-family="Lunchtype" font-size="24.0" fill="#808080" transform="matrix(1.00, 0.00, -0.00, -1.00, 844.2, 808.0)">o</text><text xml:space="preserve" font-family="Lunchtype" font-size="24.0" fill="#808080" transform="matrix(1.00, 0.00, -0.00, -1.00, 858.0, 808.0)"> </text><text xml:space="preserve" font-family="Lunchtype" font-size="24.0" fill="#808080" transform="matrix(1.00, 0.00, -0.00, -1.00, 865.2, 808.0)">v</text><text xml:space="preserve" font-family="Lunchtype" font-size="24.0" fill="#808080" transform="matrix(1.00, 0.00, -0.00, -1.00, 877.7, 808.0)">i</text><text xml:space="preserve" font-family="Lunchtype" font-size="24.0" fill="#808080" transform="matrix(1.00, 0.00, -0.00, -1.00, 882.8, 808.0)">s</text><text xml:space="preserve" font-family="Lunchtype" font-size="24.0" fill="#808080" transform="matrix(1.00, 0.00, -0.00, -1.00, 894.5, 808.0)">i</text><text xml:space="preserve" font-family="Lunchtype" font-size="24.0" fill="#808080" transform="matrix(1.00, 0.00, -0.00, -1.00, 899.6, 808.0)">t</text><text xml:space="preserve" font-family="Lunchtype" font-size="24.0" fill="#808080" transform="matrix(1.00, 0.00, -0.00, -1.00, 906.9, 808.0)">:</text><text xml:space="preserve" font-family="Lunchtype" font-size="24.0" fill="#808080" transform="matrix(1.00, 0.00, -0.00, -1.00, 913.3, 808.0)"> </text><text xml:space="preserve" font-family="Lunchtype" font-size="24.0" fill="#808080" transform="matrix(1.00, 0.00, -0.00, -1.00, 920.5, 808.0)">R</text><text xml:space="preserve" font-family="Lunchtype" font-size="24.0" fill="#808080" transform="matrix(1.00, 0.00, -0.00, -1.00, 935.8, 808.0)">e</text><text xml:space="preserve" font-family="Lunchtype" font-size="24.0" fill="#808080" transform="matrix(1.00, 0.00, -0.00, -1.00, 949.2, 808.0)">a</text><text xml:space="preserve" font-family="Lunchtype" font-size="24.0" fill="#808080" transform="matrix(1.00, 0.00, -0.00, -1.00, 962.0, 808.0)">l</text><text xml:space="preserve" font-family="Lunchtype" font-size="24.0" fill="#808080" transform="matrix(1.00, 0.00, -0.00, -1.00, 967.7, 808.0)"> </text><text xml:space="preserve" font-family="Lunchtype" font-size="24.0" fill="#808080" transform="matrix(1.00, 0.00, -0.00, -1.00, 974.9, 808.0)">(</text><text xml:space="preserve" font-family="Lunchtype" font-size="24.0" fill="#808080" transform="matrix(1.00, 0.00, -0.00, -1.00, 981.8, 808.0)">t</text><text xml:space="preserve" font-family="Lunchtype" font-size="24.0" fill="#808080" transform="matrix(1.00, 0.00, -0.00, -1.00, 989.2, 808.0)">h</text><text xml:space="preserve" font-family="Lunchtype" font-size="24.0" fill="#808080" transform="matrix(1.00, 0.00, -0.00, -1.00, 1001.9, 808.0)">e</text><text xml:space="preserve" font-family="Lunchtype" font-size="24.0" fill="#808080" transform="matrix(1.00, 0.00, -0.00, -1.00, 1015.4, 808.0)"> </text><text xml:space="preserve" font-family="Lunchtype" font-size="24.0" fill="#808080" transform="matrix(1.00, 0.00, -0.00, -1.00, 1022.6, 808.0)">w</text><text xml:space="preserve" font-family="Lunchtype" font-size="24.0" fill="#808080" transform="matrix(1.00, 0.00, -0.00, -1.00, 1041.1, 808.0)">o</text><text xml:space="preserve" font-family="Lunchtype" font-size="24.0" fill="#808080" transform="matrix(1.00, 0.00, -0.00, -1.00, 1054.8, 808.0)">r</text><text xml:space="preserve" font-family="Lunchtype" font-size="24.0" fill="#808080" transform="matrix(1.00, 0.00, -0.00, -1.00, 1063.4, 808.0)">l</text><text xml:space="preserve" font-family="Lunchtype" font-size="24.0" fill="#808080" transform="matrix(1.00, 0.00, -0.00, -1.00, 1069.0, 808.0)">d</text><text xml:space="preserve" font-family="Lunchtype" font-size="24.0" fill="#808080" transform="matrix(1.00, 0.00, -0.00, -1.00, 1082.1, 808.0)">)</text><text xml:space="preserve" font-family="Lunchtype" font-size="24.0" fill="#808080" transform="matrix(1.00, 0.00, -0.00, -1.00, 1089.0, 808.0)">,</text><text xml:space="preserve" font-family="Lunchtype" font-size="24.0" fill="#808080" transform="matrix(1.00, 0.00, -0.00, -1.00, 1094.4, 808.0)"> </text><text xml:space="preserve" font-family="Lunchtype" font-size="24.0" fill="#808080" transform="matrix(1.00, 0.00, -0.00, -1.00, 1101.6, 808.0)">A</text><text xml:space="preserve" font-family="Lunchtype" font-size="24.0" fill="#808080" transform="matrix(1.00, 0.00, -0.00, -1.00, 1117.6, 808.0)">u</text><text xml:space="preserve" font-family="Lunchtype" font-size="24.0" fill="#808080" transform="matrix(1.00, 0.00, -0.00, -1.00, 1131.5, 808.0)">g</text><text xml:space="preserve" font-family="Lunchtype" font-size="24.0" fill="#808080" transform="matrix(1.00, 0.00, -0.00, -1.00, 1145.5, 808.0)">m</text><text xml:space="preserve" font-family="Lunchtype" font-size="24.0" fill="#808080" transform="matrix(1.00, 0.00, -0.00, -1.00, 1166.2, 808.0)">e</text><text xml:space="preserve" font-family="Lunchtype" font-size="24.0" fill="#808080" transform="matrix(1.00, 0.00, -0.00, -1.00, 1179.7, 808.0)">n</text><text xml:space="preserve" font-family="Lunchtype" font-size="24.0" fill="#808080" transform="matrix(1.00, 0.00, -0.00, -1.00, 1193.6, 808.0)">t</text><text xml:space="preserve" font-family="Lunchtype" font-size="24.0" fill="#808080" transform="matrix(1.00, 0.00, -0.00, -1.00, 1201.0, 808.0)">e</text><text xml:space="preserve" font-family="Lunchtype" font-size="24.0" fill="#808080" transform="matrix(1.00, 0.00, -0.00, -1.00, 1214.5, 808.0)">d</text><text xml:space="preserve" font-family="Lunchtype" font-size="24.0" fill="#808080" transform="matrix(1.00, 0.00, -0.00, -1.00, 1227.5, 808.0)"> </text><text xml:space="preserve" font-family="Lunchtype" font-size="24.0" fill="#808080" transform="matrix(1.00, 0.00, -0.00, -1.00, 1234.7, 808.0)">(</text><text xml:space="preserve" font-family="Lunchtype" font-size="24.0" fill="#808080" transform="matrix(1.00, 0.00, -0.00, -1.00, 1241.6, 808.0)">l</text><text xml:space="preserve" font-family="Lunchtype" font-size="24.0" fill="#808080" transform="matrix(1.00, 0.00, -0.00, -1.00, 1247.3, 808.0)">a</text><text xml:space="preserve" font-family="Lunchtype" font-size="24.0" fill="#808080" transform="matrix(1.00, 0.00, -0.00, -1.00, 1260.1, 808.0)">y</text><text xml:space="preserve" font-family="Lunchtype" font-size="24.0" fill="#808080" transform="matrix(1.00, 0.00, -0.00, -1.00, 1272.8, 808.0)">e</text><text xml:space="preserve" font-family="Lunchtype" font-size="24.0" fill="#808080" transform="matrix(1.00, 0.00, -0.00, -1.00, 1286.3, 808.0)">r</text><text xml:space="preserve" font-family="Lunchtype" font-size="24.0" fill="#808080" transform="matrix(1.00, 0.00, -0.00, -1.00, 1294.8, 808.0)">i</text><text xml:space="preserve" font-family="Lunchtype" font-size="24.0" fill="#808080" transform="matrix(1.00, 0.00, -0.00, -1.00, 1299.9, 808.0)">n</text><text xml:space="preserve" font-family="Lunchtype" font-size="24.0" fill="#808080" transform="matrix(1.00, 0.00, -0.00, -1.00, 1313.9, 808.0)">g</text><text xml:space="preserve" font-family="Lunchtype" font-size="24.0" fill="#808080" transform="matrix(1.00, 0.00, -0.00, -1.00, 1327.8, 808.0)"> </text><text xml:space="preserve" font-family="Lunchtype" font-size="24.0" fill="#808080" transform="matrix(1.00, 0.00, -0.00, -1.00, 1335.0, 808.0)">d</text><text xml:space="preserve" font-family="Lunchtype" font-size="24.0" fill="#808080" transform="matrix(1.00, 0.00, -0.00, -1.00, 1348.1, 808.0)">i</text><text xml:space="preserve" font-family="Lunchtype" font-size="24.0" fill="#808080" transform="matrix(1.00, 0.00, -0.00, -1.00, 1353.2, 808.0)">g</text><text xml:space="preserve" font-family="Lunchtype" font-size="24.0" fill="#808080" transform="matrix(1.00, 0.00, -0.00, -1.00, 1367.1, 808.0)">i</text><text xml:space="preserve" font-family="Lunchtype" font-size="24.0" fill="#808080" transform="matrix(1.00, 0.00, -0.00, -1.00, 1372.2, 808.0)">t</text><text xml:space="preserve" font-family="Lunchtype" font-size="24.0" fill="#808080" transform="matrix(1.00, 0.00, -0.00, -1.00, 1379.6, 808.0)">a</text><text xml:space="preserve" font-family="Lunchtype" font-size="24.0" fill="#808080" transform="matrix(1.00, 0.00, -0.00, -1.00, 1392.4, 808.0)">l</text><text xml:space="preserve" font-family="Lunchtype" font-size="24.0" fill="#808080" transform="matrix(1.00, 0.00, -0.00, -1.00, 1398.0, 808.0)"> </text><text xml:space="preserve" font-family="Lunchtype" font-size="24.0" fill="#808080" transform="matrix(1.00, 0.00, -0.00, -1.00, 1405.2, 808.0)">o</text><text xml:space="preserve" font-family="Lunchtype" font-size="24.0" fill="#808080" transform="matrix(1.00, 0.00, -0.00, -1.00, 1419.0, 808.0)">n</text><text xml:space="preserve" font-family="Lunchtype" font-size="24.0" fill="#808080" transform="matrix(1.00, 0.00, -0.00, -1.00, 1433.0, 808.0)"> </text><text xml:space="preserve" font-family="Lunchtype" font-size="24.0" fill="#808080" transform="matrix(1.00, 0.00, -0.00, -1.00, 1440.2, 808.0)">t</text><text xml:space="preserve" font-family="Lunchtype" font-size="24.0" fill="#808080" transform="matrix(1.00, 0.00, -0.00, -1.00, 1447.6, 808.0)">o</text><text xml:space="preserve" font-family="Lunchtype" font-size="24.0" fill="#808080" transform="matrix(1.00, 0.00, -0.00, -1.00, 1461.3, 808.0)">p</text><text xml:space="preserve" font-family="Lunchtype" font-size="24.0" fill="#808080" transform="matrix(1.00, 0.00, -0.00, -1.00, 1474.4, 808.0)"> </text><text xml:space="preserve" font-family="Lunchtype" font-size="24.0" fill="#808080" transform="matrix(1.00, 0.00, -0.00, -1.00, 1481.6, 808.0)">o</text><text xml:space="preserve" font-family="Lunchtype" font-size="24.0" fill="#808080" transform="matrix(1.00, 0.00, -0.00, -1.00, 1495.4, 808.0)">f</text><text xml:space="preserve" font-family="Lunchtype" font-size="24.0" fill="#808080" transform="matrix(1.00, 0.00, -0.00, -1.00, 1503.1, 808.0)"> </text><text xml:space="preserve" font-family="Lunchtype" font-size="24.0" fill="#808080" transform="matrix(1.00, 0.00, -0.00, -1.00, 1510.3, 808.0)">t</text><text xml:space="preserve" font-family="Lunchtype" font-size="24.0" fill="#808080" transform="matrix(1.00, 0.00, -0.00, -1.00, 1517.7, 808.0)">h</text><text xml:space="preserve" font-family="Lunchtype" font-size="24.0" fill="#808080" transform="matrix(1.00, 0.00, -0.00, -1.00, 1530.4, 808.0)">e</text><text xml:space="preserve" font-family="Lunchtype" font-size="24.0" fill="#808080" transform="matrix(1.00, 0.00, -0.00, -1.00, 1543.9, 808.0)"> </text><text xml:space="preserve" font-family="Lunchtype" font-size="24.0" fill="#808080" transform="matrix(1.00, 0.00, -0.00, -1.00, 200.0, 764.0)">r</text><text xml:space="preserve" font-family="Lunchtype" font-size="24.0" fill="#808080" transform="matrix(1.00, 0.00, -0.00, -1.00, 208.6, 764.0)">e</text><text xml:space="preserve" font-family="Lunchtype" font-size="24.0" fill="#808080" transform="matrix(1.00, 0.00, -0.00, -1.00, 222.0, 764.0)">a</text><text xml:space="preserve" font-family="Lunchtype" font-size="24.0" fill="#808080" transform="matrix(1.00, 0.00, -0.00, -1.00, 234.8, 764.0)">l</text><text xml:space="preserve" font-family="Lunchtype" font-size="24.0" fill="#808080" transform="matrix(1.00, 0.00, -0.00, -1.00, 240.4, 764.0)"> </text><text xml:space="preserve" font-family="Lunchtype" font-size="24.0" fill="#808080" transform="matrix(1.00, 0.00, -0.00, -1.00, 247.6, 764.0)">w</text><text xml:space="preserve" font-family="Lunchtype" font-size="24.0" fill="#808080" transform="matrix(1.00, 0.00, -0.00, -1.00, 266.1, 764.0)">o</text><text xml:space="preserve" font-family="Lunchtype" font-size="24.0" fill="#808080" transform="matrix(1.00, 0.00, -0.00, -1.00, 279.9, 764.0)">r</text><text xml:space="preserve" font-family="Lunchtype" font-size="24.0" fill="#808080" transform="matrix(1.00, 0.00, -0.00, -1.00, 288.5, 764.0)">l</text><text xml:space="preserve" font-family="Lunchtype" font-size="24.0" fill="#808080" transform="matrix(1.00, 0.00, -0.00, -1.00, 294.1, 764.0)">d</text><text xml:space="preserve" font-family="Lunchtype" font-size="24.0" fill="#808080" transform="matrix(1.00, 0.00, -0.00, -1.00, 307.2, 764.0)">)</text><text xml:space="preserve" font-family="Lunchtype" font-size="24.0" fill="#808080" transform="matrix(1.00, 0.00, -0.00, -1.00, 314.1, 764.0)">,</text><text xml:space="preserve" font-family="Lunchtype" font-size="24.0" fill="#808080" transform="matrix(1.00, 0.00, -0.00, -1.00, 319.4, 764.0)"> </text><text xml:space="preserve" font-family="Lunchtype" font-size="24.0" fill="#808080" transform="matrix(1.00, 0.00, -0.00, -1.00, 326.6, 764.0)">M</text><text xml:space="preserve" font-family="Lunchtype" font-size="24.0" fill="#808080" transform="matrix(1.00, 0.00, -0.00, -1.00, 346.2, 764.0)">i</text><text xml:space="preserve" font-family="Lunchtype" font-size="24.0" fill="#808080" transform="matrix(1.00, 0.00, -0.00, -1.00, 351.3, 764.0)">x</text><text xml:space="preserve" font-family="Lunchtype" font-size="24.0" fill="#808080" transform="matrix(1.00, 0.00, -0.00, -1.00, 365.3, 764.0)">e</text><text xml:space="preserve" font-family="Lunchtype" font-size="24.0" fill="#808080" transform="matrix(1.00, 0.00, -0.00, -1.00, 378.8, 764.0)">d</text><text xml:space="preserve" font-family="Lunchtype" font-size="24.0" fill="#808080" transform="matrix(1.00, 0.00, -0.00, -1.00, 391.8, 764.0)"> </text><text xml:space="preserve" font-family="Lunchtype" font-size="24.0" fill="#808080" transform="matrix(1.00, 0.00, -0.00, -1.00, 399.0, 764.0)">(</text><text xml:space="preserve" font-family="Lunchtype" font-size="24.0" fill="#808080" transform="matrix(1.00, 0.00, -0.00, -1.00, 405.9, 764.0)">i</text><text xml:space="preserve" font-family="Lunchtype" font-size="24.0" fill="#808080" transform="matrix(1.00, 0.00, -0.00, -1.00, 411.0, 764.0)">n</text><text xml:space="preserve" font-family="Lunchtype" font-size="24.0" fill="#808080" transform="matrix(1.00, 0.00, -0.00, -1.00, 425.0, 764.0)">t</text><text xml:space="preserve" font-family="Lunchtype" font-size="24.0" fill="#808080" transform="matrix(1.00, 0.00, -0.00, -1.00, 432.4, 764.0)">e</text><text xml:space="preserve" font-family="Lunchtype" font-size="24.0" fill="#808080" transform="matrix(1.00, 0.00, -0.00, -1.00, 445.8, 764.0)">g</text><text xml:space="preserve" font-family="Lunchtype" font-size="24.0" fill="#808080" transform="matrix(1.00, 0.00, -0.00, -1.00, 459.8, 764.0)">r</text><text xml:space="preserve" font-family="Lunchtype" font-size="24.0" fill="#808080" transform="matrix(1.00, 0.00, -0.00, -1.00, 468.3, 764.0)">a</text><text xml:space="preserve" font-family="Lunchtype" font-size="24.0" fill="#808080" transform="matrix(1.00, 0.00, -0.00, -1.00, 481.1, 764.0)">t</text><text xml:space="preserve" font-family="Lunchtype" font-size="24.0" fill="#808080" transform="matrix(1.00, 0.00, -0.00, -1.00, 488.5, 764.0)">i</text><text xml:space="preserve" font-family="Lunchtype" font-size="24.0" fill="#808080" transform="matrix(1.00, 0.00, -0.00, -1.00, 493.6, 764.0)">n</text><text xml:space="preserve" font-family="Lunchtype" font-size="24.0" fill="#808080" transform="matrix(1.00, 0.00, -0.00, -1.00, 507.6, 764.0)">g</text><text xml:space="preserve" font-family="Lunchtype" font-size="24.0" fill="#808080" transform="matrix(1.00, 0.00, -0.00, -1.00, 521.5, 764.0)"> </text><text xml:space="preserve" font-family="Lunchtype" font-size="24.0" fill="#808080" transform="matrix(1.00, 0.00, -0.00, -1.00, 528.7, 764.0)">d</text><text xml:space="preserve" font-family="Lunchtype" font-size="24.0" fill="#808080" transform="matrix(1.00, 0.00, -0.00, -1.00, 541.8, 764.0)">i</text><text xml:space="preserve" font-family="Lunchtype" font-size="24.0" fill="#808080" transform="matrix(1.00, 0.00, -0.00, -1.00, 546.9, 764.0)">g</text><text xml:space="preserve" font-family="Lunchtype" font-size="24.0" fill="#808080" transform="matrix(1.00, 0.00, -0.00, -1.00, 560.8, 764.0)">i</text><text xml:space="preserve" font-family="Lunchtype" font-size="24.0" fill="#808080" transform="matrix(1.00, 0.00, -0.00, -1.00, 565.9, 764.0)">t</text><text xml:space="preserve" font-family="Lunchtype" font-size="24.0" fill="#808080" transform="matrix(1.00, 0.00, -0.00, -1.00, 573.3, 764.0)">a</text><text xml:space="preserve" font-family="Lunchtype" font-size="24.0" fill="#808080" transform="matrix(1.00, 0.00, -0.00, -1.00, 586.1, 764.0)">l</text><text xml:space="preserve" font-family="Lunchtype" font-size="24.0" fill="#808080" transform="matrix(1.00, 0.00, -0.00, -1.00, 591.7, 764.0)"> </text><text xml:space="preserve" font-family="Lunchtype" font-size="24.0" fill="#808080" transform="matrix(1.00, 0.00, -0.00, -1.00, 598.9, 764.0)">i</text><text xml:space="preserve" font-family="Lunchtype" font-size="24.0" fill="#808080" transform="matrix(1.00, 0.00, -0.00, -1.00, 604.0, 764.0)">n</text><text xml:space="preserve" font-family="Lunchtype" font-size="24.0" fill="#808080" transform="matrix(1.00, 0.00, -0.00, -1.00, 618.0, 764.0)">f</text><text xml:space="preserve" font-family="Lunchtype" font-size="24.0" fill="#808080" transform="matrix(1.00, 0.00, -0.00, -1.00, 625.7, 764.0)">o</text><text xml:space="preserve" font-family="Lunchtype" font-size="24.0" fill="#808080" transform="matrix(1.00, 0.00, -0.00, -1.00, 639.4, 764.0)">r</text><text xml:space="preserve" font-family="Lunchtype" font-size="24.0" fill="#808080" transform="matrix(1.00, 0.00, -0.00, -1.00, 648.0, 764.0)">m</text><text xml:space="preserve" font-family="Lunchtype" font-size="24.0" fill="#808080" transform="matrix(1.00, 0.00, -0.00, -1.00, 668.8, 764.0)">a</text><text xml:space="preserve" font-family="Lunchtype" font-size="24.0" fill="#808080" transform="matrix(1.00, 0.00, -0.00, -1.00, 681.6, 764.0)">t</text><text xml:space="preserve" font-family="Lunchtype" font-size="24.0" fill="#808080" transform="matrix(1.00, 0.00, -0.00, -1.00, 689.0, 764.0)">i</text><text xml:space="preserve" font-family="Lunchtype" font-size="24.0" fill="#808080" transform="matrix(1.00, 0.00, -0.00, -1.00, 694.0, 764.0)">o</text><text xml:space="preserve" font-family="Lunchtype" font-size="24.0" fill="#808080" transform="matrix(1.00, 0.00, -0.00, -1.00, 707.8, 764.0)">n</text><text xml:space="preserve" font-family="Lunchtype" font-size="24.0" fill="#808080" transform="matrix(1.00, 0.00, -0.00, -1.00, 721.8, 764.0)"> </text><text xml:space="preserve" font-family="Lunchtype" font-size="24.0" fill="#808080" transform="matrix(1.00, 0.00, -0.00, -1.00, 729.0, 764.0)">w</text><text xml:space="preserve" font-family="Lunchtype" font-size="24.0" fill="#808080" transform="matrix(1.00, 0.00, -0.00, -1.00, 747.5, 764.0)">i</text><text xml:space="preserve" font-family="Lunchtype" font-size="24.0" fill="#808080" transform="matrix(1.00, 0.00, -0.00, -1.00, 752.6, 764.0)">t</text><text xml:space="preserve" font-family="Lunchtype" font-size="24.0" fill="#808080" transform="matrix(1.00, 0.00, -0.00, -1.00, 760.0, 764.0)">h</text><text xml:space="preserve" font-family="Lunchtype" font-size="24.0" fill="#808080" transform="matrix(1.00, 0.00, -0.00, -1.00, 772.8, 764.0)"> </text><text xml:space="preserve" font-family="Lunchtype" font-size="24.0" fill="#808080" transform="matrix(1.00, 0.00, -0.00, -1.00, 780.0, 764.0)">t</text><text xml:space="preserve" font-family="Lunchtype" font-size="24.0" fill="#808080" transform="matrix(1.00, 0.00, -0.00, -1.00, 787.4, 764.0)">h</text><text xml:space="preserve" font-family="Lunchtype" font-size="24.0" fill="#808080" transform="matrix(1.00, 0.00, -0.00, -1.00, 800.1, 764.0)">e</text><text xml:space="preserve" font-family="Lunchtype" font-size="24.0" fill="#808080" transform="matrix(1.00, 0.00, -0.00, -1.00, 813.5, 764.0)"> </text><text xml:space="preserve" font-family="Lunchtype" font-size="24.0" fill="#808080" transform="matrix(1.00, 0.00, -0.00, -1.00, 820.7, 764.0)">r</text><text xml:space="preserve" font-family="Lunchtype" font-size="24.0" fill="#808080" transform="matrix(1.00, 0.00, -0.00, -1.00, 829.3, 764.0)">e</text><text xml:space="preserve" font-family="Lunchtype" font-size="24.0" fill="#808080" transform="matrix(1.00, 0.00, -0.00, -1.00, 842.7, 764.0)">a</text><text xml:space="preserve" font-family="Lunchtype" font-size="24.0" fill="#808080" transform="matrix(1.00, 0.00, -0.00, -1.00, 855.5, 764.0)">l</text><text xml:space="preserve" font-family="Lunchtype" font-size="24.0" fill="#808080" transform="matrix(1.00, 0.00, -0.00, -1.00, 861.2, 764.0)"> </text><text xml:space="preserve" font-family="Lunchtype" font-size="24.0" fill="#808080" transform="matrix(1.00, 0.00, -0.00, -1.00, 868.4, 764.0)">w</text><text xml:space="preserve" font-family="Lunchtype" font-size="24.0" fill="#808080" transform="matrix(1.00, 0.00, -0.00, -1.00, 886.9, 764.0)">o</text><text xml:space="preserve" font-family="Lunchtype" font-size="24.0" fill="#808080" transform="matrix(1.00, 0.00, -0.00, -1.00, 900.6, 764.0)">r</text><text xml:space="preserve" font-family="Lunchtype" font-size="24.0" fill="#808080" transform="matrix(1.00, 0.00, -0.00, -1.00, 909.2, 764.0)">l</text><text xml:space="preserve" font-family="Lunchtype" font-size="24.0" fill="#808080" transform="matrix(1.00, 0.00, -0.00, -1.00, 914.8, 764.0)">d</text><text xml:space="preserve" font-family="Lunchtype" font-size="24.0" fill="#808080" transform="matrix(1.00, 0.00, -0.00, -1.00, 927.9, 764.0)">)</text><text xml:space="preserve" font-family="Lunchtype" font-size="24.0" fill="#808080" transform="matrix(1.00, 0.00, -0.00, -1.00, 934.8, 764.0)">,</text><text xml:space="preserve" font-family="Lunchtype" font-size="24.0" fill="#808080" transform="matrix(1.00, 0.00, -0.00, -1.00, 940.2, 764.0)"> </text><text xml:space="preserve" font-family="Lunchtype" font-size="24.0" fill="#808080" transform="matrix(1.00, 0.00, -0.00, -1.00, 947.4, 764.0)">a</text><text xml:space="preserve" font-family="Lunchtype" font-size="24.0" fill="#808080" transform="matrix(1.00, 0.00, -0.00, -1.00, 960.2, 764.0)">n</text><text xml:space="preserve" font-family="Lunchtype" font-size="24.0" fill="#808080" transform="matrix(1.00, 0.00, -0.00, -1.00, 974.2, 764.0)">d</text><text xml:space="preserve" font-family="Lunchtype" font-size="24.0" fill="#808080" transform="matrix(1.00, 0.00, -0.00, -1.00, 987.2, 764.0)"> </text><text xml:space="preserve" font-family="Lunchtype" font-size="24.0" fill="#808080" transform="matrix(1.00, 0.00, -0.00, -1.00, 994.4, 764.0)">V</text><text xml:space="preserve" font-family="Lunchtype" font-size="24.0" fill="#808080" transform="matrix(1.00, 0.00, -0.00, -1.00, 1008.9, 764.0)">i</text><text xml:space="preserve" font-family="Lunchtype" font-size="24.0" fill="#808080" transform="matrix(1.00, 0.00, -0.00, -1.00, 1014.0, 764.0)">r</text><text xml:space="preserve" font-family="Lunchtype" font-size="24.0" fill="#808080" transform="matrix(1.00, 0.00, -0.00, -1.00, 1022.6, 764.0)">t</text><text xml:space="preserve" font-family="Lunchtype" font-size="24.0" fill="#808080" transform="matrix(1.00, 0.00, -0.00, -1.00, 1029.9, 764.0)">u</text><text xml:space="preserve" font-family="Lunchtype" font-size="24.0" fill="#808080" transform="matrix(1.00, 0.00, -0.00, -1.00, 1043.9, 764.0)">a</text><text xml:space="preserve" font-family="Lunchtype" font-size="24.0" fill="#808080" transform="matrix(1.00, 0.00, -0.00, -1.00, 1056.7, 764.0)">l</text><text xml:space="preserve" font-family="Lunchtype" font-size="24.0" fill="#808080" transform="matrix(1.00, 0.00, -0.00, -1.00, 1062.3, 764.0)"> </text><text xml:space="preserve" font-family="Lunchtype" font-size="24.0" fill="#808080" transform="matrix(1.00, 0.00, -0.00, -1.00, 1069.5, 764.0)">(</text><text xml:space="preserve" font-family="Lunchtype" font-size="24.0" fill="#808080" transform="matrix(1.00, 0.00, -0.00, -1.00, 1076.5, 764.0)">a</text><text xml:space="preserve" font-family="Lunchtype" font-size="24.0" fill="#808080" transform="matrix(1.00, 0.00, -0.00, -1.00, 1089.2, 764.0)"> </text><text xml:space="preserve" font-family="Lunchtype" font-size="24.0" fill="#808080" transform="matrix(1.00, 0.00, -0.00, -1.00, 1096.4, 764.0)">p</text><text xml:space="preserve" font-family="Lunchtype" font-size="24.0" fill="#808080" transform="matrix(1.00, 0.00, -0.00, -1.00, 1109.6, 764.0)">u</text><text xml:space="preserve" font-family="Lunchtype" font-size="24.0" fill="#808080" transform="matrix(1.00, 0.00, -0.00, -1.00, 1123.5, 764.0)">r</text><text xml:space="preserve" font-family="Lunchtype" font-size="24.0" fill="#808080" transform="matrix(1.00, 0.00, -0.00, -1.00, 1132.1, 764.0)">e</text><text xml:space="preserve" font-family="Lunchtype" font-size="24.0" fill="#808080" transform="matrix(1.00, 0.00, -0.00, -1.00, 1145.5, 764.0)">l</text><text xml:space="preserve" font-family="Lunchtype" font-size="24.0" fill="#808080" transform="matrix(1.00, 0.00, -0.00, -1.00, 1151.2, 764.0)">y</text><text xml:space="preserve" font-family="Lunchtype" font-size="24.0" fill="#808080" transform="matrix(1.00, 0.00, -0.00, -1.00, 1163.9, 764.0)"> </text><text xml:space="preserve" font-family="Lunchtype" font-size="24.0" fill="#808080" transform="matrix(1.00, 0.00, -0.00, -1.00, 1171.1, 764.0)">d</text><text xml:space="preserve" font-family="Lunchtype" font-size="24.0" fill="#808080" transform="matrix(1.00, 0.00, -0.00, -1.00, 1184.2, 764.0)">i</text><text xml:space="preserve" font-family="Lunchtype" font-size="24.0" fill="#808080" transform="matrix(1.00, 0.00, -0.00, -1.00, 1189.3, 764.0)">g</text><text xml:space="preserve" font-family="Lunchtype" font-size="24.0" fill="#808080" transform="matrix(1.00, 0.00, -0.00, -1.00, 1203.2, 764.0)">i</text><text xml:space="preserve" font-family="Lunchtype" font-size="24.0" fill="#808080" transform="matrix(1.00, 0.00, -0.00, -1.00, 1208.3, 764.0)">t</text><text xml:space="preserve" font-family="Lunchtype" font-size="24.0" fill="#808080" transform="matrix(1.00, 0.00, -0.00, -1.00, 1215.7, 764.0)">a</text><text xml:space="preserve" font-family="Lunchtype" font-size="24.0" fill="#808080" transform="matrix(1.00, 0.00, -0.00, -1.00, 1228.5, 764.0)">l</text><text xml:space="preserve" font-family="Lunchtype" font-size="24.0" fill="#808080" transform="matrix(1.00, 0.00, -0.00, -1.00, 1234.1, 764.0)"> </text><text xml:space="preserve" font-family="Lunchtype" font-size="24.0" fill="#808080" transform="matrix(1.00, 0.00, -0.00, -1.00, 1241.3, 764.0)">w</text><text xml:space="preserve" font-family="Lunchtype" font-size="24.0" fill="#808080" transform="matrix(1.00, 0.00, -0.00, -1.00, 1259.9, 764.0)">o</text><text xml:space="preserve" font-family="Lunchtype" font-size="24.0" fill="#808080" transform="matrix(1.00, 0.00, -0.00, -1.00, 1273.6, 764.0)">r</text><text xml:space="preserve" font-family="Lunchtype" font-size="24.0" fill="#808080" transform="matrix(1.00, 0.00, -0.00, -1.00, 1282.2, 764.0)">l</text><text xml:space="preserve" font-family="Lunchtype" font-size="24.0" fill="#808080" transform="matrix(1.00, 0.00, -0.00, -1.00, 1287.8, 764.0)">d</text><text xml:space="preserve" font-family="Lunchtype" font-size="24.0" fill="#808080" transform="matrix(1.00, 0.00, -0.00, -1.00, 1300.9, 764.0)">)</text><text xml:space="preserve" font-family="Lunchtype" font-size="24.0" fill="#808080" transform="matrix(1.00, 0.00, -0.00, -1.00, 1307.8, 764.0)">.</text></g></svg>