<?xml version="1.0" encoding="UTF-8"?><svg xmlns="http://www.w3.org/2000/svg" xmlns:xlink="http://www.w3.org/1999/xlink" clip-rule="evenodd" stroke-miterlimit="4.00" viewBox="0 0 1920 1080"><desc>SVG generated by Keynote</desc><defs></defs><g transform="matrix(1.00, 0.00, -0.00, -1.00, 0.0, 1080.0)"><path d="M 0.0 0.0 L 1920.0 0.0 L 1920.0 1080.0 L 0.0 1080.0 Z M 0.0 0.0 " fill="#000000"></path><text xml:space="preserve" font-family="Lunchtype" font-size="198.0" fill="#FEFFFF" transform="matrix(1.00, 0.00, -0.00, -1.00, 340.0, 453.0)">p</text><text xml:space="preserve" font-family="Lunchtype" font-size="198.0" fill="#FEFFFF" transform="matrix(1.00, 0.00, -0.00, -1.00, 448.3, 453.0)">l</text><text xml:space="preserve" font-family="Lunchtype" font-size="198.0" fill="#FEFFFF" transform="matrix(1.00, 0.00, -0.00, -1.00, 494.8, 453.0)">s</text><text xml:space="preserve" font-family="Lunchtype" font-size="198.0" fill="#FEFFFF" transform="matrix(1.00, 0.00, -0.00, -1.00, 591.5, 453.0)">d</text><text xml:space="preserve" font-family="Lunchtype" font-size="198.0" fill="#FEFFFF" transform="matrix(1.00, 0.00, -0.00, -1.00, 699.4, 453.0)">i</text><text xml:space="preserve" font-family="Lunchtype" font-size="198.0" fill="#FEFFFF" transform="matrix(1.00, 0.00, -0.00, -1.00, 741.3, 453.0)">s</text><text xml:space="preserve" font-family="Lunchtype" font-size="198.0" fill="#FEFFFF" transform="matrix(1.00, 0.00, -0.00, -1.00, 838.0, 453.0)">t</text><text xml:space="preserve" font-family="Lunchtype" font-size="198.0" fill="#FEFFFF" transform="matrix(1.00, 0.00, -0.00, -1.00, 899.0, 453.0)">r</text><text xml:space="preserve" font-family="Lunchtype" font-size="198.0" fill="#FEFFFF" transform="matrix(1.00, 0.00, -0.00, -1.00, 969.6, 453.0)">a</text><text xml:space="preserve" font-family="Lunchtype" font-size="198.0" fill="#FEFFFF" transform="matrix(1.00, 0.00, -0.00, -1.00, 1075.2, 453.0)">c</text><text xml:space="preserve" font-family="Lunchtype" font-size="198.0" fill="#FEFFFF" transform="matrix(1.00, 0.00, -0.00, -1.00, 1183.9, 453.0)">t</text><text xml:space="preserve" font-family="Lunchtype" font-size="198.0" fill="#FEFFFF" transform="matrix(1.00, 0.00, -0.00, -1.00, 1244.9, 453.0)">.</text><text xml:space="preserve" font-family="Lunchtype" font-size="198.0" fill="#FEFFFF" transform="matrix(1.00, 0.00, -0.00, -1.00, 1297.1, 453.0)">m</text><text xml:space="preserve" font-family="Lunchtype" font-size="198.0" fill="#FEFFFF" transform="matrix(1.00, 0.00, -0.00, -1.00, 1468.6, 453.0)">e</text></g></svg>