<?xml version="1.0" encoding="UTF-8"?><svg xmlns="http://www.w3.org/2000/svg" xmlns:xlink="http://www.w3.org/1999/xlink" clip-rule="evenodd" stroke-miterlimit="4.00" viewBox="0 0 1920 1080"><desc>SVG generated by Keynote</desc><defs></defs><g transform="matrix(1.00, 0.00, -0.00, -1.00, 0.0, 1080.0)"><path d="M 0.0 0.0 L 1920.0 0.0 L 1920.0 1080.0 L 0.0 1080.0 Z M 0.0 0.0 " fill="#FEFFFF"></path><text xml:space="preserve" font-family="Helvetica" font-size="18.0" fill="#BEBEBE" transform="matrix(1.00, 0.00, -0.00, -1.00, 1812.0, 62.0)">1</text><text xml:space="preserve" font-family="Helvetica" font-size="18.0" fill="#BEBEBE" transform="matrix(1.00, 0.00, -0.00, -1.00, 1822.0, 62.0)">4</text><text xml:space="preserve" font-family="HelveticaNeue-Thin" font-size="300.0" fill="#000000" transform="matrix(1.00, 0.00, -0.00, -1.00, 429.0, 462.0)">8</text><text xml:space="preserve" font-family="HelveticaNeue-Thin" font-size="300.0" fill="#000000" transform="matrix(1.00, 0.00, -0.00, -1.00, 595.8, 462.0)">h</text><text xml:space="preserve" font-family="HelveticaNeue-Thin" font-size="300.0" fill="#000000" transform="matrix(1.00, 0.00, -0.00, -1.00, 751.5, 462.0)">r</text><text xml:space="preserve" font-family="HelveticaNeue-Thin" font-size="300.0" fill="#000000" transform="matrix(1.00, 0.00, -0.00, -1.00, 834.9, 462.0)"> </text><text xml:space="preserve" font-family="HelveticaNeue-Thin" font-size="300.0" fill="#000000" transform="matrix(1.00, 0.00, -0.00, -1.00, 918.3, 462.0)">2</text><text xml:space="preserve" font-family="HelveticaNeue-Thin" font-size="300.0" fill="#000000" transform="matrix(1.00, 0.00, -0.00, -1.00, 1085.1, 462.0)">0</text><text xml:space="preserve" font-family="HelveticaNeue-Thin" font-size="300.0" fill="#000000" transform="matrix(1.00, 0.00, -0.00, -1.00, 1251.9, 462.0)">m</text><text xml:space="preserve" font-family="Lunchtype" font-size="37.0" fill="#000000" transform="matrix(1.00, 0.00, -0.00, -1.00, 557.0, 383.0)">w</text><text xml:space="preserve" font-family="Lunchtype" font-size="37.0" fill="#000000" transform="matrix(1.00, 0.00, -0.00, -1.00, 585.6, 383.0)">a</text><text xml:space="preserve" font-family="Lunchtype" font-size="37.0" fill="#000000" transform="matrix(1.00, 0.00, -0.00, -1.00, 605.3, 383.0)">s</text><text xml:space="preserve" font-family="Lunchtype" font-size="37.0" fill="#000000" transform="matrix(1.00, 0.00, -0.00, -1.00, 623.3, 383.0)"> </text><text xml:space="preserve" font-family="Lunchtype" font-size="37.0" fill="#000000" transform="matrix(1.00, 0.00, -0.00, -1.00, 634.4, 383.0)">t</text><text xml:space="preserve" font-family="Lunchtype" font-size="37.0" fill="#000000" transform="matrix(1.00, 0.00, -0.00, -1.00, 645.8, 383.0)">h</text><text xml:space="preserve" font-family="Lunchtype" font-size="37.0" fill="#000000" transform="matrix(1.00, 0.00, -0.00, -1.00, 665.5, 383.0)">e</text><text xml:space="preserve" font-family="Lunchtype" font-size="37.0" fill="#000000" transform="matrix(1.00, 0.00, -0.00, -1.00, 686.2, 383.0)"> </text><text xml:space="preserve" font-family="Lunchtype" font-size="37.0" fill="#000000" transform="matrix(1.00, 0.00, -0.00, -1.00, 697.3, 383.0)">m</text><text xml:space="preserve" font-family="Lunchtype" font-size="37.0" fill="#000000" transform="matrix(1.00, 0.00, -0.00, -1.00, 729.3, 383.0)">o</text><text xml:space="preserve" font-family="Lunchtype" font-size="37.0" fill="#000000" transform="matrix(1.00, 0.00, -0.00, -1.00, 750.5, 383.0)">s</text><text xml:space="preserve" font-family="Lunchtype" font-size="37.0" fill="#000000" transform="matrix(1.00, 0.00, -0.00, -1.00, 768.6, 383.0)">t</text><text xml:space="preserve" font-family="Lunchtype" font-size="37.0" fill="#000000" transform="matrix(1.00, 0.00, -0.00, -1.00, 780.0, 383.0)"> </text><text xml:space="preserve" font-family="Lunchtype" font-size="37.0" fill="#000000" transform="matrix(1.00, 0.00, -0.00, -1.00, 791.1, 383.0)">o</text><text xml:space="preserve" font-family="Lunchtype" font-size="37.0" fill="#000000" transform="matrix(1.00, 0.00, -0.00, -1.00, 812.3, 383.0)">n</text><text xml:space="preserve" font-family="Lunchtype" font-size="37.0" fill="#000000" transform="matrix(1.00, 0.00, -0.00, -1.00, 833.9, 383.0)">e</text><text xml:space="preserve" font-family="Lunchtype" font-size="37.0" fill="#000000" transform="matrix(1.00, 0.00, -0.00, -1.00, 854.6, 383.0)"> </text><text xml:space="preserve" font-family="Lunchtype" font-size="37.0" fill="#000000" transform="matrix(1.00, 0.00, -0.00, -1.00, 865.7, 383.0)">p</text><text xml:space="preserve" font-family="Lunchtype" font-size="37.0" fill="#000000" transform="matrix(1.00, 0.00, -0.00, -1.00, 885.9, 383.0)">e</text><text xml:space="preserve" font-family="Lunchtype" font-size="37.0" fill="#000000" transform="matrix(1.00, 0.00, -0.00, -1.00, 906.6, 383.0)">r</text><text xml:space="preserve" font-family="Lunchtype" font-size="37.0" fill="#000000" transform="matrix(1.00, 0.00, -0.00, -1.00, 919.8, 383.0)">s</text><text xml:space="preserve" font-family="Lunchtype" font-size="37.0" fill="#000000" transform="matrix(1.00, 0.00, -0.00, -1.00, 937.8, 383.0)">o</text><text xml:space="preserve" font-family="Lunchtype" font-size="37.0" fill="#000000" transform="matrix(1.00, 0.00, -0.00, -1.00, 959.0, 383.0)">n</text><text xml:space="preserve" font-family="Lunchtype" font-size="37.0" fill="#000000" transform="matrix(1.00, 0.00, -0.00, -1.00, 980.6, 383.0)"> </text><text xml:space="preserve" font-family="Lunchtype" font-size="37.0" fill="#000000" transform="matrix(1.00, 0.00, -0.00, -1.00, 991.7, 383.0)">s</text><text xml:space="preserve" font-family="Lunchtype" font-size="37.0" fill="#000000" transform="matrix(1.00, 0.00, -0.00, -1.00, 1009.8, 383.0)">p</text><text xml:space="preserve" font-family="Lunchtype" font-size="37.0" fill="#000000" transform="matrix(1.00, 0.00, -0.00, -1.00, 1030.0, 383.0)">e</text><text xml:space="preserve" font-family="Lunchtype" font-size="37.0" fill="#000000" transform="matrix(1.00, 0.00, -0.00, -1.00, 1050.7, 383.0)">n</text><text xml:space="preserve" font-family="Lunchtype" font-size="37.0" fill="#000000" transform="matrix(1.00, 0.00, -0.00, -1.00, 1072.3, 383.0)">t</text><text xml:space="preserve" font-family="Lunchtype" font-size="37.0" fill="#000000" transform="matrix(1.00, 0.00, -0.00, -1.00, 1083.7, 383.0)"> </text><text xml:space="preserve" font-family="Lunchtype" font-size="37.0" fill="#000000" transform="matrix(1.00, 0.00, -0.00, -1.00, 1094.8, 383.0)">o</text><text xml:space="preserve" font-family="Lunchtype" font-size="37.0" fill="#000000" transform="matrix(1.00, 0.00, -0.00, -1.00, 1116.0, 383.0)">n</text><text xml:space="preserve" font-family="Lunchtype" font-size="37.0" fill="#000000" transform="matrix(1.00, 0.00, -0.00, -1.00, 1137.5, 383.0)"> </text><text xml:space="preserve" font-family="Lunchtype" font-size="37.0" fill="#000000" transform="matrix(1.00, 0.00, -0.00, -1.00, 1148.6, 383.0)">t</text><text xml:space="preserve" font-family="Lunchtype" font-size="37.0" fill="#000000" transform="matrix(1.00, 0.00, -0.00, -1.00, 1160.0, 383.0)">h</text><text xml:space="preserve" font-family="Lunchtype" font-size="37.0" fill="#000000" transform="matrix(1.00, 0.00, -0.00, -1.00, 1179.7, 383.0)">e</text><text xml:space="preserve" font-family="Lunchtype" font-size="37.0" fill="#000000" transform="matrix(1.00, 0.00, -0.00, -1.00, 1200.4, 383.0)">i</text><text xml:space="preserve" font-family="Lunchtype" font-size="37.0" fill="#000000" transform="matrix(1.00, 0.00, -0.00, -1.00, 1208.2, 383.0)">r</text><text xml:space="preserve" font-family="Lunchtype" font-size="37.0" fill="#000000" transform="matrix(1.00, 0.00, -0.00, -1.00, 1221.4, 383.0)"> </text><text xml:space="preserve" font-family="Lunchtype" font-size="37.0" fill="#000000" transform="matrix(1.00, 0.00, -0.00, -1.00, 1232.5, 383.0)">p</text><text xml:space="preserve" font-family="Lunchtype" font-size="37.0" fill="#000000" transform="matrix(1.00, 0.00, -0.00, -1.00, 1252.8, 383.0)">h</text><text xml:space="preserve" font-family="Lunchtype" font-size="37.0" fill="#000000" transform="matrix(1.00, 0.00, -0.00, -1.00, 1272.5, 383.0)">o</text><text xml:space="preserve" font-family="Lunchtype" font-size="37.0" fill="#000000" transform="matrix(1.00, 0.00, -0.00, -1.00, 1293.7, 383.0)">n</text><text xml:space="preserve" font-family="Lunchtype" font-size="37.0" fill="#000000" transform="matrix(1.00, 0.00, -0.00, -1.00, 1315.2, 383.0)">e</text><text xml:space="preserve" font-family="Lunchtype" font-size="37.0" fill="#000000" transform="matrix(1.00, 0.00, -0.00, -1.00, 1335.9, 383.0)">…</text></g></svg>