<?xml version="1.0" encoding="UTF-8"?><svg xmlns="http://www.w3.org/2000/svg" xmlns:xlink="http://www.w3.org/1999/xlink" clip-rule="evenodd" stroke-miterlimit="4.00" viewBox="0 0 1920 1080"><desc>SVG generated by Keynote</desc><defs></defs><g transform="matrix(1.00, 0.00, -0.00, -1.00, 0.0, 1080.0)"><path d="M 0.0 0.0 L 1920.0 0.0 L 1920.0 1080.0 L 0.0 1080.0 Z M 0.0 0.0 " fill="#FEFFFF"></path><text xml:space="preserve" font-family="Helvetica-Bold" font-weight="bold" font-size="18.0" fill="#FEFFFE" transform="matrix(1.00, 0.00, -0.00, -1.00, 90.0, 980.0)">S</text><text xml:space="preserve" font-family="Helvetica-Bold" font-weight="bold" font-size="18.0" fill="#FEFFFE" transform="matrix(1.00, 0.00, -0.00, -1.00, 102.0, 980.0)">E</text><text xml:space="preserve" font-family="Helvetica-Bold" font-weight="bold" font-size="18.0" fill="#FEFFFE" transform="matrix(1.00, 0.00, -0.00, -1.00, 114.0, 980.0)">C</text><text xml:space="preserve" font-family="Helvetica-Bold" font-weight="bold" font-size="18.0" fill="#FEFFFE" transform="matrix(1.00, 0.00, -0.00, -1.00, 127.0, 980.0)">T</text><text xml:space="preserve" font-family="Helvetica-Bold" font-weight="bold" font-size="18.0" fill="#FEFFFE" transform="matrix(1.00, 0.00, -0.00, -1.00, 138.0, 980.0)">I</text><text xml:space="preserve" font-family="Helvetica-Bold" font-weight="bold" font-size="18.0" fill="#FEFFFE" transform="matrix(1.00, 0.00, -0.00, -1.00, 143.0, 980.0)">O</text><text xml:space="preserve" font-family="Helvetica-Bold" font-weight="bold" font-size="18.0" fill="#FEFFFE" transform="matrix(1.00, 0.00, -0.00, -1.00, 157.0, 980.0)">N</text><text xml:space="preserve" font-family="Helvetica" font-size="18.0" fill="#BEBEBE" transform="matrix(1.00, 0.00, -0.00, -1.00, 1812.0, 62.0)">2</text><text xml:space="preserve" font-family="Helvetica" font-size="18.0" fill="#BEBEBE" transform="matrix(1.00, 0.00, -0.00, -1.00, 1822.0, 62.0)">9</text><image xlink:href="../../35E7C2E9-B3DF-4088-84FE-9D96215B110C/assets/57CE2C3FD95EE1D530555BB7DD73C24A.png" width="880.00" height="455.00" transform="matrix(1.00, 0.00, -0.00, -1.00, 520.0, 943.0)"></image><text xml:space="preserve" font-family="Lunchtype" font-size="36.0" fill="#252525" transform="matrix(1.00, 0.00, -0.00, -1.00, 454.0, 352.0)">I</text><text xml:space="preserve" font-family="Lunchtype" font-size="36.0" fill="#252525" transform="matrix(1.00, 0.00, -0.00, -1.00, 462.7, 352.0)">n</text><text xml:space="preserve" font-family="Lunchtype" font-size="36.0" fill="#252525" transform="matrix(1.00, 0.00, -0.00, -1.00, 483.7, 352.0)"> </text><text xml:space="preserve" font-family="Lunchtype" font-size="36.0" fill="#252525" transform="matrix(1.00, 0.00, -0.00, -1.00, 494.5, 352.0)">a</text><text xml:space="preserve" font-family="Lunchtype" font-size="36.0" fill="#252525" transform="matrix(1.00, 0.00, -0.00, -1.00, 513.7, 352.0)">d</text><text xml:space="preserve" font-family="Lunchtype" font-size="36.0" fill="#252525" transform="matrix(1.00, 0.00, -0.00, -1.00, 533.3, 352.0)">d</text><text xml:space="preserve" font-family="Lunchtype" font-size="36.0" fill="#252525" transform="matrix(1.00, 0.00, -0.00, -1.00, 552.9, 352.0)">i</text><text xml:space="preserve" font-family="Lunchtype" font-size="36.0" fill="#252525" transform="matrix(1.00, 0.00, -0.00, -1.00, 560.5, 352.0)">t</text><text xml:space="preserve" font-family="Lunchtype" font-size="36.0" fill="#252525" transform="matrix(1.00, 0.00, -0.00, -1.00, 571.6, 352.0)">i</text><text xml:space="preserve" font-family="Lunchtype" font-size="36.0" fill="#252525" transform="matrix(1.00, 0.00, -0.00, -1.00, 579.2, 352.0)">o</text><text xml:space="preserve" font-family="Lunchtype" font-size="36.0" fill="#252525" transform="matrix(1.00, 0.00, -0.00, -1.00, 599.9, 352.0)">n</text><text xml:space="preserve" font-family="Lunchtype" font-size="36.0" fill="#252525" transform="matrix(1.00, 0.00, -0.00, -1.00, 620.9, 352.0)"> </text><text xml:space="preserve" font-family="Lunchtype" font-size="36.0" fill="#252525" transform="matrix(1.00, 0.00, -0.00, -1.00, 631.7, 352.0)">t</text><text xml:space="preserve" font-family="Lunchtype" font-size="36.0" fill="#252525" transform="matrix(1.00, 0.00, -0.00, -1.00, 642.7, 352.0)">o</text><text xml:space="preserve" font-family="Lunchtype" font-size="36.0" fill="#252525" transform="matrix(1.00, 0.00, -0.00, -1.00, 663.4, 352.0)"> </text><text xml:space="preserve" font-family="Lunchtype" font-size="36.0" fill="#252525" transform="matrix(1.00, 0.00, -0.00, -1.00, 674.2, 352.0)">t</text><text xml:space="preserve" font-family="Lunchtype" font-size="36.0" fill="#252525" transform="matrix(1.00, 0.00, -0.00, -1.00, 685.3, 352.0)">h</text><text xml:space="preserve" font-family="Lunchtype" font-size="36.0" fill="#252525" transform="matrix(1.00, 0.00, -0.00, -1.00, 704.4, 352.0)">e</text><text xml:space="preserve" font-family="Lunchtype" font-size="36.0" fill="#252525" transform="matrix(1.00, 0.00, -0.00, -1.00, 724.5, 352.0)"> </text><text xml:space="preserve" font-family="Lunchtype" font-size="36.0" fill="#252525" transform="matrix(1.00, 0.00, -0.00, -1.00, 735.3, 352.0)">p</text><text xml:space="preserve" font-family="Lunchtype" font-size="36.0" fill="#252525" transform="matrix(1.00, 0.00, -0.00, -1.00, 755.0, 352.0)">h</text><text xml:space="preserve" font-family="Lunchtype" font-size="36.0" fill="#252525" transform="matrix(1.00, 0.00, -0.00, -1.00, 774.2, 352.0)">o</text><text xml:space="preserve" font-family="Lunchtype" font-size="36.0" fill="#252525" transform="matrix(1.00, 0.00, -0.00, -1.00, 794.8, 352.0)">n</text><text xml:space="preserve" font-family="Lunchtype" font-size="36.0" fill="#252525" transform="matrix(1.00, 0.00, -0.00, -1.00, 815.8, 352.0)">e</text><text xml:space="preserve" font-family="Lunchtype" font-size="36.0" fill="#252525" transform="matrix(1.00, 0.00, -0.00, -1.00, 835.9, 352.0)"> </text><text xml:space="preserve" font-family="Lunchtype" font-size="36.0" fill="#252525" transform="matrix(1.00, 0.00, -0.00, -1.00, 846.7, 352.0)">b</text><text xml:space="preserve" font-family="Lunchtype" font-size="36.0" fill="#252525" transform="matrix(1.00, 0.00, -0.00, -1.00, 866.4, 352.0)">e</text><text xml:space="preserve" font-family="Lunchtype" font-size="36.0" fill="#252525" transform="matrix(1.00, 0.00, -0.00, -1.00, 886.5, 352.0)">i</text><text xml:space="preserve" font-family="Lunchtype" font-size="36.0" fill="#252525" transform="matrix(1.00, 0.00, -0.00, -1.00, 894.2, 352.0)">n</text><text xml:space="preserve" font-family="Lunchtype" font-size="36.0" fill="#252525" transform="matrix(1.00, 0.00, -0.00, -1.00, 915.2, 352.0)">g</text><text xml:space="preserve" font-family="Lunchtype" font-size="36.0" fill="#252525" transform="matrix(1.00, 0.00, -0.00, -1.00, 936.0, 352.0)"> </text><text xml:space="preserve" font-family="Lunchtype" font-size="36.0" fill="#252525" transform="matrix(1.00, 0.00, -0.00, -1.00, 946.8, 352.0)">a</text><text xml:space="preserve" font-family="Lunchtype" font-size="36.0" fill="#252525" transform="matrix(1.00, 0.00, -0.00, -1.00, 966.0, 352.0)"> </text><text xml:space="preserve" font-family="Lunchtype" font-size="36.0" fill="#252525" transform="matrix(1.00, 0.00, -0.00, -1.00, 976.8, 352.0)">m</text><text xml:space="preserve" font-family="Lunchtype" font-size="36.0" fill="#252525" transform="matrix(1.00, 0.00, -0.00, -1.00, 1008.0, 352.0)">o</text><text xml:space="preserve" font-family="Lunchtype" font-size="36.0" fill="#252525" transform="matrix(1.00, 0.00, -0.00, -1.00, 1028.6, 352.0)">d</text><text xml:space="preserve" font-family="Lunchtype" font-size="36.0" fill="#252525" transform="matrix(1.00, 0.00, -0.00, -1.00, 1048.3, 352.0)">e</text><text xml:space="preserve" font-family="Lunchtype" font-size="36.0" fill="#252525" transform="matrix(1.00, 0.00, -0.00, -1.00, 1068.4, 352.0)"> </text><text xml:space="preserve" font-family="Lunchtype" font-size="36.0" fill="#252525" transform="matrix(1.00, 0.00, -0.00, -1.00, 1079.2, 352.0)">o</text><text xml:space="preserve" font-family="Lunchtype" font-size="36.0" fill="#252525" transform="matrix(1.00, 0.00, -0.00, -1.00, 1099.8, 352.0)">f</text><text xml:space="preserve" font-family="Lunchtype" font-size="36.0" fill="#252525" transform="matrix(1.00, 0.00, -0.00, -1.00, 1111.3, 352.0)"> </text><text xml:space="preserve" font-family="Lunchtype" font-size="36.0" fill="#252525" transform="matrix(1.00, 0.00, -0.00, -1.00, 1122.1, 352.0)">t</text><text xml:space="preserve" font-family="Lunchtype" font-size="36.0" fill="#252525" transform="matrix(1.00, 0.00, -0.00, -1.00, 1133.2, 352.0)">r</text><text xml:space="preserve" font-family="Lunchtype" font-size="36.0" fill="#252525" transform="matrix(1.00, 0.00, -0.00, -1.00, 1146.1, 352.0)">a</text><text xml:space="preserve" font-family="Lunchtype" font-size="36.0" fill="#252525" transform="matrix(1.00, 0.00, -0.00, -1.00, 1165.3, 352.0)">n</text><text xml:space="preserve" font-family="Lunchtype" font-size="36.0" fill="#252525" transform="matrix(1.00, 0.00, -0.00, -1.00, 1186.2, 352.0)">s</text><text xml:space="preserve" font-family="Lunchtype" font-size="36.0" fill="#252525" transform="matrix(1.00, 0.00, -0.00, -1.00, 1203.8, 352.0)">p</text><text xml:space="preserve" font-family="Lunchtype" font-size="36.0" fill="#252525" transform="matrix(1.00, 0.00, -0.00, -1.00, 1223.5, 352.0)">o</text><text xml:space="preserve" font-family="Lunchtype" font-size="36.0" fill="#252525" transform="matrix(1.00, 0.00, -0.00, -1.00, 1244.1, 352.0)">r</text><text xml:space="preserve" font-family="Lunchtype" font-size="36.0" fill="#252525" transform="matrix(1.00, 0.00, -0.00, -1.00, 1257.0, 352.0)">t</text><text xml:space="preserve" font-family="Lunchtype" font-size="36.0" fill="#252525" transform="matrix(1.00, 0.00, -0.00, -1.00, 1268.1, 352.0)">a</text><text xml:space="preserve" font-family="Lunchtype" font-size="36.0" fill="#252525" transform="matrix(1.00, 0.00, -0.00, -1.00, 1287.3, 352.0)">t</text><text xml:space="preserve" font-family="Lunchtype" font-size="36.0" fill="#252525" transform="matrix(1.00, 0.00, -0.00, -1.00, 1298.3, 352.0)">i</text><text xml:space="preserve" font-family="Lunchtype" font-size="36.0" fill="#252525" transform="matrix(1.00, 0.00, -0.00, -1.00, 1306.0, 352.0)">o</text><text xml:space="preserve" font-family="Lunchtype" font-size="36.0" fill="#252525" transform="matrix(1.00, 0.00, -0.00, -1.00, 1326.6, 352.0)">n</text><text xml:space="preserve" font-family="Lunchtype" font-size="36.0" fill="#252525" transform="matrix(1.00, 0.00, -0.00, -1.00, 1347.6, 352.0)">,</text><text xml:space="preserve" font-family="Lunchtype" font-size="36.0" fill="#252525" transform="matrix(1.00, 0.00, -0.00, -1.00, 1355.6, 352.0)"> </text><text xml:space="preserve" font-family="Lunchtype" font-size="36.0" fill="#252525" transform="matrix(1.00, 0.00, -0.00, -1.00, 1366.4, 352.0)">i</text><text xml:space="preserve" font-family="Lunchtype" font-size="36.0" fill="#252525" transform="matrix(1.00, 0.00, -0.00, -1.00, 1374.1, 352.0)">t</text><text xml:space="preserve" font-family="Lunchtype" font-size="36.0" fill="#252525" transform="matrix(1.00, 0.00, -0.00, -1.00, 1385.1, 352.0)">’</text><text xml:space="preserve" font-family="Lunchtype" font-size="36.0" fill="#252525" transform="matrix(1.00, 0.00, -0.00, -1.00, 1392.1, 352.0)">s</text><text xml:space="preserve" font-family="Lunchtype" font-size="36.0" fill="#252525" transform="matrix(1.00, 0.00, -0.00, -1.00, 1409.6, 352.0)"> </text><text xml:space="preserve" font-family="Lunchtype" font-size="36.0" fill="#252525" transform="matrix(1.00, 0.00, -0.00, -1.00, 1420.4, 352.0)">a</text><text xml:space="preserve" font-family="Lunchtype" font-size="36.0" fill="#252525" transform="matrix(1.00, 0.00, -0.00, -1.00, 1439.6, 352.0)">l</text><text xml:space="preserve" font-family="Lunchtype" font-size="36.0" fill="#252525" transform="matrix(1.00, 0.00, -0.00, -1.00, 1448.1, 352.0)">s</text><text xml:space="preserve" font-family="Lunchtype" font-size="36.0" fill="#252525" transform="matrix(1.00, 0.00, -0.00, -1.00, 1465.6, 352.0)">o</text><text xml:space="preserve" font-family="Lunchtype" font-size="36.0" fill="#252525" transform="matrix(1.00, 0.00, -0.00, -1.00, 1486.3, 352.0)"> </text><text xml:space="preserve" font-family="Lunchtype" font-size="36.0" fill="#252525" transform="matrix(1.00, 0.00, -0.00, -1.00, 1497.1, 352.0)">a</text><text xml:space="preserve" font-family="Lunchtype" font-size="36.0" fill="#252525" transform="matrix(1.00, 0.00, -0.00, -1.00, 1516.3, 352.0)"> </text><text xml:space="preserve" font-family="Lunchtype" font-size="36.0" fill="#252525" transform="matrix(1.00, 0.00, -0.00, -1.00, 394.0, 282.0)">m</text><text xml:space="preserve" font-family="Lunchtype" font-size="36.0" fill="#252525" transform="matrix(1.00, 0.00, -0.00, -1.00, 425.2, 282.0)">e</text><text xml:space="preserve" font-family="Lunchtype" font-size="36.0" fill="#252525" transform="matrix(1.00, 0.00, -0.00, -1.00, 445.3, 282.0)">t</text><text xml:space="preserve" font-family="Lunchtype" font-size="36.0" fill="#252525" transform="matrix(1.00, 0.00, -0.00, -1.00, 456.4, 282.0)">h</text><text xml:space="preserve" font-family="Lunchtype" font-size="36.0" fill="#252525" transform="matrix(1.00, 0.00, -0.00, -1.00, 475.5, 282.0)">o</text><text xml:space="preserve" font-family="Lunchtype" font-size="36.0" fill="#252525" transform="matrix(1.00, 0.00, -0.00, -1.00, 496.2, 282.0)">d</text><text xml:space="preserve" font-family="Lunchtype" font-size="36.0" fill="#252525" transform="matrix(1.00, 0.00, -0.00, -1.00, 515.8, 282.0)"> </text><text xml:space="preserve" font-family="Lunchtype" font-size="36.0" fill="#252525" transform="matrix(1.00, 0.00, -0.00, -1.00, 526.6, 282.0)">i</text><text xml:space="preserve" font-family="Lunchtype" font-size="36.0" fill="#252525" transform="matrix(1.00, 0.00, -0.00, -1.00, 534.2, 282.0)">n</text><text xml:space="preserve" font-family="Lunchtype" font-size="36.0" fill="#252525" transform="matrix(1.00, 0.00, -0.00, -1.00, 555.2, 282.0)"> </text><text xml:space="preserve" font-family="Lunchtype" font-size="36.0" fill="#252525" transform="matrix(1.00, 0.00, -0.00, -1.00, 566.0, 282.0)">w</text><text xml:space="preserve" font-family="Lunchtype" font-size="36.0" fill="#252525" transform="matrix(1.00, 0.00, -0.00, -1.00, 593.8, 282.0)">h</text><text xml:space="preserve" font-family="Lunchtype" font-size="36.0" fill="#252525" transform="matrix(1.00, 0.00, -0.00, -1.00, 613.0, 282.0)">i</text><text xml:space="preserve" font-family="Lunchtype" font-size="36.0" fill="#252525" transform="matrix(1.00, 0.00, -0.00, -1.00, 620.6, 282.0)">c</text><text xml:space="preserve" font-family="Lunchtype" font-size="36.0" fill="#252525" transform="matrix(1.00, 0.00, -0.00, -1.00, 640.3, 282.0)">h</text><text xml:space="preserve" font-family="Lunchtype" font-size="36.0" fill="#252525" transform="matrix(1.00, 0.00, -0.00, -1.00, 659.5, 282.0)"> </text><text xml:space="preserve" font-family="Lunchtype" font-size="36.0" fill="#252525" transform="matrix(1.00, 0.00, -0.00, -1.00, 670.3, 282.0)">w</text><text xml:space="preserve" font-family="Lunchtype" font-size="36.0" fill="#252525" transform="matrix(1.00, 0.00, -0.00, -1.00, 698.1, 282.0)">e</text><text xml:space="preserve" font-family="Lunchtype" font-size="36.0" fill="#252525" transform="matrix(1.00, 0.00, -0.00, -1.00, 718.2, 282.0)"> </text><text xml:space="preserve" font-family="Lunchtype" font-size="36.0" fill="#252525" transform="matrix(1.00, 0.00, -0.00, -1.00, 729.0, 282.0)">c</text><text xml:space="preserve" font-family="Lunchtype" font-size="36.0" fill="#252525" transform="matrix(1.00, 0.00, -0.00, -1.00, 748.8, 282.0)">a</text><text xml:space="preserve" font-family="Lunchtype" font-size="36.0" fill="#252525" transform="matrix(1.00, 0.00, -0.00, -1.00, 768.0, 282.0)">n</text><text xml:space="preserve" font-family="Lunchtype" font-size="36.0" fill="#252525" transform="matrix(1.00, 0.00, -0.00, -1.00, 789.0, 282.0)"> </text><text xml:space="preserve" font-family="Lunchtype" font-size="36.0" fill="#252525" transform="matrix(1.00, 0.00, -0.00, -1.00, 799.8, 282.0)">p</text><text xml:space="preserve" font-family="Lunchtype" font-size="36.0" fill="#252525" transform="matrix(1.00, 0.00, -0.00, -1.00, 819.4, 282.0)">r</text><text xml:space="preserve" font-family="Lunchtype" font-size="36.0" fill="#252525" transform="matrix(1.00, 0.00, -0.00, -1.00, 832.3, 282.0)">e</text><text xml:space="preserve" font-family="Lunchtype" font-size="36.0" fill="#252525" transform="matrix(1.00, 0.00, -0.00, -1.00, 852.4, 282.0)">s</text><text xml:space="preserve" font-family="Lunchtype" font-size="36.0" fill="#252525" transform="matrix(1.00, 0.00, -0.00, -1.00, 870.0, 282.0)">e</text><text xml:space="preserve" font-family="Lunchtype" font-size="36.0" fill="#252525" transform="matrix(1.00, 0.00, -0.00, -1.00, 890.1, 282.0)">r</text><text xml:space="preserve" font-family="Lunchtype" font-size="36.0" fill="#252525" transform="matrix(1.00, 0.00, -0.00, -1.00, 903.0, 282.0)">v</text><text xml:space="preserve" font-family="Lunchtype" font-size="36.0" fill="#252525" transform="matrix(1.00, 0.00, -0.00, -1.00, 921.7, 282.0)">e</text><text xml:space="preserve" font-family="Lunchtype" font-size="36.0" fill="#252525" transform="matrix(1.00, 0.00, -0.00, -1.00, 941.8, 282.0)"> </text><text xml:space="preserve" font-family="Lunchtype" font-size="36.0" fill="#252525" transform="matrix(1.00, 0.00, -0.00, -1.00, 952.6, 282.0)">m</text><text xml:space="preserve" font-family="Lunchtype" font-size="36.0" fill="#252525" transform="matrix(1.00, 0.00, -0.00, -1.00, 983.8, 282.0)">o</text><text xml:space="preserve" font-family="Lunchtype" font-size="36.0" fill="#252525" transform="matrix(1.00, 0.00, -0.00, -1.00, 1004.5, 282.0)">m</text><text xml:space="preserve" font-family="Lunchtype" font-size="36.0" fill="#252525" transform="matrix(1.00, 0.00, -0.00, -1.00, 1035.6, 282.0)">e</text><text xml:space="preserve" font-family="Lunchtype" font-size="36.0" fill="#252525" transform="matrix(1.00, 0.00, -0.00, -1.00, 1055.8, 282.0)">n</text><text xml:space="preserve" font-family="Lunchtype" font-size="36.0" fill="#252525" transform="matrix(1.00, 0.00, -0.00, -1.00, 1076.7, 282.0)">t</text><text xml:space="preserve" font-family="Lunchtype" font-size="36.0" fill="#252525" transform="matrix(1.00, 0.00, -0.00, -1.00, 1087.8, 282.0)">s</text><text xml:space="preserve" font-family="Lunchtype" font-size="36.0" fill="#252525" transform="matrix(1.00, 0.00, -0.00, -1.00, 1105.4, 282.0)"> </text><text xml:space="preserve" font-family="Lunchtype" font-size="36.0" fill="#252525" transform="matrix(1.00, 0.00, -0.00, -1.00, 1116.2, 282.0)">a</text><text xml:space="preserve" font-family="Lunchtype" font-size="36.0" fill="#252525" transform="matrix(1.00, 0.00, -0.00, -1.00, 1135.4, 282.0)">n</text><text xml:space="preserve" font-family="Lunchtype" font-size="36.0" fill="#252525" transform="matrix(1.00, 0.00, -0.00, -1.00, 1156.4, 282.0)">d</text><text xml:space="preserve" font-family="Lunchtype" font-size="36.0" fill="#252525" transform="matrix(1.00, 0.00, -0.00, -1.00, 1176.0, 282.0)"> </text><text xml:space="preserve" font-family="Lunchtype" font-size="36.0" fill="#252525" transform="matrix(1.00, 0.00, -0.00, -1.00, 1186.8, 282.0)">m</text><text xml:space="preserve" font-family="Lunchtype" font-size="36.0" fill="#252525" transform="matrix(1.00, 0.00, -0.00, -1.00, 1218.0, 282.0)">e</text><text xml:space="preserve" font-family="Lunchtype" font-size="36.0" fill="#252525" transform="matrix(1.00, 0.00, -0.00, -1.00, 1238.1, 282.0)">m</text><text xml:space="preserve" font-family="Lunchtype" font-size="36.0" fill="#252525" transform="matrix(1.00, 0.00, -0.00, -1.00, 1269.3, 282.0)">o</text><text xml:space="preserve" font-family="Lunchtype" font-size="36.0" fill="#252525" transform="matrix(1.00, 0.00, -0.00, -1.00, 1289.9, 282.0)">r</text><text xml:space="preserve" font-family="Lunchtype" font-size="36.0" fill="#252525" transform="matrix(1.00, 0.00, -0.00, -1.00, 1302.7, 282.0)">i</text><text xml:space="preserve" font-family="Lunchtype" font-size="36.0" fill="#252525" transform="matrix(1.00, 0.00, -0.00, -1.00, 1310.4, 282.0)">e</text><text xml:space="preserve" font-family="Lunchtype" font-size="36.0" fill="#252525" transform="matrix(1.00, 0.00, -0.00, -1.00, 1330.5, 282.0)">s</text><text xml:space="preserve" font-family="Lunchtype" font-size="36.0" fill="#252525" transform="matrix(1.00, 0.00, -0.00, -1.00, 1348.1, 282.0)">.</text><text xml:space="preserve" font-family="Lunchtype" font-size="36.0" fill="#252525" transform="matrix(1.00, 0.00, -0.00, -1.00, 1357.6, 282.0)"> </text><text xml:space="preserve" font-family="Lunchtype" font-size="36.0" fill="#252525" transform="matrix(1.00, 0.00, -0.00, -1.00, 394.0, 212.0)">F</text><text xml:space="preserve" font-family="Lunchtype" font-size="36.0" fill="#252525" transform="matrix(1.00, 0.00, -0.00, -1.00, 412.1, 212.0)">u</text><text xml:space="preserve" font-family="Lunchtype" font-size="36.0" fill="#252525" transform="matrix(1.00, 0.00, -0.00, -1.00, 433.0, 212.0)">r</text><text xml:space="preserve" font-family="Lunchtype" font-size="36.0" fill="#252525" transform="matrix(1.00, 0.00, -0.00, -1.00, 445.9, 212.0)">t</text><text xml:space="preserve" font-family="Lunchtype" font-size="36.0" fill="#252525" transform="matrix(1.00, 0.00, -0.00, -1.00, 457.0, 212.0)">h</text><text xml:space="preserve" font-family="Lunchtype" font-size="36.0" fill="#252525" transform="matrix(1.00, 0.00, -0.00, -1.00, 476.1, 212.0)">e</text><text xml:space="preserve" font-family="Lunchtype" font-size="36.0" fill="#252525" transform="matrix(1.00, 0.00, -0.00, -1.00, 496.2, 212.0)">r</text><text xml:space="preserve" font-family="Lunchtype" font-size="36.0" fill="#252525" transform="matrix(1.00, 0.00, -0.00, -1.00, 509.1, 212.0)">m</text><text xml:space="preserve" font-family="Lunchtype" font-size="36.0" fill="#252525" transform="matrix(1.00, 0.00, -0.00, -1.00, 540.3, 212.0)">o</text><text xml:space="preserve" font-family="Lunchtype" font-size="36.0" fill="#252525" transform="matrix(1.00, 0.00, -0.00, -1.00, 560.9, 212.0)">r</text><text xml:space="preserve" font-family="Lunchtype" font-size="36.0" fill="#252525" transform="matrix(1.00, 0.00, -0.00, -1.00, 573.7, 212.0)">e</text><text xml:space="preserve" font-family="Lunchtype" font-size="36.0" fill="#252525" transform="matrix(1.00, 0.00, -0.00, -1.00, 593.9, 212.0)">,</text><text xml:space="preserve" font-family="Lunchtype" font-size="36.0" fill="#252525" transform="matrix(1.00, 0.00, -0.00, -1.00, 601.9, 212.0)"> </text><text xml:space="preserve" font-family="Lunchtype" font-size="36.0" fill="#252525" transform="matrix(1.00, 0.00, -0.00, -1.00, 612.7, 212.0)">i</text><text xml:space="preserve" font-family="Lunchtype" font-size="36.0" fill="#252525" transform="matrix(1.00, 0.00, -0.00, -1.00, 620.3, 212.0)">t</text><text xml:space="preserve" font-family="Lunchtype" font-size="36.0" fill="#252525" transform="matrix(1.00, 0.00, -0.00, -1.00, 631.4, 212.0)">’</text><text xml:space="preserve" font-family="Lunchtype" font-size="36.0" fill="#252525" transform="matrix(1.00, 0.00, -0.00, -1.00, 638.3, 212.0)">s</text><text xml:space="preserve" font-family="Lunchtype" font-size="36.0" fill="#252525" transform="matrix(1.00, 0.00, -0.00, -1.00, 655.9, 212.0)"> </text><text xml:space="preserve" font-family="Lunchtype" font-size="36.0" fill="#252525" transform="matrix(1.00, 0.00, -0.00, -1.00, 666.7, 212.0)">a</text><text xml:space="preserve" font-family="Lunchtype" font-size="36.0" fill="#252525" transform="matrix(1.00, 0.00, -0.00, -1.00, 685.9, 212.0)"> </text><text xml:space="preserve" font-family="Lunchtype" font-size="36.0" fill="#252525" transform="matrix(1.00, 0.00, -0.00, -1.00, 696.7, 212.0)">d</text><text xml:space="preserve" font-family="Lunchtype" font-size="36.0" fill="#252525" transform="matrix(1.00, 0.00, -0.00, -1.00, 716.3, 212.0)">e</text><text xml:space="preserve" font-family="Lunchtype" font-size="36.0" fill="#252525" transform="matrix(1.00, 0.00, -0.00, -1.00, 736.4, 212.0)">v</text><text xml:space="preserve" font-family="Lunchtype" font-size="36.0" fill="#252525" transform="matrix(1.00, 0.00, -0.00, -1.00, 755.2, 212.0)">i</text><text xml:space="preserve" font-family="Lunchtype" font-size="36.0" fill="#252525" transform="matrix(1.00, 0.00, -0.00, -1.00, 762.8, 212.0)">c</text><text xml:space="preserve" font-family="Lunchtype" font-size="36.0" fill="#252525" transform="matrix(1.00, 0.00, -0.00, -1.00, 782.6, 212.0)">e</text><text xml:space="preserve" font-family="Lunchtype" font-size="36.0" fill="#252525" transform="matrix(1.00, 0.00, -0.00, -1.00, 802.7, 212.0)"> </text><text xml:space="preserve" font-family="Lunchtype" font-size="36.0" fill="#252525" transform="matrix(1.00, 0.00, -0.00, -1.00, 813.5, 212.0)">t</text><text xml:space="preserve" font-family="Lunchtype" font-size="36.0" fill="#252525" transform="matrix(1.00, 0.00, -0.00, -1.00, 824.6, 212.0)">h</text><text xml:space="preserve" font-family="Lunchtype" font-size="36.0" fill="#252525" transform="matrix(1.00, 0.00, -0.00, -1.00, 843.7, 212.0)">a</text><text xml:space="preserve" font-family="Lunchtype" font-size="36.0" fill="#252525" transform="matrix(1.00, 0.00, -0.00, -1.00, 862.9, 212.0)">t</text><text xml:space="preserve" font-family="Lunchtype" font-size="36.0" fill="#252525" transform="matrix(1.00, 0.00, -0.00, -1.00, 874.0, 212.0)"> </text><text xml:space="preserve" font-family="Lunchtype" font-size="36.0" fill="#252525" transform="matrix(1.00, 0.00, -0.00, -1.00, 884.8, 212.0)">c</text><text xml:space="preserve" font-family="Lunchtype" font-size="36.0" fill="#252525" transform="matrix(1.00, 0.00, -0.00, -1.00, 904.6, 212.0)">a</text><text xml:space="preserve" font-family="Lunchtype" font-size="36.0" fill="#252525" transform="matrix(1.00, 0.00, -0.00, -1.00, 923.8, 212.0)">n</text><text xml:space="preserve" font-family="Lunchtype" font-size="36.0" fill="#252525" transform="matrix(1.00, 0.00, -0.00, -1.00, 944.8, 212.0)"> </text><text xml:space="preserve" font-family="Lunchtype" font-size="36.0" fill="#252525" transform="matrix(1.00, 0.00, -0.00, -1.00, 955.6, 212.0)">r</text><text xml:space="preserve" font-family="Lunchtype" font-size="36.0" fill="#252525" transform="matrix(1.00, 0.00, -0.00, -1.00, 968.4, 212.0)">a</text><text xml:space="preserve" font-family="Lunchtype" font-size="36.0" fill="#252525" transform="matrix(1.00, 0.00, -0.00, -1.00, 987.6, 212.0)">p</text><text xml:space="preserve" font-family="Lunchtype" font-size="36.0" fill="#252525" transform="matrix(1.00, 0.00, -0.00, -1.00, 1007.3, 212.0)">i</text><text xml:space="preserve" font-family="Lunchtype" font-size="36.0" fill="#252525" transform="matrix(1.00, 0.00, -0.00, -1.00, 1014.9, 212.0)">d</text><text xml:space="preserve" font-family="Lunchtype" font-size="36.0" fill="#252525" transform="matrix(1.00, 0.00, -0.00, -1.00, 1034.5, 212.0)">l</text><text xml:space="preserve" font-family="Lunchtype" font-size="36.0" fill="#252525" transform="matrix(1.00, 0.00, -0.00, -1.00, 1043.0, 212.0)">y</text><text xml:space="preserve" font-family="Lunchtype" font-size="36.0" fill="#252525" transform="matrix(1.00, 0.00, -0.00, -1.00, 1062.2, 212.0)"> </text><text xml:space="preserve" font-family="Lunchtype" font-size="36.0" fill="#252525" transform="matrix(1.00, 0.00, -0.00, -1.00, 1073.0, 212.0)">s</text><text xml:space="preserve" font-family="Lunchtype" font-size="36.0" fill="#252525" transform="matrix(1.00, 0.00, -0.00, -1.00, 1090.5, 212.0)">h</text><text xml:space="preserve" font-family="Lunchtype" font-size="36.0" fill="#252525" transform="matrix(1.00, 0.00, -0.00, -1.00, 1109.7, 212.0)">a</text><text xml:space="preserve" font-family="Lunchtype" font-size="36.0" fill="#252525" transform="matrix(1.00, 0.00, -0.00, -1.00, 1128.9, 212.0)">r</text><text xml:space="preserve" font-family="Lunchtype" font-size="36.0" fill="#252525" transform="matrix(1.00, 0.00, -0.00, -1.00, 1141.7, 212.0)">e</text><text xml:space="preserve" font-family="Lunchtype" font-size="36.0" fill="#252525" transform="matrix(1.00, 0.00, -0.00, -1.00, 1161.8, 212.0)"> </text><text xml:space="preserve" font-family="Lunchtype" font-size="36.0" fill="#252525" transform="matrix(1.00, 0.00, -0.00, -1.00, 1172.6, 212.0)">o</text><text xml:space="preserve" font-family="Lunchtype" font-size="36.0" fill="#252525" transform="matrix(1.00, 0.00, -0.00, -1.00, 1193.3, 212.0)">u</text><text xml:space="preserve" font-family="Lunchtype" font-size="36.0" fill="#252525" transform="matrix(1.00, 0.00, -0.00, -1.00, 1214.2, 212.0)">r</text><text xml:space="preserve" font-family="Lunchtype" font-size="36.0" fill="#252525" transform="matrix(1.00, 0.00, -0.00, -1.00, 1227.1, 212.0)"> </text><text xml:space="preserve" font-family="Lunchtype" font-size="36.0" fill="#252525" transform="matrix(1.00, 0.00, -0.00, -1.00, 1237.9, 212.0)">g</text><text xml:space="preserve" font-family="Lunchtype" font-size="36.0" fill="#252525" transform="matrix(1.00, 0.00, -0.00, -1.00, 1258.8, 212.0)">r</text><text xml:space="preserve" font-family="Lunchtype" font-size="36.0" fill="#252525" transform="matrix(1.00, 0.00, -0.00, -1.00, 1271.6, 212.0)">e</text><text xml:space="preserve" font-family="Lunchtype" font-size="36.0" fill="#252525" transform="matrix(1.00, 0.00, -0.00, -1.00, 1291.7, 212.0)">a</text><text xml:space="preserve" font-family="Lunchtype" font-size="36.0" fill="#252525" transform="matrix(1.00, 0.00, -0.00, -1.00, 1310.9, 212.0)">t</text><text xml:space="preserve" font-family="Lunchtype" font-size="36.0" fill="#252525" transform="matrix(1.00, 0.00, -0.00, -1.00, 1322.0, 212.0)">e</text><text xml:space="preserve" font-family="Lunchtype" font-size="36.0" fill="#252525" transform="matrix(1.00, 0.00, -0.00, -1.00, 1342.1, 212.0)">s</text><text xml:space="preserve" font-family="Lunchtype" font-size="36.0" fill="#252525" transform="matrix(1.00, 0.00, -0.00, -1.00, 1359.7, 212.0)">t</text><text xml:space="preserve" font-family="Lunchtype" font-size="36.0" fill="#252525" transform="matrix(1.00, 0.00, -0.00, -1.00, 1370.8, 212.0)"> </text><text xml:space="preserve" font-family="Lunchtype" font-size="36.0" fill="#252525" transform="matrix(1.00, 0.00, -0.00, -1.00, 394.0, 142.0)">m</text><text xml:space="preserve" font-family="Lunchtype" font-size="36.0" fill="#252525" transform="matrix(1.00, 0.00, -0.00, -1.00, 425.2, 142.0)">o</text><text xml:space="preserve" font-family="Lunchtype" font-size="36.0" fill="#252525" transform="matrix(1.00, 0.00, -0.00, -1.00, 445.8, 142.0)">m</text><text xml:space="preserve" font-family="Lunchtype" font-size="36.0" fill="#252525" transform="matrix(1.00, 0.00, -0.00, -1.00, 477.0, 142.0)">e</text><text xml:space="preserve" font-family="Lunchtype" font-size="36.0" fill="#252525" transform="matrix(1.00, 0.00, -0.00, -1.00, 497.1, 142.0)">n</text><text xml:space="preserve" font-family="Lunchtype" font-size="36.0" fill="#252525" transform="matrix(1.00, 0.00, -0.00, -1.00, 518.1, 142.0)">t</text><text xml:space="preserve" font-family="Lunchtype" font-size="36.0" fill="#252525" transform="matrix(1.00, 0.00, -0.00, -1.00, 529.2, 142.0)">s</text><text xml:space="preserve" font-family="Lunchtype" font-size="36.0" fill="#252525" transform="matrix(1.00, 0.00, -0.00, -1.00, 546.7, 142.0)"> </text><text xml:space="preserve" font-family="Lunchtype" font-size="36.0" fill="#252525" transform="matrix(1.00, 0.00, -0.00, -1.00, 557.5, 142.0)">a</text><text xml:space="preserve" font-family="Lunchtype" font-size="36.0" fill="#252525" transform="matrix(1.00, 0.00, -0.00, -1.00, 576.7, 142.0)">n</text><text xml:space="preserve" font-family="Lunchtype" font-size="36.0" fill="#252525" transform="matrix(1.00, 0.00, -0.00, -1.00, 597.7, 142.0)">d</text><text xml:space="preserve" font-family="Lunchtype" font-size="36.0" fill="#252525" transform="matrix(1.00, 0.00, -0.00, -1.00, 617.3, 142.0)"> </text><text xml:space="preserve" font-family="Lunchtype" font-size="36.0" fill="#252525" transform="matrix(1.00, 0.00, -0.00, -1.00, 628.1, 142.0)">g</text><text xml:space="preserve" font-family="Lunchtype" font-size="36.0" fill="#252525" transform="matrix(1.00, 0.00, -0.00, -1.00, 649.0, 142.0)">i</text><text xml:space="preserve" font-family="Lunchtype" font-size="36.0" fill="#252525" transform="matrix(1.00, 0.00, -0.00, -1.00, 656.7, 142.0)">v</text><text xml:space="preserve" font-family="Lunchtype" font-size="36.0" fill="#252525" transform="matrix(1.00, 0.00, -0.00, -1.00, 675.4, 142.0)">e</text><text xml:space="preserve" font-family="Lunchtype" font-size="36.0" fill="#252525" transform="matrix(1.00, 0.00, -0.00, -1.00, 695.5, 142.0)">s</text><text xml:space="preserve" font-family="Lunchtype" font-size="36.0" fill="#252525" transform="matrix(1.00, 0.00, -0.00, -1.00, 713.1, 142.0)"> </text><text xml:space="preserve" font-family="Lunchtype" font-size="36.0" fill="#252525" transform="matrix(1.00, 0.00, -0.00, -1.00, 723.9, 142.0)">u</text><text xml:space="preserve" font-family="Lunchtype" font-size="36.0" fill="#252525" transform="matrix(1.00, 0.00, -0.00, -1.00, 744.9, 142.0)">s</text><text xml:space="preserve" font-family="Lunchtype" font-size="36.0" fill="#252525" transform="matrix(1.00, 0.00, -0.00, -1.00, 762.4, 142.0)"> </text><text xml:space="preserve" font-family="Lunchtype" font-size="36.0" fill="#252525" transform="matrix(1.00, 0.00, -0.00, -1.00, 773.2, 142.0)">a</text><text xml:space="preserve" font-family="Lunchtype" font-size="36.0" fill="#252525" transform="matrix(1.00, 0.00, -0.00, -1.00, 792.4, 142.0)"> </text><text xml:space="preserve" font-family="Lunchtype" font-size="36.0" fill="#252525" transform="matrix(1.00, 0.00, -0.00, -1.00, 803.2, 142.0)">f</text><text xml:space="preserve" font-family="Lunchtype" font-size="36.0" fill="#252525" transform="matrix(1.00, 0.00, -0.00, -1.00, 814.7, 142.0)">e</text><text xml:space="preserve" font-family="Lunchtype" font-size="36.0" fill="#252525" transform="matrix(1.00, 0.00, -0.00, -1.00, 834.9, 142.0)">e</text><text xml:space="preserve" font-family="Lunchtype" font-size="36.0" fill="#252525" transform="matrix(1.00, 0.00, -0.00, -1.00, 855.0, 142.0)">l</text><text xml:space="preserve" font-family="Lunchtype" font-size="36.0" fill="#252525" transform="matrix(1.00, 0.00, -0.00, -1.00, 863.4, 142.0)">i</text><text xml:space="preserve" font-family="Lunchtype" font-size="36.0" fill="#252525" transform="matrix(1.00, 0.00, -0.00, -1.00, 871.1, 142.0)">n</text><text xml:space="preserve" font-family="Lunchtype" font-size="36.0" fill="#252525" transform="matrix(1.00, 0.00, -0.00, -1.00, 892.1, 142.0)">g</text><text xml:space="preserve" font-family="Lunchtype" font-size="36.0" fill="#252525" transform="matrix(1.00, 0.00, -0.00, -1.00, 912.9, 142.0)"> </text><text xml:space="preserve" font-family="Lunchtype" font-size="36.0" fill="#252525" transform="matrix(1.00, 0.00, -0.00, -1.00, 923.7, 142.0)">o</text><text xml:space="preserve" font-family="Lunchtype" font-size="36.0" fill="#252525" transform="matrix(1.00, 0.00, -0.00, -1.00, 944.4, 142.0)">f</text><text xml:space="preserve" font-family="Lunchtype" font-size="36.0" fill="#252525" transform="matrix(1.00, 0.00, -0.00, -1.00, 955.9, 142.0)"> </text><text xml:space="preserve" font-family="Lunchtype" font-size="36.0" fill="#252525" transform="matrix(1.00, 0.00, -0.00, -1.00, 966.7, 142.0)">a</text><text xml:space="preserve" font-family="Lunchtype" font-size="36.0" fill="#252525" transform="matrix(1.00, 0.00, -0.00, -1.00, 985.9, 142.0)">c</text><text xml:space="preserve" font-family="Lunchtype" font-size="36.0" fill="#252525" transform="matrix(1.00, 0.00, -0.00, -1.00, 1005.6, 142.0)">c</text><text xml:space="preserve" font-family="Lunchtype" font-size="36.0" fill="#252525" transform="matrix(1.00, 0.00, -0.00, -1.00, 1025.4, 142.0)">o</text><text xml:space="preserve" font-family="Lunchtype" font-size="36.0" fill="#252525" transform="matrix(1.00, 0.00, -0.00, -1.00, 1046.0, 142.0)">m</text><text xml:space="preserve" font-family="Lunchtype" font-size="36.0" fill="#252525" transform="matrix(1.00, 0.00, -0.00, -1.00, 1077.2, 142.0)">p</text><text xml:space="preserve" font-family="Lunchtype" font-size="36.0" fill="#252525" transform="matrix(1.00, 0.00, -0.00, -1.00, 1096.9, 142.0)">l</text><text xml:space="preserve" font-family="Lunchtype" font-size="36.0" fill="#252525" transform="matrix(1.00, 0.00, -0.00, -1.00, 1105.4, 142.0)">i</text><text xml:space="preserve" font-family="Lunchtype" font-size="36.0" fill="#252525" transform="matrix(1.00, 0.00, -0.00, -1.00, 1113.0, 142.0)">s</text><text xml:space="preserve" font-family="Lunchtype" font-size="36.0" fill="#252525" transform="matrix(1.00, 0.00, -0.00, -1.00, 1130.6, 142.0)">h</text><text xml:space="preserve" font-family="Lunchtype" font-size="36.0" fill="#252525" transform="matrix(1.00, 0.00, -0.00, -1.00, 1149.7, 142.0)">m</text><text xml:space="preserve" font-family="Lunchtype" font-size="36.0" fill="#252525" transform="matrix(1.00, 0.00, -0.00, -1.00, 1180.9, 142.0)">e</text><text xml:space="preserve" font-family="Lunchtype" font-size="36.0" fill="#252525" transform="matrix(1.00, 0.00, -0.00, -1.00, 1201.0, 142.0)">n</text><text xml:space="preserve" font-family="Lunchtype" font-size="36.0" fill="#252525" transform="matrix(1.00, 0.00, -0.00, -1.00, 1222.0, 142.0)">t</text><text xml:space="preserve" font-family="Lunchtype" font-size="36.0" fill="#252525" transform="matrix(1.00, 0.00, -0.00, -1.00, 1233.1, 142.0)">.</text></g></svg>