<?xml version="1.0" encoding="UTF-8"?><svg xmlns="http://www.w3.org/2000/svg" xmlns:xlink="http://www.w3.org/1999/xlink" clip-rule="evenodd" stroke-miterlimit="4.00" viewBox="0 0 1309 45"><desc>SVG generated by Keynote</desc><defs></defs><g transform="matrix(1.00, 0.00, -0.00, -1.00, 0.0, 45.0)"><text xml:space="preserve" font-family="Helvetica" font-size="44.0" fill="#FEFFFE" transform="matrix(1.00, 0.00, -0.00, -1.00, -3.0, 11.0)">I</text><text xml:space="preserve" font-family="Helvetica" font-size="44.0" fill="#FEFFFE" transform="matrix(1.00, 0.00, -0.00, -1.00, 9.2, 11.0)">n</text><text xml:space="preserve" font-family="Helvetica" font-size="44.0" fill="#FEFFFE" transform="matrix(1.00, 0.00, -0.00, -1.00, 33.7, 11.0)"> </text><text xml:space="preserve" font-family="Helvetica" font-size="44.0" fill="#FEFFFE" transform="matrix(1.00, 0.00, -0.00, -1.00, 45.9, 11.0)">t</text><text xml:space="preserve" font-family="Helvetica" font-size="44.0" fill="#FEFFFE" transform="matrix(1.00, 0.00, -0.00, -1.00, 58.1, 11.0)">h</text><text xml:space="preserve" font-family="Helvetica" font-size="44.0" fill="#FEFFFE" transform="matrix(1.00, 0.00, -0.00, -1.00, 82.6, 11.0)">e</text><text xml:space="preserve" font-family="Helvetica" font-size="44.0" fill="#FEFFFE" transform="matrix(1.00, 0.00, -0.00, -1.00, 107.1, 11.0)"> </text><text xml:space="preserve" font-family="Helvetica" font-size="44.0" fill="#FEFFFE" transform="matrix(1.00, 0.00, -0.00, -1.00, 119.3, 11.0)">3</text><text xml:space="preserve" font-family="Helvetica" font-size="44.0" fill="#FEFFFE" transform="matrix(1.00, 0.00, -0.00, -1.00, 143.8, 11.0)"> </text><text xml:space="preserve" font-family="Helvetica" font-size="44.0" fill="#FEFFFE" transform="matrix(1.00, 0.00, -0.00, -1.00, 156.0, 11.0)">d</text><text xml:space="preserve" font-family="Helvetica" font-size="44.0" fill="#FEFFFE" transform="matrix(1.00, 0.00, -0.00, -1.00, 180.5, 11.0)">a</text><text xml:space="preserve" font-family="Helvetica" font-size="44.0" fill="#FEFFFE" transform="matrix(1.00, 0.00, -0.00, -1.00, 205.0, 11.0)">y</text><text xml:space="preserve" font-family="Helvetica" font-size="44.0" fill="#FEFFFE" transform="matrix(1.00, 0.00, -0.00, -1.00, 227.0, 11.0)"> </text><text xml:space="preserve" font-family="Helvetica" font-size="44.0" fill="#FEFFFE" transform="matrix(1.00, 0.00, -0.00, -1.00, 239.2, 11.0)">s</text><text xml:space="preserve" font-family="Helvetica" font-size="44.0" fill="#FEFFFE" transform="matrix(1.00, 0.00, -0.00, -1.00, 261.2, 11.0)">p</text><text xml:space="preserve" font-family="Helvetica" font-size="44.0" fill="#FEFFFE" transform="matrix(1.00, 0.00, -0.00, -1.00, 285.7, 11.0)">a</text><text xml:space="preserve" font-family="Helvetica" font-size="44.0" fill="#FEFFFE" transform="matrix(1.00, 0.00, -0.00, -1.00, 310.1, 11.0)">n</text><text xml:space="preserve" font-family="Helvetica" font-size="44.0" fill="#FEFFFE" transform="matrix(1.00, 0.00, -0.00, -1.00, 334.6, 11.0)"> </text><text xml:space="preserve" font-family="Helvetica" font-size="44.0" fill="#FEFFFE" transform="matrix(1.00, 0.00, -0.00, -1.00, 346.8, 11.0)">I</text><text xml:space="preserve" font-family="Helvetica" font-size="44.0" fill="#FEFFFE" transform="matrix(1.00, 0.00, -0.00, -1.00, 359.0, 11.0)"> </text><text xml:space="preserve" font-family="Helvetica" font-size="44.0" fill="#FEFFFE" transform="matrix(1.00, 0.00, -0.00, -1.00, 371.3, 11.0)">w</text><text xml:space="preserve" font-family="Helvetica" font-size="44.0" fill="#FEFFFE" transform="matrix(1.00, 0.00, -0.00, -1.00, 403.0, 11.0)">a</text><text xml:space="preserve" font-family="Helvetica" font-size="44.0" fill="#FEFFFE" transform="matrix(1.00, 0.00, -0.00, -1.00, 427.5, 11.0)">s</text><text xml:space="preserve" font-family="Helvetica" font-size="44.0" fill="#FEFFFE" transform="matrix(1.00, 0.00, -0.00, -1.00, 449.5, 11.0)"> </text><text xml:space="preserve" font-family="Helvetica" font-size="44.0" fill="#FEFFFE" transform="matrix(1.00, 0.00, -0.00, -1.00, 461.7, 11.0)">a</text><text xml:space="preserve" font-family="Helvetica" font-size="44.0" fill="#FEFFFE" transform="matrix(1.00, 0.00, -0.00, -1.00, 486.2, 11.0)">b</text><text xml:space="preserve" font-family="Helvetica" font-size="44.0" fill="#FEFFFE" transform="matrix(1.00, 0.00, -0.00, -1.00, 510.7, 11.0)">l</text><text xml:space="preserve" font-family="Helvetica" font-size="44.0" fill="#FEFFFE" transform="matrix(1.00, 0.00, -0.00, -1.00, 520.5, 11.0)">e</text><text xml:space="preserve" font-family="Helvetica" font-size="44.0" fill="#FEFFFE" transform="matrix(1.00, 0.00, -0.00, -1.00, 545.0, 11.0)"> </text><text xml:space="preserve" font-family="Helvetica" font-size="44.0" fill="#FEFFFE" transform="matrix(1.00, 0.00, -0.00, -1.00, 557.2, 11.0)">t</text><text xml:space="preserve" font-family="Helvetica" font-size="44.0" fill="#FEFFFE" transform="matrix(1.00, 0.00, -0.00, -1.00, 569.4, 11.0)">o</text><text xml:space="preserve" font-family="Helvetica" font-size="44.0" fill="#FEFFFE" transform="matrix(1.00, 0.00, -0.00, -1.00, 593.9, 11.0)"> </text><text xml:space="preserve" font-family="Helvetica" font-size="44.0" fill="#FEFFFE" transform="matrix(1.00, 0.00, -0.00, -1.00, 606.1, 11.0)">c</text><text xml:space="preserve" font-family="Helvetica" font-size="44.0" fill="#FEFFFE" transform="matrix(1.00, 0.00, -0.00, -1.00, 628.1, 11.0)">a</text><text xml:space="preserve" font-family="Helvetica" font-size="44.0" fill="#FEFFFE" transform="matrix(1.00, 0.00, -0.00, -1.00, 652.6, 11.0)">p</text><text xml:space="preserve" font-family="Helvetica" font-size="44.0" fill="#FEFFFE" transform="matrix(1.00, 0.00, -0.00, -1.00, 677.0, 11.0)">t</text><text xml:space="preserve" font-family="Helvetica" font-size="44.0" fill="#FEFFFE" transform="matrix(1.00, 0.00, -0.00, -1.00, 689.3, 11.0)">u</text><text xml:space="preserve" font-family="Helvetica" font-size="44.0" fill="#FEFFFE" transform="matrix(1.00, 0.00, -0.00, -1.00, 713.7, 11.0)">r</text><text xml:space="preserve" font-family="Helvetica" font-size="44.0" fill="#FEFFFE" transform="matrix(1.00, 0.00, -0.00, -1.00, 728.4, 11.0)">e</text><text xml:space="preserve" font-family="Helvetica" font-size="44.0" fill="#FEFFFE" transform="matrix(1.00, 0.00, -0.00, -1.00, 752.9, 11.0)"> </text><text xml:space="preserve" font-family="Helvetica" font-size="44.0" fill="#FEFFFE" transform="matrix(1.00, 0.00, -0.00, -1.00, 765.1, 11.0)">1</text><text xml:space="preserve" font-family="Helvetica" font-size="44.0" fill="#FEFFFE" transform="matrix(1.00, 0.00, -0.00, -1.00, 789.6, 11.0)">9</text><text xml:space="preserve" font-family="Helvetica" font-size="44.0" fill="#FEFFFE" transform="matrix(1.00, 0.00, -0.00, -1.00, 814.0, 11.0)"> </text><text xml:space="preserve" font-family="Helvetica" font-size="44.0" fill="#FEFFFE" transform="matrix(1.00, 0.00, -0.00, -1.00, 826.3, 11.0)">v</text><text xml:space="preserve" font-family="Helvetica" font-size="44.0" fill="#FEFFFE" transform="matrix(1.00, 0.00, -0.00, -1.00, 848.3, 11.0)">i</text><text xml:space="preserve" font-family="Helvetica" font-size="44.0" fill="#FEFFFE" transform="matrix(1.00, 0.00, -0.00, -1.00, 858.0, 11.0)">d</text><text xml:space="preserve" font-family="Helvetica" font-size="44.0" fill="#FEFFFE" transform="matrix(1.00, 0.00, -0.00, -1.00, 882.5, 11.0)">e</text><text xml:space="preserve" font-family="Helvetica" font-size="44.0" fill="#FEFFFE" transform="matrix(1.00, 0.00, -0.00, -1.00, 907.0, 11.0)">o</text><text xml:space="preserve" font-family="Helvetica" font-size="44.0" fill="#FEFFFE" transform="matrix(1.00, 0.00, -0.00, -1.00, 931.5, 11.0)">s</text><text xml:space="preserve" font-family="Helvetica" font-size="44.0" fill="#FEFFFE" transform="matrix(1.00, 0.00, -0.00, -1.00, 953.5, 11.0)"> </text><text xml:space="preserve" font-family="Helvetica" font-size="44.0" fill="#FEFFFE" transform="matrix(1.00, 0.00, -0.00, -1.00, 965.7, 11.0)">s</text><text xml:space="preserve" font-family="Helvetica" font-size="44.0" fill="#FEFFFE" transform="matrix(1.00, 0.00, -0.00, -1.00, 987.7, 11.0)">i</text><text xml:space="preserve" font-family="Helvetica" font-size="44.0" fill="#FEFFFE" transform="matrix(1.00, 0.00, -0.00, -1.00, 997.5, 11.0)">m</text><text xml:space="preserve" font-family="Helvetica" font-size="44.0" fill="#FEFFFE" transform="matrix(1.00, 0.00, -0.00, -1.00, 1034.1, 11.0)">i</text><text xml:space="preserve" font-family="Helvetica" font-size="44.0" fill="#FEFFFE" transform="matrix(1.00, 0.00, -0.00, -1.00, 1043.9, 11.0)">l</text><text xml:space="preserve" font-family="Helvetica" font-size="44.0" fill="#FEFFFE" transform="matrix(1.00, 0.00, -0.00, -1.00, 1053.7, 11.0)">a</text><text xml:space="preserve" font-family="Helvetica" font-size="44.0" fill="#FEFFFE" transform="matrix(1.00, 0.00, -0.00, -1.00, 1078.2, 11.0)">r</text><text xml:space="preserve" font-family="Helvetica" font-size="44.0" fill="#FEFFFE" transform="matrix(1.00, 0.00, -0.00, -1.00, 1092.8, 11.0)"> </text><text xml:space="preserve" font-family="Helvetica" font-size="44.0" fill="#FEFFFE" transform="matrix(1.00, 0.00, -0.00, -1.00, 1105.1, 11.0)">t</text><text xml:space="preserve" font-family="Helvetica" font-size="44.0" fill="#FEFFFE" transform="matrix(1.00, 0.00, -0.00, -1.00, 1117.3, 11.0)">o</text><text xml:space="preserve" font-family="Helvetica" font-size="44.0" fill="#FEFFFE" transform="matrix(1.00, 0.00, -0.00, -1.00, 1141.8, 11.0)"> </text><text xml:space="preserve" font-family="Helvetica" font-size="44.0" fill="#FEFFFE" transform="matrix(1.00, 0.00, -0.00, -1.00, 1154.0, 11.0)">t</text><text xml:space="preserve" font-family="Helvetica" font-size="44.0" fill="#FEFFFE" transform="matrix(1.00, 0.00, -0.00, -1.00, 1166.2, 11.0)">h</text><text xml:space="preserve" font-family="Helvetica" font-size="44.0" fill="#FEFFFE" transform="matrix(1.00, 0.00, -0.00, -1.00, 1190.7, 11.0)">i</text><text xml:space="preserve" font-family="Helvetica" font-size="44.0" fill="#FEFFFE" transform="matrix(1.00, 0.00, -0.00, -1.00, 1200.4, 11.0)">s</text><text xml:space="preserve" font-family="Helvetica" font-size="44.0" fill="#FEFFFE" transform="matrix(1.00, 0.00, -0.00, -1.00, 1222.4, 11.0)"> </text><text xml:space="preserve" font-family="Helvetica" font-size="44.0" fill="#FEFFFE" transform="matrix(1.00, 0.00, -0.00, -1.00, 1234.7, 11.0)">o</text><text xml:space="preserve" font-family="Helvetica" font-size="44.0" fill="#FEFFFE" transform="matrix(1.00, 0.00, -0.00, -1.00, 1259.1, 11.0)">n</text><text xml:space="preserve" font-family="Helvetica" font-size="44.0" fill="#FEFFFE" transform="matrix(1.00, 0.00, -0.00, -1.00, 1283.6, 11.0)">e</text></g></svg>