<?xml version="1.0" encoding="UTF-8"?><svg xmlns="http://www.w3.org/2000/svg" xmlns:xlink="http://www.w3.org/1999/xlink" clip-rule="evenodd" stroke-miterlimit="4.00" viewBox="0 0 1920 1080"><desc>SVG generated by Keynote</desc><defs></defs><g transform="matrix(1.00, 0.00, -0.00, -1.00, 0.0, 1080.0)"><path d="M 0.0 0.0 L 1920.0 0.0 L 1920.0 1080.0 L 0.0 1080.0 Z M 0.0 0.0 " fill="#000000"></path><text xml:space="preserve" font-family="Lunchtype" font-size="130.0" fill="#FEFFFF" transform="matrix(1.00, 0.00, -0.00, -1.00, 524.0, 480.0)">T</text><text xml:space="preserve" font-family="Lunchtype" font-size="130.0" fill="#FEFFFF" transform="matrix(1.00, 0.00, -0.00, -1.00, 596.0, 480.0)">h</text><text xml:space="preserve" font-family="Lunchtype" font-size="130.0" fill="#FEFFFF" transform="matrix(1.00, 0.00, -0.00, -1.00, 665.2, 480.0)">e</text><text xml:space="preserve" font-family="Lunchtype" font-size="130.0" fill="#FEFFFF" transform="matrix(1.00, 0.00, -0.00, -1.00, 737.9, 480.0)"> </text><text xml:space="preserve" font-family="Lunchtype" font-size="130.0" fill="#FEFFFF" transform="matrix(1.00, 0.00, -0.00, -1.00, 776.9, 480.0)">h</text><text xml:space="preserve" font-family="Lunchtype" font-size="130.0" fill="#FEFFFF" transform="matrix(1.00, 0.00, -0.00, -1.00, 846.0, 480.0)">y</text><text xml:space="preserve" font-family="Lunchtype" font-size="130.0" fill="#FEFFFF" transform="matrix(1.00, 0.00, -0.00, -1.00, 915.2, 480.0)">p</text><text xml:space="preserve" font-family="Lunchtype" font-size="130.0" fill="#FEFFFF" transform="matrix(1.00, 0.00, -0.00, -1.00, 986.3, 480.0)">o</text><text xml:space="preserve" font-family="Lunchtype" font-size="130.0" fill="#FEFFFF" transform="matrix(1.00, 0.00, -0.00, -1.00, 1060.8, 480.0)">t</text><text xml:space="preserve" font-family="Lunchtype" font-size="130.0" fill="#FEFFFF" transform="matrix(1.00, 0.00, -0.00, -1.00, 1100.8, 480.0)">h</text><text xml:space="preserve" font-family="Lunchtype" font-size="130.0" fill="#FEFFFF" transform="matrix(1.00, 0.00, -0.00, -1.00, 1170.0, 480.0)">e</text><text xml:space="preserve" font-family="Lunchtype" font-size="130.0" fill="#FEFFFF" transform="matrix(1.00, 0.00, -0.00, -1.00, 1242.6, 480.0)">s</text><text xml:space="preserve" font-family="Lunchtype" font-size="130.0" fill="#FEFFFF" transform="matrix(1.00, 0.00, -0.00, -1.00, 1306.1, 480.0)">i</text><text xml:space="preserve" font-family="Lunchtype" font-size="130.0" fill="#FEFFFF" transform="matrix(1.00, 0.00, -0.00, -1.00, 1333.6, 480.0)">s</text><text xml:space="preserve" font-family="Helvetica" font-size="18.0" fill="#BEBEBE" transform="matrix(1.00, 0.00, -0.00, -1.00, 1812.0, 62.0)">2</text><text xml:space="preserve" font-family="Helvetica" font-size="18.0" fill="#BEBEBE" transform="matrix(1.00, 0.00, -0.00, -1.00, 1822.0, 62.0)">6</text></g></svg>