<?xml version="1.0" encoding="UTF-8"?><svg xmlns="http://www.w3.org/2000/svg" xmlns:xlink="http://www.w3.org/1999/xlink" clip-rule="evenodd" stroke-miterlimit="4.00" viewBox="0 0 1920 1080"><desc>SVG generated by Keynote</desc><defs></defs><g transform="matrix(1.00, 0.00, -0.00, -1.00, 0.0, 1080.0)"><path d="M 0.0 0.0 L 1920.0 0.0 L 1920.0 1080.0 L 0.0 1080.0 Z M 0.0 0.0 " fill="#FEFFFF"></path><text xml:space="preserve" font-family="Helvetica-Bold" font-weight="bold" font-size="18.0" fill="#FEFFFE" transform="matrix(1.00, 0.00, -0.00, -1.00, 90.0, 980.0)">S</text><text xml:space="preserve" font-family="Helvetica-Bold" font-weight="bold" font-size="18.0" fill="#FEFFFE" transform="matrix(1.00, 0.00, -0.00, -1.00, 102.0, 980.0)">E</text><text xml:space="preserve" font-family="Helvetica-Bold" font-weight="bold" font-size="18.0" fill="#FEFFFE" transform="matrix(1.00, 0.00, -0.00, -1.00, 114.0, 980.0)">C</text><text xml:space="preserve" font-family="Helvetica-Bold" font-weight="bold" font-size="18.0" fill="#FEFFFE" transform="matrix(1.00, 0.00, -0.00, -1.00, 127.0, 980.0)">T</text><text xml:space="preserve" font-family="Helvetica-Bold" font-weight="bold" font-size="18.0" fill="#FEFFFE" transform="matrix(1.00, 0.00, -0.00, -1.00, 138.0, 980.0)">I</text><text xml:space="preserve" font-family="Helvetica-Bold" font-weight="bold" font-size="18.0" fill="#FEFFFE" transform="matrix(1.00, 0.00, -0.00, -1.00, 143.0, 980.0)">O</text><text xml:space="preserve" font-family="Helvetica-Bold" font-weight="bold" font-size="18.0" fill="#FEFFFE" transform="matrix(1.00, 0.00, -0.00, -1.00, 157.0, 980.0)">N</text><text xml:space="preserve" font-family="Lunchtype" font-size="36.0" fill="#252525" transform="matrix(1.00, 0.00, -0.00, -1.00, 454.0, 399.0)">P</text><text xml:space="preserve" font-family="Lunchtype" font-size="36.0" fill="#252525" transform="matrix(1.00, 0.00, -0.00, -1.00, 474.4, 399.0)">e</text><text xml:space="preserve" font-family="Lunchtype" font-size="36.0" fill="#252525" transform="matrix(1.00, 0.00, -0.00, -1.00, 494.5, 399.0)">o</text><text xml:space="preserve" font-family="Lunchtype" font-size="36.0" fill="#252525" transform="matrix(1.00, 0.00, -0.00, -1.00, 515.2, 399.0)">p</text><text xml:space="preserve" font-family="Lunchtype" font-size="36.0" fill="#252525" transform="matrix(1.00, 0.00, -0.00, -1.00, 534.9, 399.0)">l</text><text xml:space="preserve" font-family="Lunchtype" font-size="36.0" fill="#252525" transform="matrix(1.00, 0.00, -0.00, -1.00, 543.3, 399.0)">e</text><text xml:space="preserve" font-family="Lunchtype" font-size="36.0" fill="#252525" transform="matrix(1.00, 0.00, -0.00, -1.00, 563.4, 399.0)"> </text><text xml:space="preserve" font-family="Lunchtype" font-size="36.0" fill="#252525" transform="matrix(1.00, 0.00, -0.00, -1.00, 574.2, 399.0)">s</text><text xml:space="preserve" font-family="Lunchtype" font-size="36.0" fill="#252525" transform="matrix(1.00, 0.00, -0.00, -1.00, 591.8, 399.0)">p</text><text xml:space="preserve" font-family="Lunchtype" font-size="36.0" fill="#252525" transform="matrix(1.00, 0.00, -0.00, -1.00, 611.5, 399.0)">e</text><text xml:space="preserve" font-family="Lunchtype" font-size="36.0" fill="#252525" transform="matrix(1.00, 0.00, -0.00, -1.00, 631.6, 399.0)">n</text><text xml:space="preserve" font-family="Lunchtype" font-size="36.0" fill="#252525" transform="matrix(1.00, 0.00, -0.00, -1.00, 652.6, 399.0)">d</text><text xml:space="preserve" font-family="Lunchtype" font-size="36.0" fill="#252525" transform="matrix(1.00, 0.00, -0.00, -1.00, 672.2, 399.0)"> </text><text xml:space="preserve" font-family="Lunchtype" font-size="36.0" fill="#252525" transform="matrix(1.00, 0.00, -0.00, -1.00, 683.0, 399.0)">s</text><text xml:space="preserve" font-family="Lunchtype" font-size="36.0" fill="#252525" transform="matrix(1.00, 0.00, -0.00, -1.00, 700.6, 399.0)">o</text><text xml:space="preserve" font-family="Lunchtype" font-size="36.0" fill="#252525" transform="matrix(1.00, 0.00, -0.00, -1.00, 721.2, 399.0)"> </text><text xml:space="preserve" font-family="Lunchtype" font-size="36.0" fill="#252525" transform="matrix(1.00, 0.00, -0.00, -1.00, 732.0, 399.0)">m</text><text xml:space="preserve" font-family="Lunchtype" font-size="36.0" fill="#252525" transform="matrix(1.00, 0.00, -0.00, -1.00, 763.2, 399.0)">u</text><text xml:space="preserve" font-family="Lunchtype" font-size="36.0" fill="#252525" transform="matrix(1.00, 0.00, -0.00, -1.00, 784.2, 399.0)">c</text><text xml:space="preserve" font-family="Lunchtype" font-size="36.0" fill="#252525" transform="matrix(1.00, 0.00, -0.00, -1.00, 803.9, 399.0)">h</text><text xml:space="preserve" font-family="Lunchtype" font-size="36.0" fill="#252525" transform="matrix(1.00, 0.00, -0.00, -1.00, 823.1, 399.0)"> </text><text xml:space="preserve" font-family="Lunchtype" font-size="36.0" fill="#252525" transform="matrix(1.00, 0.00, -0.00, -1.00, 833.9, 399.0)">t</text><text xml:space="preserve" font-family="Lunchtype" font-size="36.0" fill="#252525" transform="matrix(1.00, 0.00, -0.00, -1.00, 845.0, 399.0)">i</text><text xml:space="preserve" font-family="Lunchtype" font-size="36.0" fill="#252525" transform="matrix(1.00, 0.00, -0.00, -1.00, 852.6, 399.0)">m</text><text xml:space="preserve" font-family="Lunchtype" font-size="36.0" fill="#252525" transform="matrix(1.00, 0.00, -0.00, -1.00, 883.8, 399.0)">e</text><text xml:space="preserve" font-family="Lunchtype" font-size="36.0" fill="#252525" transform="matrix(1.00, 0.00, -0.00, -1.00, 903.9, 399.0)"> </text><text xml:space="preserve" font-family="Lunchtype" font-size="36.0" fill="#252525" transform="matrix(1.00, 0.00, -0.00, -1.00, 914.7, 399.0)">o</text><text xml:space="preserve" font-family="Lunchtype" font-size="36.0" fill="#252525" transform="matrix(1.00, 0.00, -0.00, -1.00, 935.3, 399.0)">n</text><text xml:space="preserve" font-family="Lunchtype" font-size="36.0" fill="#252525" transform="matrix(1.00, 0.00, -0.00, -1.00, 956.3, 399.0)"> </text><text xml:space="preserve" font-family="Lunchtype" font-size="36.0" fill="#252525" transform="matrix(1.00, 0.00, -0.00, -1.00, 967.1, 399.0)">t</text><text xml:space="preserve" font-family="Lunchtype" font-size="36.0" fill="#252525" transform="matrix(1.00, 0.00, -0.00, -1.00, 978.2, 399.0)">h</text><text xml:space="preserve" font-family="Lunchtype" font-size="36.0" fill="#252525" transform="matrix(1.00, 0.00, -0.00, -1.00, 997.3, 399.0)">e</text><text xml:space="preserve" font-family="Lunchtype" font-size="36.0" fill="#252525" transform="matrix(1.00, 0.00, -0.00, -1.00, 1017.5, 399.0)">i</text><text xml:space="preserve" font-family="Lunchtype" font-size="36.0" fill="#252525" transform="matrix(1.00, 0.00, -0.00, -1.00, 1025.1, 399.0)">r</text><text xml:space="preserve" font-family="Lunchtype" font-size="36.0" fill="#252525" transform="matrix(1.00, 0.00, -0.00, -1.00, 1038.0, 399.0)"> </text><text xml:space="preserve" font-family="Lunchtype" font-size="36.0" fill="#252525" transform="matrix(1.00, 0.00, -0.00, -1.00, 1048.8, 399.0)">p</text><text xml:space="preserve" font-family="Lunchtype" font-size="36.0" fill="#252525" transform="matrix(1.00, 0.00, -0.00, -1.00, 1068.4, 399.0)">h</text><text xml:space="preserve" font-family="Lunchtype" font-size="36.0" fill="#252525" transform="matrix(1.00, 0.00, -0.00, -1.00, 1087.6, 399.0)">o</text><text xml:space="preserve" font-family="Lunchtype" font-size="36.0" fill="#252525" transform="matrix(1.00, 0.00, -0.00, -1.00, 1108.2, 399.0)">n</text><text xml:space="preserve" font-family="Lunchtype" font-size="36.0" fill="#252525" transform="matrix(1.00, 0.00, -0.00, -1.00, 1129.2, 399.0)">e</text><text xml:space="preserve" font-family="Lunchtype" font-size="36.0" fill="#252525" transform="matrix(1.00, 0.00, -0.00, -1.00, 1149.3, 399.0)">s</text><text xml:space="preserve" font-family="Lunchtype" font-size="36.0" fill="#252525" transform="matrix(1.00, 0.00, -0.00, -1.00, 1166.9, 399.0)"> </text><text xml:space="preserve" font-family="Lunchtype" font-size="36.0" fill="#252525" transform="matrix(1.00, 0.00, -0.00, -1.00, 1177.7, 399.0)">b</text><text xml:space="preserve" font-family="Lunchtype" font-size="36.0" fill="#252525" transform="matrix(1.00, 0.00, -0.00, -1.00, 1197.4, 399.0)">e</text><text xml:space="preserve" font-family="Lunchtype" font-size="36.0" fill="#252525" transform="matrix(1.00, 0.00, -0.00, -1.00, 1217.5, 399.0)">c</text><text xml:space="preserve" font-family="Lunchtype" font-size="36.0" fill="#252525" transform="matrix(1.00, 0.00, -0.00, -1.00, 1237.3, 399.0)">a</text><text xml:space="preserve" font-family="Lunchtype" font-size="36.0" fill="#252525" transform="matrix(1.00, 0.00, -0.00, -1.00, 1256.5, 399.0)">u</text><text xml:space="preserve" font-family="Lunchtype" font-size="36.0" fill="#252525" transform="matrix(1.00, 0.00, -0.00, -1.00, 1277.4, 399.0)">s</text><text xml:space="preserve" font-family="Lunchtype" font-size="36.0" fill="#252525" transform="matrix(1.00, 0.00, -0.00, -1.00, 1295.0, 399.0)">e</text><text xml:space="preserve" font-family="Lunchtype" font-size="36.0" fill="#252525" transform="matrix(1.00, 0.00, -0.00, -1.00, 1315.1, 399.0)"> </text><text xml:space="preserve" font-family="Lunchtype" font-size="36.0" fill="#252525" transform="matrix(1.00, 0.00, -0.00, -1.00, 1325.9, 399.0)">t</text><text xml:space="preserve" font-family="Lunchtype" font-size="36.0" fill="#252525" transform="matrix(1.00, 0.00, -0.00, -1.00, 1337.0, 399.0)">h</text><text xml:space="preserve" font-family="Lunchtype" font-size="36.0" fill="#252525" transform="matrix(1.00, 0.00, -0.00, -1.00, 1356.2, 399.0)">e</text><text xml:space="preserve" font-family="Lunchtype" font-size="36.0" fill="#252525" transform="matrix(1.00, 0.00, -0.00, -1.00, 1376.3, 399.0)"> </text><text xml:space="preserve" font-family="Lunchtype" font-size="36.0" fill="#252525" transform="matrix(1.00, 0.00, -0.00, -1.00, 1387.1, 399.0)">m</text><text xml:space="preserve" font-family="Lunchtype" font-size="36.0" fill="#252525" transform="matrix(1.00, 0.00, -0.00, -1.00, 1418.3, 399.0)">o</text><text xml:space="preserve" font-family="Lunchtype" font-size="36.0" fill="#252525" transform="matrix(1.00, 0.00, -0.00, -1.00, 1438.9, 399.0)">d</text><text xml:space="preserve" font-family="Lunchtype" font-size="36.0" fill="#252525" transform="matrix(1.00, 0.00, -0.00, -1.00, 1458.5, 399.0)">e</text><text xml:space="preserve" font-family="Lunchtype" font-size="36.0" fill="#252525" transform="matrix(1.00, 0.00, -0.00, -1.00, 1478.6, 399.0)"> </text><text xml:space="preserve" font-family="Lunchtype" font-size="36.0" fill="#252525" transform="matrix(1.00, 0.00, -0.00, -1.00, 1489.4, 399.0)">o</text><text xml:space="preserve" font-family="Lunchtype" font-size="36.0" fill="#252525" transform="matrix(1.00, 0.00, -0.00, -1.00, 1510.1, 399.0)">f</text><text xml:space="preserve" font-family="Lunchtype" font-size="36.0" fill="#252525" transform="matrix(1.00, 0.00, -0.00, -1.00, 1521.6, 399.0)"> </text><text xml:space="preserve" font-family="Lunchtype" font-size="36.0" fill="#252525" transform="matrix(1.00, 0.00, -0.00, -1.00, 394.0, 329.0)">t</text><text xml:space="preserve" font-family="Lunchtype" font-size="36.0" fill="#252525" transform="matrix(1.00, 0.00, -0.00, -1.00, 405.1, 329.0)">r</text><text xml:space="preserve" font-family="Lunchtype" font-size="36.0" fill="#252525" transform="matrix(1.00, 0.00, -0.00, -1.00, 417.9, 329.0)">a</text><text xml:space="preserve" font-family="Lunchtype" font-size="36.0" fill="#252525" transform="matrix(1.00, 0.00, -0.00, -1.00, 437.1, 329.0)">n</text><text xml:space="preserve" font-family="Lunchtype" font-size="36.0" fill="#252525" transform="matrix(1.00, 0.00, -0.00, -1.00, 458.1, 329.0)">s</text><text xml:space="preserve" font-family="Lunchtype" font-size="36.0" fill="#252525" transform="matrix(1.00, 0.00, -0.00, -1.00, 475.7, 329.0)">p</text><text xml:space="preserve" font-family="Lunchtype" font-size="36.0" fill="#252525" transform="matrix(1.00, 0.00, -0.00, -1.00, 495.4, 329.0)">o</text><text xml:space="preserve" font-family="Lunchtype" font-size="36.0" fill="#252525" transform="matrix(1.00, 0.00, -0.00, -1.00, 516.0, 329.0)">r</text><text xml:space="preserve" font-family="Lunchtype" font-size="36.0" fill="#252525" transform="matrix(1.00, 0.00, -0.00, -1.00, 528.9, 329.0)">t</text><text xml:space="preserve" font-family="Lunchtype" font-size="36.0" fill="#252525" transform="matrix(1.00, 0.00, -0.00, -1.00, 539.9, 329.0)">a</text><text xml:space="preserve" font-family="Lunchtype" font-size="36.0" fill="#252525" transform="matrix(1.00, 0.00, -0.00, -1.00, 559.1, 329.0)">t</text><text xml:space="preserve" font-family="Lunchtype" font-size="36.0" fill="#252525" transform="matrix(1.00, 0.00, -0.00, -1.00, 570.2, 329.0)">i</text><text xml:space="preserve" font-family="Lunchtype" font-size="36.0" fill="#252525" transform="matrix(1.00, 0.00, -0.00, -1.00, 577.9, 329.0)">o</text><text xml:space="preserve" font-family="Lunchtype" font-size="36.0" fill="#252525" transform="matrix(1.00, 0.00, -0.00, -1.00, 598.5, 329.0)">n</text><text xml:space="preserve" font-family="Lunchtype" font-size="36.0" fill="#252525" transform="matrix(1.00, 0.00, -0.00, -1.00, 619.5, 329.0)"> </text><text xml:space="preserve" font-family="Lunchtype" font-size="36.0" fill="#252525" transform="matrix(1.00, 0.00, -0.00, -1.00, 630.3, 329.0)">f</text><text xml:space="preserve" font-family="Lunchtype" font-size="36.0" fill="#252525" transform="matrix(1.00, 0.00, -0.00, -1.00, 641.8, 329.0)">r</text><text xml:space="preserve" font-family="Lunchtype" font-size="36.0" fill="#252525" transform="matrix(1.00, 0.00, -0.00, -1.00, 654.6, 329.0)">o</text><text xml:space="preserve" font-family="Lunchtype" font-size="36.0" fill="#252525" transform="matrix(1.00, 0.00, -0.00, -1.00, 675.3, 329.0)">m</text><text xml:space="preserve" font-family="Lunchtype" font-size="36.0" fill="#252525" transform="matrix(1.00, 0.00, -0.00, -1.00, 706.4, 329.0)"> </text><text xml:space="preserve" font-family="Lunchtype" font-size="36.0" fill="#252525" transform="matrix(1.00, 0.00, -0.00, -1.00, 717.2, 329.0)">r</text><text xml:space="preserve" font-family="Lunchtype" font-size="36.0" fill="#252525" transform="matrix(1.00, 0.00, -0.00, -1.00, 730.1, 329.0)">e</text><text xml:space="preserve" font-family="Lunchtype" font-size="36.0" fill="#252525" transform="matrix(1.00, 0.00, -0.00, -1.00, 750.2, 329.0)">a</text><text xml:space="preserve" font-family="Lunchtype" font-size="36.0" fill="#252525" transform="matrix(1.00, 0.00, -0.00, -1.00, 769.4, 329.0)">l</text><text xml:space="preserve" font-family="Lunchtype" font-size="36.0" fill="#252525" transform="matrix(1.00, 0.00, -0.00, -1.00, 777.9, 329.0)">i</text><text xml:space="preserve" font-family="Lunchtype" font-size="36.0" fill="#252525" transform="matrix(1.00, 0.00, -0.00, -1.00, 785.5, 329.0)">t</text><text xml:space="preserve" font-family="Lunchtype" font-size="36.0" fill="#252525" transform="matrix(1.00, 0.00, -0.00, -1.00, 796.6, 329.0)">y</text><text xml:space="preserve" font-family="Lunchtype" font-size="36.0" fill="#252525" transform="matrix(1.00, 0.00, -0.00, -1.00, 815.7, 329.0)"> </text><text xml:space="preserve" font-family="Lunchtype" font-size="36.0" fill="#252525" transform="matrix(1.00, 0.00, -0.00, -1.00, 826.5, 329.0)">t</text><text xml:space="preserve" font-family="Lunchtype" font-size="36.0" fill="#252525" transform="matrix(1.00, 0.00, -0.00, -1.00, 837.6, 329.0)">o</text><text xml:space="preserve" font-family="Lunchtype" font-size="36.0" fill="#252525" transform="matrix(1.00, 0.00, -0.00, -1.00, 858.3, 329.0)"> </text><text xml:space="preserve" font-family="Lunchtype" font-size="36.0" fill="#252525" transform="matrix(1.00, 0.00, -0.00, -1.00, 869.1, 329.0)">t</text><text xml:space="preserve" font-family="Lunchtype" font-size="36.0" fill="#252525" transform="matrix(1.00, 0.00, -0.00, -1.00, 880.1, 329.0)">h</text><text xml:space="preserve" font-family="Lunchtype" font-size="36.0" fill="#252525" transform="matrix(1.00, 0.00, -0.00, -1.00, 899.3, 329.0)">e</text><text xml:space="preserve" font-family="Lunchtype" font-size="36.0" fill="#252525" transform="matrix(1.00, 0.00, -0.00, -1.00, 919.4, 329.0)"> </text><text xml:space="preserve" font-family="Lunchtype" font-size="36.0" fill="#252525" transform="matrix(1.00, 0.00, -0.00, -1.00, 930.2, 329.0)">m</text><text xml:space="preserve" font-family="Lunchtype" font-size="36.0" fill="#252525" transform="matrix(1.00, 0.00, -0.00, -1.00, 961.4, 329.0)">o</text><text xml:space="preserve" font-family="Lunchtype" font-size="36.0" fill="#252525" transform="matrix(1.00, 0.00, -0.00, -1.00, 982.0, 329.0)">b</text><text xml:space="preserve" font-family="Lunchtype" font-size="36.0" fill="#252525" transform="matrix(1.00, 0.00, -0.00, -1.00, 1001.7, 329.0)">i</text><text xml:space="preserve" font-family="Lunchtype" font-size="36.0" fill="#252525" transform="matrix(1.00, 0.00, -0.00, -1.00, 1009.3, 329.0)">l</text><text xml:space="preserve" font-family="Lunchtype" font-size="36.0" fill="#252525" transform="matrix(1.00, 0.00, -0.00, -1.00, 1017.8, 329.0)">e</text><text xml:space="preserve" font-family="Lunchtype" font-size="36.0" fill="#252525" transform="matrix(1.00, 0.00, -0.00, -1.00, 1037.9, 329.0)"> </text><text xml:space="preserve" font-family="Lunchtype" font-size="36.0" fill="#252525" transform="matrix(1.00, 0.00, -0.00, -1.00, 1048.7, 329.0)">r</text><text xml:space="preserve" font-family="Lunchtype" font-size="36.0" fill="#252525" transform="matrix(1.00, 0.00, -0.00, -1.00, 1061.6, 329.0)">e</text><text xml:space="preserve" font-family="Lunchtype" font-size="36.0" fill="#252525" transform="matrix(1.00, 0.00, -0.00, -1.00, 1081.7, 329.0)">a</text><text xml:space="preserve" font-family="Lunchtype" font-size="36.0" fill="#252525" transform="matrix(1.00, 0.00, -0.00, -1.00, 1100.9, 329.0)">l</text><text xml:space="preserve" font-family="Lunchtype" font-size="36.0" fill="#252525" transform="matrix(1.00, 0.00, -0.00, -1.00, 1109.4, 329.0)">i</text><text xml:space="preserve" font-family="Lunchtype" font-size="36.0" fill="#252525" transform="matrix(1.00, 0.00, -0.00, -1.00, 1117.0, 329.0)">t</text><text xml:space="preserve" font-family="Lunchtype" font-size="36.0" fill="#252525" transform="matrix(1.00, 0.00, -0.00, -1.00, 1128.1, 329.0)">y</text><text xml:space="preserve" font-family="Lunchtype" font-size="36.0" fill="#252525" transform="matrix(1.00, 0.00, -0.00, -1.00, 1147.2, 329.0)"> </text><text xml:space="preserve" font-family="Lunchtype" font-size="36.0" fill="#252525" transform="matrix(1.00, 0.00, -0.00, -1.00, 1158.0, 329.0)">i</text><text xml:space="preserve" font-family="Lunchtype" font-size="36.0" fill="#252525" transform="matrix(1.00, 0.00, -0.00, -1.00, 1165.7, 329.0)">s</text><text xml:space="preserve" font-family="Lunchtype" font-size="36.0" fill="#252525" transform="matrix(1.00, 0.00, -0.00, -1.00, 1183.2, 329.0)"> </text><text xml:space="preserve" font-family="Lunchtype" font-size="36.0" fill="#252525" transform="matrix(1.00, 0.00, -0.00, -1.00, 1194.0, 329.0)">e</text><text xml:space="preserve" font-family="Lunchtype" font-size="36.0" fill="#252525" transform="matrix(1.00, 0.00, -0.00, -1.00, 1214.2, 329.0)">a</text><text xml:space="preserve" font-family="Lunchtype" font-size="36.0" fill="#252525" transform="matrix(1.00, 0.00, -0.00, -1.00, 1233.3, 329.0)">s</text><text xml:space="preserve" font-family="Lunchtype" font-size="36.0" fill="#252525" transform="matrix(1.00, 0.00, -0.00, -1.00, 1250.9, 329.0)">y</text><text xml:space="preserve" font-family="Lunchtype" font-size="36.0" fill="#252525" transform="matrix(1.00, 0.00, -0.00, -1.00, 1270.1, 329.0)">.</text><text xml:space="preserve" font-family="Lunchtype" font-size="36.0" fill="#252525" transform="matrix(1.00, 0.00, -0.00, -1.00, 1279.6, 329.0)"> </text><text xml:space="preserve" font-family="Lunchtype" font-size="36.0" fill="#252525" transform="matrix(1.00, 0.00, -0.00, -1.00, 1290.4, 329.0)">Y</text><text xml:space="preserve" font-family="Lunchtype" font-size="36.0" fill="#252525" transform="matrix(1.00, 0.00, -0.00, -1.00, 1312.4, 329.0)">o</text><text xml:space="preserve" font-family="Lunchtype" font-size="36.0" fill="#252525" transform="matrix(1.00, 0.00, -0.00, -1.00, 1333.0, 329.0)">u</text><text xml:space="preserve" font-family="Lunchtype" font-size="36.0" fill="#252525" transform="matrix(1.00, 0.00, -0.00, -1.00, 1354.0, 329.0)"> </text><text xml:space="preserve" font-family="Lunchtype" font-size="36.0" fill="#252525" transform="matrix(1.00, 0.00, -0.00, -1.00, 1364.8, 329.0)">w</text><text xml:space="preserve" font-family="Lunchtype" font-size="36.0" fill="#252525" transform="matrix(1.00, 0.00, -0.00, -1.00, 1392.6, 329.0)">o</text><text xml:space="preserve" font-family="Lunchtype" font-size="36.0" fill="#252525" transform="matrix(1.00, 0.00, -0.00, -1.00, 1413.2, 329.0)">u</text><text xml:space="preserve" font-family="Lunchtype" font-size="36.0" fill="#252525" transform="matrix(1.00, 0.00, -0.00, -1.00, 1434.1, 329.0)">l</text><text xml:space="preserve" font-family="Lunchtype" font-size="36.0" fill="#252525" transform="matrix(1.00, 0.00, -0.00, -1.00, 1442.6, 329.0)">d</text><text xml:space="preserve" font-family="Lunchtype" font-size="36.0" fill="#252525" transform="matrix(1.00, 0.00, -0.00, -1.00, 1462.2, 329.0)">n</text><text xml:space="preserve" font-family="Lunchtype" font-size="36.0" fill="#252525" transform="matrix(1.00, 0.00, -0.00, -1.00, 1483.2, 329.0)">’</text><text xml:space="preserve" font-family="Lunchtype" font-size="36.0" fill="#252525" transform="matrix(1.00, 0.00, -0.00, -1.00, 1490.1, 329.0)">t</text><text xml:space="preserve" font-family="Lunchtype" font-size="36.0" fill="#252525" transform="matrix(1.00, 0.00, -0.00, -1.00, 1501.2, 329.0)"> </text><text xml:space="preserve" font-family="Lunchtype" font-size="36.0" fill="#252525" transform="matrix(1.00, 0.00, -0.00, -1.00, 394.0, 259.0)">w</text><text xml:space="preserve" font-family="Lunchtype" font-size="36.0" fill="#252525" transform="matrix(1.00, 0.00, -0.00, -1.00, 421.8, 259.0)">e</text><text xml:space="preserve" font-family="Lunchtype" font-size="36.0" fill="#252525" transform="matrix(1.00, 0.00, -0.00, -1.00, 441.9, 259.0)">a</text><text xml:space="preserve" font-family="Lunchtype" font-size="36.0" fill="#252525" transform="matrix(1.00, 0.00, -0.00, -1.00, 461.1, 259.0)">r</text><text xml:space="preserve" font-family="Lunchtype" font-size="36.0" fill="#252525" transform="matrix(1.00, 0.00, -0.00, -1.00, 474.0, 259.0)"> </text><text xml:space="preserve" font-family="Lunchtype" font-size="36.0" fill="#252525" transform="matrix(1.00, 0.00, -0.00, -1.00, 484.8, 259.0)">a</text><text xml:space="preserve" font-family="Lunchtype" font-size="36.0" fill="#252525" transform="matrix(1.00, 0.00, -0.00, -1.00, 503.9, 259.0)"> </text><text xml:space="preserve" font-family="Lunchtype" font-size="36.0" fill="#252525" transform="matrix(1.00, 0.00, -0.00, -1.00, 514.7, 259.0)">v</text><text xml:space="preserve" font-family="Lunchtype" font-size="36.0" fill="#252525" transform="matrix(1.00, 0.00, -0.00, -1.00, 533.5, 259.0)">i</text><text xml:space="preserve" font-family="Lunchtype" font-size="36.0" fill="#252525" transform="matrix(1.00, 0.00, -0.00, -1.00, 541.1, 259.0)">r</text><text xml:space="preserve" font-family="Lunchtype" font-size="36.0" fill="#252525" transform="matrix(1.00, 0.00, -0.00, -1.00, 554.0, 259.0)">t</text><text xml:space="preserve" font-family="Lunchtype" font-size="36.0" fill="#252525" transform="matrix(1.00, 0.00, -0.00, -1.00, 565.1, 259.0)">u</text><text xml:space="preserve" font-family="Lunchtype" font-size="36.0" fill="#252525" transform="matrix(1.00, 0.00, -0.00, -1.00, 586.0, 259.0)">a</text><text xml:space="preserve" font-family="Lunchtype" font-size="36.0" fill="#252525" transform="matrix(1.00, 0.00, -0.00, -1.00, 605.2, 259.0)">l</text><text xml:space="preserve" font-family="Lunchtype" font-size="36.0" fill="#252525" transform="matrix(1.00, 0.00, -0.00, -1.00, 613.7, 259.0)"> </text><text xml:space="preserve" font-family="Lunchtype" font-size="36.0" fill="#252525" transform="matrix(1.00, 0.00, -0.00, -1.00, 624.5, 259.0)">r</text><text xml:space="preserve" font-family="Lunchtype" font-size="36.0" fill="#252525" transform="matrix(1.00, 0.00, -0.00, -1.00, 637.3, 259.0)">e</text><text xml:space="preserve" font-family="Lunchtype" font-size="36.0" fill="#252525" transform="matrix(1.00, 0.00, -0.00, -1.00, 657.4, 259.0)">a</text><text xml:space="preserve" font-family="Lunchtype" font-size="36.0" fill="#252525" transform="matrix(1.00, 0.00, -0.00, -1.00, 676.6, 259.0)">l</text><text xml:space="preserve" font-family="Lunchtype" font-size="36.0" fill="#252525" transform="matrix(1.00, 0.00, -0.00, -1.00, 685.1, 259.0)">i</text><text xml:space="preserve" font-family="Lunchtype" font-size="36.0" fill="#252525" transform="matrix(1.00, 0.00, -0.00, -1.00, 692.7, 259.0)">t</text><text xml:space="preserve" font-family="Lunchtype" font-size="36.0" fill="#252525" transform="matrix(1.00, 0.00, -0.00, -1.00, 703.8, 259.0)">y</text><text xml:space="preserve" font-family="Lunchtype" font-size="36.0" fill="#252525" transform="matrix(1.00, 0.00, -0.00, -1.00, 723.0, 259.0)"> </text><text xml:space="preserve" font-family="Lunchtype" font-size="36.0" fill="#252525" transform="matrix(1.00, 0.00, -0.00, -1.00, 733.8, 259.0)">h</text><text xml:space="preserve" font-family="Lunchtype" font-size="36.0" fill="#252525" transform="matrix(1.00, 0.00, -0.00, -1.00, 752.9, 259.0)">e</text><text xml:space="preserve" font-family="Lunchtype" font-size="36.0" fill="#252525" transform="matrix(1.00, 0.00, -0.00, -1.00, 773.0, 259.0)">a</text><text xml:space="preserve" font-family="Lunchtype" font-size="36.0" fill="#252525" transform="matrix(1.00, 0.00, -0.00, -1.00, 792.2, 259.0)">d</text><text xml:space="preserve" font-family="Lunchtype" font-size="36.0" fill="#252525" transform="matrix(1.00, 0.00, -0.00, -1.00, 811.9, 259.0)">s</text><text xml:space="preserve" font-family="Lunchtype" font-size="36.0" fill="#252525" transform="matrix(1.00, 0.00, -0.00, -1.00, 829.4, 259.0)">e</text><text xml:space="preserve" font-family="Lunchtype" font-size="36.0" fill="#252525" transform="matrix(1.00, 0.00, -0.00, -1.00, 849.5, 259.0)">t</text><text xml:space="preserve" font-family="Lunchtype" font-size="36.0" fill="#252525" transform="matrix(1.00, 0.00, -0.00, -1.00, 860.6, 259.0)"> </text><text xml:space="preserve" font-family="Lunchtype" font-size="36.0" fill="#252525" transform="matrix(1.00, 0.00, -0.00, -1.00, 871.4, 259.0)">e</text><text xml:space="preserve" font-family="Lunchtype" font-size="36.0" fill="#252525" transform="matrix(1.00, 0.00, -0.00, -1.00, 891.6, 259.0)">v</text><text xml:space="preserve" font-family="Lunchtype" font-size="36.0" fill="#252525" transform="matrix(1.00, 0.00, -0.00, -1.00, 910.3, 259.0)">e</text><text xml:space="preserve" font-family="Lunchtype" font-size="36.0" fill="#252525" transform="matrix(1.00, 0.00, -0.00, -1.00, 930.4, 259.0)">r</text><text xml:space="preserve" font-family="Lunchtype" font-size="36.0" fill="#252525" transform="matrix(1.00, 0.00, -0.00, -1.00, 943.3, 259.0)">y</text><text xml:space="preserve" font-family="Lunchtype" font-size="36.0" fill="#252525" transform="matrix(1.00, 0.00, -0.00, -1.00, 962.4, 259.0)">w</text><text xml:space="preserve" font-family="Lunchtype" font-size="36.0" fill="#252525" transform="matrix(1.00, 0.00, -0.00, -1.00, 990.2, 259.0)">h</text><text xml:space="preserve" font-family="Lunchtype" font-size="36.0" fill="#252525" transform="matrix(1.00, 0.00, -0.00, -1.00, 1009.4, 259.0)">e</text><text xml:space="preserve" font-family="Lunchtype" font-size="36.0" fill="#252525" transform="matrix(1.00, 0.00, -0.00, -1.00, 1029.5, 259.0)">r</text><text xml:space="preserve" font-family="Lunchtype" font-size="36.0" fill="#252525" transform="matrix(1.00, 0.00, -0.00, -1.00, 1042.4, 259.0)">e</text><text xml:space="preserve" font-family="Lunchtype" font-size="36.0" fill="#252525" transform="matrix(1.00, 0.00, -0.00, -1.00, 1062.5, 259.0)"> </text><text xml:space="preserve" font-family="Lunchtype" font-size="36.0" fill="#252525" transform="matrix(1.00, 0.00, -0.00, -1.00, 1073.3, 259.0)">y</text><text xml:space="preserve" font-family="Lunchtype" font-size="36.0" fill="#252525" transform="matrix(1.00, 0.00, -0.00, -1.00, 1092.4, 259.0)">o</text><text xml:space="preserve" font-family="Lunchtype" font-size="36.0" fill="#252525" transform="matrix(1.00, 0.00, -0.00, -1.00, 1113.1, 259.0)">u</text><text xml:space="preserve" font-family="Lunchtype" font-size="36.0" fill="#252525" transform="matrix(1.00, 0.00, -0.00, -1.00, 1134.0, 259.0)"> </text><text xml:space="preserve" font-family="Lunchtype" font-size="36.0" fill="#252525" transform="matrix(1.00, 0.00, -0.00, -1.00, 1144.8, 259.0)">g</text><text xml:space="preserve" font-family="Lunchtype" font-size="36.0" fill="#252525" transform="matrix(1.00, 0.00, -0.00, -1.00, 1165.7, 259.0)">o</text><text xml:space="preserve" font-family="Lunchtype" font-size="36.0" fill="#252525" transform="matrix(1.00, 0.00, -0.00, -1.00, 1186.3, 259.0)">,</text><text xml:space="preserve" font-family="Lunchtype" font-size="36.0" fill="#252525" transform="matrix(1.00, 0.00, -0.00, -1.00, 1194.4, 259.0)"> </text><text xml:space="preserve" font-family="Lunchtype" font-size="36.0" fill="#252525" transform="matrix(1.00, 0.00, -0.00, -1.00, 1205.2, 259.0)">b</text><text xml:space="preserve" font-family="Lunchtype" font-size="36.0" fill="#252525" transform="matrix(1.00, 0.00, -0.00, -1.00, 1224.8, 259.0)">u</text><text xml:space="preserve" font-family="Lunchtype" font-size="36.0" fill="#252525" transform="matrix(1.00, 0.00, -0.00, -1.00, 1245.8, 259.0)">t</text><text xml:space="preserve" font-family="Lunchtype" font-size="36.0" fill="#252525" transform="matrix(1.00, 0.00, -0.00, -1.00, 1256.9, 259.0)"> </text><text xml:space="preserve" font-family="Lunchtype" font-size="36.0" fill="#252525" transform="matrix(1.00, 0.00, -0.00, -1.00, 1267.7, 259.0)">y</text><text xml:space="preserve" font-family="Lunchtype" font-size="36.0" fill="#252525" transform="matrix(1.00, 0.00, -0.00, -1.00, 1286.8, 259.0)">o</text><text xml:space="preserve" font-family="Lunchtype" font-size="36.0" fill="#252525" transform="matrix(1.00, 0.00, -0.00, -1.00, 1307.5, 259.0)">u</text><text xml:space="preserve" font-family="Lunchtype" font-size="36.0" fill="#252525" transform="matrix(1.00, 0.00, -0.00, -1.00, 1328.4, 259.0)"> </text><text xml:space="preserve" font-family="Lunchtype" font-size="36.0" fill="#252525" transform="matrix(1.00, 0.00, -0.00, -1.00, 1339.2, 259.0)">t</text><text xml:space="preserve" font-family="Lunchtype" font-size="36.0" fill="#252525" transform="matrix(1.00, 0.00, -0.00, -1.00, 1350.3, 259.0)">a</text><text xml:space="preserve" font-family="Lunchtype" font-size="36.0" fill="#252525" transform="matrix(1.00, 0.00, -0.00, -1.00, 1369.5, 259.0)">k</text><text xml:space="preserve" font-family="Lunchtype" font-size="36.0" fill="#252525" transform="matrix(1.00, 0.00, -0.00, -1.00, 1388.0, 259.0)">e</text><text xml:space="preserve" font-family="Lunchtype" font-size="36.0" fill="#252525" transform="matrix(1.00, 0.00, -0.00, -1.00, 1408.1, 259.0)"> </text><text xml:space="preserve" font-family="Lunchtype" font-size="36.0" fill="#252525" transform="matrix(1.00, 0.00, -0.00, -1.00, 1418.9, 259.0)">y</text><text xml:space="preserve" font-family="Lunchtype" font-size="36.0" fill="#252525" transform="matrix(1.00, 0.00, -0.00, -1.00, 1438.1, 259.0)">o</text><text xml:space="preserve" font-family="Lunchtype" font-size="36.0" fill="#252525" transform="matrix(1.00, 0.00, -0.00, -1.00, 1458.7, 259.0)">u</text><text xml:space="preserve" font-family="Lunchtype" font-size="36.0" fill="#252525" transform="matrix(1.00, 0.00, -0.00, -1.00, 1479.7, 259.0)">r</text><text xml:space="preserve" font-family="Lunchtype" font-size="36.0" fill="#252525" transform="matrix(1.00, 0.00, -0.00, -1.00, 1492.5, 259.0)"> </text><text xml:space="preserve" font-family="Lunchtype" font-size="36.0" fill="#252525" transform="matrix(1.00, 0.00, -0.00, -1.00, 394.0, 189.0)">p</text><text xml:space="preserve" font-family="Lunchtype" font-size="36.0" fill="#252525" transform="matrix(1.00, 0.00, -0.00, -1.00, 413.7, 189.0)">h</text><text xml:space="preserve" font-family="Lunchtype" font-size="36.0" fill="#252525" transform="matrix(1.00, 0.00, -0.00, -1.00, 432.8, 189.0)">o</text><text xml:space="preserve" font-family="Lunchtype" font-size="36.0" fill="#252525" transform="matrix(1.00, 0.00, -0.00, -1.00, 453.5, 189.0)">n</text><text xml:space="preserve" font-family="Lunchtype" font-size="36.0" fill="#252525" transform="matrix(1.00, 0.00, -0.00, -1.00, 474.5, 189.0)">e</text><text xml:space="preserve" font-family="Lunchtype" font-size="36.0" fill="#252525" transform="matrix(1.00, 0.00, -0.00, -1.00, 494.6, 189.0)"> </text><text xml:space="preserve" font-family="Lunchtype" font-size="36.0" fill="#252525" transform="matrix(1.00, 0.00, -0.00, -1.00, 505.4, 189.0)">w</text><text xml:space="preserve" font-family="Lunchtype" font-size="36.0" fill="#252525" transform="matrix(1.00, 0.00, -0.00, -1.00, 533.2, 189.0)">i</text><text xml:space="preserve" font-family="Lunchtype" font-size="36.0" fill="#252525" transform="matrix(1.00, 0.00, -0.00, -1.00, 540.8, 189.0)">t</text><text xml:space="preserve" font-family="Lunchtype" font-size="36.0" fill="#252525" transform="matrix(1.00, 0.00, -0.00, -1.00, 551.9, 189.0)">h</text><text xml:space="preserve" font-family="Lunchtype" font-size="36.0" fill="#252525" transform="matrix(1.00, 0.00, -0.00, -1.00, 571.0, 189.0)"> </text><text xml:space="preserve" font-family="Lunchtype" font-size="36.0" fill="#252525" transform="matrix(1.00, 0.00, -0.00, -1.00, 581.8, 189.0)">y</text><text xml:space="preserve" font-family="Lunchtype" font-size="36.0" fill="#252525" transform="matrix(1.00, 0.00, -0.00, -1.00, 601.0, 189.0)">o</text><text xml:space="preserve" font-family="Lunchtype" font-size="36.0" fill="#252525" transform="matrix(1.00, 0.00, -0.00, -1.00, 621.6, 189.0)">u</text><text xml:space="preserve" font-family="Lunchtype" font-size="36.0" fill="#252525" transform="matrix(1.00, 0.00, -0.00, -1.00, 642.6, 189.0)"> </text><text xml:space="preserve" font-family="Lunchtype" font-size="36.0" fill="#252525" transform="matrix(1.00, 0.00, -0.00, -1.00, 653.4, 189.0)">e</text><text xml:space="preserve" font-family="Lunchtype" font-size="36.0" fill="#252525" transform="matrix(1.00, 0.00, -0.00, -1.00, 673.5, 189.0)">v</text><text xml:space="preserve" font-family="Lunchtype" font-size="36.0" fill="#252525" transform="matrix(1.00, 0.00, -0.00, -1.00, 692.3, 189.0)">e</text><text xml:space="preserve" font-family="Lunchtype" font-size="36.0" fill="#252525" transform="matrix(1.00, 0.00, -0.00, -1.00, 712.4, 189.0)">r</text><text xml:space="preserve" font-family="Lunchtype" font-size="36.0" fill="#252525" transform="matrix(1.00, 0.00, -0.00, -1.00, 725.2, 189.0)">y</text><text xml:space="preserve" font-family="Lunchtype" font-size="36.0" fill="#252525" transform="matrix(1.00, 0.00, -0.00, -1.00, 744.4, 189.0)">w</text><text xml:space="preserve" font-family="Lunchtype" font-size="36.0" fill="#252525" transform="matrix(1.00, 0.00, -0.00, -1.00, 772.2, 189.0)">h</text><text xml:space="preserve" font-family="Lunchtype" font-size="36.0" fill="#252525" transform="matrix(1.00, 0.00, -0.00, -1.00, 791.3, 189.0)">e</text><text xml:space="preserve" font-family="Lunchtype" font-size="36.0" fill="#252525" transform="matrix(1.00, 0.00, -0.00, -1.00, 811.5, 189.0)">r</text><text xml:space="preserve" font-family="Lunchtype" font-size="36.0" fill="#252525" transform="matrix(1.00, 0.00, -0.00, -1.00, 824.3, 189.0)">e</text><text xml:space="preserve" font-family="Lunchtype" font-size="36.0" fill="#252525" transform="matrix(1.00, 0.00, -0.00, -1.00, 844.4, 189.0)"> </text><text xml:space="preserve" font-family="Lunchtype" font-size="36.0" fill="#252525" transform="matrix(1.00, 0.00, -0.00, -1.00, 855.2, 189.0)">y</text><text xml:space="preserve" font-family="Lunchtype" font-size="36.0" fill="#252525" transform="matrix(1.00, 0.00, -0.00, -1.00, 874.4, 189.0)">o</text><text xml:space="preserve" font-family="Lunchtype" font-size="36.0" fill="#252525" transform="matrix(1.00, 0.00, -0.00, -1.00, 895.0, 189.0)">u</text><text xml:space="preserve" font-family="Lunchtype" font-size="36.0" fill="#252525" transform="matrix(1.00, 0.00, -0.00, -1.00, 916.0, 189.0)"> </text><text xml:space="preserve" font-family="Lunchtype" font-size="36.0" fill="#252525" transform="matrix(1.00, 0.00, -0.00, -1.00, 926.8, 189.0)">g</text><text xml:space="preserve" font-family="Lunchtype" font-size="36.0" fill="#252525" transform="matrix(1.00, 0.00, -0.00, -1.00, 947.6, 189.0)">o</text><text xml:space="preserve" font-family="Lunchtype" font-size="36.0" fill="#252525" transform="matrix(1.00, 0.00, -0.00, -1.00, 968.3, 189.0)">.</text><text xml:space="preserve" font-family="Helvetica" font-size="18.0" fill="#BEBEBE" transform="matrix(1.00, 0.00, -0.00, -1.00, 1812.0, 62.0)">2</text><text xml:space="preserve" font-family="Helvetica" font-size="18.0" fill="#BEBEBE" transform="matrix(1.00, 0.00, -0.00, -1.00, 1822.0, 62.0)">7</text><g><clipPath id="clip-215"><path d="M 570.0 950.0 L 1350.0 950.0 L 1350.0 525.0 L 570.0 525.0 Z M 570.3 950.4 "></path></clipPath><g clip-path="url(#clip-215)"><image xlink:href="../../24E143B4-307A-4B65-A6BB-568C2F1B0EAD/assets/26C12E9797DD5F356206B2B08CCFB38B.png" width="780.00" height="439.00" transform="matrix(1.00, 0.00, -0.00, -1.00, 570.0, 950.0)"></image></g></g></g></svg>