<?xml version="1.0" encoding="UTF-8"?><svg xmlns="http://www.w3.org/2000/svg" xmlns:xlink="http://www.w3.org/1999/xlink" clip-rule="evenodd" stroke-miterlimit="4.00" viewBox="0 0 1920 1080"><desc>SVG generated by Keynote</desc><defs></defs><g transform="matrix(1.00, 0.00, -0.00, -1.00, 0.0, 1080.0)"><path d="M 0.0 0.0 L 1920.0 0.0 L 1920.0 1080.0 L 0.0 1080.0 Z M 0.0 0.0 " fill="#FEFFFF"></path><text xml:space="preserve" font-family="Helvetica-Bold" font-weight="bold" font-size="18.0" fill="#FEFFFE" transform="matrix(1.00, 0.00, -0.00, -1.00, 90.0, 980.0)">S</text><text xml:space="preserve" font-family="Helvetica-Bold" font-weight="bold" font-size="18.0" fill="#FEFFFE" transform="matrix(1.00, 0.00, -0.00, -1.00, 102.0, 980.0)">E</text><text xml:space="preserve" font-family="Helvetica-Bold" font-weight="bold" font-size="18.0" fill="#FEFFFE" transform="matrix(1.00, 0.00, -0.00, -1.00, 114.0, 980.0)">C</text><text xml:space="preserve" font-family="Helvetica-Bold" font-weight="bold" font-size="18.0" fill="#FEFFFE" transform="matrix(1.00, 0.00, -0.00, -1.00, 127.0, 980.0)">T</text><text xml:space="preserve" font-family="Helvetica-Bold" font-weight="bold" font-size="18.0" fill="#FEFFFE" transform="matrix(1.00, 0.00, -0.00, -1.00, 138.0, 980.0)">I</text><text xml:space="preserve" font-family="Helvetica-Bold" font-weight="bold" font-size="18.0" fill="#FEFFFE" transform="matrix(1.00, 0.00, -0.00, -1.00, 143.0, 980.0)">O</text><text xml:space="preserve" font-family="Helvetica-Bold" font-weight="bold" font-size="18.0" fill="#FEFFFE" transform="matrix(1.00, 0.00, -0.00, -1.00, 157.0, 980.0)">N</text><text xml:space="preserve" font-family="Helvetica" font-size="18.0" fill="#BEBEBE" transform="matrix(1.00, 0.00, -0.00, -1.00, 1812.0, 62.0)">1</text><text xml:space="preserve" font-family="Helvetica" font-size="18.0" fill="#BEBEBE" transform="matrix(1.00, 0.00, -0.00, -1.00, 1822.0, 62.0)">5</text><g><clipPath id="clip-288"><path d="M 130.0 966.0 L 476.0 966.0 L 476.0 212.0 L 130.0 212.0 Z M 130.4 965.8 "></path></clipPath><g clip-path="url(#clip-288)"><g><clipPath id="clip-289"><path d="M 130.4 211.9 L 476.4 211.9 L 476.4 965.8 L 130.4 965.8 Z M 130.4 211.9 "></path></clipPath><g clip-path="url(#clip-289)"><image xlink:href="../../A5E35C1E-4BA6-4717-AFB6-46C48BB4105D/assets/7D2E4226E0F87AFAF13BBF1B5F2E5272.png" width="849.00" height="540.00" transform="matrix(1.45, 0.00, -0.00, -1.45, 80.0, 966.0)"></image></g></g></g></g><g><clipPath id="clip-290"><path d="M 573.0 966.0 L 919.0 966.0 L 919.0 212.0 L 573.0 212.0 Z M 573.1 965.8 "></path></clipPath><g clip-path="url(#clip-290)"><g><clipPath id="clip-291"><path d="M 573.1 211.9 L 919.1 211.9 L 919.1 965.8 L 573.1 965.8 Z M 573.1 211.9 "></path></clipPath><g clip-path="url(#clip-291)"><image xlink:href="../../A5E35C1E-4BA6-4717-AFB6-46C48BB4105D/assets/7D2E4226E0F87AFAF13BBF1B5F2E5272.png" width="849.00" height="540.00" transform="matrix(1.45, 0.00, -0.00, -1.45, 522.0, 966.0)"></image></g></g></g></g><g><clipPath id="clip-292"><path d="M 611.2 333.5 L 882.1 333.5 L 882.1 815.3 L 611.2 815.3 Z M 611.2 333.5 "></path></clipPath><g clip-path="url(#clip-292)"><image xlink:href="../../A5E35C1E-4BA6-4717-AFB6-46C48BB4105D/assets/EDFAC14CF5222B4CCABF5CD8EDA40522.png" width="271.00" height="482.00" transform="matrix(1.00, 0.00, -0.00, -1.00, 611.0, 815.0)"></image></g></g><g><clipPath id="clip-293"><path d="M 1016.0 966.0 L 1362.0 966.0 L 1362.0 212.0 L 1016.0 212.0 Z M 1015.7 965.8 "></path></clipPath><g clip-path="url(#clip-293)"><g><clipPath id="clip-294"><path d="M 1015.7 211.9 L 1361.8 211.9 L 1361.8 965.8 L 1015.7 965.8 Z M 1015.7 211.9 "></path></clipPath><g clip-path="url(#clip-294)"><image xlink:href="../../A5E35C1E-4BA6-4717-AFB6-46C48BB4105D/assets/7D2E4226E0F87AFAF13BBF1B5F2E5272.png" width="849.00" height="540.00" transform="matrix(1.45, 0.00, -0.00, -1.45, 965.0, 966.0)"></image></g></g></g></g><g><clipPath id="clip-295"><path d="M 1054.4 332.5 L 1325.6 332.5 L 1325.6 814.9 L 1054.4 814.9 Z M 1054.4 332.5 "></path></clipPath><g clip-path="url(#clip-295)"><image xlink:href="../../A5E35C1E-4BA6-4717-AFB6-46C48BB4105D/assets/1E522AA802D89A175C7265C396D6CA4C.png" width="271.00" height="483.00" transform="matrix(1.00, 0.00, -0.00, -1.00, 1054.0, 815.0)"></image></g></g><g><clipPath id="clip-296"><path d="M 1458.0 966.0 L 1804.0 966.0 L 1804.0 212.0 L 1458.0 212.0 Z M 1458.4 965.8 "></path></clipPath><g clip-path="url(#clip-296)"><g><clipPath id="clip-297"><path d="M 1458.4 211.9 L 1804.4 211.9 L 1804.4 965.8 L 1458.4 965.8 Z M 1458.4 211.9 "></path></clipPath><g clip-path="url(#clip-297)"><image xlink:href="../../A5E35C1E-4BA6-4717-AFB6-46C48BB4105D/assets/7D2E4226E0F87AFAF13BBF1B5F2E5272.png" width="849.00" height="540.00" transform="matrix(1.45, 0.00, -0.00, -1.45, 1408.0, 966.0)"></image></g></g></g></g><g><clipPath id="clip-298"><path d="M 1496.6 332.5 L 1767.8 332.5 L 1767.8 814.9 L 1496.6 814.9 Z M 1496.6 332.5 "></path></clipPath><g clip-path="url(#clip-298)"><image xlink:href="../../A5E35C1E-4BA6-4717-AFB6-46C48BB4105D/assets/515E5F706F0A86F71942146CB1EDA726.png" width="271.00" height="483.00" transform="matrix(1.00, 0.00, -0.00, -1.00, 1497.0, 815.0)"></image></g></g><g><clipPath id="clip-299"><path d="M 44.7 225.4 L 1856.5 225.4 L 1856.5 452.1 L 44.7 452.1 Z M 44.7 225.4 "></path></clipPath><g clip-path="url(#clip-299)"><path d="M 48.7 448.1 L 1852.5 448.1 L 1852.5 229.4 L 48.7 229.4 Z M 48.7 448.1 " fill="#FF0020" fill-opacity="0.10"></path><path d="M 0.0 0.0 L 1803.8 0.0 L 1803.8 218.7 L 0.0 218.7 Z M 0.0 0.0 " fill="none" stroke="#FF003D" stroke-width="6.00" transform="matrix(1.00, 0.00, 0.00, -1.00, 48.7, 448.1)"></path></g></g><g><clipPath id="clip-300"><path d="M 194.4 139.8 L 412.4 139.8 L 412.4 195.3 L 194.4 195.3 Z M 194.4 139.8 "></path></clipPath><g clip-path="url(#clip-300)"><text xml:space="preserve" font-family="Lunchtype" font-size="24.0" fill="#808080" transform="matrix(1.00, 0.00, -0.00, -1.00, 208.0, 166.0)">9</text><text xml:space="preserve" font-family="Lunchtype" font-size="24.0" fill="#808080" transform="matrix(1.00, 0.00, -0.00, -1.00, 221.6, 166.0)"> </text><text xml:space="preserve" font-family="Lunchtype" font-size="24.0" fill="#808080" transform="matrix(1.00, 0.00, -0.00, -1.00, 228.8, 166.0)">a</text><text xml:space="preserve" font-family="Lunchtype" font-size="24.0" fill="#808080" transform="matrix(1.00, 0.00, -0.00, -1.00, 241.6, 166.0)">c</text><text xml:space="preserve" font-family="Lunchtype" font-size="24.0" fill="#808080" transform="matrix(1.00, 0.00, -0.00, -1.00, 254.8, 166.0)">t</text><text xml:space="preserve" font-family="Lunchtype" font-size="24.0" fill="#808080" transform="matrix(1.00, 0.00, -0.00, -1.00, 262.2, 166.0)">i</text><text xml:space="preserve" font-family="Lunchtype" font-size="24.0" fill="#808080" transform="matrix(1.00, 0.00, -0.00, -1.00, 267.3, 166.0)">o</text><text xml:space="preserve" font-family="Lunchtype" font-size="24.0" fill="#808080" transform="matrix(1.00, 0.00, -0.00, -1.00, 281.0, 166.0)">n</text><text xml:space="preserve" font-family="Lunchtype" font-size="24.0" fill="#808080" transform="matrix(1.00, 0.00, -0.00, -1.00, 295.0, 166.0)">s</text><text xml:space="preserve" font-family="Lunchtype" font-size="24.0" fill="#808080" transform="matrix(1.00, 0.00, -0.00, -1.00, 306.7, 166.0)"> </text><text xml:space="preserve" font-family="Lunchtype" font-size="24.0" fill="#808080" transform="matrix(1.00, 0.00, -0.00, -1.00, 313.9, 166.0)">b</text><text xml:space="preserve" font-family="Lunchtype" font-size="24.0" fill="#808080" transform="matrix(1.00, 0.00, -0.00, -1.00, 327.0, 166.0)">l</text><text xml:space="preserve" font-family="Lunchtype" font-size="24.0" fill="#808080" transform="matrix(1.00, 0.00, -0.00, -1.00, 332.7, 166.0)">o</text><text xml:space="preserve" font-family="Lunchtype" font-size="24.0" fill="#808080" transform="matrix(1.00, 0.00, -0.00, -1.00, 346.4, 166.0)">c</text><text xml:space="preserve" font-family="Lunchtype" font-size="24.0" fill="#808080" transform="matrix(1.00, 0.00, -0.00, -1.00, 359.6, 166.0)">k</text><text xml:space="preserve" font-family="Lunchtype" font-size="24.0" fill="#808080" transform="matrix(1.00, 0.00, -0.00, -1.00, 371.9, 166.0)">e</text><text xml:space="preserve" font-family="Lunchtype" font-size="24.0" fill="#808080" transform="matrix(1.00, 0.00, -0.00, -1.00, 385.4, 166.0)">d</text></g></g><g><clipPath id="clip-301"><path d="M 637.1 139.8 L 855.0 139.8 L 855.0 195.3 L 637.1 195.3 Z M 637.1 139.8 "></path></clipPath><g clip-path="url(#clip-301)"><text xml:space="preserve" font-family="Lunchtype" font-size="24.0" fill="#808080" transform="matrix(1.00, 0.00, -0.00, -1.00, 651.0, 166.0)">4</text><text xml:space="preserve" font-family="Lunchtype" font-size="24.0" fill="#808080" transform="matrix(1.00, 0.00, -0.00, -1.00, 663.9, 166.0)"> </text><text xml:space="preserve" font-family="Lunchtype" font-size="24.0" fill="#808080" transform="matrix(1.00, 0.00, -0.00, -1.00, 671.1, 166.0)">a</text><text xml:space="preserve" font-family="Lunchtype" font-size="24.0" fill="#808080" transform="matrix(1.00, 0.00, -0.00, -1.00, 683.9, 166.0)">c</text><text xml:space="preserve" font-family="Lunchtype" font-size="24.0" fill="#808080" transform="matrix(1.00, 0.00, -0.00, -1.00, 697.1, 166.0)">t</text><text xml:space="preserve" font-family="Lunchtype" font-size="24.0" fill="#808080" transform="matrix(1.00, 0.00, -0.00, -1.00, 704.5, 166.0)">i</text><text xml:space="preserve" font-family="Lunchtype" font-size="24.0" fill="#808080" transform="matrix(1.00, 0.00, -0.00, -1.00, 709.6, 166.0)">o</text><text xml:space="preserve" font-family="Lunchtype" font-size="24.0" fill="#808080" transform="matrix(1.00, 0.00, -0.00, -1.00, 723.3, 166.0)">n</text><text xml:space="preserve" font-family="Lunchtype" font-size="24.0" fill="#808080" transform="matrix(1.00, 0.00, -0.00, -1.00, 737.3, 166.0)">s</text><text xml:space="preserve" font-family="Lunchtype" font-size="24.0" fill="#808080" transform="matrix(1.00, 0.00, -0.00, -1.00, 749.0, 166.0)"> </text><text xml:space="preserve" font-family="Lunchtype" font-size="24.0" fill="#808080" transform="matrix(1.00, 0.00, -0.00, -1.00, 756.2, 166.0)">b</text><text xml:space="preserve" font-family="Lunchtype" font-size="24.0" fill="#808080" transform="matrix(1.00, 0.00, -0.00, -1.00, 769.3, 166.0)">l</text><text xml:space="preserve" font-family="Lunchtype" font-size="24.0" fill="#808080" transform="matrix(1.00, 0.00, -0.00, -1.00, 775.0, 166.0)">o</text><text xml:space="preserve" font-family="Lunchtype" font-size="24.0" fill="#808080" transform="matrix(1.00, 0.00, -0.00, -1.00, 788.7, 166.0)">c</text><text xml:space="preserve" font-family="Lunchtype" font-size="24.0" fill="#808080" transform="matrix(1.00, 0.00, -0.00, -1.00, 801.9, 166.0)">k</text><text xml:space="preserve" font-family="Lunchtype" font-size="24.0" fill="#808080" transform="matrix(1.00, 0.00, -0.00, -1.00, 814.2, 166.0)">e</text><text xml:space="preserve" font-family="Lunchtype" font-size="24.0" fill="#808080" transform="matrix(1.00, 0.00, -0.00, -1.00, 827.7, 166.0)">d</text></g></g><g><clipPath id="clip-302"><path d="M 1079.8 139.8 L 1297.7 139.8 L 1297.7 195.3 L 1079.8 195.3 Z M 1079.8 139.8 "></path></clipPath><g clip-path="url(#clip-302)"><text xml:space="preserve" font-family="Lunchtype" font-size="24.0" fill="#808080" transform="matrix(1.00, 0.00, -0.00, -1.00, 1094.0, 166.0)">5</text><text xml:space="preserve" font-family="Lunchtype" font-size="24.0" fill="#808080" transform="matrix(1.00, 0.00, -0.00, -1.00, 1107.2, 166.0)"> </text><text xml:space="preserve" font-family="Lunchtype" font-size="24.0" fill="#808080" transform="matrix(1.00, 0.00, -0.00, -1.00, 1114.4, 166.0)">a</text><text xml:space="preserve" font-family="Lunchtype" font-size="24.0" fill="#808080" transform="matrix(1.00, 0.00, -0.00, -1.00, 1127.2, 166.0)">c</text><text xml:space="preserve" font-family="Lunchtype" font-size="24.0" fill="#808080" transform="matrix(1.00, 0.00, -0.00, -1.00, 1140.4, 166.0)">t</text><text xml:space="preserve" font-family="Lunchtype" font-size="24.0" fill="#808080" transform="matrix(1.00, 0.00, -0.00, -1.00, 1147.8, 166.0)">i</text><text xml:space="preserve" font-family="Lunchtype" font-size="24.0" fill="#808080" transform="matrix(1.00, 0.00, -0.00, -1.00, 1152.8, 166.0)">o</text><text xml:space="preserve" font-family="Lunchtype" font-size="24.0" fill="#808080" transform="matrix(1.00, 0.00, -0.00, -1.00, 1166.6, 166.0)">n</text><text xml:space="preserve" font-family="Lunchtype" font-size="24.0" fill="#808080" transform="matrix(1.00, 0.00, -0.00, -1.00, 1180.6, 166.0)">s</text><text xml:space="preserve" font-family="Lunchtype" font-size="24.0" fill="#808080" transform="matrix(1.00, 0.00, -0.00, -1.00, 1192.3, 166.0)"> </text><text xml:space="preserve" font-family="Lunchtype" font-size="24.0" fill="#808080" transform="matrix(1.00, 0.00, -0.00, -1.00, 1199.5, 166.0)">b</text><text xml:space="preserve" font-family="Lunchtype" font-size="24.0" fill="#808080" transform="matrix(1.00, 0.00, -0.00, -1.00, 1212.6, 166.0)">l</text><text xml:space="preserve" font-family="Lunchtype" font-size="24.0" fill="#808080" transform="matrix(1.00, 0.00, -0.00, -1.00, 1218.3, 166.0)">o</text><text xml:space="preserve" font-family="Lunchtype" font-size="24.0" fill="#808080" transform="matrix(1.00, 0.00, -0.00, -1.00, 1232.0, 166.0)">c</text><text xml:space="preserve" font-family="Lunchtype" font-size="24.0" fill="#808080" transform="matrix(1.00, 0.00, -0.00, -1.00, 1245.2, 166.0)">k</text><text xml:space="preserve" font-family="Lunchtype" font-size="24.0" fill="#808080" transform="matrix(1.00, 0.00, -0.00, -1.00, 1257.5, 166.0)">e</text><text xml:space="preserve" font-family="Lunchtype" font-size="24.0" fill="#808080" transform="matrix(1.00, 0.00, -0.00, -1.00, 1271.0, 166.0)">d</text></g></g><g><clipPath id="clip-303"><path d="M 1522.4 139.8 L 1740.4 139.8 L 1740.4 195.3 L 1522.4 195.3 Z M 1522.4 139.8 "></path></clipPath><g clip-path="url(#clip-303)"><text xml:space="preserve" font-family="Lunchtype" font-size="24.0" fill="#808080" transform="matrix(1.00, 0.00, -0.00, -1.00, 1536.0, 166.0)">5</text><text xml:space="preserve" font-family="Lunchtype" font-size="24.0" fill="#808080" transform="matrix(1.00, 0.00, -0.00, -1.00, 1549.2, 166.0)"> </text><text xml:space="preserve" font-family="Lunchtype" font-size="24.0" fill="#808080" transform="matrix(1.00, 0.00, -0.00, -1.00, 1556.4, 166.0)">a</text><text xml:space="preserve" font-family="Lunchtype" font-size="24.0" fill="#808080" transform="matrix(1.00, 0.00, -0.00, -1.00, 1569.2, 166.0)">c</text><text xml:space="preserve" font-family="Lunchtype" font-size="24.0" fill="#808080" transform="matrix(1.00, 0.00, -0.00, -1.00, 1582.4, 166.0)">t</text><text xml:space="preserve" font-family="Lunchtype" font-size="24.0" fill="#808080" transform="matrix(1.00, 0.00, -0.00, -1.00, 1589.8, 166.0)">i</text><text xml:space="preserve" font-family="Lunchtype" font-size="24.0" fill="#808080" transform="matrix(1.00, 0.00, -0.00, -1.00, 1594.8, 166.0)">o</text><text xml:space="preserve" font-family="Lunchtype" font-size="24.0" fill="#808080" transform="matrix(1.00, 0.00, -0.00, -1.00, 1608.6, 166.0)">n</text><text xml:space="preserve" font-family="Lunchtype" font-size="24.0" fill="#808080" transform="matrix(1.00, 0.00, -0.00, -1.00, 1622.6, 166.0)">s</text><text xml:space="preserve" font-family="Lunchtype" font-size="24.0" fill="#808080" transform="matrix(1.00, 0.00, -0.00, -1.00, 1634.3, 166.0)"> </text><text xml:space="preserve" font-family="Lunchtype" font-size="24.0" fill="#808080" transform="matrix(1.00, 0.00, -0.00, -1.00, 1641.5, 166.0)">b</text><text xml:space="preserve" font-family="Lunchtype" font-size="24.0" fill="#808080" transform="matrix(1.00, 0.00, -0.00, -1.00, 1654.6, 166.0)">l</text><text xml:space="preserve" font-family="Lunchtype" font-size="24.0" fill="#808080" transform="matrix(1.00, 0.00, -0.00, -1.00, 1660.3, 166.0)">o</text><text xml:space="preserve" font-family="Lunchtype" font-size="24.0" fill="#808080" transform="matrix(1.00, 0.00, -0.00, -1.00, 1674.0, 166.0)">c</text><text xml:space="preserve" font-family="Lunchtype" font-size="24.0" fill="#808080" transform="matrix(1.00, 0.00, -0.00, -1.00, 1687.2, 166.0)">k</text><text xml:space="preserve" font-family="Lunchtype" font-size="24.0" fill="#808080" transform="matrix(1.00, 0.00, -0.00, -1.00, 1699.5, 166.0)">e</text><text xml:space="preserve" font-family="Lunchtype" font-size="24.0" fill="#808080" transform="matrix(1.00, 0.00, -0.00, -1.00, 1713.0, 166.0)">d</text></g></g></g></svg>